<?xml version="1.0" encoding="UTF-8"?><svg id="Layer_2" xmlns="http://www.w3.org/2000/svg" xmlns:xlink="http://www.w3.org/1999/xlink" viewBox="0 0 1000 1000"><defs><style>.cls-1{fill:none;}.cls-2{fill:url(#linear-gradient);}.cls-3{fill:#bc212e;}.cls-4{fill:url(#linear-gradient-8);}.cls-5{fill:url(#linear-gradient-9);}.cls-6{fill:url(#linear-gradient-3);}.cls-7{fill:url(#linear-gradient-4);}.cls-8{fill:url(#linear-gradient-2);}.cls-9{fill:url(#linear-gradient-6);}.cls-10{fill:url(#linear-gradient-7);}.cls-11{fill:url(#linear-gradient-5);}.cls-12{fill:url(#linear-gradient-10);}</style><linearGradient id="linear-gradient" x1="813.4878" y1="22959.36716" x2="2457.89207" y2="21045.49518" gradientTransform="translate(2383.21628 983.05897) rotate(-64.88864) scale(.08621 -.08621) skewX(-.28379)" gradientUnits="userSpaceOnUse"><stop offset="0" stop-color="#f39625"/><stop offset=".312" stop-color="#f39724"/><stop offset=".838" stop-color="#e87726"/></linearGradient><linearGradient id="linear-gradient-2" x1="-11244.36839" y1="23067.5099" x2="459.96768" y2="23067.5099" gradientTransform="translate(2383.21628 983.05897) rotate(-64.88864) scale(.08621 -.08621) skewX(-.28379)" gradientUnits="userSpaceOnUse"><stop offset=".323" stop-color="#9b2163"/><stop offset=".63" stop-color="#c82137"/><stop offset=".751" stop-color="#cc2235"/><stop offset="1" stop-color="#e87726"/></linearGradient><linearGradient id="linear-gradient-3" x1="-9827.96097" y1="21898.00363" x2="-2856.48816" y2="21898.00363" gradientTransform="translate(2383.21628 983.05897) rotate(-64.88864) scale(.08621 -.08621) skewX(-.28379)" gradientUnits="userSpaceOnUse"><stop offset="0" stop-color="#282960"/><stop offset=".0955" stop-color="#653188"/><stop offset=".788" stop-color="#9d2164"/><stop offset=".949" stop-color="#cc2133"/></linearGradient><linearGradient id="linear-gradient-4" x1="-10587.97538" y1="23175.65353" x2="1116.34827" y2="23175.65353" xlink:href="#linear-gradient-2"/><linearGradient id="linear-gradient-5" x1="-9731.23277" y1="23022.42558" x2="-3581.9621" y2="23022.42558" xlink:href="#linear-gradient-3"/><linearGradient id="linear-gradient-6" x1="-10587.97538" y1="21965.83748" x2="1116.34827" y2="21965.83748" xlink:href="#linear-gradient-2"/><linearGradient id="linear-gradient-7" x1="-11313.46174" y1="22023.70997" x2="390.87433" y2="22023.70997" xlink:href="#linear-gradient-2"/><linearGradient id="linear-gradient-8" x1="-10587.97538" y1="21603.67466" x2="1116.34827" y2="21603.67466" xlink:href="#linear-gradient-2"/><linearGradient id="linear-gradient-9" x1="-10587.97538" y1="21637.72358" x2="1116.34827" y2="21637.72358" xlink:href="#linear-gradient-2"/><linearGradient id="linear-gradient-10" x1="-4010.34582" y1="21646.31334" x2="-1426.26953" y2="21646.31334" xlink:href="#linear-gradient-2"/></defs><g id="Layer_1-2"><rect class="cls-1" width="1000" height="1000"/><path class="cls-2" d="m677.3256,4.5006c-15.7836,9.25888-42.05068,35.47296-73.3848,73.49211l28.71318,53.93272c20.20993-28.64453,40.71105-54.5114,61.15405-76.38551,1.63073-1.73604,2.38787-2.54619,2.38787-2.54619-.75714.81015-1.63073,1.73604-2.38787,2.54619-6.69777,7.29137-27.02423,30.90138-57.65952,77.54289,29.52874-1.44671,74.54968-7.46498,111.82452-13.71472,11.06597-61.33983-10.77478-89.11634-10.77478-89.11634,0,0-27.72306-44.55824-59.98918-25.51967l.11654-.23148Z"/><path class="cls-1" d="m628.4024,312.29926c.17476-.05788.40773-.05788.64061-.11576l-4.13523.46294-.69883.34723c1.33963-.28935,2.7956-.52082,4.19345-.69441Zm-29.121,96.63918c-2.32975.52082-4.71762.92588-7.16381,1.33095,2.44619-.40506,4.83406-.868,7.16381-1.33095Zm-199.76973,216.42545c.29129-.75229.58239-1.6203.87358-2.37259,6.34835-16.60799,12.63848-32.75317,18.81218-48.49315,6.93084-17.64963,13.80336-34.72065,20.67588-51.27081,7.16381-17.41816,14.26921-34.31559,21.20005-50.63427,7.28035-17.07093,14.50219-33.5633,21.60778-49.41914,5.76596-12.90455,11.41539-25.40393,17.00669-37.49835,1.8637-4.05077,3.7275-8.04365,5.59121-11.97866,3.66919-7.87006,7.28035-15.50851,10.89132-23.03134,3.31987-6.8863,6.58133-13.65674,9.9012-20.3694,1.10666-2.199,2.15499-4.39795,3.26155-6.59695.17476-.34723.34951-.69441.52407-1.09948l-3.55275.34723-2.7956-5.49747c-.29129.52082-.52407,1.09948-.81536,1.6203-5.00882,10.01118-10.07585,20.02222-15.02636,30.14911-2.85382,5.90254-5.70765,11.80507-8.56157,17.64963-7.86264,16.37651-15.55062,32.98464-23.18029,49.53475-7.68788,16.83946-15.20111,33.73694-22.65612,50.6921-7.22203,16.66586-14.38575,33.33183-21.31658,49.93981-6.93084,16.60799-13.74514,33.15824-20.38468,49.53475-6.93084,17.12881-13.6286,34.142-20.15171,50.92372-1.51419,3.8193-2.91214,7.58071-4.42633,11.34213-5.24179,13.54113-10.36705,26.96635-15.31755,40.16025l4.42633,8.68019,3.96048-.40506c.11654-.40506.29129-.75229.40773-1.21523,6.46479-17.24466,12.81324-34.19988,19.04505-50.6921l-.00019.00005Z"/><path class="cls-3" d="m580.64407,457.54745c-3.66919.63653-7.39669,1.33095-11.29885,1.96753,0,0-.05822,0-.05822.05788,1.98024-.28935,3.90226-.5787,5.82418-.868,1.80548-.40506,3.66919-.75229,5.53289-1.1574Z"/><path d="m580.64407,457.54745c-3.66919.63653-7.39669,1.33095-11.29885,1.96753,0,0-.05822,0-.05822.05788,1.98024-.28935,3.90226-.5787,5.82418-.868,1.80548-.40506,3.66919-.75229,5.53289-1.1574Z"/><path class="cls-3" d="m590.54517,410.67449c-.03881,0-.05822.01926-.05822.05788.58239-.05788,1.22309-.17359,1.80548-.28935,2.44619-.34723,4.83406-.75229,7.16381-1.33095-2.91214.52082-5.82418,1.04164-8.91108,1.56242Z"/><path d="m590.54517,410.67449c-.03881,0-.05822.01926-.05822.05788.58239-.05788,1.22309-.17359,1.80548-.28935,2.44619-.34723,4.83406-.75229,7.16381-1.33095-2.91214.52082-5.82418,1.04164-8.91108,1.56242Z"/><path class="cls-8" d="m548.02844,271.21323c8.73632-16.2609,17.58908-32.11662,26.50016-47.50951,9.26049-16.08719,18.69574-31.59579,28.1891-46.64148.52427-.86803,1.16488-1.79391,1.68895-2.66192,9.37693-14.75634,18.87039-28.99176,28.36386-42.53286l-28.71337-53.93272c-2.15499,2.60406-4.30999,5.26598-6.52311,8.04365-8.32849,10.30051-16.89025,21.29531-25.74301,33.0425-9.95942,13.1939-20.15171,27.31358-30.57707,42.12777-9.55168,13.65684-19.33634,27.95011-29.121,42.82221-8.32859,12.61522-16.59896,25.57752-24.86923,38.88718-.29129.46294-.58239.98376-.87358,1.50456l37.4495,73.4921c7.92096-15.91372,16.07489-31.48006,24.22863-46.64136l.00019-.00012Z"/><path class="cls-6" d="m377.37972,684.96784c-4.9506,13.4832-9.95942,27.31353-14.91001,41.37548-.05822.17359-.11654.40511-.23298.5787-.69883,1.96753-1.45607,3.99289-2.09678,5.96042-3.37809,9.49036-6.29023,18.05474-12.98799,37.44047,11.00775,4.9766,19.86051,18.1706,28.24732,33.1004-.87358-15.45068-7.28035-29.97547-19.56932-41.20194,54.33975,2.43047,101.34103-11.22637,125.22015-50.6921,2.15499-3.52995,4.13523-7.17565,5.94072-11.16854-11.00775,13.88836-24.69467,19.73282-50.37927,18.34399-.05822,0-.11654.05783-.17476.05783.05822,0,.11654-.05783.17476-.05783,37.85723-16.8395,56.78594-32.98464,73.3848-59.60381,3.96048-6.36548,7.86264-13.25178,11.82312-20.9481-33.08139,33.73694-71.05515,43.34301-111.82452,36.05165l-30.28578,3.29847c-.99012,2.54618-1.8637,5.03453-2.85382,7.58071l.52407-.11576.00029-.00005Z"/><path class="cls-7" d="m391.94012,617.8412c6.52311-16.78158,13.27909-33.79477,20.15171-50.92358,6.63955-16.43449,13.39563-32.98464,20.38468-49.53475,6.98906-16.55011,14.09465-33.274,21.31658-49.93981,7.33847-16.95522,14.91001-33.85265,22.65612-50.6921,7.62967-16.66586,15.31765-33.21612,23.18029-49.53475,2.7956-5.90254,5.70765-11.80507,8.56157-17.64963,4.9506-10.12689,9.95942-20.19581,15.02636-30.14911.29129-.52082.52407-1.09948.81536-1.6203l-37.4495-73.49212c-.58239.98376-1.22309,2.02538-1.8637,2.95127-8.73632,14.17766-17.41433,28.64453-25.91757,43.40086-8.61978,14.92995-17.06481,30.14911-25.33528,45.59989-6.93084,13.02031-13.74514,26.09835-20.4429,39.408-1.33963,2.66194-2.62085,5.38171-3.96048,8.04365-8.15393,16.72384-15.49231,32.75317-22.19017,48.31966-7.57145,17.53387-14.21099,34.31559-19.97695,50.22916-3.84394,10.47412-7.28035,20.54299-10.48349,30.26482-2.62085,8.27513-5.06704,16.60813-7.51313,24.88311-5.59121,19.44352-10.42527,38.88718-14.38575,58.44641l37.62425,74.07078c4.9506-13.1939,10.07585-26.61917,15.31765-40.16025,1.57251-3.87718,2.97036-7.69642,4.48455-11.39986v-.52092l-.00019-.00044Z"/><path class="cls-11" d="m333.69821,598.16621c-4.71762,23.61014-8.09571,47.10443-9.78466,70.59871l-.17476,2.43047c-11.7649-18.69137-43.15734-36.91965-43.09912-36.74606,22.53968,32.40594,39.60449,64.81193,42.109,96.06047-12.05609,2.43047-28.53862-1.09948-47.58367-8.04361,19.86051,18.1706,34.77043,23.1471,40.65283,24.53593-18.28791,1.1574-37.27484,13.59901-56.43643,27.95011,28.01435-11.34213,50.67047-15.85579,66.97823-12.21018-25.74292,72.33472-51.48583,152.19227-77.46172,237.25794,7.92096-2.31471,12.63848-7.63859,15.25933-14.75631,4.60109-15.33502,35.06163-116.31421,82.70351-248.25279,1.39785-3.76146,2.73738-7.58066,4.13523-11.34213.34951-1.09948.75714-2.14112,1.16488-3.12483,5.00882-13.88836,10.30873-28.06587,15.66706-42.53284,1.22309-3.29847,2.44609-6.59695,3.7275-9.89542,0-.05788.05822-.11576.05822-.17359l-37.68247-74.07078c-.11654.75229-.29129,1.6203-.46595,2.4883l.23298-.17359v.00019Z"/><path class="cls-9" d="m529.39122,323.87286c-1.10666,2.199-2.15499,4.39795-3.26155,6.59695-3.26155,6.65483-6.52311,13.42537-9.9012,20.3694-3.61097,7.52283-7.22203,15.16142-10.89132,23.03134-1.8637,3.93501-3.7275,7.92789-5.59121,11.97866-5.59121,12.09442-11.24063,24.59376-17.00669,37.49835-7.04728,15.79786-14.32753,32.29023-21.60778,49.41914-6.93084,16.31878-14.09465,33.15824-21.20005,50.63427-6.8143,16.55011-13.68682,33.67906-20.67588,51.27081-6.23191,15.6821-12.52204,31.88512-18.81218,48.49325-.29129.75229-.58239,1.6203-.87358,2.37259-6.29023,16.49227-12.63848,33.44759-18.98683,50.80796-.11654.40506-.29129.75229-.40773,1.21523l30.28578-3.29847c-.58239-.11576-1.22309-.17359-1.80548-.28935,36.16828-4.45583,84.45078-31.36435,115.31895-64.81193,14.32753-15.27714,27.31552-33.33183,39.3132-54.45352,8.91108-15.6821,17.35611-33.15824,25.3935-52.42816,6.98906-16.83946,13.68682-35.12576,20.15171-54.85863-8.32849,4.34012-17.82206,7.58071-28.30564,9.77971-1.8637.40506-3.7275.75229-5.64943,1.09948s-3.84394.63653-5.82418.868c0,0,.05822,0,.05822-.05788,33.78031-12.90455,55.03858-37.7877,70.47266-68.284-8.85276,6.0183-23.29673,13.88831-40.59461,17.64963-2.32975.52082-4.71762.92588-7.16381,1.33095-.58239.05788-1.22309.17359-1.80548.28935h.11654c11.7649-4.86089,21.60778-10.35836,30.16934-16.78158,1.8637-1.38883,3.66919-2.77765,5.29991-4.28224,2.62085-2.25683,5.06704-4.62942,7.51313-7.05989,1.51419-1.6203,2.97036-3.24059,4.42633-4.91877,3.37799-3.99289,6.52311-8.27513,9.43515-12.90455.87358-1.44671,1.80548-2.83553,2.62085-4.34012,1.16488-2.14112,2.21321-4.28224,3.26155-6.3076,4.71762-9.3746,8.50325-17.82322,11.47361-25.17246,1.51419-3.70354,2.7956-7.05989,3.96048-10.30048.46585-1.27311.87358-2.4883,1.28141-3.70354,1.22309-3.52995,2.15499-6.65483,2.91214-9.43248,1.16488-4.16648,1.8637-7.46495,2.21321-9.83754-1.16488.868-2.44619,1.79389-3.96048,2.66194-10.19239,6.07613-27.66494,11.51572-41.75949,14.11978l27.78137-3.00912-27.78137,3.00912c-.17476.05788-.40773.05788-.64061.11576-1.45607.23147-2.7956.46294-4.25167.63653l.69883-.34723-94.93427,10.35836c0,.23147-.17476.63653-.34951.98376l-.11654.28921h.00068Z"/><path class="cls-10" d="m636.55623,132.90919c-8.44503,12.90457-17.6473,27.54505-27.66494,44.15316-.52427.81015-1.10666,1.79391-1.57251,2.60406-8.56157,14.35128-17.6473,30.09123-27.31552,47.39378-8.27037,14.92981-16.89025,30.90138-25.85935,48.08819-7.80442,14.98783-15.84182,30.90141-24.17041,47.74096l94.93427-10.35836c27.72306-12.67307,40.07044-24.07299,52.06832-40.68109,3.14511-4.57156,6.40657-9.31674,9.55168-14.2934,9.78466-15.16142,19.33634-31.82729,27.89781-48.4354,8.27047-16.02943,15.55062-31.88515,21.14183-46.23642,3.55275-9.08527,6.40657-17.53387,8.38681-24.99885,1.74726-6.53909,3.0868-12.78883,4.13523-18.7491-36.86711,6.30762-82.12103,12.32589-111.82452,13.7726,0,0,.29129,0,.29129-.00012Z"/><path id="h" class="cls-3" d="m574.81989,458.7048c-1.92202.34723-3.84394.63653-5.82418.868,1.98024-.17359,3.96048-.52082,5.82418-.868Z"/><path id="h-2" class="cls-3" d="m574.81989,458.7048c-1.92202.34723-3.84394.63653-5.82418.868,1.98024-.17359,3.96048-.52082,5.82418-.868Z"/><path class="cls-4" d="m574.81989,458.7048c-1.92202.34723-3.84394.63653-5.82418.868,1.98024-.17359,3.96048-.52082,5.82418-.868Z"/><path id="j" class="cls-3" d="m590.54517,410.67449c.58239-.05788,1.22309-.17359,1.80548-.28935-.58239.05788-1.16488.23147-1.80548.28935Z"/><path id="j-2" class="cls-3" d="m590.54517,410.67449c.58239-.05788,1.22309-.17359,1.80548-.28935-.58239.05788-1.16488.23147-1.80548.28935Z"/><path class="cls-5" d="m590.54517,410.67449c.58239-.05788,1.22309-.17359,1.80548-.28935-.58239.05788-1.16488.23147-1.80548.28935Z"/><path id="l" class="cls-3" d="m590.54517,410.67449c.05822,0,.05822-.05788,0,0,.05822-.05788.05822,0,0,0Z"/><path id="l-2" class="cls-3" d="m590.54517,410.67449c.05822,0,.05822-.05788,0,0,.05822-.05788.05822,0,0,0Z"/><path class="cls-12" d="m590.54517,410.67449c.05822,0,.05822-.05788,0,0,.05822-.05788.05822,0,0,0Z"/></g></svg>