<?xml version="1.0" encoding="UTF-8"?><svg id="Layer_2" xmlns="http://www.w3.org/2000/svg" viewBox="0 0 1000 1000"><defs><style>.cls-1{fill:none;}.cls-2{fill:#e21836;fill-rule:evenodd;}</style></defs><g id="Layer_2-2"><g id="Layer_1-2"><rect class="cls-1" width="1000" height="1000"/><g id="LOGOS"><g id="Group-5"><polyline id="Fill-1" class="cls-2" points="169.28878 627.70518 135.72166 567.86084 256.99565 567.86084 196.07042 438.85259 106.80229 627.70518 0 627.70518 139.82898 372.78721 252.32388 372.78721 391.14403 627.70518 169.28878 627.70518"/><g id="Group-7"><path id="Fill-2" class="cls-2" d="m391.68447,479.61353h133.11555c33.56712,0,46.95795-2.07768,46.95795-25.80886,0-22.72235-10.84477-25.29243-45.43271-25.29243h-135.18123l-29.94019-55.72503h187.84377c88.78775,0,121.7904,38.71929,121.7904,79.98463,0,39.75211-30.44459,83.59954-127.96338,83.59954h-44.39988v91.3338h-107.33072v-148.09165h.54044"/><path id="Fill-4" class="cls-2" d="m949.00677,608.62177c-32.01788,14.96409-71.75796,22.19393-114.06816,22.19393-127.97539,0-171.84686-71.21755-171.84686-130.04108,0-74.29202,65.02053-131.59032,177.02306-131.59032,40.74892,0,76.35766,6.17299,106.28585,17.53417v73.79963c-30.93698-16.50134-57.7907-23.74318-89.28012-23.74318-53.65935,0-97.53082,24.24759-97.53082,62.94286,0,38.20287,44.90429,62.97888,98.56364,62.97888,30.98506,0,56.25348-6.18499,90.85342-22.19393v68.11904"/><path id="Fill-5" class="cls-2" d="m960.17579,390.06918c-1.03282,0-1.59729-.54044-1.59729-1.46518v-.15613c0-.92475.56447-1.41714,1.59729-1.41714h15.09621c1.03285,0,1.54928.4924,1.54928,1.41714v.15613c0,.92475-.51643,1.46518-1.54928,1.46518h-5.83671v16.89765c0,1.02083-.51643,1.54925-1.52523,1.54925h-.4444c-.96076,0-1.45313-.52843-1.45313-1.54925v-16.89765h-5.83674"/><path id="Fill-6" class="cls-2" d="m979.77564,406.96683v-18.1947c0-1.15293.78062-1.88552,1.94557-1.88552h.90069c1.33313,0,1.68138.50441,2.22179,1.71739l5.04413,11.39721,5.06805-11.39721c.54048-1.24901.93677-1.71739,2.18578-1.71739h.84069c1.22502,0,2.01767.73259,2.01767,1.88552v18.1947c0,1.02083-.4444,1.54925-1.42921,1.54925h-.46839c-.96076,0-1.34502-.52843-1.34502-1.54925v-15.68467l-4.73183,10.6406c-.34832.85269-.73265,1.44116-2.16179,1.44116-1.50117,0-1.77739-.58848-2.17375-1.44116l-4.67176-10.54452v15.58859c0,1.02083-.39636,1.54925-1.3811,1.54925h-.51643c-.93677,0-1.34509-.52843-1.34509-1.54925"/></g></g></g></g></g></svg>