<?xml version="1.0" encoding="UTF-8"?><svg id="Layer_2" xmlns="http://www.w3.org/2000/svg" viewBox="0 0 1000 1000"><defs><style>.cls-1{fill:none;}.cls-2{fill:#252f3e;}.cls-3{fill:#f39719;fill-rule:evenodd;}</style></defs><g id="Layer_1-2"><rect class="cls-1" x="0" width="1000" height="1000"/><path class="cls-2" d="m281.83279,418.78857c0,12.34792.9499,21.84632,3.7993,29.44504,2.84955,7.59872,5.6991,15.19743,10.4483,23.74601,1.89965,2.84951,1.89965,5.69903,1.89965,7.59872,0,3.79938-1.89965,6.64889-6.64885,10.44823l-20.89646,14.24761c-2.84955,1.89969-5.6991,2.84951-8.54851,2.84951-3.7993,0-6.64885-1.89969-10.4483-4.7492-4.7492-4.7492-8.54851-10.44823-12.34796-15.19743-3.7993-5.69903-6.64885-12.34792-10.4483-19.94664-25.64567,30.3949-58.89008,45.59234-97.8336,45.59234-27.54532,0-50.34158-7.59872-66.48884-23.74601-16.14726-16.1473-24.69591-37.04379-24.69591-63.63932,0-28.49522,10.4483-51.2914,30.39487-68.38853,19.94671-17.09712,47.49203-25.6457,81.68634-25.6457,11.39806,0,22.79611.94983,35.14407,2.84951,12.34796,1.89969,24.69591,4.7492,37.99362,7.59872v-24.69584c0-25.6457-5.6991-42.74282-15.19751-53.19107-10.4483-10.44825-28.49522-15.19745-54.14088-15.19745-11.39806,0-23.74601.94984-36.09397,4.7492-12.34796,2.84951-24.69591,6.64889-36.09397,11.39809-5.6991,1.89969-9.49841,3.79936-11.39806,4.7492s-3.7993.94984-5.6991.94984c-4.7492,0-6.64885-3.79936-6.64885-10.44825v-16.1473c0-5.69905.9499-9.49841,1.89965-11.39809,1.89965-1.89969,4.7492-4.7492,9.49841-6.64889,11.39806-5.69905,25.64567-11.39809,41.79293-15.19745,16.14726-4.7492,33.24442-6.64889,52.24123-6.64889,39.89327,0,68.38849,8.54856,87.3853,26.59553,18.04691,18.04697,27.54532,45.59236,27.54532,81.68629l1.90009,106.38222h0Zm-134.87733,50.34154c11.39806,0,21.84636-1.89969,34.19432-5.69903s22.79611-11.39809,31.34477-20.8965c5.6991-6.64889,9.49841-13.29778,11.39806-20.8965,1.89965-7.59872,3.7993-18.04698,3.7993-28.49522v-15.19743c-9.49841-1.89969-19.94671-4.7492-30.39487-5.69903s-20.89646-1.89969-31.34477-1.89969c-21.84636,0-38.94352,4.7492-49.39168,13.29778-11.39806,8.54858-16.14726,21.84632-16.14726,37.99362,0,15.19743,3.7993,27.54539,12.34796,35.14411,6.64871,8.54854,18.99667,12.34788,34.19417,12.34788Zm266.9051,36.09397c-5.6991,0-10.4483-.94983-12.34796-3.79938-2.84955-1.89969-4.7492-6.64889-6.64885-13.29778l-77.88689-257.40679c-1.89965-6.64889-2.84955-11.39809-2.84955-13.29776,0-5.69905,2.84955-8.54856,7.59875-8.54856h32.29452c6.64885,0,10.4483.94984,13.29771,3.79936,2.84955,1.89969,4.7492,6.64889,6.64885,13.29776l56.04053,220.36299,52.24123-220.36301c1.89965-6.64889,3.7993-11.39809,6.64885-13.29776s7.59875-3.79936,13.29771-3.79936h26.59556c6.64885,0,10.4483.94984,13.29771,3.79936,2.84955,1.89969,4.7492,6.64889,6.64885,13.29776l52.24123,223.21252,57.94033-223.21252c1.89965-6.64889,4.7492-11.39809,6.64885-13.29776,2.84955-1.89969,6.64885-3.79936,13.29771-3.79936h31.34477c5.6991,0,8.54851,2.84951,8.54851,8.54856,0,1.89969,0,3.79936-.9499,5.69905s-.9499,4.7492-1.89965,8.54856l-79.78655,257.40679c-1.89965,6.64889-4.7492,11.39809-6.64885,13.29778-2.84955,1.89969-6.64885,3.79938-12.34796,3.79938h-28.49522c-6.64885,0-10.4483-.94983-13.29771-3.79938-2.84955-1.89969-4.7492-6.64889-6.64885-13.29778l-51.29133-214.66396-51.29133,213.71414c-1.89965,6.64889-3.7993,11.39809-6.64885,13.29778s-7.59875,3.79938-13.29771,3.79938h-32.29452Zm427.42824,9.49841c-17.09716,0-34.19432-1.89969-51.29133-5.69903-17.09716-3.79938-29.44511-8.54858-37.99362-13.29778-5.6991-2.84951-8.54851-6.64889-10.4483-9.49841-.9499-2.84951-1.89965-6.64889-1.89965-9.49841v-17.09712c0-6.64889,2.84955-10.44823,7.59875-10.44823,1.89965,0,3.7993,0,5.6991.94983s4.7492,1.89969,8.54851,3.79938c11.39806,4.7492,23.74601,8.54858,37.04372,11.39809,13.29771,2.84951,26.59556,3.79938,39.89327,3.79938,20.89646,0,37.04372-3.79938,48.44192-11.39809,11.39806-7.59872,17.09716-18.04698,17.09716-31.34473,0-9.49841-2.84955-17.09712-8.54851-23.74601-5.6991-6.64889-17.09716-12.34792-33.24442-17.09712l-48.44192-15.19743c-24.69591-7.59872-41.79293-18.99681-53.19113-34.19424-11.39806-14.24761-17.09716-31.34473-17.09716-48.44187,0-14.24761,2.84955-26.59553,8.54851-37.04378,5.6991-10.44825,14.24761-19.94665,23.74601-27.54537,10.4483-7.59872,20.89646-13.29776,34.19432-17.09712,13.29771-3.79936,27.54532-5.69905,41.79293-5.69905,7.59875,0,15.19751,0,21.84636.94984,7.59875.94984,14.24761,1.89969,21.84636,3.79936,6.64885,1.89969,13.29771,3.79936,18.99681,5.69905s10.4483,3.79936,14.24761,5.69905c4.7492,2.84951,7.59875,5.69905,10.4483,8.54856,1.89965,2.84951,2.84955,6.64889,2.84955,11.39809v15.19745c0,6.64889-2.84955,10.44825-7.59875,10.44825-2.84955,0-6.64885-.94984-12.34796-3.79936-18.99681-8.54856-39.89327-13.29776-63.63929-13.29776-18.99681,0-34.19432,2.84951-44.64248,9.49841s-15.19751,16.1473-15.19751,29.44506c0,9.49841,3.7993,17.09712,10.4483,23.74601s18.99681,12.34792,37.04372,18.04698l47.49203,15.19743c23.74601,7.59872,40.84317,18.04698,51.29133,32.29459,10.4483,13.29778,15.19751,29.44504,15.19751,46.5422,0,14.24761-2.84955,27.54539-8.54851,38.94345-5.6991,11.39809-14.24761,20.8965-24.69591,29.44504-10.4483,8.54858-22.79611,14.24761-37.04372,18.99681-16.14726,4.74906-31.34477,7.59861-48.44192,7.59861Z"/><path class="cls-3" d="m903.97833,676.19537c-109.23166,80.73644-267.855,123.47927-404.63198,123.47927-191.86776,0-363.78895-71.23804-494.8669-188.06838-10.44823-9.49841-.94983-21.84632,11.39813-14.24761,140.57643,81.68627,315.34703,131.07802,494.86697,131.07802,121.57962,0,254.55729-25.64567,377.08666-76.93707,18.04677-9.49848,34.19403,11.39798,16.14712,24.69577Z"/><path class="cls-3" d="m949.57071,623.95415c-14.24761-18.04698-92.1345-8.54858-128.22847-4.7492-10.4483.94983-12.34796-7.59875-2.84955-15.19743,62.68953-43.69265,165.27219-31.34473,177.62015-17.09712,12.34796,15.19747-3.7993,117.7802-61.73963,167.17195-8.54851,7.59875-18.04691,3.79938-13.29771-6.64885,12.34781-31.34484,41.79293-105.43236,28.49522-123.47934Z"/></g></svg>