<?xml version="1.0" encoding="UTF-8"?>
<svg id="Layer_2" data-name="Layer 2" xmlns="http://www.w3.org/2000/svg" viewBox="0 0 1000 1000">
  <defs>
    <style>
      .cls-1 {
        fill: none;
      }

      .cls-1, .cls-2 {
        stroke-width: 0px;
      }

      .cls-2 {
        fill: #1b2226;
      }
    </style>
  </defs>
  <g id="Layer_2-2" data-name="Layer 2">
    <g id="Layer_2-2" data-name="Layer 2-2">
      <g id="Layer_1-2" data-name="Layer 1-2">
        <g>
          <path class="cls-2" d="M71.22,384.76c16.24,0,32.48-.26,48.72.05,53.52,1.02,86.58,40.35,77.38,93.11-2.57,14.76-3.2,28.49-.26,43.52,10.05,51.41-22.45,91.75-74.94,93.4-36.34,1.14-72.75-.15-109.11.46-10.6.18-13.63-3.55-12.9-13.44.67-9.04-.24-18.19.12-27.27,1.1-28.05,17.56-44.26,45.71-44.69,22.73-.35,45.47.07,68.2-.18,7.09-.08,14.46-.17,21.21-2.03,15.93-4.38,35.77-12.14,34.88-28.42-.83-15.22-19.91-24.64-36.55-27.53-27.02-4.68-54.44-1.63-81.68-2.06-36.81-.59-51.61-15.24-51.83-52.36q-.19-32.64,32.07-32.64c12.99,0,25.98,0,38.97,0v.07ZM180.82,520.23c-24.37,24.56-52.97,26.52-82.52,25.56-16.18-.52-32.4-.18-48.6-.1-4.52.02-9.21-.23-13.52.86-15.8,4-22.14,18.54-19.82,43.2,1.74,18.57,15.84,9.06,23.79,9.46,25.85,1.32,51.82.89,77.74.39,45.44-.88,69.62-29.72,62.94-79.37ZM180.6,478.81c7.61-47.14-16.07-77.05-59.2-78.19-30.51-.81-61.05-.3-91.58-.16-4.27.02-11.43-2.11-12.22,2.67-1.99,11.99-3.6,24.67,1.69,36.26,4.4,9.64,12.96,14.19,23.68,14.21,18.19.04,36.39.54,54.56-.06,29.66-.98,58.29,1.1,83.08,25.26Z"/>
          <path class="cls-2" d="M840.64,615.12c-16.86,0-33.73.15-50.59-.09-5.22-.08-12.78,2.69-12.97-6.82-.19-9.56,7.41-7.18,12.65-7.21,33.08-.18,66.16.03,99.23-.12,26.86-.12,46.52-17.61,46.96-41.4.46-25-18.88-43.68-46.39-44.24-19.45-.4-38.93.36-58.37-.32-31.2-1.09-52.67-22.17-52.79-50.87-.12-29.77,23.47-54.38,54.07-54.99,33.71-.66,67.45-.29,101.18-.08,5.05.03,12.99-3.04,12.73,6.85-.25,9.83-8.23,6.33-13.18,6.37-32.43.3-64.87-.3-97.28.31-27.35.51-45.06,19.22-43.29,44.22,1.42,20.02,16.25,33.72,39.69,34.82,19.41.91,38.91-.03,58.36.23,31.27.42,54.42,19.61,54.64,44.93.41,47.04-15.22,67-54.07,68.25-16.85.54-33.72.09-50.59.09v.08Z"/>
          <path class="cls-2" d="M742.2,510.55c.05,58.19-45.44,104.21-103.36,104.57-57.33.36-104.1-46.15-104.4-103.81-.3-57.36,46.15-104.3,103.63-104.72,57.05-.42,104.09,46.54,104.14,103.96ZM728.43,510.95c.02-50.15-40.1-90-90.45-89.87-49.74.13-90.54,41.31-89.98,90.84.55,48.81,40.83,88.6,89.95,88.86,50.13.26,90.46-39.78,90.48-89.83Z"/>
          <path class="cls-2" d="M490.1,530.11c0,20.09.08,40.18-.04,60.27-.04,6.19,1.59,12.68-7.63,15.27-22.57,6.35-45.03,12.56-68.71,6.99-25.9-6.09-39.45-22.71-39.86-49.94-.44-29.8-.35-59.62.08-89.42.09-5.97-4.44-15.99,7.42-16.15,10.68-.14,9.19,8.78,9.21,15.72.08,27.86,0,55.73.01,83.6.01,28.33,12.86,41.42,41.15,41.69,5.15.05,10.32-.79,15.47-1.28,18.36-1.73,28.4-8.37,26.8-30.29-2.3-31.59-.73-63.46-.46-95.22.05-5.65-3.27-13.86,7.51-14.45,12.5-.68,8.75,8.74,8.88,14.88.4,19.43.15,38.88.15,58.32Z"/>
          <path class="cls-2" d="M289.32,488.67c.02,25.29.2,50.59-.05,75.87-.16,16.63,4.36,29.75,23,32.7,8.4,1.33,8.81,6.96,7.39,12.86-1.91,7.97-8.17,4.13-12.76,3.32-19.3-3.39-32.74-16.33-33.22-37.44-1.3-57.68-.77-115.4-1.1-173.11-.03-6.1,1.18-9.7,8.49-9.59,7.22.12,8.35,3.67,8.31,9.77-.2,28.53-.09,57.07-.07,85.6Z"/>
          <path class="cls-2" d="M985.05,409.96h-2.85v-3.49h2.06c1.11,0,3.01.16,3.01,1.59,0,1.59-.95,1.9-2.21,1.9M990.91,408.06c0-3.16-1.9-4.11-6.49-4.11h-5.7v14.87h3.64v-6.17h1.11l3.49,6.17h3.64l-3.96-6.49c2.54-.16,4.27-1.11,4.27-4.27"/>
          <path class="cls-2" d="M984.73,421.78c-5.68,0-10.24-4.39-10.24-10.56s4.54-10.56,10.24-10.56,10.24,4.22,10.24,10.56-4.71,10.56-10.24,10.56M984.73,397.26c-7.8,0-15.1,5.2-15.1,14.12s7.31,14.12,15.1,14.12,15.27-5.2,15.27-14.12c-.17-8.93-7.47-14.12-15.27-14.12"/>
        </g>
        <rect class="cls-1" x="0" width="1000" height="1000"/>
      </g>
    </g>
  </g>
</svg>