<?xml version="1.0" encoding="UTF-8"?>
<svg id="Layer_2" data-name="Layer 2" xmlns="http://www.w3.org/2000/svg" viewBox="0 0 1000 1000">
  <defs>
    <style>
      .cls-1 {
        fill: none;
      }

      .cls-1, .cls-2, .cls-3 {
        stroke-width: 0px;
      }

      .cls-2 {
        fill: #8a8a8d;
      }

      .cls-3 {
        fill: #67b345;
      }
    </style>
  </defs>
  <g id="Layer_2-2" data-name="Layer 2">
    <g id="Layer_2-2" data-name="Layer 2-2">
      <g id="Layer_1-2" data-name="Layer 1-2">
        <g>
          <path class="cls-2" d="M349.15,340.77h30.61v120.68h-30.61s0-120.68,0-120.68ZM625.05,375.32c-1.31-.44-10.93-6.56-25.8-6.56-19.68,0-33.23,13.55-33.23,32.36s13.12,32.36,33.23,32.36c14.43,0,24.05-5.68,25.8-6.56v32.36c-3.94,1.31-14.43,4.37-27.55,4.37-34.11,0-64.28-23.61-64.28-62.53,0-35.85,27.11-62.53,64.28-62.53,14.43,0,24.92,3.5,27.55,4.37v32.36ZM307.61,375.32c-1.31-.44-10.93-6.56-25.36-6.56-19.68,0-33.23,13.55-33.23,32.36s13.12,32.36,33.23,32.36c14.43,0,24.05-5.68,25.36-6.56v32.36c-3.94,1.31-13.99,4.37-27.98,4.37-34.11,0-64.28-23.61-64.28-62.53,0-35.85,27.11-62.53,64.28-62.53,14.43,0,24.92,3.5,27.98,4.37v32.36ZM720.81,369.63c-17.93,0-31.48,13.99-31.48,31.48s13.55,31.92,31.48,31.92,31.48-13.99,31.48-31.92c0-17.49-13.55-31.48-31.48-31.48ZM784.22,401.11c0,34.54-26.67,62.53-63.84,62.53s-63.4-27.98-63.4-62.53,26.67-62.53,63.4-62.53c37.6,0,63.84,27.98,63.84,62.53ZM495.19,368.32c-.44,0-13.12-3.5-23.61-3.5-12.24,0-18.8,3.94-18.8,10.06,0,7.43,8.75,10.06,13.99,11.37l8.31,2.62c19.68,6.12,28.86,19.68,28.86,34.54,0,30.17-26.67,40.66-49.85,40.66-16.18,0-31.48-3.06-32.79-3.5v-27.55c2.62.87,15.3,4.37,28.86,4.37,15.3,0,22.3-4.37,22.3-11.37,0-6.12-6.12-9.62-13.55-11.81-2.19-.87-4.37-1.31-6.56-2.19-17.05-5.25-31.05-15.3-31.05-35.42,0-22.74,17.05-37.6,45.04-37.6,14.87,0,28.86,3.5,29.73,3.94v25.36h-.87ZM183.43,211.35c0-8.31-6.56-14.87-15.3-14.87s-14.87,6.56-14.87,14.87v31.48c0,3.94,1.75,7.87,4.37,10.49,2.62,2.62,6.56,4.37,10.49,4.37,2.19,0,3.94-.44,5.68-1.31s3.5-1.75,4.81-3.06c1.31-1.31,2.62-3.06,3.06-4.81.87-1.75,1.31-3.94,1.31-5.68v-31.48h.44ZM266.51,169.81c0-3.94-1.75-7.87-4.37-10.49-2.62-2.62-6.56-4.37-10.49-4.37-8.31,0-15.3,6.56-15.3,14.87v73.02c0,8.31,7,15.3,15.3,15.3,2.19,0,3.94-.44,5.68-1.31s3.5-1.75,4.81-3.06c1.31-1.31,2.62-3.06,3.06-4.81.87-1.75,1.31-3.94,1.31-5.68v-73.46ZM349.15,112.96c0-2.19-.44-3.94-1.31-5.68s-1.75-3.5-3.06-4.81c-1.31-1.31-3.06-2.62-4.81-3.06-1.75-.87-3.94-1.31-5.68-1.31-8.31,0-15.3,6.56-15.3,14.87v160.03c0,3.94,1.75,7.87,4.37,10.49,2.62,2.62,6.56,4.37,10.49,4.37,2.19,0,3.94-.44,5.68-1.31s3.5-1.75,4.81-3.5c1.31-1.31,2.62-3.06,3.06-4.81.87-1.75,1.31-3.94,1.31-5.68V112.96h.44ZM432.23,169.81c0-3.94-1.75-7.87-4.37-10.49-2.62-2.62-6.56-4.37-10.49-4.37-8.31,0-15.3,6.56-15.3,14.87v73.02c0,2.19.44,3.94,1.31,5.68.87,1.75,1.75,3.5,3.06,4.81s3.06,2.62,4.81,3.06c1.75.87,3.94,1.31,5.68,1.31,2.19,0,3.94-.44,5.68-1.31,1.75-.87,3.5-1.75,4.81-3.06s2.62-3.06,3.06-4.81c.87-1.75,1.31-3.94,1.31-5.68v-73.02h.44ZM514.87,211.35c0-8.31-6.56-14.87-14.87-14.87s-15.3,6.56-15.3,14.87v31.48c0,2.19.44,3.94,1.31,5.68.87,1.75,1.75,3.5,3.06,4.81s3.06,2.62,4.81,3.06c1.75.87,3.94,1.31,5.68,1.31,2.19,0,3.94-.44,5.68-1.31,1.75-.87,3.5-1.75,4.81-3.06s2.62-3.06,3.06-4.81c.87-1.75,1.31-3.94,1.31-5.68l.44-31.48ZM597.94,169.81c0-2.19-.44-3.94-1.31-5.68-.87-1.75-1.75-3.5-3.06-4.81s-3.06-2.62-4.81-3.06c-1.75-.87-3.94-1.31-5.68-1.31-2.19,0-3.94.44-5.68,1.31-1.75.87-3.5,1.75-4.81,3.06s-2.62,3.06-3.06,4.81c-.87,1.75-1.31,3.94-1.31,5.68v73.02c0,2.19.44,3.94,1.31,5.68.87,1.75,1.75,3.5,3.06,4.81s3.06,2.62,4.81,3.06c1.75.87,3.94,1.31,5.68,1.31,2.19,0,3.94-.44,5.68-1.31,1.75-.87,3.5-1.75,4.81-3.06s2.62-3.06,3.06-4.81c.87-1.75,1.31-3.94,1.31-5.68v-73.02ZM681.02,112.96c0-2.19-.44-3.94-1.31-5.68-.87-1.75-1.75-3.5-3.06-4.81s-3.06-2.62-4.81-3.06c-1.75-.87-3.94-1.31-5.68-1.31-3.94,0-7.87,1.75-10.49,4.37s-4.37,6.56-4.37,10.49v160.03c0,8.31,7,15.3,14.87,15.3,2.19,0,3.94-.44,5.68-1.31,1.75-.87,3.5-1.75,4.81-3.06s2.62-3.06,3.06-4.81c.87-1.75,1.31-3.94,1.31-5.68V112.96ZM764.1,169.81c0-8.31-7-14.87-15.3-14.87s-14.87,6.56-14.87,14.87v73.02c0,3.94,1.75,7.87,4.37,10.49,2.62,2.62,6.56,4.37,10.49,4.37,8.31,0,15.3-6.56,15.3-15.3v-72.58ZM846.74,211.35c0-8.31-7-14.87-15.3-14.87-2.19,0-3.94.44-5.68,1.31-1.75.87-3.5,1.75-4.81,3.06s-2.62,3.06-3.06,4.81c-.87,1.75-1.31,3.94-1.31,5.68v31.48c0,2.19.44,3.94,1.31,5.68.87,1.75,1.75,3.5,3.06,4.81s3.06,2.62,4.81,3.06c1.75.87,3.94,1.31,5.68,1.31,2.19,0,3.94-.44,5.68-1.31,1.75-.87,3.5-1.75,4.81-3.06s2.62-3.06,3.06-4.81c.87-1.75,1.31-3.94,1.31-5.68v-31.48h.44Z"/>
          <path class="cls-3" d="M113.69,896.22l-94.01-232.18v232.18H0v-258.42h29.73l94.88,236.99,89.64-236.99h28.86v258.42h-19.24v-230.43l-88.76,230.43h-21.43ZM450.81,845.5c-9.18,34.11-37.6,56.41-77.39,56.41-50.72,0-88.76-34.98-88.76-98.82s37.17-98.82,85.26-98.82,84.39,32.36,84.39,103.19h-149.98c1.75,52.91,31.92,77.39,69.09,77.39,27.98,0,49.41-15.3,56.84-39.79h20.55v.44ZM304.77,791.72h128.99c-2.62-47.66-29.3-71.27-64.28-71.27-33.67-.44-61.22,24.49-64.71,71.27ZM499.34,896.22v-186.71h15.74l3.06,35.85c10.06-28.42,28.86-41.1,52.47-41.1,7.43,0,14.87,1.31,19.24,3.06v19.24c-6.56-1.75-13.12-3.06-20.55-3.06-27.11,0-50.72,26.67-50.72,71.27v101.88l-19.24-.44h0ZM614.34,758.05c3.06-31.92,31.05-53.78,72.58-53.78s69.09,23.17,69.09,61.22v130.74h-15.74l-3.06-31.05c-11.37,19.24-32.79,36.29-66.03,36.29-36.29,0-62.53-19.68-62.53-52.91s19.24-51.16,71.71-59.9l55.97-9.18v-15.74c0-27.11-18.8-43.29-51.16-43.29-29.73,0-48.97,15.3-51.16,38.04l-19.68-.44ZM736.77,830.19v-34.98l-50.28,8.75c-44.6,7.43-57.28,21.43-57.28,43.73,0,24.92,19.24,37.6,47.22,37.6,29.73,0,60.34-22.74,60.34-55.09ZM805.86,896.22v-258.42h19.24v147.79l89.2-76.08h26.24l-95.76,81.33,107.56,104.94h-26.24l-101.44-98.82v98.82h-18.8v.44ZM976.83,664.47v-26.67h23.17v26.67h-23.17ZM978.57,896.22v-186.71h19.24v186.71h-19.24Z"/>
        </g>
        <rect class="cls-1" width="1000" height="1000"/>
      </g>
    </g>
  </g>
</svg>