<?xml version="1.0" encoding="UTF-8"?>
<svg id="Layer_2" data-name="Layer 2" xmlns="http://www.w3.org/2000/svg" viewBox="0 0 1000 1000">
  <defs>
    <style>
      .cls-1 {
        fill: none;
      }

      .cls-1, .cls-2 {
        stroke-width: 0px;
      }

      .cls-2 {
        fill: #696c71;
      }
    </style>
  </defs>
  <g id="Layer_2-2" data-name="Layer 2">
    <g id="Layer_2-2" data-name="Layer 2-2">
      <g id="Layer_1-2" data-name="Layer 1-2">
        <g>
          <g>
            <path class="cls-2" d="m985.01,560.23h-3v-3.67h2.17c1.17,0,3.17.17,3.17,1.67,0,1.67-1,2-2.33,2m6.16-2c0-3.33-2-4.33-6.83-4.33h-6v15.66h3.83v-6.5h1.17l3.67,6.5h3.83l-4.17-6.83c2.67-.17,4.5-1.17,4.5-4.5"/>
            <path class="cls-2" d="m984.34,572.39c-5.83,0-10.5-4.5-10.5-10.83s4.66-10.83,10.5-10.83,10.5,4.33,10.5,10.83-4.83,10.83-10.5,10.83m0-25.16c-8,0-15.49,5.33-15.49,14.49s7.5,14.49,15.49,14.49,15.66-5.33,15.66-14.49c-.17-9.16-7.66-14.49-15.66-14.49"/>
            <path class="cls-2" d="m103.83,516.41c-4.5,13.99-13.99,24.82-29.99,24.82-25.32,0-26.32-19.33-22.66-39.82,5.16-28.16,18.33-42.65,35.82-42.65,15.49,0,23.82,8.66,22.49,23.99h47.15c2.83-37.65-18.99-59.64-65.31-59.64-42.32,0-80.97,29.49-89.63,76.81-8.66,47.48,16.16,77.14,66.31,77.14,39.99,0,72.14-22.66,83.47-60.48h-47.65v-.17Z"/>
          </g>
          <polygon class="cls-2" points="172.8 426.78 146.15 573.06 189.8 573.06 216.62 426.78 172.8 426.78"/>
          <g>
            <path class="cls-2" d="m274.6,489.42c10.33,0,17.83,8.66,15.99,18.49h-39.82c2-11.5,10.66-18.49,23.82-18.49m-10,60.98c-11.5,0-20.16-8.33-17.83-20.99h83.47c7.66-38.65-12-65.81-52.81-65.81-35.32,0-66.64,22.33-72.97,57.31-6.5,35.82,17.33,55.31,52.65,55.31,25.66,0,54.98-8.66,67.48-35.15h-41.82c-4.33,6.16-11.16,9.33-18.16,9.33"/>
            <path class="cls-2" d="m386.56,552.23c-8.66,0-13.16-3.67-12.16-9,2.5-13.83,20.83-10.66,36.32-17.33-1.67,14.66-8.83,26.32-24.16,26.32m71.31-44.48c4.66-25.32,4.83-44.15-47.32-44.15-43.48,0-62.64,13.16-66.64,35.82h42.15c2.67-9.16,11.16-10.33,17.33-10.33,4.66,0,14.16,1,12.66,8.66-3.67,19.83-78.14-2-86.97,46.32-4,22.16,12.66,32.15,33.49,32.15,16.33,0,29.66-3.17,44.15-14.49v11.33h45.32l.33-2c-4.83-4.5-4.5-7.5-3.33-13.66l8.83-49.65Z"/>
            <path class="cls-2" d="m514.84,488.09h-.5l4-21.49h-39.82l-19.49,106.46h43.82l6.66-36.82c4.17-22.99,14.66-31.16,32.65-31.16,3,0,6,.83,8.83,1.17l7.66-42.32c-1.83-.17-3.67-.67-5.5-.67-16.99.33-29.16,8.33-38.32,24.82"/>
            <path class="cls-2" d="m670.12,499.08c-4.5,24.16-16.16,41.98-37.49,41.98-23.82,0-25.49-23.32-21.99-41.98,3.33-18.49,14.16-40.49,36.65-40.49,21.83-.5,26.32,20.66,22.82,40.49m-15.99-76.14c-47.15,0-84.8,29.82-93.13,75.81-9.16,49.82,17.49,78.14,64.98,78.14,44.82,0,84.64-27.99,93.63-77.8,7.16-38.49-11.5-76.14-65.48-76.14"/>
            <path class="cls-2" d="m811.24,463.6c-16.66,0-28.66,7-40.82,19.66l3-16.66h-39.99l-19.49,106.46h43.82l9.83-54.15c2.5-13.66,7.5-21.99,20.99-21.99,12.33,0,13.66,9.33,11.66,19.83l-10.33,56.31h43.82l11.66-63.81c5.5-29.16-5.16-45.65-34.15-45.65"/>
            <path class="cls-2" d="m919.7,489.42c10.33,0,17.83,8.66,15.99,18.49h-39.82c2.17-11.5,10.83-18.49,23.82-18.49m8.16,51.65c-4.33,6.33-11.16,9.33-18.16,9.33-11.5,0-20.16-8.33-17.83-20.99h83.47c7.66-38.65-12-65.81-52.81-65.81-35.32,0-66.64,22.33-72.97,57.31-6.5,35.65,17.33,55.31,52.65,55.31,25.66,0,54.98-8.66,67.48-35.15h-41.82Z"/>
          </g>
        </g>
        <rect class="cls-1" width="1000" height="1000"/>
      </g>
    </g>
  </g>
</svg>