<?xml version="1.0" encoding="utf-8"?>
<!-- Generator: Adobe Illustrator 27.6.1, SVG Export Plug-In . SVG Version: 6.00 Build 0)  -->
<svg version="1.1" id="Layer_2_00000067926312564563454220000003351951348676506522_"
	 xmlns="http://www.w3.org/2000/svg" xmlns:xlink="http://www.w3.org/1999/xlink" x="0px" y="0px" viewBox="0 0 1000 1000"
	 style="enable-background:new 0 0 1000 1000;" xml:space="preserve">
<style type="text/css">
	.st0{fill:none;}
	.st1{fill-rule:evenodd;clip-rule:evenodd;fill:#C70F28;}
</style>
<rect class="st0" width="1000" height="1000"/>
<g>
	<polygon class="st1" points="296.5,637.5 630.2,637.5 630.2,845 732.1,845 732.1,551.6 412,552.3 683.4,176.8 556.5,176.8 
		272.9,570.6 	"/>
	<path class="st1" d="M650,978.8c-34.1,6.2-68.7,9.3-103.4,9.1C288.8,988,79.8,779.1,79.7,521.3C79.7,263.5,288.6,54.4,546.4,54.4
		c207.2,0,389.6,136.5,448,335.3C933.1,120.1,664.9-48.7,395.3,12.6S-43.1,342.1,18.2,611.7c30.7,134.8,115.7,250.9,234.9,320.8
		C373.4,1001.8,517,1018.6,650,978.8"/>
</g>
</svg>
