<?xml version="1.0" encoding="UTF-8"?>
<svg id="Livello_2" data-name="Livello 2" xmlns="http://www.w3.org/2000/svg" viewBox="0 0 1000 1000">
  <defs>
    <style>
      .cls-1 {
        fill: none;
      }

      .cls-1, .cls-2, .cls-3 {
        stroke-width: 0px;
      }

      .cls-2 {
        fill: #faa919;
      }

      .cls-3 {
        fill: #333f49;
      }
    </style>
  </defs>
  <g id="Layer_2" data-name="Layer 2">
    <g id="Layer_2-2" data-name="Layer 2-2">
      <g id="Layer_2-2-2" data-name="Layer 2-2">
        <g id="Layer_1-2" data-name="Layer 1-2">
          <g>
            <path class="cls-3" d="M0,568.28c0-1.51,1.56-12.41,2.19-14.47,5.25-17.12,15.81-29.35,33.49-33.68,17.71-4.34,34.09-1.32,47.38,12.32,1.7,1.74,3.19,3.73,4.52,5.77,3.8,5.86,2.46,12.65-3.03,16.02-5.34,3.27-11.59,1.56-15.37-4.2-6.41-9.77-15.4-13.57-26.54-11.19-10.65,2.28-16.64,10.23-19.09,21.39-1.2,5.47-1.26,11.16-.17,16.65,2.63,13.28,10.23,21.64,22.56,22.7,9.85.85,17.74-2.81,23.09-11.47,3.82-6.18,10.13-7.81,15.65-4.3,5.64,3.59,6.85,10.44,2.53,16.48-11.67,16.31-28.07,21.37-47.1,18.4-18.4-2.87-30.29-14.08-36.9-31.26-1.18-3.06-1.9-4.63-2.55-7.42-.05-.22-.07-.43-.09-.65-.08-1.23-.55-3.78-.55-4.74"/>
            <path class="cls-3" d="M1000,531.53c-3.17,5.97-8.25,8.06-14.74,7.17-3.27-.45-4.12.91-4.08,4.1.16,14.52,0,29.05.1,43.58.04,6.34,3.77,10.59,9.83,11.73,6.46,1.21,7.92,2.85,7.84,8.81-.07,5.68-3.44,10.18-8.84,10.64-16.24,1.37-30.68-4.82-31.06-25.85-.28-15.75-.19-31.5.03-47.25.06-4.18-.37-6.38-5.46-5.91-4.08.38-7.45-1.89-8.87-6.04-1.24-3.64-.34-6.87,2.44-9.58,2.08-2.02,4.66-2.41,7.31-2.05,3.82.53,4.85-1.07,4.55-4.66-.3-3.65-.12-7.35-.06-11.02.11-6.69,3.41-9.57,10.88-9.59,7.86-.02,11.19,2.78,11.35,9.69.08,3.67.27,7.37-.05,11.02-.34,3.83,1.19,5.08,4.75,4.52,6.59-1.04,11.46,1.14,14.08,7.53v3.15Z"/>
            <path class="cls-2" d="M656.1,344.27c1.78,0,3.57.01,5.35.02,3.16.72,5.71,2.54,8.23,4.46,19.67,14.9,39.42,29.71,59.01,44.72,2.85,2.18,4.62,2.36,7.54.04,10.55-8.38,21.35-16.45,32.09-24.59,8.59-6.51,14.83-6.58,23.33-.1,38.42,29.28,76.81,58.6,115.19,87.93,7.39,5.65,8.88,13.88,3.88,20.62-5.11,6.89-13.76,7.71-21.32,1.94-35.35-26.96-70.7-53.92-105.96-80.99-2.52-1.94-4.05-2.14-6.61-.07-6.64,5.39-13.57,10.42-20.82,15.92,13.97,10.65,27.55,21.01,41.14,31.36,5.01,3.82,10.09,7.56,15.03,11.46,7.03,5.56,8.32,14.21,3.23,20.8-4.93,6.38-13.35,7.26-20.56,1.79-47.85-36.26-95.63-72.6-143.48-108.85-5.25-3.97-7.92-8.92-6.6-15.42,1.24-6.08,5.3-9.66,11.32-11.04Z"/>
            <path class="cls-3" d="M864.7,531.54c8.33-10.6,19.53-13.9,32.21-12.93,19.96,1.52,32.35,14.69,32.6,34.73.22,17.68.08,35.36.03,53.03-.02,6.79-4.01,10.68-10.78,10.79-7.12.12-11.36-3.65-11.42-10.69-.13-15.58-.03-31.16-.04-46.73,0-12.15-7.43-21.24-17.94-22-12.51-.9-21.35,6.3-23.24,19.07-.36,2.41-.5,4.88-.5,7.32-.05,14,.02,28.01-.04,42.01-.03,7.25-3.85,11-10.99,11.03-7.01.03-11.18-3.85-11.21-10.96-.09-24.5-.05-49.01-.02-73.51,0-6.62,3.04-10.89,8.15-11.75,6.42-1.07,10.47,1.76,12.63,8.83.15.49.32.98.58,1.77Z"/>
            <path class="cls-2" d="M723.49,469.2c-.43,5.25-2.63,9.84-7.83,12.41-5.56,2.74-10.89,1.88-15.76-1.82-14.2-10.8-28.36-21.64-42.55-32.45-17.8-13.57-35.61-27.13-53.41-40.7-7.42-5.66-9.04-14.39-3.95-21.06,4.94-6.47,13.7-7.34,21-1.79,32.03,24.33,63.98,48.76,96,73.11,4.03,3.06,6.34,6.88,6.51,12.31Z"/>
            <path class="cls-3" d="M426.42,547.27c0,18.91,0,37.81,0,56.72,0,9.19-3.33,13.14-11.06,13.23-7.64.09-11.39-4.16-11.39-13.02-.01-37.99-.02-75.98,0-113.96,0-8.91,5.09-13.51,13.51-12.36,5.63.77,8.91,4.9,8.93,11.62.05,19.26.02,38.51.02,57.77Z"/>
            <path class="cls-3" d="M133.83,532.7c6.6-8.78,15.13-12.42,25.22-12.9,4.17-.2,6.29,1.55,6.04,5.84-.02.35,0,.7,0,1.05q.12,12.23-11.92,14.29c-9.9,1.69-16.67,9.16-17.53,20.04-1.17,14.83-.24,29.71-.5,44.57-.14,7.87-4.03,11.76-11.6,11.63-6.35-.11-10.75-3.96-10.79-10.39-.16-25.19-.14-50.37-.02-75.56.03-5.93,3.84-9.93,9.04-10.41,6.16-.57,10.34,2.55,11.67,8.75.17.78.2,1.58.38,3.1Z"/>
            <path class="cls-2" d="M614.29,483.17c-3.65.03-6.79-1.33-9.65-3.52-16.09-12.34-32.22-24.61-48.26-37-7.55-5.82-8.88-14.28-3.55-21.07,5.05-6.44,13.56-7.09,20.94-1.47,16.13,12.28,32.24,24.58,48.3,36.96,5.81,4.48,7.62,10.35,5.46,16.66-1.88,5.49-7.3,9.36-13.24,9.45Z"/>
            <path class="cls-3" d="M816.87,569.26c0,12.07.02,24.13,0,36.2-.02,7.58-3.88,11.69-10.95,11.76-7.19.08-11.4-3.76-11.44-11.34-.15-24.65-.16-49.31,0-73.96.05-7.77,4.25-11.28,12.07-11.07,6.79.18,10.3,4.1,10.32,11.69.03,12.24,0,24.48,0,36.72Z"/>
            <path class="cls-2" d="M539.43,468.58c.08,11.2-11.3,18.17-21.01,12.66-3.31-1.88-6.42-4.3-9.18-6.93-4.58-4.35-5.31-11.32-2.26-16.95,2.91-5.36,8.86-8.06,15.12-6.87,8.32,1.58,17.28,10.93,17.33,18.08Z"/>
            <path class="cls-3" d="M377.44,487.63c-.65-6.44-5.09-10.11-11.87-9.86-6.4.23-10.27,4.15-10.31,10.68-.06,10.5-.02,21-.02,31.51v12.36c-15.88-15.74-38.09-18.28-55.24-6.93-8.52,5.64-13.97,13.66-17.11,23.19-4.63,14.07-4.48,28.18.43,42.2,11.86,33.86,55.26,37.03,72.88,14.82,1.31,6.78,3.25,9.71,7.32,11.06,7.72,2.56,13.95-2.7,13.96-11.92.03-38.16.01-76.31.01-114.47,0-.87.03-1.76-.05-2.62ZM354.09,581.14c-3.8,11.85-14.19,19.15-26.21,18.6-12.37-.56-21.95-8.87-24.88-21.75-.69-3.06-1.33-6.17-1.04-8.97.07-14.78,7.78-26.52,19.33-29.81,14.33-4.08,28.23,3.3,32.83,17.66,2.57,8.03,2.55,16.21-.03,24.26Z"/>
            <path class="cls-3" d="M659.31,558.16c-4.01-28.48-29-45.45-56.47-38.2-7.96,2.1-14.37,6.64-19.9,13.23-.68-8.83-4.25-12.59-11.09-12.34-6.16.23-9.75,4.34-9.76,11.81-.07,37.12-.02,74.23-.04,111.35,0,5.69,2.23,9.77,7.84,11.65,2.13.02,4.26.05,6.39.07,6.44-2.64,8.16-5.09,8.19-11.78.03-6.13,0-12.26,0-18.38v-19.93c18.13,21.89,59.85,18.36,71.75-14.43,3.91-10.77,4.67-21.74,3.08-33.04ZM633.36,586.56c-5.52,9.51-15.56,14.53-26.05,13.04-11.3-1.61-19.91-9.7-22.46-21.34-.67-3.05-1.41-6.16-1.17-8.12.26-8.73,1.84-15.8,6.29-22.01,9.8-13.69,31.04-13.86,41.23-.34,7.81,10.36,8.77,27.41,2.18,38.77Z"/>
            <path class="cls-3" d="M473.69,575.46c9.99.14,19.98.05,29.96.04,10.16,0,20.33.06,30.49-.02,5.47-.04,7.89-2.26,7.84-7.57-.16-18.15-6.47-33.5-22.64-42.88-16.39-9.52-33.66-9.48-49.87.36-17.87,10.84-23.69,28.08-22.65,48.18,1.03,19.86,12.83,36.67,30.16,42.96,19.26,6.99,44.51,1.7,57.09-11.95,4.36-4.73,4.59-10.4.6-14.53-3.87-3.99-9.88-3.97-14.69,0-2.29,1.89-4.47,3.99-6.98,5.51-17.55,10.66-38.26,3.45-43.42-14.83-1.19-4.23.09-5.33,4.11-5.27ZM470.12,554.3c3.03-10.69,12.88-17.62,25.18-17.51,11.57.1,21.03,7.26,23.78,17.81.77,2.97.05,4.31-3.14,4.28-7.18-.07-14.36-.02-21.55-.02-6.83,0-13.67-.12-20.49.05-3.55.09-4.8-.98-3.78-4.61Z"/>
            <path class="cls-3" d="M259.92,595.09c-.08-14.88.22-29.76-.22-44.63-.43-14.56-8.83-25.19-22.72-29.39-12.35-3.73-24.85-3.7-37.23-.02-7.6,2.26-13.87,6.59-18.34,13.25-3.51,5.23-2.52,11.57,2.21,14.92,4.88,3.45,11.05,2.42,14.91-2.49,7.44-9.46,17.41-12.39,28.77-8.44,6.44,2.24,9.83,6.77,10.76,13.52.41,2.97-.43,4.12-3.31,4.46-6.42.76-12.82,1.72-19.23,2.61-10.23,1.41-20.45,2.89-29.48,8.46-10.29,6.35-13.8,15.9-12.42,27.42,1.3,10.79,6.76,18.91,17.44,22.09,17.83,5.32,34.54,3.91,48.78-10.4q1.91,11.08,9.97,10.7c7.01-.33,11.05-5.03,10.54-12.12-.24-3.31-.4-6.63-.41-9.95ZM237.62,583.34c-2.14,11.36-12.09,18.57-26.11,18.61-2.95.19-6.24-.31-9.38-1.48-4.78-1.79-7.21-5.48-7.37-10.46-.16-5.03,2.35-8.71,6.83-10.89,8.04-3.9,16.99-3.73,25.52-5.48.51-.11,1.05-.08,1.57-.15,10.52-1.35,10.96-.87,8.95,9.85Z"/>
            <path class="cls-3" d="M724.23,518.42c-29.18-.11-50.23,21.28-50.2,51,.03,28.8,21.47,50.32,50.04,50.23,28.93-.09,50.41-21.68,50.35-50.59-.06-29.21-21.19-50.53-50.18-50.64ZM735.58,597.22c-10.46,4.72-20.58,3.29-29.43-4.11-10.49-8.77-12.98-27.77-5.7-41.1,9.42-17.26,34.29-18.76,45.68-2.72,4.18,5.89,5.9,12.58,5.84,19.79-.39,12.32-4.44,22.75-16.39,28.14Z"/>
          </g>
          <rect class="cls-1" width="1000" height="1000"/>
        </g>
      </g>
    </g>
  </g>
</svg>