<?xml version="1.0" encoding="UTF-8"?><svg id="Layer_2" xmlns="http://www.w3.org/2000/svg" viewBox="0 0 1000 1000"><defs><style>.cls-1{fill:none;}.cls-2{fill:#2e5786;fill-rule:evenodd;}</style></defs><g id="Layer_1-2"><rect class="cls-1" x="0" width="1000" height="1000"/><path class="cls-2" d="m923.82283,722.5723v-29.68021h11.22588v-4.02118h-26.90374v4.02118h11.17795v29.68021h4.4999Zm46.24375,0h4.40412v-33.70139h-7.44402l-9.52638,27.4304-10.0051-27.4304h-7.65942v33.70139h4.47598v-29.77609l11.1301,29.77609h3.90148l10.72324-30.11119v30.11119Z"/><path class="cls-2" d="m50.64855,611.86969c7.25252,6.22333,15.34278,12.51843,24.3426,18.83746,4.7632,3.37491,9.35885,5.88823,13.45186,7.89882,3.97332,1.9149,7.444,3.32706,10.05299,4.52392,3.06376,1.41216,5.93606-.50274,5.76851-3.87764-.55052-11.03432-.50265-21.49432.09575-31.28394v-.04785c3.73397-60.58121,28.9622-101.17613,71.04114-136.45733,45.88473-38.51257,110.53505-71.99866,225.11521-84.18181,147.39605-15.63001,265.87773,63.16631,201.73009,120.20515-4.02118,3.59039.74201,9.52647,5.09829,6.31902,59.98287-43.89806,33.24668-77.52769,3.90152-103.61769-75.82827-67.42689-284.02102-64.96141-435.00737-20.82412-137.10368,40.06844-236.77193,119.05614-133.65694,215.27775,2.63293,2.48922,5.33766,4.88294,8.06633,7.22863l.00002-.00037Zm107.06438-3.87764c-13.16464-96.58045,88.58602-203.81245,251.8275-204.21932,57.08664-.11961,121.42579,3.99726,163.64836,51.65317,3.59035,4.02118-1.7952,9.33491-5.79245,5.72059-71.11297-64.62631-264.96817-40.47531-308.72262,27.59786-28.53136,44.44864-20.08204,81.62082,5.69669,115.15457,6.24721,8.18608,14.31354,16.87471,22.11658,24.41433,44.18531,42.62944,112.44991,79.10749,247.54301,117.16516,4.61961,1.31647,4.33236,7.10883-.40691,7.94667-6.72593,1.17294-16.53957,3.42275-32.02595,4.30843-229.97418,13.16471-332.15568-64.09983-343.88416-149.74165l-.00005.00018Zm149.1912,0c-38.36892-38.46472-48.37404-80.35219-8.61684-116.44712,29.17761-26.47295,68.59969-52.80218,167.11905-48.06296,5.48128.26333,5.26584,8.16215-.19147,8.13805-149.23909-.35902-194.02277,97.75338-107.95,148.11418,4.90682,2.89627,9.90937,5.64883,14.91192,8.28177h.07181c73.50655,38.41688,156.10861,49.4512,238.68678,50.76767,92.89441,1.46001,186.79416-10.74707,314.73049-50.9112h.43088c1.7952-.64627,3.59039-1.26863,5.3855-1.81903,2.36961-.74196,4.35628.23941,5.09833,1.96274.43061,1.10537.40477,2.33637-.07177,3.42275-.71804,1.81903-1.36432,4.11687-2.63294,6.91745-1.74069,3.7993-4.00465,7.33619-6.72589,10.50784-101.10436,119.63064-295.60588,119.19986-445.08428,73.33905-72.16611-22.16452-137.27124-56.46434-175.04175-94.21084h-.11968l-.00014-.00037Zm103.21071-3.03981c-7.64316-4.29492-14.80824-9.38987-21.37457-15.19922-29.32124-26.08982-56.08135-59.69571,3.90152-103.64162,4.35628-3.18353,9.14344,2.72863,5.09829,6.34295-46.69855,41.50453,3.39887,94.56986,90.9796,114.34084,3.99726.88568,7.97059,1.72334,11.99177,2.48922,32.59352,5.79711,65.84545,6.93334,98.75868,3.37491,13.95452-1.48393,28.00477-3.27922,41.86355-5.64883,89.04083-15.24706,143.30301-44.97512,183.25166-78.53298,48.97247-41.04963,75.11023-89.23221,71.16082-167.74145-.16755-3.35098,2.70471-5.31373,5.74461-3.90157,2.63294,1.22078,6.12755,2.63294,10.07696,4.54784,4.09304,1.98667,8.73657,4.52392,13.47579,7.8749,144.9785,102.32514,58.16375,188.35009-78.50906,234.21089-7.5472,2.52191-15.14434,4.89207-22.78678,7.10883-133.82448,39.13492-312.62417,45.52571-404.34574-.55058-3.13107-1.62582-6.22744-3.31775-9.28706-5.07432l-.00005.00018ZM72.90876,371.1484c101.1044-119.63064,295.58194-119.19986,445.06035-73.33905,145.72051,44.7359,262.62248,139.04242,183.80224,210.61029-29.15369,26.49687-68.59969,52.8261-167.11905,48.1108-5.48128-.28725-5.26584-8.18608.21544-8.13805,149.21517.38294,194.02274-97.7773,107.95-148.11418-77.19263-45.16669-165.46748-57.66101-253.71841-59.02551-94.28272-1.48393-189.6186,11.10609-320.54687,52.73041-3.66216,1.17294-6.41477-1.7951-5.0265-5.36157.71808-1.81903,1.38827-4.14079,2.63293-6.94137,1.38827-3.06373,3.37493-6.58235,6.74986-10.53177Zm512.19999,225.04344c-55.72228-.19156-117.38065-5.50529-158.28674-51.65317-3.56642-4.02118,1.7952-9.35883,5.79245-5.69667,71.11297,64.60239,264.99209,40.47531,308.7226-27.57393,35.64022-55.50689,13.5955-99.66828-27.78933-139.56908-44.20924-42.62944-112.44991-79.10749-247.54296-117.16516-4.59564-1.29255-4.30843-7.10883.43083-7.92275,6.70201-1.17294,16.53957-3.44667,32.02595-4.33236,485.41601-27.90903,401.42559,347.2831,99.21348,353.84135-4.2127.07177-8.3775.07177-12.56623.07177h-.00005Z"/></g></svg>