<?xml version="1.0" encoding="UTF-8"?>
<svg id="Livello_2" xmlns="http://www.w3.org/2000/svg" viewBox="0 0 1000 1000">
  <defs>
    <style>
      .cls-1 {
        fill: none;
      }
    </style>
  </defs>
  <g id="Layer_2">
    <g id="Layer_2-2">
      <g id="Layer_2-2-2" data-name="Layer_2-2">
        <g id="Layer_1-2">
          <g>
            <path d="M172.19,563.67l12.1-30.25c.18-.45-.04-.95-.49-1.13l-72.28-27.46c-4.43-1.68-4.43-7.96,0-9.64l72.29-27.48c.45-.17.67-.68.49-1.13l-12.1-30.25c-.18-.44-.68-.65-1.12-.48l-67.23,26.89c-7.84,3.14-15.02-5.72-10.35-12.74l34.81-52.25c.3-.46.11-1.07-.4-1.27l-31.16-12.46c-.38-.15-.81-.02-1.03.32l-22.53,33.81c-1.1,1.65-1.32,3.73-.58,5.57l30.52,76.29-30.5,76.25c-.74,1.84-.52,3.92.58,5.57l22.55,33.83c.22.34.65.47,1.03.32l31.16-12.46c.51-.21.7-.82.4-1.27l-34.82-52.23c-4.68-7.02,2.51-15.88,10.34-12.74l67.21,26.88c.44.18.94-.03,1.12-.48h0Z"/>
            <path d="M.85,517.2h60.37c.35,0,.66-.21.8-.53l6.73-16.64-6.66-16.66c-.13-.33-.45-.54-.8-.54H.86c-.47,0-.86.38-.86.86v32.66c0,.47.39.86.86.86h0Z"/>
            <path d="M330.43,399.51h-60.13v197.65h60.13c62.36,0,101.06-37.86,101.06-98.82s-38.97-98.82-101.06-98.82h0ZM330.71,570.43h-31.18v-144.2h31.18c45.38,0,70.71,25.61,70.71,72.1s-25.33,72.1-70.71,72.1h0Z"/>
            <path d="M558.98,479.96h-4.18c-9.19-12.53-25.89-19.77-43.43-19.77-38.42,0-66.53,29.79-66.53,70.15s28.12,70.15,66.53,70.15c17.54,0,34.24-7.24,43.43-19.77h4.18v16.42h27v-133.63h-27v16.42h0ZM516.39,574.89c-25.33,0-43.15-18.65-43.15-44.54s17.82-44.54,43.15-44.54,42.87,18.1,42.87,44.54-17.54,44.54-42.87,44.54Z"/>
            <path d="M960.69,530.34c0-43.98-27.84-70.15-66.54-70.15s-69.88,30.62-69.88,70.15,29.78,70.15,68.76,70.15c32.57,0,59.01-19.21,64.59-47.33h-27.84c-5.29,13.36-20.33,21.72-35.63,21.72-22.63,0-38.38-14.67-41.47-36.46h108.01v-8.07h0ZM894.16,485.24c20.58,0,33.97,11.8,37.47,31.45h-77.92c4.58-18.72,18.92-31.45,40.45-31.45Z"/>
            <path d="M682.31,460.2c-16.99,0-32.57,7.79-40.64,19.77h-4.18v-16.42h-27v133.63h28.12v-65.98c0-28.39,13.64-45.38,36.75-45.38,20.04,0,29.51,11.14,29.51,34.52v76.83h28.12v-78.22c0-38.14-17.82-58.74-50.67-58.74h-.01Z"/>
            <path d="M783.64,418.99h-28.12v139.19c0,27.84,11.41,38.97,39.25,38.97h25.05v-25.61h-21.16c-10.3,0-15.03-4.74-15.03-15.03v-67.37h36.19v-25.61h-36.19v-44.54h.01Z"/>
            <path d="M959.87,458.37c0-11.34,8.72-20.07,20.12-20.07s20.01,8.72,20.01,20.07-8.73,19.96-20.01,19.96-20.12-8.67-20.12-19.96ZM995.97,458.32c0-9.44-6.66-16.14-16.04-16.14s-16.03,6.7-16.03,16.14,6.65,16.14,16.03,16.14,16.04-6.7,16.04-16.14ZM972.9,448.23h8.35c4.25,0,6.81,2.18,6.81,5.72,0,2.02-1.04,3.6-2.78,4.42v.77c1.8.88,2.56,2.18,2.56,4.25v4.96h-3.82v-4.53c0-2.4-1.04-3.38-3.54-3.38h-3.82v7.91h-3.76v-20.13h0ZM984.25,454.34c0-1.69-1.14-2.84-2.84-2.84h-4.74v5.67h4.74c1.75,0,2.84-1.14,2.84-2.84Z"/>
          </g>
          <rect class="cls-1" width="1000" height="1000"/>
        </g>
      </g>
    </g>
  </g>
</svg>