<?xml version="1.0" encoding="UTF-8"?><svg id="Layer_2" xmlns="http://www.w3.org/2000/svg" viewBox="0 0 1000.00003 1000"><defs><style>.cls-1{fill:none;}.cls-2{fill:#0075ba;fill-rule:evenodd;}</style></defs><g id="Layer_2-2"><g id="Layer_2-2"><g id="Layer_1-2"><rect class="cls-1" width="1000" height="1000"/><g id="DELL_tm_"><path id="D" class="cls-2" d="m.00003,358.65294v286.71112h137.16345c60.31807-.00008,137.56508-38.43178,137.56508-143.52295,0-114.92042-89.79019-143.18817-171.8392-143.18817H.00003Zm101.34966,88.5638h17.6726c27.70594,0,51.31178,23.89679,51.67894,56.03016-.00019.0211.00027.04589,0,.06695-.36716,32.13341-21.42921,55.96325-49.13515,55.96325h-20.21639v-112.06035Z"/><path id="L1" class="cls-2" d="m599.55326,358.65294v286.72691h189.85344v-90.65933h-89.40567v-196.06758h-100.44777Z"/><path id="O" class="cls-2" d="m509.34292,402.17959l-140.24753,88.42228-24.43047-16.43299.05497.00736,143.45161-91.36028.26863.18692-65.59578-41.69556-249.84832,158.90152,251.12163,158.48385,248.10581-158.09284-71.84608-43.86715-143.02601,90.11177-24.03355-16.36913,139.01169-88.31417-62.9866-39.98157Z"/><path id="L2" class="cls-2" d="m807.4673,358.62715v286.41906h189.85344v-90.3257h-89.40567v-196.09336h-100.44777Z"/><path id="T" class="cls-2" d="m957.75073,358.17274h16.8763v4.01382h-6.20316v18.15338h-4.46991v-18.15338h-6.20323v-4.01382Z"/><path id="M" class="cls-2" d="m986.40926,377.727l-5.40878-13.40126v15.81898h-4.1629v-21.95827h6.85654l4.72473,13.36315,4.72466-13.36315h6.85654v21.95827h-4.1629v-15.81898l-5.40878,13.40126h-4.01909Z"/></g></g></g></g></svg>