<?xml version="1.0" encoding="UTF-8"?><svg id="Livello_1" xmlns="http://www.w3.org/2000/svg" viewBox="0 0 1000 1000"><defs><style>.cls-1{fill:none;}.cls-2{fill:#0091e2;}</style></defs><path class="cls-2" d="m990.26044,412.57494c-2.78279-2.31897-27.82763-21.33455-81.62775-21.33455-13.91382,0-28.29145,1.39132-42.20527,3.71029-10.20345-70.9604-69.10526-105.28126-71.42423-107.13641l-14.37764-8.34823-9.27588,13.44999c-11.59485,18.08793-20.4069,38.49483-25.50866,59.36556-9.7397,40.35012-3.71037,78.38113,16.69661,110.8467-24.58109,13.91382-64.46732,17.16043-72.81562,17.62411H31.13473C13.97435,480.75241.06053,494.66622.06053,511.82665c-.92759,57.51041,8.81208,115.02082,28.75522,169.28476,22.7259,59.36556,56.58285,103.42597,100.17947,130.3261,49.16214,30.1466,129.39849,47.30703,219.8383,47.30703,40.81387,0,81.62771-3.71029,121.9778-11.13102,56.11909-10.20352,109.91913-29.68278,159.54506-57.97423,40.81387-23.65352,77.45356-53.80012,108.52773-89.04848,52.40872-58.90188,83.48289-124.76052,106.20877-183.19857h9.27588c57.04666,0,92.29495-22.72587,111.77435-42.20527,12.98624-12.05867,22.72587-26.89999,29.68278-43.59659l4.17412-12.05867-9.73956-6.95677Z"/><path class="cls-2" d="m92.35555,461.73711h88.12083c4.17415,0,7.8845-3.24661,7.8845-7.88455h0v-78.84496c0-4.17412-3.24656-7.88455-7.8845-7.88455h-88.12083c-4.17415,0-7.8845,3.24661-7.8845,7.88455h0v78.84496c.4638,4.63794,3.71037,7.88455,7.8845,7.88455h0"/><path class="cls-2" d="m213.86955,461.73711h88.12083c4.17415,0,7.88448-3.24661,7.88448-7.88455h0v-78.84496c0-4.17412-3.24654-7.88455-7.88448-7.88455h-88.12083c-4.17415,0-7.88448,3.24661-7.88448,7.88455v78.84496c.46379,4.63794,3.71033,7.88455,7.88448,7.88455"/><path class="cls-2" d="m337.7025,461.73711h88.12083c4.17415,0,7.88448-3.24661,7.88448-7.88455h0v-78.84496c0-4.17412-3.24654-7.88455-7.88448-7.88455h-88.12083c-4.17415,0-7.88448,3.24661-7.88448,7.88455h0v78.84496c0,4.63794,3.24654,7.88455,7.88448,7.88455h0"/><path class="cls-2" d="m459.68029,461.73711h88.12083c4.17412,0,7.88448-3.24661,7.88448-7.88455v-78.84496c0-4.17412-3.24654-7.88455-7.88448-7.88455h-88.12083c-4.17415,0-7.88448,3.24661-7.88448,7.88455h0v78.84496c0,4.63794,3.71033,7.88455,7.88448,7.88455h0"/><path class="cls-2" d="m213.86955,349.03526h88.12083c4.17415,0,7.88448-3.71029,7.88448-7.88455v-78.84496c0-4.17412-3.24654-7.88455-7.88448-7.88455h-88.12083c-4.17415,0-7.88448,3.24661-7.88448,7.88455v78.84496c.46379,4.17412,3.71033,7.88455,7.88448,7.88455"/><path class="cls-2" d="m337.7025,349.03526h88.12083c4.17415,0,7.88448-3.71029,7.88448-7.88455v-78.84496c0-4.17412-3.24654-7.88455-7.88448-7.88455h-88.12083c-4.17415,0-7.88448,3.24661-7.88448,7.88455h0v78.84496c0,4.17412,3.24654,7.88455,7.88448,7.88455"/><path class="cls-2" d="m459.68029,349.03526h88.12083c4.17412,0,7.88448-3.71029,7.88448-7.88455v-78.84496c0-4.17412-3.71037-7.88455-7.88448-7.88455h-88.12083c-4.17415,0-7.88448,3.24661-7.88448,7.88455h0v78.84496c0,4.17412,3.71033,7.88455,7.88448,7.88455"/><path class="cls-2" d="m459.68029,235.86945h88.12083c4.17412,0,7.88448-3.24661,7.88448-7.88455v-78.84496c0-4.17412-3.71037-7.88448-7.88448-7.88448h-88.12083c-4.17415,0-7.88448,3.24654-7.88448,7.88448h0v78.84496c0,4.17426,3.71033,7.88455,7.88448,7.88455"/><path class="cls-2" d="m582.58567,461.73711h88.12083c4.17412,0,7.88448-3.24661,7.88448-7.88455v-78.84496c0-4.17412-3.24654-7.88455-7.88448-7.88455h-88.12083c-4.17412,0-7.88448,3.24661-7.88448,7.88455h0v78.84496c.46375,4.63794,3.71037,7.88455,7.88448,7.88455"/><rect class="cls-1" x="0" width="1000" height="1000"/></svg>