<?xml version="1.0" encoding="UTF-8"?>
<svg id="Livello_2" xmlns="http://www.w3.org/2000/svg" viewBox="0 0 500 500">
  <defs>
    <style>
      .cls-1 {
        fill: #fcb800;
      }

      .cls-2 {
        fill: #182a49;
      }
    </style>
  </defs>
  <g id="Livello_2-2" data-name="Livello_2">
    <g id="Livello_1-2">
      <rect class="cls-2" width="500" height="500"/>
      <g id="Layer_2">
        <g id="Layer_2-2">
          <g id="Layer_1-2">
            <path class="cls-1" d="M364.84,267.03V104.86c0-10.91-8.88-19.79-19.79-19.79s-19.79,8.88-19.79,19.79v162.74c.33,10.65.79,41.28-.79,54.54-3.58,29.33-36.41,53.16-73.21,53.16-42.4,0-76.89-34.6-76.89-77.11s34.64-77.11,77.22-77.11c4.91,0,9.72,1.19,15.78,2.71l2.17.54c10.62,2.64,21.38-3.86,23.98-14.45,2.64-10.62-3.86-21.31-14.45-23.98l-2.06-.51c-7.33-1.84-15.6-3.9-25.39-3.9-64.43,0-116.84,52.33-116.84,116.7s52.26,116.73,116.51,116.73c57.07,0,106.44-38.65,112.51-87.95,2.28-18.67,1.19-56.34,1.05-59.95h0ZM274.37,191.62c7.87,0,14.23,6.36,14.23,14.23s-6.36,14.23-14.23,14.23-14.23-6.36-14.23-14.23,6.36-14.23,14.23-14.23ZM345.09,119.09c-7.87,0-14.23-6.36-14.23-14.23s6.36-14.23,14.23-14.23,14.23,6.36,14.23,14.23-6.36,14.23-14.23,14.23Z"/>
          </g>
        </g>
      </g>
    </g>
  </g>
</svg>