<?xml version="1.0" encoding="UTF-8"?>
<svg id="Livello_2" xmlns="http://www.w3.org/2000/svg" viewBox="0 0 1000 1000">
  <defs>
    <style>
      .cls-1 {
        fill: none;
      }

      .cls-2 {
        fill: #152a49;
      }
    </style>
  </defs>
  <g id="Layer_2">
    <g id="Layer_2-2">
      <g id="Layer_2-2-2" data-name="Layer_2-2">
        <g id="Layer_1-2">
          <rect class="cls-1" width="1000" height="1000"/>
          <g id="Layer_2-2" data-name="Layer_2">
            <g id="Layer_2-2-3" data-name="Layer_2-2">
              <g id="Layer_1-2-2" data-name="Layer_1-2">
                <path class="cls-2" d="M524.82,448.15c-19.78.61-38.05,10.69-49.11,27.1-4.47-15.51-17.14-27.1-39.49-27.1-18.36.88-35.45,9.65-46.88,24.05v-9.28c0-7.48-6.07-13.55-13.55-13.55s-13.55,6.07-13.55,13.55v122.88c0,7.48,6.07,13.55,13.55,13.55s13.55-6.07,13.55-13.55v-92.33c8.04-12.16,21.18-19.99,35.7-21.27,18.49,0,25.27,10.97,25.27,28.11v85.49c-1.18,7.39,3.85,14.33,11.24,15.51,7.39,1.18,14.34-3.85,15.51-11.24.23-1.41.23-2.86,0-4.27v-92.67c8.28-12.18,21.69-19.89,36.38-20.93,17.88,0,25.4,10.97,25.4,28.11v85.15c-.09,7.48,5.9,13.62,13.38,13.72,7.48.09,13.62-5.9,13.72-13.38v-93.69c.34-29.54-14.02-43.96-41.12-43.96h0Z"/>
                <path class="cls-2" d="M847.06,446.2h-20.5v-35.81c-.52-7.05-6.66-12.34-13.71-11.82-6.32.47-11.35,5.5-11.82,11.82v35.81h-20.99c-7.05-.52-13.19,4.77-13.71,11.82-.52,7.05,4.77,13.19,11.82,13.71.63.05,1.26.05,1.89,0h20.99v116.96c-.04,7.03,5.63,12.76,12.66,12.8h.07c6.88-.07,12.5-5.51,12.8-12.38v-117.38h20.5c7.05.52,13.19-4.77,13.71-11.82.52-7.05-4.77-13.19-11.82-13.71-.63-.05-1.26-.05-1.89,0h0Z"/>
                <path class="cls-2" d="M732.34,471.04c-28.55-29-74.79-30.65-105.33-3.75h.14c-5.31,4.53-5.95,12.51-1.41,17.83,4.53,5.31,12.51,5.95,17.83,1.41,21.45-18.52,53.85-16.15,72.37,5.3,18.52,21.45,16.15,53.85-5.3,72.37-20.35,17.58-50.82,16.46-69.83-2.56-13.04-12.64-18.3-31.3-13.79-48.9,1.73-6.76-2.34-13.65-9.1-15.38-6.76-1.73-13.65,2.34-15.38,9.1-6.23,26.1,1.43,53.58,20.28,72.69,14.38,14.35,33.89,22.39,54.21,22.34,20.32-.04,39.83-7.92,54.48-22,30.18-29.71,30.56-78.27.85-108.45h-.02ZM635.16,486.12c-4.84,0-8.76-3.92-8.76-8.76s3.92-8.76,8.76-8.76,8.76,3.92,8.76,8.76-3.92,8.76-8.76,8.76Z"/>
                <path class="cls-2" d="M195.85,578.59c28.55,29,74.79,30.65,105.33,3.75h-.14c5.31-4.53,5.95-12.51,1.41-17.83-4.53-5.31-12.51-5.95-17.83-1.41-21.45,18.52-53.85,16.15-72.37-5.3-18.52-21.45-16.15-53.85,5.3-72.37,20.35-17.58,50.82-16.46,69.83,2.56,13.04,12.64,18.3,31.3,13.79,48.9-1.73,6.76,2.34,13.65,9.1,15.38,6.76,1.73,13.65-2.34,15.38-9.1,6.23-26.1-1.43-53.58-20.28-72.69-14.38-14.35-33.89-22.39-54.21-22.34-20.32.04-39.83,7.92-54.48,22-30.18,29.71-30.56,78.27-.85,108.45h.02,0ZM293.03,563.51c4.84,0,8.76,3.92,8.76,8.76s-3.92,8.76-8.76,8.76-8.76-3.92-8.76-8.76,3.92-8.76,8.76-8.76Z"/>
                <path class="cls-2" d="M141.56,510.47v-99.78c0-6.72-5.46-12.18-12.18-12.18s-12.18,5.46-12.18,12.18v100.14c.2,6.56.5,25.39-.5,33.55-2.21,18.04-22.41,32.72-45.05,32.72-26.09,0-47.31-21.29-47.31-47.44s21.31-47.44,47.51-47.44c3.02,0,5.98.74,9.72,1.67l1.33.34c6.54,1.62,13.15-2.37,14.75-8.88,1.62-6.54-2.37-13.12-8.88-14.75l-1.26-.32c-4.51-1.13-9.61-2.41-15.63-2.41-39.64,0-71.88,32.2-71.88,71.79s32.15,71.82,71.68,71.82c35.11,0,65.5-23.77,69.22-54.12,1.4-11.48.74-34.66.65-36.89h.01ZM85.9,464.07c4.84,0,8.76,3.92,8.76,8.76s-3.92,8.76-8.76,8.76-8.76-3.92-8.76-8.76,3.92-8.76,8.76-8.76ZM129.4,419.46c-4.84,0-8.76-3.92-8.76-8.76s3.92-8.76,8.76-8.76,8.76,3.92,8.76,8.76-3.92,8.76-8.76,8.76Z"/>
                <path class="cls-2" d="M986.7,575.6h-65.54l76.35-106.63c2.88-4.02,3.29-9.3,1.07-13.72-2.16-4.38-6.63-7.15-11.52-7.11h-91.13c-7.17.53-12.54,6.77-12.01,13.93.48,6.43,5.59,11.54,12.01,12.01h65.61l-76.42,106.63c-2.82,4.01-3.23,9.25-1.07,13.65,2.17,4.37,6.64,7.13,11.52,7.11h91.13c7.14-.11,12.89-5.87,13.01-13.01-.04-7.15-5.86-12.91-13.01-12.87h0ZM896.87,470.36c-4.99,0-9.03-4.04-9.03-9.03s4.04-9.03,9.03-9.03,9.03,4.04,9.03,9.03-4.04,9.03-9.03,9.03ZM986.85,597.53c-4.99,0-9.03-4.04-9.03-9.03s4.04-9.03,9.03-9.03,9.03,4.04,9.03,9.03-4.04,9.03-9.03,9.03Z"/>
              </g>
            </g>
          </g>
        </g>
      </g>
    </g>
  </g>
</svg>