<?xml version="1.0" encoding="UTF-8"?><svg id="Layer_2" xmlns="http://www.w3.org/2000/svg" viewBox="0 0 1000 1000"><defs><style>.cls-1{fill:none;}</style></defs><g id="Layer_1-2"><rect class="cls-1" width="1000" height="1000"/><path d="m908.16916,393.55544c-4.40445-4.65569-4.74785-11.18055-10.64576-14.22331-8.50767-4.38922-17.3626-7.93802-26.39665-10.66701-6.4566-1.95044-13.09695-3.72766-19.65261-5.45763-23.60265-6.2286-47.74834-8.16351-71.86011-9.78873-17.84261-1.20266-35.83074-.24842-53.75398-.24825-1.37848,0-2.75899.01486-4.13503.08934-7.30972.3955-12.96236.95167-15.27417,10.77116-5.25723,22.33055-26.60976,32.70428-46.37903,26.67221-3.71521-1.1336-5.60635-.19796-7.12085,4.47515-3.83136,11.82123-9.29989,23.1003-13.68405,34.75774-3.26765,8.68862-5.82359,17.6433-8.78933,26.4482-.84798,2.5176.4165,4.22404,2.18867,5.2324,7.46332,4.24659,8.9322,10.95835,8.23598,18.72522-.2844,3.17258.30835,5.08986,3.4524,7.63557,5.4918,4.44666,12.01115,7.12001,17.33849,11.67065,2.85755,2.44105,4.3553,1.174,5.84968-2.30676,6.75868-15.74256,14.10821-31.20413,26.09878-43.86488,24.3163-25.67521,53.45199-34.30841,88.09715-26.34737,14.15097,3.2517,24.64632,10.72361,31.68056,22.57383,6.03476,10.16634,8.58131,21.96417,9.35371,33.76263.94519,14.43798-1.22589,28.69756-3.11905,43.05255-2.14794,16.28573-5.1771,32.41399-9.44091,48.0893-8.42821,30.98475-18.51611,61.70454-42.61703,84.79037-15.13218,14.49504-33.13799,23.66257-54.85539,23.3892-12.05631-.15175-24.14662,1.28161-35.80793-3.9975-12.76962-5.78091-22.56294-14.26072-27.53042-27.4229-7.43424-19.69811-7.09084-39.84949-4.95473-60.67169,1.85167-18.04907,6.33309-35.4352,9.36537-53.15357,1.63141-9.5324,5.20269-18.7652,8.31484-27.99279.97987-2.90556.05058-4.26435-1.97775-5.71068-7.15839-5.10434-15.25347-8.79388-21.98282-14.56254-.55899-.4792-2.12584-.71824-2.49037-.3474-4.86497,4.94977-11.73222,3.80809-18.15041,5.83095,4.27614,5.03663,8.59865,9.47697,10.98714,15.32055,7.11197,17.3996,4.60775,35.00233,1.30644,52.62497-1.38387,7.3872-3.12427,14.68589-5.04711,21.96745-1.03559,3.92171-2.29754,4.43946-5.72452,4.42898-28.03576-.08543-56.07568.25162-84.1055-.15259-6.71045-.09675-9.24972,2.0086-10.28119,8.39657-2.31901,14.36265-5.94192,28.37726-2.99819,43.31435,3.3615,17.05657,23.42144,21.39899,35.35221,13.78779,12.33427-7.86859,19.2165-19.13183,23.07707-32.46604,1.32188-4.56576,3.48863-5.88953,7.47368-6.2323,8.52126-.73301,16.98326.53038,25.47536.65612,5.03844.07466,3.49924,3.68705,2.87598,5.78908-3.29054,11.09777-8.56056,21.21963-15.52537,30.53017-8.12483,10.86131-18.28238,19.0818-30.67131,24.4364-4.54783,1.96555-9.35367,3.97882-14.19869,4.49333-15.68882,1.666-31.61832,3.67514-46.69015-3.05122-14.69178-6.55676-20.78651-19.33808-23.66207-34.33838-2.46011-12.833-2.02026-25.65708.65945-38.22731,1.29217-6.0614-.12802-11.04828-2.77805-15.68095-3.26693-5.71127-5.42215-11.88995-8.70361-17.86302-2.54289,1.07675-2.41327,3.55373-2.8926,5.58876-4.17135,17.70912-7.17627,35.66203-11.57672,53.33824-3.67573,14.76496-5.43751,30.02121-9.37947,44.70201-7.35319,27.38519-21.06216,50.73761-49.21288,60.90159-21.9558,7.92742-44.83608,7.9419-67.21145.39727-14.79657-4.98916-24.55672-25.39666-19.89927-40.01779.86048-2.70133,2.63598-2.05434,4.28401-2.08624,8.95127-.17364,17.91613-.02416,26.85086-.48202,3.41877-.17515,3.6246,1.50886,4.16845,3.92958,3.04629,13.55961,15.02601,21.45143,28.77133,18.12886,19.51286-4.71662,29.48637-16.57674,33.829-37.10957,1.75942-8.31896,5.32595-16.31094,4.56786-25.79907-7.58957,7.45558-15.0941,14.31476-24.74694,18.30973-16.83879,6.96926-33.48547,7.73518-48.71197-3.24295-10.47759-7.55414-13.97758-19.65834-14.96953-31.91139-1.65809-20.48111,1.39852-40.56559,6.29134-60.51531,3.64173-14.84879,7.93554-29.4368,14.28917-43.28182,9.85362-21.47192,24.17355-39.67115,47.89912-45.49448,13.02385-3.19657,27.82277-4.29529,40.84439,5.38958,1.42183-6.78086.31819-12.90117,1.56559-18.89507,3.03139-14.56671,11.50026-25.94118,21.1823-36.31592,5.14524-5.51331,8.64827-11.51314,10.62442-18.38229,8.19587-28.4892,23.36492-53.12235,41.68054-75.98126,3.8819-4.84481,4.70257-10.12001,6.22334-15.79432,3.85892-14.39863,11.83255-26.57618,24.68714-35.00477,19.91888-13.06059,42.37063-18.32093,65.5694-20.76046,8.10855-.85269,15.17616-4.56441,22.77032-6.64935,23.63951-6.49006,47.56949-8.79583,71.84345-8.44532,14.84349.21435,29.59221,2.01542,44.13035,5.31549,4.04927.91912,8.12462.12758,12.1281-1.16708,26.31417-8.5095,46.01838-1.72942,63.03068,17.1298,7.57005,8.39198,14.60488,17.03602,18.69471,27.84123,1.04283,2.75512,4.00752,4.90819,6.37538,7.01644,18.61661,16.57569,35.1234,34.95183,48.08156,56.3315,2.34884,3.87538,6.49667,4.98141,9.89777,6.92188,13.56382,7.73876,26.00755,16.64862,34.72799,29.87101,2.45834,3.72741,5.51259,7.85908,5.84581,12.00215.48859,6.07609,4.15052,5.82998,8.13312,6.78069,7.42663,1.77302,15.05046,2.21506,22.1267,6.11047,19.21284,10.57657,23.07778,20.77384,23.13847,40.37617.0197,6.34912-1.30661,12.69947-1.96487,19.05474-.33086,3.19514-1.99122,4.92675-5.19941,5.34447-11.21641,1.46059-22.47633.09347-33.71209.53833-3.65957.14489-2.04652-2.38217-1.62829-4.3481,1.23271-5.79337,2.92463-11.54201,1.63999-17.60862-3.63256-17.15446-17.95236-21.92823-32.48747-19.95229-27.1342,3.68865-36.58151,23.58716-38.18446,46.35407-.73553,10.44843,5.69683,18.22148,14.45212,23.82321,12.13694,7.76527,25.90343,11.8618,39.01452,17.42417,16.01299,6.79357,30.50197,15.19636,37.32049,32.53224,1.7298,4.39797,1.47688,9.09843,1.68249,13.53171.61736,13.30492-2.06975,26.1027-7.16697,38.56751-5.91794,14.47194-14.08776,27.05046-26.43764,36.75649-14.99045,11.78142-32.41079,17.42868-51.06594,19.06959-10.03386.88266-20.3193,1.11538-30.29888-.03165-24.82147-2.85292-46.54964-18.74193-46.96037-47.50581-.13955-9.7729-1.18078-19.6389,2.35448-29.29363,1.19391-3.2605,2.22806-4.38867,5.5402-4.32899,10.10742.18222,20.22604.31946,30.32673.01902,3.96645-.11796,4.82966,1.47498,4.3712,4.77655-.59649,4.29659-1.34069,8.57361-1.88542,12.87626-1.87069,14.7749,3.27611,28.21385,17.57698,31.98587,13.15426,3.46961,26.75848,3.38704,38.78441-4.67934,8.14726-5.46487,15.73692-11.88591,18.54245-21.77004,8.54958-30.12221,2.28084-41.99322-23.9681-52.25261-15.07764-5.89311-31.16781-9.6374-44.34808-19.81072-16.07721-12.40939-21.61774-28.78316-19.05352-48.65915,3.10811-24.0933,12.44465-44.8347,31.9419-59.88595,16.25-12.54435,35.18341-18.80489,55.55927-20.23185,5.70121-.3992,5.37775-1.2782,3.51287-6.23815-5.21144-13.86105-16.15784-22.25185-27.04069-30.86195-1.09804-.86873-3.7009-1.64336-4.23864-1.10263-2.4777,2.4918,1.30038,4.31229,1.19012,7.92384Zm-124.69373,103.90789c.37404-6.23373-.96985-12.27081-1.69184-18.39554-1.88879-16.02263-15.77985-26.64418-31.69773-24.62784-22.31793,2.82708-33.24303,18.75658-41.0676,36.72274-8.40574,19.30033-13.30787,39.8399-17.65534,60.60537-5.35856,25.59483-9.5962,51.01439-7.65363,77.21148.4221,5.6922,3.07377,10.4664,6.09679,15.00215,8.27158,12.41082,34.09286,10.62471,45.23815,2.281,12.60272-9.43468,18.87104-22.87477,24.45223-36.66429,5.85229-14.4591,9.54721-29.61367,13.41501-44.76921,5.67057-22.21991,8.78264-44.6417,10.56395-67.36586Zm-294.37302,86.79732c4.16453-13.72862,7.06029-26.23408,12.34037-38.05241,5.26758-11.79038,10.84275-23.22907,19.11832-33.16299,16.00685-19.2144,36.96118-27.53008,61.57468-26.93898,9.30712.2235,18.92979-.10062,27.18841,5.59667,1.02957.71024,2.15551,1.27386,3.02655.22544,1.12396-1.35281,0-2.80995-.85732-3.60781-4.20426-3.91283-6.0077-8.66257-4.87949-14.217,1.12678-5.54727-1.87225-8.99322-5.65614-11.87573-18.32753-13.96168-34.27294-30.39192-49.18124-47.81883-2.61481-3.05656-5.14655-4.03715-8.18207-3.01591-7.66158,2.57765-13.40634-.52213-18.55037-5.53001-2.63556-2.56587-4.38791-3.50912-8.03898-.89356-5.65088,4.04826-12.22851,6.77425-18.20928,10.39738-9.05075,5.48305-17.21224,11.47312-19.29162,23.22646-2.1779,12.31074-4.37032,24.60486-6.29871,36.96354-2.20248,14.11503-2.62941,14.21994,11.46285,15.47411,3.68571.32804,3.62687,1.5719,3.43842,4.65203-.68617,11.21485-3.27262,22.18023-6.48451,32.6933-5.96528,19.52506-1.73956,36.99552,7.48012,55.88428Zm246.01497-309.92339c-6.67729-3.35781-13.16983-2.23017-19.46778-2.63335-36.35468-2.32715-71.31278,3.52032-104.8971,17.72118-30.42235,12.8638-56.23665,32.251-79.29852,55.57068-4.68919,4.74158-7.56605,10.23389-4.77823,17.08658,1.62678,3.99872,3.74833,7.76393,4.76687,12.04608.57137,2.40208,2.89041,3.71197,5.28176,3.69097,4.54265-.0399,8.45502,1.41598,12.29829,3.68802,2.22718,1.31666,5.06045,1.38488,7.34107.19948,10.18162-5.29249,21.22797-8.00679,32.1362-11.14781,13.28527-3.82547,26.32587-8.63307,40.14896-10.32049,2.70967-.33078,4.08609-1.12228,4.17009-4.14968.23318-8.39993,3.17814-15.83308,8.10282-22.6883,8.54297-11.89176,26.56301-19.59782,39.25115-14.49529,10.32676,4.15292,8.26392,5.41811,16.11786-5.09016,11.02855-14.75575,23.85245-27.67697,38.82657-39.4779Zm17.87442,72.04179c8.09399.45985,14.74123,1.195,21.38351,1.15342,29.69203-.18576,58.62168,4.51942,87.26012,12.13896,8.14162,2.1662,15.87613,5.4434,24.04957,7.33733,1.44935.33583,3.0194,2.17681,4.41733.61509,1.69731-1.89619-.96194-2.5216-1.57384-3.77635-2.82228-5.78702-7.36468-10.4241-11.57698-14.96212-20.10703-21.6618-42.43169-40.47368-69.37122-53.5572-17.04689-8.27901-34.62673-14.69144-52.96045-19.02936-4.43332-1.04895-9.60495-1.9221-14.05788,1.07445-17.17239,11.55587-31.66288,25.89365-43.95082,42.50085-2.91394,3.93821-3.40505,7.16748,1.30425,10.68805,3.257,2.43482,5.85675,6.0558,7.04661,10.35412,1.41594,5.11494,4.27685,7.30736,10.25312,7.11201,13.07935-.4274,26.16477-.62199,37.77668-1.64925Zm-316.03731,200.78179c0-3.43451.12532-6.87441-.02049-10.30269-.89124-20.94992-17.62971-23.43011-33.49376-17.35036-15.56741,5.96595-20.88019,20.8469-25.6051,34.96584-6.27619,18.75413-9.29467,38.37506-12.34433,57.89991-1.52157,9.74155-.54199,19.90335,5.49946,27.38557,8.30133,10.28114,21.09932,9.06611,32.16435,2.37418,10.89977-6.59203,16.9291-17.57441,20.74228-28.95843,7.15275-21.35405,13.21116-43.13436,13.0576-66.01401Zm174.09275-84.65721c9.08598-1.46812,14.35932-3.39445,17.20753-13.02406,5.21401-17.62832,11.81803-34.73485,19.83096-51.31693,2.64726-5.47817,5.60143-11.31164-2.49891-15.93934-4.26284-2.43545-7.23094-7.1113-8.69847-11.99423-1.44228-4.79886-3.86481-5.27292-8.20467-3.81267-7.98209,2.68576-16.36666,4.13815-24.56063,5.8049-15.72644,3.19897-30.2889,9.61101-45.42365,14.39669-2.00271.63327-3.47992,2.36037-2.66207,4.86455,1.57047,4.80858.05138,9.00168-2.57424,12.93-1.2761,1.90916-1.7986,3.42904.11569,5.40448,4.50739,4.65139,8.85561,9.46203,13.15515,14.30861,11.98582,13.51096,25.62,25.2208,39.51148,36.68204,1.64832,1.36001,3.14228,1.53365,4.80184,1.69596Zm-48.6658,101.75558c0-.03998,0-.08.00004-.11998,7.57291,0,15.16551-.33078,22.71183.11716,4.97215.29513,7.37095-1.64378,7.92048-6.25843,1.24849-10.4842,4.75816-20.64987,1.37213-31.64092-2.07926-6.74942-6.20145-11.55198-11.84875-12.7376-12.24337-2.57033-23.85835-.84525-33.24901,9.37959-9.1502,9.96299-12.83729,22.05579-16.59542,34.48268-1.71709,5.67781.64851,6.64354,4.9036,6.72893,8.2587.16577,16.52308.04856,24.78511.04856Zm-42.07007-203.94415c-11.02156,11.08742-27.33242,39.86991-28.95263,50.86988,1.16718-.10289,2.45069.13071,3.35438-.34984,8.15934-4.33884,16.26595-8.77772,24.35291-13.25076,1.63574-.90484,3.14031-2.29157,3.23049-4.20481.16253-3.44815,2.3164-5.82594,3.73633-8.6505.82568-1.64247,2.95695-3.07074,1.94897-5.51065-2.56023-6.1967-5.04706-12.42365-7.67046-18.90332Zm244.08755-93.06422c26.2066,8.24481,49.1982,20.7075,71.46024,34.64794-20.00906-37.65295-51.56068-44.90598-71.46024-34.64794Zm-168.2424,9.91517c-6.10757-.57486-11.42426,1.63465-16.90406,3.00244-18.67291,4.66082-35.30381,12.76863-47.1787,28.64855-4.85504,6.4925-6.15024,11.54697-4.63107,17.62318,20.35978-19.86825,43.06412-36.47558,68.71383-49.27418Zm76.71822,58.21126c.37968,0,2.21982-.08888,4.04842.01852,3.82395.22456,6.19215-1.48765,6.80489-5.23454.67897-4.15136-3.08732-4.15569-5.36816-4.88138-16.06989-5.1133-36.28894,6.00732-37.8959,24.80956-.1879,2.19797-2.06428,5.63939,1.95183,5.97016,2.895.23849,6.30687,1.28506,7.63675-4.11875,2.29262-9.31567,6.88064-17.76071,22.82217-16.56357Zm-209.80818,120.2142c.14519-4.58053-.3147-6.52162-1.48777-6.59535-2.37565-.14919-2.6845,2.18325-3.70742,3.53438-7.77281,10.26646-12.87214,21.45989-11.32056,34.75303.71609,6.13526-1.81842,12.24295-.01082,18.37118.45673,1.54859.7894,3.46868,2.77662,3.25465,1.85175-.19939,1.02006-2.16536,1.33484-3.3745,1.44489-5.54992.89423-12.05311,7.39464-15.21206.56072-.27253.85038-1.61453.84722-2.45818-.04183-11.28037,1.76275-22.31986,4.17324-32.27313Zm207.52919-69.13917c14.00881,1.43492,28.58675-10.36018,30.84335-24.76832.36613-2.33807,1.59269-5.54609-2.525-5.59899-2.73769-.03514-6.707-1.92982-7.32369,3.43897-.22069,1.92161-1.36039,3.8378-2.41988,5.546-5.2946,8.537-13.1163,12.39011-23.03242,11.48633-5.08081-.46304-5.95236,3.65776-6.32143,6.39567-.47731,3.54115,3.2953,3.38898,5.97408,3.47441,1.6001.05101,3.20322.00934,4.805.02592Zm-12.82845-13.37394c-1.92557-3.31567-3.62742-7.83219-8.37115-9.69366-2.6866-1.05432-5.84585.0643-7.66196,1.71717-2.11831,1.92788.54658,4.11403,1.68376,5.9261,1.66802,2.65782,3.32636,5.35755,6.01216,7.22214,1.77028,1.22905,3.20781,4.4842,5.35069,3.15798,2.12866-1.31746,2.67406-4.55742,2.98649-8.32974Zm36.30822-23.8498c1.29432-.11203,2.20871-.17019,3.11788-.2743,1.76531-.20221,3.14245-.94835,3.13269-2.9386-.03123-6.39739-4.62059-9.99077-8.70891-13.85554-.85303-.80644-2.60101-1.41354-2.89845-.24105-.71651,2.82384-4.86568,5.02884-3.00358,7.79953,2.34632,3.4912,2.76395,9.21984,8.36037,9.50997Z"/><path d="m253.9692,661.17957c-7.86741,7.85159-14.86493,16.3276-25.36298,19.1163-20.68479,5.49449-42.97391,5.2664-55.8163-14.28782-6.5745-10.01055-8.90237-21.45193-8.78514-33.20082.16648-16.68738,1.66688-33.1608,5.66969-49.58701,3.82197-15.68432,7.53785-31.34566,13.66116-46.24672,6.71672-16.3452,15.06893-31.73733,30.47325-41.94133,14.93016-9.88985,31.62229-10.47384,48.13262-7.40365,7.67648,1.42755,14.62224,7.25173,19.05901,14.65635,1.34696,2.24789,2.68587,4.50061,5.01093,8.398,2.74577-12.50378,5.1711-23.2494,7.45249-34.02549,2.07408-9.79693,3.94837-19.63608,6.00673-29.4365.56261-2.67874,1.75808-5.24111,2.16868-7.93234,1.54585-10.13108,1.46947-10.14109,11.91853-10.13583,7.12131.00362,14.2616.31908,21.35737-.10626,4.91231-.29454,5.94979,1.85967,5.38541,5.98956-1.08007,7.90352-2.82607,15.81553-4.95562,23.34228-4.89771,17.31046-8.49395,34.92666-12.28646,52.41914-5.82489,26.86638-11.35835,53.81769-16.82772,80.76698-3.93076,19.368-8.33992,38.63514-12.05063,58.02237-1.62017,8.46491-4.49514,16.7694-4.81649,25.47048-.09898,2.68054-1.09568,3.64316-3.68973,3.62464-9.64766-.06902-19.29907-.17136-28.94293.03081-4.25223.08913-3.75178-2.34059-3.06853-4.86063,1.07022-3.94742,1.9238-7.83576.30664-12.67249Zm-50.13234-38.32103c0,2.29443-.11998,4.5961.01864,6.88211,1.32622,21.87024,15.62944,28.19731,35.38916,20.12732,18.11381-7.39772,22.46055-25.95915,27.7107-42.21378,5.3472-16.55523,8.44936-33.89128,9.5619-51.48152.59697-9.43838,1.37436-18.95395-2.06404-27.74437-4.31094-11.02118-24.74025-15.66521-35.74784-8.90216-9.29862,5.71299-14.16374,14.80448-18.23394,24.36511-5.06842,11.9054-8.02274,24.51796-10.51073,37.1195-2.72747,13.81459-6.45143,27.55849-6.12385,41.84778Z"/><path d="m68.68026,678.68055c-20.90252,0-41.80603-.109-62.70685.07987-4.95887.04469-7.19147-.44028-5.31101-6.38111,5.63329-17.79682,8.35139-36.32934,12.33305-54.51535,4.22557-19.30017,8.53671-38.60572,12.52316-57.9635,5.31126-25.79103,11.47253-51.41191,16.40557-77.24973,3.10785-16.27803,7.69996-32.33588,9.02881-48.94582.27714-3.4641,1.83235-4.61356,5.27966-4.60658,42.26357.08564,84.52754.10601,126.79084-.03409,4.06063-.01347,5.09516,1.91164,4.11445,4.9509-2.60023,8.05779-3.94345,16.37259-5.53824,24.63146-.86709,4.49017-4.09486,3.50816-6.90839,3.51203-27.10428.03733-54.20883.08219-81.31274-.02167-4.84642-.0186-7.0312.31567-8.73982,6.5752-4.49099,16.45268-6.02736,33.53168-11.36619,49.74091-1.07505,3.26395-.65458,6.77429-1.25192,10.17362-.69027,3.92819,3.17858,2.84438,5.3399,2.8607,14.46903.10967,28.9401-.02862,43.40877.10357,11.47798.10479,22.95277.60137,34.43052.67195,4.18738.02576,4.98566,1.12729,3.7502,5.26733-2.21125,7.41005-3.76581,15.02618-5.36056,22.60544-.71506,3.39849-2.00426,4.75656-5.86274,4.74503-23.65216-.07091-47.30525.31626-70.95828.34344-13.72529.01574-14.84476.16556-16.06551,14.03562-.89373,10.15447-4.81187,19.43273-6.6559,29.29801-1.90771,10.20586-3.17134,20.67701-6.20456,30.66732-1.48804,4.90095.47496,5.0825,4.39111,5.09176,28.47969.0675,56.95923.45012,85.43812.3934,5.76658-.01145,7.69045,1.62669,5.32458,6.99754-2.9104,6.60701-2.50973,13.82011-3.982,20.69048-.93541,4.36514-2.50866,6.48505-7.62873,6.40291-20.89714-.3354-41.80279-.13989-62.70531-.12061Z"/></g></svg>