<svg version="1.1" id="Layer_1" xmlns="http://www.w3.org/2000/svg" xmlns:xlink="http://www.w3.org/1999/xlink" x="0px" y="0px"
	 width="100%" viewBox="0 0 180 180" enable-background="new 0 0 180 180" xml:space="preserve">
<path fill="#FEFFFD" opacity="1.000000" stroke="none" 
	d="
M97.000000,181.000000 
	C64.688789,181.000000 32.877575,181.000000 1.066360,181.000000 
	C1.044240,180.855576 1.002738,180.711136 1.002731,180.566711 
	C0.999954,120.774956 1.000000,60.983196 1.000000,1.095719 
	C60.894360,1.095719 120.788925,1.095719 180.841736,1.095719 
	C180.841736,60.999668 180.841736,120.999794 180.841736,181.000000 
	C153.127960,181.000000 125.313980,181.000000 97.000000,181.000000 
M113.740723,54.990688 
	C115.729523,55.387596 117.718315,55.784508 120.219040,56.685825 
	C136.999390,63.090065 144.388535,74.224609 144.090179,92.656731 
	C143.930969,102.492485 140.611969,105.846748 130.952942,105.967453 
	C129.298660,105.988121 127.645454,106.094841 125.063629,106.035889 
	C119.040031,106.114281 113.016426,106.192680 106.083191,106.120056 
	C102.390915,106.195259 98.698631,106.270462 94.086349,106.189499 
	C89.395103,106.285286 84.703850,106.381073 79.139359,106.270958 
	C76.974480,106.270409 74.575531,105.680717 72.706009,106.423531 
	C70.536293,107.285599 67.571304,109.015900 67.123489,110.888695 
	C63.478645,126.131691 68.557663,145.651703 86.694862,153.339783 
	C100.868835,159.347885 117.806328,155.611816 130.309052,143.480240 
	C155.560928,118.978035 158.480484,71.581177 136.465973,43.887318 
	C126.149597,30.909496 112.894653,23.482573 96.192986,23.039021 
	C72.585793,22.412081 56.084320,33.958515 44.702213,53.867378 
	C34.743626,71.286308 31.231501,90.526314 29.051199,110.110649 
	C28.853064,111.890388 29.437239,113.757225 29.658125,115.583611 
	C31.583647,112.137863 32.556469,108.785202 33.755901,105.515663 
	C39.657352,89.428909 49.942490,76.616806 63.958672,65.993492 
	C65.359497,65.022705 66.760315,64.051926 68.843498,62.972717 
	C71.228745,61.621170 73.613983,60.269623 76.763603,59.099884 
	C84.842148,57.364925 92.920692,55.629967 101.887802,54.039001 
	C105.591957,54.281311 109.296104,54.523621 113.740723,54.990688 
M71.958008,88.511353 
	C73.614853,90.035233 75.176819,92.738670 76.944809,92.880882 
	C85.041489,93.532166 93.209908,93.811111 101.322304,93.480698 
	C104.379967,93.356163 108.379517,92.049332 110.160179,89.839508 
	C114.109741,84.938011 113.729996,78.929352 110.997314,73.335243 
	C108.480949,68.183952 103.858574,66.307594 98.503555,67.110161 
	C85.903618,68.998543 76.690231,75.523705 71.958008,88.511353 
z"/>
<path fill="#88BF44" opacity="1.000000" stroke="none" 
	d="
M125.991745,106.161804 
	C127.645454,106.094841 129.298660,105.988121 130.952942,105.967453 
	C140.611969,105.846748 143.930969,102.492485 144.090179,92.656731 
	C144.388535,74.224609 136.999390,63.090065 120.311226,56.250397 
	C125.093155,49.768063 123.249916,41.859776 116.033020,35.988384 
	C108.442207,29.812786 99.888817,27.570026 90.141937,27.887138 
	C76.279564,28.338150 60.104977,38.798733 55.761547,51.891693 
	C53.368618,59.105003 54.315472,65.050415 63.343067,66.156624 
	C49.942490,76.616806 39.657352,89.428909 33.755901,105.515663 
	C32.556469,108.785202 31.583647,112.137863 29.658125,115.583611 
	C29.437239,113.757225 28.853064,111.890388 29.051199,110.110649 
	C31.231501,90.526314 34.743626,71.286308 44.702213,53.867378 
	C56.084320,33.958515 72.585793,22.412081 96.192986,23.039021 
	C112.894653,23.482573 126.149597,30.909496 136.465973,43.887318 
	C158.480484,71.581177 155.560928,118.978035 130.309052,143.480240 
	C117.806328,155.611816 100.868835,159.347885 86.694862,153.339783 
	C68.557663,145.651703 63.478645,126.131691 67.123489,110.888695 
	C67.571304,109.015900 70.536293,107.285599 72.706009,106.423531 
	C74.575531,105.680717 76.974480,106.270409 79.575073,106.732758 
	C79.400101,108.687691 78.802025,110.186119 78.176758,111.673126 
	C72.145897,126.015617 74.586090,142.582169 92.353012,148.549881 
	C103.746307,152.376755 114.245743,149.807281 123.562462,142.247498 
	C128.991348,137.842361 133.195099,132.643280 133.960846,125.450592 
	C134.713272,118.383247 134.142807,111.718361 126.682007,107.956535 
	C126.258057,107.742775 126.213097,106.777374 125.991745,106.161804 
z"/>
<path fill="#80B73C" opacity="1.000000" stroke="none" 
	d="
M125.527695,106.098846 
	C126.213097,106.777374 126.258057,107.742775 126.682007,107.956535 
	C134.142807,111.718361 134.713272,118.383247 133.960846,125.450592 
	C133.195099,132.643280 128.991348,137.842361 123.562462,142.247498 
	C114.245743,149.807281 103.746307,152.376755 92.353012,148.549881 
	C74.586090,142.582169 72.145897,126.015617 78.176758,111.673126 
	C78.802025,110.186119 79.400101,108.687691 80.011703,106.835716 
	C84.703850,106.381073 89.395103,106.285286 94.536133,106.608894 
	C93.851860,108.094131 92.830612,109.322952 91.565102,110.198868 
	C84.357758,115.187416 81.528305,122.077057 83.149612,130.546005 
	C84.635361,138.306793 90.225235,142.213181 97.467300,144.042969 
	C107.905624,146.680313 119.597664,141.033783 124.426208,131.134033 
	C128.320496,123.149757 125.179131,115.158722 116.901642,112.108452 
	C114.721764,111.305168 112.337357,110.933502 110.321365,109.851967 
	C108.962570,109.123009 108.085434,107.496223 106.992828,106.271072 
	C113.016426,106.192680 119.040031,106.114281 125.527695,106.098846 
z"/>
<path fill="#88BF43" opacity="1.000000" stroke="none" 
	d="
M71.978523,88.116295 
	C76.690231,75.523705 85.903618,68.998543 98.503555,67.110161 
	C103.858574,66.307594 108.480949,68.183952 110.997314,73.335243 
	C113.729996,78.929352 114.109741,84.938011 110.160179,89.839508 
	C108.379517,92.049332 104.379967,93.356163 101.322304,93.480698 
	C93.209908,93.811111 85.041489,93.532166 76.944809,92.880882 
	C75.176819,92.738670 73.614853,90.035233 71.978523,88.116295 
z"/>
<path fill="#7AB138" opacity="1.000000" stroke="none" 
	d="
M106.538010,106.195564 
	C108.085434,107.496223 108.962570,109.123009 110.321365,109.851967 
	C112.337357,110.933502 114.721764,111.305168 116.901642,112.108452 
	C125.179131,115.158722 128.320496,123.149757 124.426208,131.134033 
	C119.597664,141.033783 107.905624,146.680313 97.467300,144.042969 
	C90.225235,142.213181 84.635361,138.306793 83.149612,130.546005 
	C81.528305,122.077057 84.357758,115.187416 91.565102,110.198868 
	C92.830612,109.322952 93.851860,108.094131 94.996140,106.686974 
	C98.698631,106.270462 102.390915,106.195259 106.538010,106.195564 
M109.776459,136.615204 
	C115.771103,133.009674 118.085312,127.622452 115.525253,123.232605 
	C112.196449,117.524521 101.710381,115.049782 96.032684,118.632324 
	C91.772743,121.320290 90.112495,126.376480 91.914925,131.172699 
	C94.285324,137.480255 100.918282,139.725189 109.776459,136.615204 
z"/>
<path fill="#7EB53B" opacity="1.000000" stroke="none" 
	d="
M100.999237,53.895008 
	C92.920692,55.629967 84.842148,57.364925 76.323410,58.668320 
	C68.830597,52.268936 68.190132,48.392742 73.754265,43.280132 
	C79.886070,37.645908 87.371445,35.797066 95.361351,37.378212 
	C105.084541,39.302368 106.997124,44.908421 101.195145,52.932976 
	C101.020462,53.174572 101.059723,53.570850 100.999237,53.895008 
z"/>
<path fill="#82BA3E" opacity="1.000000" stroke="none" 
	d="
M63.650871,66.075058 
	C54.315472,65.050415 53.368618,59.105003 55.761547,51.891693 
	C60.104977,38.798733 76.279564,28.338150 90.141937,27.887138 
	C99.888817,27.570026 108.442207,29.812786 116.033020,35.988384 
	C123.249916,41.859776 125.093155,49.768063 120.055267,55.998192 
	C117.718315,55.784508 115.729523,55.387596 113.423279,54.532158 
	C116.741951,47.879093 116.151604,42.926289 110.739349,38.380077 
	C108.507660,36.505489 105.817963,34.889362 103.064651,33.970715 
	C88.857796,29.230572 76.800087,32.576382 66.664192,43.736519 
	C60.049767,51.019341 60.302853,57.187191 68.161140,63.081139 
	C66.760315,64.051926 65.359497,65.022705 63.650871,66.075058 
z"/>
<path fill="#80B73C" opacity="1.000000" stroke="none" 
	d="
M68.502319,63.026932 
	C60.302853,57.187191 60.049767,51.019341 66.664192,43.736519 
	C76.800087,32.576382 88.857796,29.230572 103.064651,33.970715 
	C105.817963,34.889362 108.507660,36.505489 110.739349,38.380077 
	C116.151604,42.926289 116.741951,47.879093 113.053055,54.419781 
	C109.296104,54.523621 105.591957,54.281311 101.443527,53.967003 
	C101.059723,53.570850 101.020462,53.174572 101.195145,52.932976 
	C106.997124,44.908421 105.084541,39.302368 95.361351,37.378212 
	C87.371445,35.797066 79.886070,37.645908 73.754265,43.280132 
	C68.190132,48.392742 68.830597,52.268936 75.941223,58.577415 
	C73.613983,60.269623 71.228745,61.621170 68.502319,63.026932 
z"/>
<path fill="#75AC35" opacity="1.000000" stroke="none" 
	d="
M109.419510,136.795776 
	C100.918282,139.725189 94.285324,137.480255 91.914925,131.172699 
	C90.112495,126.376480 91.772743,121.320290 96.032684,118.632324 
	C101.710381,115.049782 112.196449,117.524521 115.525253,123.232605 
	C118.085312,127.622452 115.771103,133.009674 109.419510,136.795776 
z"/>
</svg>