<?xml version="1.0" encoding="UTF-8"?>
<svg id="Livello_2" data-name="Livello 2" xmlns="http://www.w3.org/2000/svg" viewBox="0 0 1000 1000">
  <defs>
    <style>
      .cls-1 {
        fill: none;
      }

      .cls-2 {
        fill: #003f98;
      }
    </style>
  </defs>
  <g id="Livello_2-2" data-name="Livello 2">
    <g id="Livello_1-2" data-name="Livello 1-2">
      <rect class="cls-1" width="1000" height="1000"/>
      <g id="layer1">
        <g id="g3414">
          <path id="path3416" class="cls-2" d="M692.58,579.95c-43.34,0-59.78-40.35-59.78-79.95s17.19-79.95,59.78-79.95,59.78,40.35,59.78,79.95-17.19,79.95-59.78,79.95M692.58,379.7c-68,0-106.85,50.81-106.85,120.3s38.85,120.3,106.85,120.3,106.85-50.06,106.85-120.3-38.85-120.3-106.85-120.3"/>
        </g>
        <g id="g3418">
          <path id="path3420" class="cls-2" d="M0,386.86h169.62v40.35H47.07v50.81h114.32v40.35H47.07v56.04h122.54v40.35H0c0-1.49,0-227.9,0-227.9Z"/>
        </g>
        <g id="g3422">
          <path id="path3424" class="cls-2" d="M279.91,505.26h-42.59v-77.71h42.59c30.64,0,50.06,13.45,50.06,38.85-.75,26.15-20.17,38.85-50.06,38.85M189.5,614.35h47.07v-68h42.59c58.28,0,97.14-27.65,97.14-79.95s-38.85-79.95-97.14-79.95h-89.66v227.9Z"/>
        </g>
        <g id="g3426">
          <path id="path3428" class="cls-2" d="M865.5,386.86h-48.57v227.15h46.33v-91.91c0-25.41-1.49-47.07-1.49-66.5,5.98,11.21,21.67,46.33,29.14,58.28l60.52,100.87h48.57v-227.15h-46.33v89.66c0,25.41,1.49,50.06,1.49,69.49-5.98-11.21-21.67-46.33-30.64-58.28l-59.03-101.62Z"/>
        </g>
        <g id="g3430">
          <path id="path3432" class="cls-2" d="M430.49,538.86c0,30.64,25.41,42.59,52.3,42.59,17.93,0,46.33-4.48,46.33-29.14s-35.12-29.14-69.49-38.85c-35.12-8.22-69.49-21.67-69.49-64.26,0-47.07,44.83-69.49,85.93-69.49,47.07,0,91.91,20.92,91.91,73.97h-47.07c-2.24-27.65-23.16-35.12-47.07-35.12-15.69,0-36.61,7.47-36.61,25.41s11.96,20.92,69.49,35.12c17.19,3.74,69.49,14.2,69.49,66.5,0,42.59-32.88,73.97-95.64,73.97-50.81,0-98.63-25.41-98.63-81.45h48.57v.75Z"/>
        </g>
      </g>
    </g>
  </g>
</svg>