<?xml version="1.0" encoding="utf-8"?>
<!-- Generator: Adobe Illustrator 27.6.1, SVG Export Plug-In . SVG Version: 6.00 Build 0)  -->
<svg version="1.1" id="Layer_1" xmlns="http://www.w3.org/2000/svg" xmlns:xlink="http://www.w3.org/1999/xlink" x="0px" y="0px"
	 viewBox="0 0 1000 1000" style="enable-background:new 0 0 1000 1000;" xml:space="preserve">
<style type="text/css">
	.st0{fill:none;}
	.st1{fill:#B5010F;}
</style>
<rect x="0" class="st0" width="1000" height="1000"/>
<g>
	<path class="st1" d="M988.6,24.5c53,53-93.9,285.9-118.8,310.7c-24.8,24.8-87.9,2-140.9-51c-53-53-75.8-116.1-51-140.9
		C702.7,118.5,935.6-28.5,988.6,24.5"/>
	<path class="st1" d="M245.2,80.6c-80.9-45.9-196.1-97-232.7-60.4c-37.1,37.1,15.8,154.8,62.2,235.9
		C116,184.4,174.8,123.9,245.2,80.6"/>
	<path class="st1" d="M907.7,317c7.5,25.3,6.1,46.2-6,58.2c-28.2,28.2-104.5-1.8-173.2-67.2c-4.8-4.3-9.6-8.8-14.2-13.5
		c-24.9-24.9-44.2-51.3-56.6-75.7c-24.1-43.2-30.1-81.3-11.9-99.5c9.9-9.9,25.8-12.6,45.1-9.1c12.6-8,27.5-16.9,43.9-26
		c-66.4-34.6-142-54.2-222.1-54.2C247,29.9,31.5,245.3,31.5,511.1c0,265.7,215.4,481.2,481.2,481.2s481.2-215.4,481.2-481.2
		c0-85.8-22.5-166.3-61.9-236.1C923.5,290.6,915.3,304.8,907.7,317"/>
</g>
</svg>
