<?xml version="1.0" encoding="UTF-8"?>
<svg id="Livello_2" data-name="Livello 2" xmlns="http://www.w3.org/2000/svg" xmlns:xlink="http://www.w3.org/1999/xlink" viewBox="0 0 1000 1000">
  <defs>
    <style>
      .cls-1 {
        fill: none;
      }

      .cls-2 {
        fill: #c00000;
      }

      .cls-3 {
        fill: #4c4948;
      }

      .cls-4 {
        fill: #fff;
      }

      .cls-5 {
        clip-path: url(#clippath);
      }
    </style>
    <clipPath id="clippath">
      <rect class="cls-1" y="259.62" width="1000" height="480.77"/>
    </clipPath>
  </defs>
  <g id="Livello_2-2" data-name="Livello 2">
    <g id="Layer_2" data-name="Layer 2">
      <g id="Layer_2-2" data-name="Layer 2-2">
        <g id="Layer_2-2-2" data-name="Layer 2-2-2">
          <g id="Layer_1-2" data-name="Layer 1-2">
            <g class="cls-5">
              <g>
                <path class="cls-3" d="M758.5,399.96v-52.43h-182.53v298.04h61.11v-120.24h112.36v-52.43h-112.36v-72.93h121.42Z"/>
                <path class="cls-3" d="M894.11,468.95c-43.76-15.77-51.64-26.81-51.64-43.37,0-14.19,11.43-30.75,44.15-30.75,22.87,0,40.21,6.31,50.86,11.83l11.83,6.31,18.14-49.67-8.28-4.34c-10.64-5.52-33.9-14.98-70.96-14.98-30.75,0-57.16,8.28-76.87,24.05-19.71,15.77-30.36,37.85-30.36,62.29,0,40.61,27.99,69.38,85.55,88.7,40.61,14.59,48.49,27.2,48.49,44.94,0,22.87-18.92,36.66-50.46,36.66-21.29,0-44.55-6.31-62.68-16.56l-11.43-6.7-18.13,50.07,7.49,4.73c18.53,11.43,52.04,19.71,82,19.71,79.63,0,115.12-45.73,115.12-90.67,0-54.8-41.79-77.27-82.79-92.25Z"/>
                <g>
                  <path class="cls-2" d="M442.32,422.03h-251.12c-21.68,0-39.42-17.74-39.42-39.42s17.74-39.42,39.42-39.42h222.74c-43.37-48.1-106.05-78.45-175.83-78.45C108.02,264.74,2.36,370.39,2.36,500.49s105.65,235.75,235.75,235.75,235.75-105.65,235.75-235.75c0-28.78-5.13-56.77-14.98-82.39-4.73,2.37-10.64,3.94-16.56,3.94ZM233.78,649.9h-63.08c-17.35,0-31.54-14.19-31.54-31.54s14.19-31.54,31.54-31.54h62.68c17.35,0,31.54,14.19,31.54,31.54s-13.8,31.54-31.14,31.54ZM329.97,539.91h-149.41c-19.32,0-35.48-15.77-35.48-35.48s15.77-35.48,35.48-35.48h149.41c19.32,0,35.48,15.77,35.48,35.48s-16.16,35.48-35.48,35.48Z"/>
                  <path class="cls-4" d="M329.97,468.95h-149.41c-19.32,0-35.48,15.77-35.48,35.48s15.77,35.48,35.48,35.48h149.41c19.32,0,35.48-15.77,35.48-35.48s-16.16-35.48-35.48-35.48Z"/>
                  <path class="cls-4" d="M233.78,586.82h-63.08c-17.35,0-31.54,14.19-31.54,31.54s14.19,31.54,31.54,31.54h62.68c17.35,0,31.54-14.19,31.54-31.54s-13.8-31.54-31.14-31.54Z"/>
                  <path class="cls-2" d="M481.75,382.62c0-21.68-17.74-39.42-39.42-39.42h-28.38c19.32,21.68,35.09,46.91,45.34,74.9,13.01-6.31,22.47-19.71,22.47-35.48Z"/>
                  <path class="cls-4" d="M389.89,343.19h-198.69c-21.68,0-39.42,17.74-39.42,39.42s17.74,39.42,39.42,39.42h251.12c5.91,0,11.43-1.18,16.56-3.94-10.25-27.99-26.02-53.22-45.34-74.9h-23.65Z"/>
                </g>
              </g>
            </g>
            <rect class="cls-1" width="1000" height="1000"/>
          </g>
        </g>
      </g>
    </g>
  </g>
</svg>