<?xml version="1.0" encoding="UTF-8"?>
<svg id="Layer_2" data-name="Layer 2" xmlns="http://www.w3.org/2000/svg" viewBox="0 0 1000 1000">
  <defs>
    <style>
      .cls-1 {
        fill: none;
      }

      .cls-1, .cls-2 {
        stroke-width: 0px;
      }

      .cls-2 {
        fill: #e60012;
      }
    </style>
  </defs>
  <g id="Layer_2-2" data-name="Layer 2">
    <g id="Layer_2-2" data-name="Layer 2-2">
      <g id="Layer_2-2-2" data-name="Layer 2-2">
        <g id="Layer_1-2" data-name="Layer 1-2">
          <rect class="cls-1" width="1000" height="1000"/>
          <g id="layer1">
            <g id="g5598">
              <path id="path5600" class="cls-2" d="M54.89,542.83h50.64c9.6,0,18.56,7.01,19.05,16.3h.46v-38.18H54.89l-.03-67.01h67.68c9.64,0,18.62,6.98,19.12,16.25h.44l-.07-38.2-142.03.06v.42c9.56.52,16.74,10.65,16.74,20.11v175.55c0,9.43-7.17,19.6-16.74,20.14v.41h71.66v-.41c-9.57-.54-16.8-10.71-16.8-20.14l.03-85.3Z"/>
            </g>
            <g id="g5602">
              <path id="path5604" class="cls-2" d="M201.52,590.42c0,22.53,18.79,42,41.97,42s42.01-19.73,42.01-42.27v-137.58c0-9.46-7.2-19.59-16.79-20.11v-.41l71.71-.07v.48c-9.57.52-16.82,10.65-16.82,20.11v133.69c0,43.03-35.68,68.1-79.93,68.1s-80.39-25.07-80.39-68.1l.09-133.69c0-9.46-7.23-19.59-16.75-20.11v-.48h71.61v.48c-9.55.57-16.75,10.71-16.75,20.11l.03,137.85Z"/>
            </g>
            <g id="g5606">
              <path id="path5608" class="cls-2" d="M787.45,467.07c-12.01-19.36-39.43-17.03-39.43-17.03-44.85,0-42.73,34.11-42.73,34.11,0,0-3.08,17.11,19.45,28.79l44.84,23.76c43.28,23.16,38.15,56.07,38.15,56.07,0,0,1.96,61.48-88.57,61.48,0,0-26.3.8-41.19-4.76l-12.74-39.82h.44c13.79,19.83,53.86,22.69,53.86,22.69,50.87-2.23,51.22-36.69,51.22-36.69,0,0,2.29-14.84-17.62-25.59l-44.63-23.75c-46.59-24.82-41.25-58.25-41.25-58.25,0,0-1.1-60.48,78.99-60.48,0,0,35.95.92,41.68,6.52v32.97h-.46Z"/>
            </g>
            <g id="g5610">
              <path id="path5612" class="cls-2" d="M438.04,356.65c7.94,7.77,19.03,12.54,31.12,12.54,24.38,0,44.11-19.18,44.11-42.88s-19.73-42.85-44.11-42.85c0,0-33.96-3.13-49.24,39.12l.05-31.71c11.37-14.47,28.98-24.99,49.19-24.99,34.4,0,62.22,27.03,62.22,60.44s-27.83,60.49-62.22,60.49c-17.18,0-32.72-6.74-43.95-17.73l-21.4-23.39c-5.87-5.7-13.94-9.16-22.78-9.16-17.82,0-32.27,14-32.27,31.3s14.45,31.41,32.27,31.41c0,0,23.83,3.11,38.89-25.61l.05,25.4c-9.22,10.88-23.3,17.82-38.94,17.82-27.82,0-50.41-21.95-50.41-49.01s22.59-48.91,50.41-48.91c13.86,0,26.45,5.41,35.58,14.35l21.42,23.39Z"/>
            </g>
            <g id="g5614">
              <path id="path5616" class="cls-2" d="M449.5,452.12c0-9.47-7.21-19.17-16.76-19.66v-.41h71.55v.41c-9.5.53-16.74,10.24-16.74,19.66v175.93c0,9.44,7.24,19.61,16.74,20.17v.4h-71.55v-.4c9.56-.56,16.76-10.73,16.76-20.17v-175.93Z"/>
            </g>
            <g id="g5618">
              <path id="path5620" class="cls-2" d="M404.57,452.58c0-9.46,7.19-19.59,16.75-20.11v-.42h-71.66v.42c9.59.52,16.75,10.65,16.75,20.11l.06,219.94s-.8,38.84-32.09,61.18l.08.43c6.17-1.01,70.17-12.82,70.17-74.63l-.05-206.92Z"/>
            </g>
            <g id="g5622">
              <path id="path5624" class="cls-2" d="M504.02,471.02h.43c9.7-16.88,24.66-17.08,24.66-17.08h38.79l.03,174.19c0,9.43-7.22,19.52-16.77,20.08v.4h71.75v-.4c-9.63-.56-16.87-10.73-16.87-20.08l.05-174.19,32.42-.08c9.85,0,17.64,7.63,17.92,17.15h.39l11.91-39.04h-152.77l-11.95,39.04Z"/>
            </g>
            <g id="g5626">
              <path id="path5628" class="cls-2" d="M861.11,590.42c0,22.53,18.79,42,41.98,42s42-19.73,42-42.27v-137.58c0-9.46-7.21-19.59-16.75-20.11v-.41l71.66-.07v.48c-9.5.52-16.75,10.65-16.75,20.11v133.69c0,43.03-35.69,68.1-80.01,68.1s-80.31-25.07-80.31-68.1l.05-133.69c0-9.46-7.22-19.59-16.79-20.11v-.48h71.68v.48c-9.6.57-16.81,10.71-16.81,20.11l.05,137.85Z"/>
            </g>
          </g>
        </g>
      </g>
    </g>
  </g>
</svg>