<?xml version="1.0" encoding="UTF-8"?>
<svg id="Layer_2" data-name="Layer 2" xmlns="http://www.w3.org/2000/svg" viewBox="0 0 1000 1000">
  <defs>
    <style>
      .cls-1 {
        fill: none;
      }

      .cls-1, .cls-2, .cls-3 {
        stroke-width: 0px;
      }

      .cls-2 {
        fill: #00b188;
      }

      .cls-3 {
        fill: #040404;
      }
    </style>
  </defs>
  <g id="Layer_2-2" data-name="Layer 2">
    <g id="Layer_2-2" data-name="Layer 2-2">
      <g id="Layer_1-2" data-name="Layer 1-2">
        <rect class="cls-1" width="1000" height="1000"/>
        <g>
          <path class="cls-2" d="M320.63,368.45H21.62v-55.7h299.01v55.7ZM342.62,290.77H1.1v98.2h341.52v-98.2Z"/>
          <path class="cls-3" d="M21.99,552.03H0v-98.94h21.99v38.48h38.48v-38.48h21.99v98.94h-21.99v-40.31H21.99v40.31"/>
          <path class="cls-3" d="M113.59,508.06h25.65c0-7.33-3.66-12.83-10.99-12.83s-12.83,3.66-14.66,12.83ZM130.08,552.03c-21.99,0-36.64-12.83-36.64-36.64,0-21.99,14.66-36.64,32.98-36.64,20.15,0,31.15,14.66,31.15,34.81v7.33h-43.97c1.83,10.99,10.99,12.83,20.15,12.83,7.33,0,12.83-1.83,20.15-5.5h0v16.49c-5.5,5.5-12.83,7.33-23.82,7.33"/>
          <path class="cls-3" d="M214.36,510.26l-10.99,42.14h-18.32l-21.99-69.62h20.15l10.99,42.14,10.99-42.14h16.49l10.99,42.14,10.99-42.14h20.15l-21.99,69.62h-18.32l-9.16-42.14"/>
          <path class="cls-3" d="M299.38,553.13c-16.49,0-23.82-7.33-23.82-21.99v-76.95h20.15v75.12c0,5.5,1.83,7.33,5.5,7.33,1.83,0,3.66,0,5.5-1.83h0v16.49s-3.66,1.83-7.33,1.83"/>
          <path class="cls-3" d="M334.92,508.06h25.65c0-7.33-3.66-12.83-10.99-12.83s-12.83,3.66-14.66,12.83ZM349.58,552.03c-21.99,0-36.64-12.83-36.64-36.64,0-21.99,14.66-36.64,32.98-36.64,20.15,0,31.15,14.66,31.15,34.81v7.33h-43.97c1.83,10.99,10.99,12.83,20.15,12.83,7.33,0,12.83-1.83,20.15-5.5h0v16.49c-5.5,5.5-12.83,7.33-23.82,7.33"/>
          <path class="cls-3" d="M465.01,482.04h14.66v16.49h-14.66v29.31c0,5.5,1.83,9.16,9.16,9.16,1.83,0,3.66,0,5.5-1.83h0v16.49c-1.83,1.83-7.33,1.83-12.83,1.83-16.49,0-23.82-7.33-23.82-25.65v-29.31h-25.65v29.31c0,5.5,1.83,9.16,9.16,9.16,1.83,0,3.66,0,5.5-1.83h0v16.49c-1.83,1.83-7.33,1.83-12.83,1.83-16.49,0-23.82-7.33-23.82-25.65v-29.31h-10.99v-16.49h10.99v-18.32h20.15v18.32h25.65v-18.32h20.15v18.32"/>
          <path class="cls-3" d="M550.38,501.83c10.99,0,16.49-5.5,16.49-14.66s-5.5-14.66-16.49-14.66h-12.83v29.31s12.83,0,12.83,0ZM587.03,485.34c0,21.99-14.66,32.98-36.64,32.98h-14.66v31.15h-21.99v-98.94h36.64c21.99,1.83,36.64,14.66,36.64,34.81"/>
          <path class="cls-3" d="M633.2,528.58v-5.5c-3.66-1.83-7.33-1.83-10.99-1.83-7.33,0-10.99,1.83-10.99,7.33s3.66,9.16,10.99,9.16c3.66,0,9.16-3.66,10.99-9.16ZM633.2,545.07c-3.66,5.5-10.99,7.33-18.32,7.33-12.83,0-25.65-9.16-25.65-23.82,0-12.83,10.99-21.99,27.48-21.99,5.5,0,10.99,0,14.66,1.83v-1.83c0-7.33-3.66-10.99-14.66-10.99-7.33,0-14.66,1.83-20.15,5.5h0v-16.49c5.5-1.83,14.66-5.5,23.82-5.5,20.15,0,32.98,9.16,32.98,27.48v43.97h-20.15v-5.5"/>
          <path class="cls-3" d="M663.61,517.22c0-21.99,16.49-36.64,36.64-36.64,7.33,0,14.66,1.83,20.15,5.5v18.32h0c-3.66-3.66-9.16-5.5-16.49-5.5-10.99,0-18.32,7.33-18.32,18.32,0,12.83,7.33,18.32,18.32,18.32,5.5,0,10.99-1.83,16.49-5.5h0v18.32c-5.5,3.66-12.83,5.5-20.15,5.5-20.15-1.83-36.64-14.66-36.64-36.64"/>
          <path class="cls-3" d="M753.02,518.69v31.15h-20.15v-97.11h20.15v56.8l20.15-27.48h23.82l-25.65,31.15,25.65,36.64h-23.82l-20.15-31.15"/>
          <path class="cls-3" d="M845.36,528.58v-5.5c-3.66-1.83-7.33-1.83-10.99-1.83-7.33,0-10.99,1.83-10.99,7.33s3.66,9.16,10.99,9.16c3.66,0,9.16-3.66,10.99-9.16ZM845.36,545.07c-3.66,5.5-10.99,7.33-18.32,7.33-12.83,0-25.65-9.16-25.65-23.82,0-12.83,10.99-21.99,27.48-21.99,5.5,0,10.99,0,14.66,1.83v-1.83c0-7.33-3.66-10.99-14.66-10.99-7.33,0-14.66,1.83-20.15,5.5h0v-16.49c5.5-3.66,14.66-5.5,23.82-5.5,20.15,0,32.98,9.16,32.98,27.48v43.97h-20.15v-5.5"/>
          <path class="cls-3" d="M901.06,493.04c3.66-7.33,9.16-12.83,16.49-12.83,3.66,0,5.5,0,7.33,1.83v20.15h0c-1.83-1.83-5.5-1.83-9.16-1.83-7.33,0-10.99,3.66-12.83,10.99v40.31h-20.15v-69.62h20.15v10.99"/>
          <path class="cls-3" d="M979.85,527.85v-21.99c-3.66-5.5-7.33-7.33-12.83-7.33-9.16,0-14.66,7.33-14.66,18.32,0,12.83,5.5,18.32,14.66,18.32,3.66,0,9.16-1.83,12.83-7.33ZM979.85,544.34c-3.66,5.5-10.99,9.16-20.15,9.16-18.32,0-29.31-16.49-29.31-36.64s10.99-36.64,29.31-36.64c9.16,0,16.49,3.66,20.15,7.33v-34.81h20.15v98.94h-20.15v-7.33"/>
          <path class="cls-3" d="M1.47,583.55h60.46v12.83H14.29v29.31h42.14v10.99H14.29v32.98h47.64v12.83H1.47v-98.94"/>
          <path class="cls-3" d="M111.76,610.66c14.66,0,23.82,10.99,23.82,27.48v43.97h-12.83v-43.97c0-9.16-3.66-14.66-14.66-14.66-7.33,0-14.66,5.5-18.32,12.83v45.8h-12.83v-69.62h12.83v9.16c5.5-5.5,12.83-10.99,21.99-10.99"/>
          <path class="cls-3" d="M170.76,611.76h18.32v10.99h-18.32v36.64c0,7.33,3.66,10.99,10.99,10.99,1.83,0,3.66,0,5.5-1.83h0v10.99c-1.83,0-3.66,1.83-7.33,1.83-16.49,0-21.99-7.33-21.99-20.15v-38.48h-12.83v-10.99h12.83v-18.32h12.83v18.32"/>
          <path class="cls-3" d="M209.97,640.34h34.81c0-10.99-5.5-18.32-16.49-18.32-9.16,0-16.49,7.33-18.32,18.32ZM230.12,682.48c-20.15,0-34.81-12.83-34.81-34.81s12.83-36.64,31.15-36.64,29.31,12.83,29.31,34.81v5.5h-45.8c1.83,14.66,10.99,20.15,21.99,20.15,7.33,0,12.83-1.83,20.15-5.5h0v10.99c-5.5,3.66-12.83,5.5-21.99,5.5"/>
          <path class="cls-3" d="M286.92,622.76c3.66-7.33,9.16-10.99,16.49-10.99,3.66,0,5.5,0,7.33,1.83v12.83h0c-1.83-1.83-5.5-1.83-7.33-1.83-7.33,0-12.83,5.5-14.66,12.83v45.8h-12.83v-69.62h10.99v9.16"/>
          <path class="cls-3" d="M352.51,670.76c12.83,0,20.15-10.99,20.15-23.82,0-14.66-7.33-23.82-20.15-23.82-7.33,0-12.83,3.66-16.49,10.99v25.65c1.83,7.33,9.16,10.99,16.49,10.99ZM354.34,610.3c20.15,0,31.15,16.49,31.15,36.64,0,18.32-10.99,36.64-31.15,36.64-9.16,0-16.49-3.66-20.15-9.16v34.81h-12.83v-95.27h12.83v7.33c3.66-5.5,10.99-10.99,20.15-10.99"/>
          <path class="cls-3" d="M414.8,622.76c3.66-7.33,9.16-10.99,16.49-10.99,3.66,0,5.5,0,7.33,1.83v12.83h0c-1.83-1.83-5.5-1.83-7.33-1.83-7.33,0-12.83,5.5-14.66,12.83v45.8h-12.83v-69.62h12.83v9.16"/>
          <path class="cls-3" d="M457.31,584.65c3.66,0,9.16,3.66,9.16,7.33s-3.66,7.33-9.16,7.33c-3.66,0-9.16-3.66-9.16-7.33s3.66-7.33,9.16-7.33"/>
          <path class="cls-3" d="M449.62,682.12h13.19v-68.89h-13.19v68.89Z"/>
          <path class="cls-3" d="M509.34,641.81c9.16,3.66,20.15,7.33,20.15,20.15,0,14.66-10.99,21.99-25.65,21.99-9.16,0-18.32-1.83-23.82-5.5v-12.83h0c5.5,5.5,14.66,7.33,21.99,7.33s14.66-3.66,14.66-9.16-5.5-7.33-16.49-10.99c-9.16-3.66-20.15-7.33-20.15-20.15s10.99-21.99,25.65-21.99c7.33,0,14.66,1.83,21.99,5.5v12.83h0c-5.5-3.66-12.83-7.33-20.15-7.33s-12.83,3.66-12.83,9.16c-1.83,5.5,3.66,7.33,14.66,10.99"/>
          <path class="cls-3" d="M555.51,640.34h34.81c0-10.99-5.5-18.32-16.49-18.32-9.16,0-16.49,7.33-18.32,18.32ZM575.67,682.48c-20.15,0-34.81-12.83-34.81-34.81s12.83-36.64,31.15-36.64,29.31,12.83,29.31,34.81v5.5h-47.64c1.83,14.66,10.99,20.15,21.99,20.15,7.33,0,12.83-1.83,20.15-5.5h0v10.99c-3.66,3.66-10.99,5.5-20.15,5.5"/>
        </g>
      </g>
    </g>
  </g>
</svg>