<?xml version="1.0" encoding="UTF-8"?>
<svg id="Livello_2" data-name="Livello 2" xmlns="http://www.w3.org/2000/svg" viewBox="0 0 1000 1000">
  <defs>
    <style>
      .cls-1 {
        fill: none;
      }

      .cls-2 {
        fill: #232527;
      }

      .cls-3 {
        fill: #cf0a2c;
      }
    </style>
  </defs>
  <g id="Layer_2" data-name="Layer 2">
    <g id="Layer_2-2" data-name="Layer 2-2">
      <g id="Layer_2-2-2" data-name="Layer 2-2">
        <g id="Layer_1-2" data-name="Layer 1-2">
          <g id="layer1">
            <g id="g11533">
              <path id="path4250" class="cls-2" d="M316.47,834.29v93.45c0,26.55-13.17,40.71-37.11,40.71s-37.32-14.57-37.32-41.84v-92.22h-33.11v93.35c0,45.93,25.51,72.25,70,72.25s70.66-26.83,70.66-73.6v-92.11h-33.11ZM438.3,834.29l-71.92,163.17h33.8l13.88-31.6.99-2.37h74.72l14.65,33.97h34.72l-71.25-162.2-.64-.97h-28.95ZM635.19,834.29l-37.06,112.27-36.08-112.18h-35.24l56.89,163.18h27.42l37.14-107.2,37.11,107.2h27.65l56.75-163.18h-34.34l-36.15,112.18-37.07-112.27h-27.01ZM959.25,834.29v163.03h32.68v-163.03h-32.68ZM21.97,834.3v163.25h33.12v-66.3h74.79v66.3h33.13v-163.25h-33.13v65.86H55.09v-65.86H21.97ZM796.47,834.41v163.03h123.28v-29.72h-90.6v-40.42h60.25v-29.73h-60.25v-33.42h87.45v-29.72h-120.12ZM452.33,875.6l23.61,54.66h-.08l1.61,3.77h-50.1l1.59-3.77h-.03l23.4-54.66Z"/>
              <path id="path4252" class="cls-3" d="M434.44,0c-13.14,1.16-48.64,9.24-48.64,9.24h-.01c-80.02,20.68-98.94,93.3-98.94,93.3-3.91,12.21-5.68,24.73-6.21,36.52v16.05c1.06,24.79,6.58,43.31,6.58,43.31,26.73,118.53,158.16,313.29,186.41,354.2,2,1.99,3.61,1.27,3.61,1.27,3.05-.84,2.81-3.77,2.81-3.77h.06C523.61,115.27,434.44,0,434.44,0h0ZM578.2,0s-89.56,115.33-46.02,550.45h.06c.34,2.76,2.3,3.34,2.3,3.34,2.91,1.13,4.41-1.67,4.41-1.67v.03c28.99-41.96,159.67-235.66,186.28-353.73,0,0,14.43-57.15.5-95.87,0,0-19.78-73.74-99.91-93.23,0,0-23.09-5.86-47.62-9.31h0ZM165.11,130.55s-76.25,72.37-80.04,149.09h.03v11.63c.06.87.1,1.76.16,2.65,3.28,61.87,49.83,98.48,49.83,98.48,74.99,73.08,256.56,165.36,298.76,186.3.59.22,2.77.93,4.05-.68,0,0,.67-.51.97-1.41v-1.93c-.03-.11-.09-.22-.14-.34h.01C323.19,321.91,165.11,130.55,165.11,130.55h0ZM847.34,130.55s-157.6,190.76-273.09,442.67h.04s-1.36,2.91.84,4.79c0,0,.66.5,1.57.7h1.6c.29-.08.6-.19.9-.4v.03c43.34-21.51,223.51-113.18,298.14-185.92,0,0,47.26-37.96,49.74-98.9,5.46-84.64-79.74-162.97-79.74-162.97h0ZM989.19,381.15s-256.93,137.88-389.78,227.49h.01s.03.04.03.04c0,0-2.41,1.58-1.57,4.41,0,0,1.26,2.28,3.1,2.28h0c47.58.1,227.64.3,232.16-.54,0,0,23.28-.93,52.05-11.98,0,0,64.05-20.36,97.31-93.08,0,0,15.2-30.4,15.42-73.12v-1.81c-.11-16.47-2.43-34.71-8.73-53.69h0ZM23.19,381.79c-23.38,72.37,8.09,130.68,8.15,130.78,32.8,69.3,95.4,90.29,95.4,90.29,28.9,11.87,57.81,12.7,57.81,12.7,4.51.83,179.77.08,226.73-.14,1.99-.01,3.08-2.01,3.08-2.01.14-.22.26-.44.31-.64v-1.81c-.39-1.21-1.43-2.07-1.43-2.07h.03C280.51,519.3,23.2,381.8,23.2,381.8h0ZM405.93,637.67l-302.25,10.6c32.78,58.43,87.98,103.84,145.48,89.9,39.68-9.92,129.59-72.63,159.26-93.82l-.1-.08c2.31-2.07,1.48-3.74,1.48-3.74-.76-2.71-3.88-2.71-3.88-2.71v-.14ZM606.11,637.89l-.03.11s-2.65.34-3.4,2.32c0,0-.64,2.72,1.14,4.06l-.03.03c28.94,20.75,116.66,82.08,158.92,93.99,0,0,6.4,2.18,17.13,2.57h6.45c28.31-.99,77.64-15.54,122.46-92.55l-302.65-10.53Z"/>
            </g>
          </g>
          <rect class="cls-1" width="1000" height="1000"/>
        </g>
      </g>
    </g>
  </g>
</svg>