<?xml version="1.0" encoding="utf-8"?>
<!-- Generator: Adobe Illustrator 27.8.1, SVG Export Plug-In . SVG Version: 6.00 Build 0)  -->
<svg version="1.1" id="Layer_2_00000101080506453460608740000002208144174402360252_"
	 xmlns="http://www.w3.org/2000/svg" xmlns:xlink="http://www.w3.org/1999/xlink" x="0px" y="0px" viewBox="0 0 1000 1000"
	 style="enable-background:new 0 0 1000 1000;" xml:space="preserve">
<style type="text/css">
	.st0{fill:#1F70C1;}
	.st1{fill:#697379;}
	.st2{fill-rule:evenodd;clip-rule:evenodd;fill:#697379;}
</style>
<g>
	<g>
		<g>
			<polygon id="Rectangle-path" class="st0" points="94.3,802.9 251.5,802.9 251.5,825.4 94.3,825.4 			"/>
			<polygon id="Rectangle-path_1_" class="st0" points="94.3,759.7 251.5,759.7 251.5,782.3 94.3,782.3 			"/>
			<polygon id="Rectangle-path_2_" class="st0" points="139.1,716.7 206.5,716.7 206.5,739.2 139.1,739.2 			"/>
			<polygon id="Rectangle-path_3_" class="st0" points="139.1,673.6 206.5,673.6 206.5,696.2 139.1,696.2 			"/>
			<polygon id="Rectangle-path_4_" class="st0" points="139.1,630.5 206.5,630.5 206.5,653.1 139.1,653.1 			"/>
			<polygon id="Rectangle-path_5_" class="st0" points="139.1,587.4 206.5,587.4 206.5,610 139.1,610 			"/>
			<rect id="Rectangle-path_6_" x="94.3" y="544.3" class="st0" width="157.2" height="22.6"/>
			<rect id="Rectangle-path_7_" x="94.3" y="501.2" class="st0" width="157.2" height="22.6"/>
		</g>
		<g>
			<path id="Shape_16_" class="st0" d="M273.9,782.3h241.7c4.1-7,7.1-14.6,9-22.6H273.9V782.3z"/>
			<path id="Shape_17_" class="st0" d="M496.8,673.6h-178v22.6h196.8C510.4,687.5,504.1,679.9,496.8,673.6z"/>
			<path id="Shape_18_" class="st0" d="M318.8,630.5v22.6h178c7.5-6.3,13.8-13.9,18.8-22.6H318.8L318.8,630.5z"/>
			<path id="Shape_19_" class="st0" d="M515.6,544.3H273.9v22.6h250.7C522.5,558.9,519.4,551.3,515.6,544.3z"/>
			<path id="Shape_20_" class="st0" d="M441.3,501.2H273.9v22.6H499C483.9,509.9,463.5,501.2,441.3,501.2z"/>
			<rect id="Rectangle-path_8_" x="318.8" y="587.4" class="st0" width="67.3" height="22.6"/>
			<path id="Shape_21_" class="st0" d="M453.5,610H524c2-7.2,3-14.8,3-22.6h-73.5V610L453.5,610z"/>
			<polygon id="Rectangle-path_9_" class="st0" points="318.8,716.7 386.1,716.7 386.1,739.2 318.8,739.2 			"/>
			<path id="Shape_22_" class="st0" d="M453.5,716.7v22.6H527c0-7.8-1-15.4-3-22.6H453.5z"/>
			<path id="Shape_23_" class="st0" d="M273.9,825.2l167.4,0.2c22.4,0,42.7-8.6,57.8-22.6H273.9V825.2z"/>
		</g>
		<g>
			<polygon id="Rectangle-path_10_" class="st0" points="543.3,802.9 655.6,802.9 655.6,825.4 543.3,825.4 			"/>
			<polygon id="Rectangle-path_11_" class="st0" points="543.3,759.7 655.6,759.7 655.6,782.3 543.3,782.3 			"/>
			<polygon id="Rectangle-path_12_" class="st0" points="588.2,716.7 655.6,716.7 655.6,739.2 588.2,739.2 			"/>
			<polygon id="Rectangle-path_13_" class="st0" points="588.2,673.6 655.6,673.6 655.6,696.2 588.2,696.2 			"/>
			<polygon id="Shape_24_" class="st0" points="686.8,544.3 543.3,544.3 543.3,566.9 694.6,566.9 			"/>
			<polygon id="Shape_25_" class="st0" points="671.9,501.2 543.3,501.2 543.3,523.8 679.7,523.8 			"/>
			<polygon id="Rectangle-path_14_" class="st0" points="790.2,802.9 902.6,802.9 902.6,825.4 790.2,825.4 			"/>
			<polygon id="Rectangle-path_15_" class="st0" points="790.2,759.7 902.6,759.7 902.6,782.3 790.2,782.3 			"/>
			<polygon id="Rectangle-path_16_" class="st0" points="790.2,716.7 857.6,716.7 857.6,739.2 790.2,739.2 			"/>
			<polygon id="Rectangle-path_17_" class="st0" points="790.2,673.6 857.6,673.6 857.6,696.2 790.2,696.2 			"/>
			<polygon id="Shape_26_" class="st0" points="790.2,653.1 857.6,653.1 857.6,630.5 790.2,630.5 790.2,630.5 729.2,630.5 
				722.9,648.8 716.6,630.5 655.6,630.5 655.6,630.5 588.2,630.5 588.2,653.1 655.6,653.1 655.6,632.4 662.7,653.1 783.1,653.1 
				790.2,632.4 			"/>
			<polygon id="Shape_27_" class="st0" points="857.6,587.4 744.1,587.4 736.4,610 857.6,610 			"/>
			<polygon id="Shape_28_" class="st0" points="774,501.2 766.2,523.8 902.6,523.8 902.6,501.2 			"/>
			<polygon id="Shape_29_" class="st0" points="722.9,825.2 730.7,802.9 715.1,802.9 			"/>
			<polygon id="Shape_30_" class="st0" points="708,782.3 737.8,782.3 745.8,759.7 700.1,759.7 			"/>
			<polygon id="Shape_31_" class="st0" points="692.9,739.2 752.9,739.2 760.9,716.7 685,716.7 			"/>
			<polygon id="Shape_32_" class="st0" points="677.8,696.2 768.1,696.2 775.8,673.6 670.1,673.6 			"/>
			<polygon id="Shape_33_" class="st0" points="588.2,610 709.5,610 701.7,587.4 588.2,587.4 			"/>
			<polygon id="Shape_34_" class="st0" points="751.3,566.9 902.6,566.9 902.6,544.3 759,544.3 			"/>
		</g>
	</g>
	<g>
		<path class="st1" d="M779.3,351.3c-8.8,42.5-34.1,58-66.4,60.1c-16.7,1.1-33.1-1.1-47.5-10.5c-18.1-11.7-27.5-29.3-31.8-49.9
			c-5.3-25.5-4.4-50.5,6.3-74.6c22.1-50,82.2-51.6,111.2-27.4c16.3,13.6,23.8,32,27.3,52.3c1.1,6.5,1.5,13.2,2,19.8
			c0.5,7.2,0.4,7.2-6.6,7.2c-37.9,0-75.9,0-113.8,0c-9.1,0-9.1,0-8.1,8.9c1.1,10.9,4,21.2,9.4,30.7c10.9,19.1,27.5,27.5,49.2,26.2
			c22.1-1.3,37.2-12.5,45.5-33c4-10,4-10,14.9-10C773.6,351.3,776.4,351.3,779.3,351.3z M705.7,311.3c16.5,0,33-0.1,49.5,0.1
			c3.5,0,4.6-0.8,4.2-4.4c-0.7-7.4-2.5-14.6-5.2-21.5c-11.5-29.4-44.1-42.7-71-28.3c-19.7,10.5-28,28.8-31.7,49.9
			c-0.7,4,0.7,4.3,4,4.3C672.2,311.2,689,311.3,705.7,311.3z"/>
		<path class="st1" d="M383.8,328.4c-19.9,0-39.9,0-59.8,0c-2.5,0-4.9-0.5-4.6,3.5c1.2,16.2,5.4,31.2,15.5,44.4
			c20.5,26.9,75.6,26.4,89.7-16.9c2.2-6.7,5.1-8.6,11.9-8.2c12,0.6,12,0.2,8.2,11.6c-10.5,31.6-33,48.2-66.3,48.9
			c-36.8,0.8-60.9-14.8-72.8-47.4c-6.5-17.8-8.1-36.3-6.2-55c2.1-20.2,8.9-38.5,22.9-54c27.4-30.5,94.1-32,116.7,20.1
			c6.9,15.8,9.2,32.3,9.8,49.3c0.1,3.8-1.8,3.8-4.6,3.7C424.1,328.3,403.9,328.4,383.8,328.4z M373.4,311.3
			c16.7,0,33.4-0.1,50.1,0.1c3.6,0,4.6-1,4.2-4.5c-0.8-5.8-1.8-11.6-3.6-17.2c-11-33.4-45.6-48.2-74.6-31.4
			c-18.9,11-26.5,29.3-29.9,49.9c-0.7,4,2.2,3.1,4.3,3.1C340.4,311.3,356.9,311.3,373.4,311.3z"/>
		<path class="st1" d="M862.8,411.7c-9.3,0-22.7-1.8-35-8.7c-18.2-10.1-26.3-26.5-28.8-46.4c-0.4-3.3,0.7-4.4,3.9-4.2
			c4.7,0.2,10-1.2,14.1,0.4c4.8,1.9,2.7,8.2,4.3,12.4c4.4,12.2,12.5,21,24.5,25.3c18.6,6.7,37,5.5,54.4-4.3
			c11.8-6.7,16.7-19.2,12.7-31.6c-2.5-8-8.7-12.6-15.9-16.1c-11.6-5.6-24.2-7.5-36.6-10.1c-9.7-2.1-19.1-4.9-28.2-8.5
			c-16.3-6.5-26.7-17.4-27.5-36c-0.9-19.8,8-33.6,25.5-41.8c21.4-10,43.7-11.1,65.8-2.9c20.4,7.5,30.5,23.3,32.9,44.5
			c0.4,3.3-0.3,5.2-4.1,4.6c-0.2,0-0.4,0-0.6,0c-4.7,0-10,1.3-14.1-0.4c-4.4-1.8-2.4-8-4.1-12.1c-3.7-9.3-10-16.3-19.2-19.9
			c-15.7-6.2-31.5-6.2-47,0.9c-9.3,4.3-14.6,11.7-15,22.3c-0.4,10.7,5.3,17.3,14.1,22.1c13.4,7.4,28.5,8.9,43,12.3
			c11.6,2.7,23.4,4.7,33.5,11.8c27.6,19.3,25.2,60.1-4.5,76.1C897.5,408.7,882.8,411.9,862.8,411.7z"/>
		<path class="st1" d="M210.8,411.7c-15,0-28.4-1.9-40.6-8.9c-18.3-10.4-26.3-26.9-28.6-47.1c-0.3-2.5,0.4-3.4,2.9-3.3
			c4.6,0.2,9.1,0.1,13.7,0c2.5-0.1,3.7,0.7,4,3.4c2,21.6,17.9,36.6,43.5,38.5c13.1,1,25.7-1.4,37.2-8.1
			c11.5-6.8,16.4-18.8,12.8-31.1c-2.5-8.3-8.7-13.1-16.1-16.6c-11.6-5.5-24.2-7.4-36.6-10.1c-10-2.2-19.8-5.1-29.3-9
			c-15.2-6.3-25.1-16.7-26.3-33.9c-1.3-18.7,5.8-32.7,22.4-41.9c25.9-14.3,63-12.5,83.6,4c11.7,9.4,16.6,22.2,18.2,36.7
			c0.3,2.9-0.5,4.4-3.6,4c-0.4-0.1-0.8,0-1.1,0c-4.6,0-9.6,1.2-13.5-0.4c-4.5-1.8-2.7-7.9-4.2-11.9c-3.6-9.5-9.8-16.4-19-20.1
			c-16-6.4-32.3-6.5-48,1.2c-8.8,4.3-13.8,11.5-14.3,21.6c-0.6,10.4,4.8,17.2,13.2,22.1c11.9,6.9,25.4,8.6,38.5,11.6
			c10.1,2.4,20.5,3.8,30.2,8c25.5,11,35.6,39.6,22,63.5c-7,12.4-18.6,19.2-31.8,23.4C230.1,410.4,220,412.3,210.8,411.7z"/>
		<path class="st1" d="M84,398.1c-2.7,4.8-6.3,5.9-10.8,6.2c-16.6,0.8-33,0.7-48.9-4.9C6.8,393.1,1.1,382.7,6,364.9
			c4.7-17.1,13.9-32.3,21.5-48.2c10.1-21,20.2-42,30.6-62.8c2-3.9,1.2-5.7-2.6-7.1c-2.3-0.9-4.5-2.1-6.6-3.3c-1-0.6-3-0.7-2.5-2.5
			c0.5-1.6,1.5-3.2,3.6-3.2c2.1-0.1,4.2-0.1,6.3-0.1c15.9,0,31.9,0,47.8,0c6.3,0,6.3,0,3.7,5.5C90.4,279.8,73,316.4,55.7,353
			c-3.6,7.7-7,15.6-7.5,24.3c-0.7,11.7,5.6,19.1,17.2,20.6C71.4,398.6,77.4,398.2,84,398.1z"/>
		<path class="st1" d="M495.6,277.4c2-3.8,3.9-7.7,6.1-11.3c12.4-20,30.9-28.8,53.8-29.5c2.5-0.1,4.1,0.5,3.9,3.4c0,0.2,0,0.4,0,0.6
			c0,4.9,1.5,10.6-0.5,14.6c-2.4,4.9-8.8,2-13.4,2.6c-26.9,4.1-48,27.5-48.5,55.1c-0.5,29.4-0.3,58.8-0.1,88.2
			c0,4.7-1.1,6.6-5.9,5.9c-4.8-0.6-11.3,2.1-14.1-1.2c-2.4-2.8-0.9-9-0.9-13.8c0-48.9,0.1-97.9-0.1-146.8c0-5.2,1.3-6.7,6.6-6.6
			c12.4,0.4,12.4,0.1,12.4,12.6c0,8.5,0,17.1,0.1,25.6C495.1,276.9,495.3,277,495.6,277.4z"/>
		<path class="st1" d="M599.7,322.7c0,26.4-0.1,52.8,0.1,79.1c0,4.4-1.2,5.7-5.4,5.2c-4.9-0.5-11.2,2-14.3-1
			c-3.1-3-0.9-9.3-0.9-14.2c-0.1-49,0-97.9-0.2-146.9c0-5.1,1.2-6.9,6.3-6.2c4.6,0.6,10.9-2,13.6,1.2c2.3,2.7,0.8,8.7,0.8,13.2
			C599.7,276.3,599.7,299.5,599.7,322.7z"/>
		<path class="st1" d="M118.9,198.4c0.1,11.6-9.8,21.6-21.3,21.5c-11.5-0.1-21-9.5-21.2-21c-0.2-11.7,9.3-21.5,21-21.8
			C108.9,176.9,118.8,186.7,118.9,198.4z"/>
		<path class="st1" d="M599.7,191c0,0.4,0,0.8,0,1.1c0,17.3-0.3,17.5-17.7,15.5c-2.3-0.3-2.8-1.1-2.8-3.1c0.1-8.9,0.1-17.8,0-26.7
			c0-2.5,0.8-3.4,3.3-3.3c4.7,0.2,9.5,0.2,14.2,0c2.6-0.1,3.2,1.1,3.1,3.4C599.6,182.3,599.7,186.7,599.7,191z"/>
		<path id="T" class="st2" d="M953.4,384.1h16.9v4h-6.2v18.2h-4.5v-18.2h-6.2L953.4,384.1L953.4,384.1z"/>
		<path id="M" class="st2" d="M982.1,403.7l-5.4-13.4v15.8h-4.2v-22h6.9l4.7,13.4l4.7-13.4h6.9v22h-4.2v-15.8l-5.4,13.4H982.1
			L982.1,403.7z"/>
	</g>
</g>
</svg>
