<?xml version="1.0" encoding="utf-8"?>
<!-- Generator: Adobe Illustrator 27.8.1, SVG Export Plug-In . SVG Version: 6.00 Build 0)  -->
<svg version="1.1" id="Layer_2_00000101080506453460608740000002208144174402360252_"
	 xmlns="http://www.w3.org/2000/svg" xmlns:xlink="http://www.w3.org/1999/xlink" x="0px" y="0px" viewBox="0 0 1000 1000"
	 style="enable-background:new 0 0 1000 1000;" xml:space="preserve">
<style type="text/css">
	.st0{fill:#1F70C1;}
</style>
<g>
	<g>
		<g>
			<polygon id="Rectangle-path" class="st0" points="0.1,672.6 194.5,672.6 194.5,700.4 0.1,700.4 			"/>
			<polygon id="Rectangle-path_1_" class="st0" points="0.1,619.2 194.5,619.2 194.5,647.2 0.1,647.2 			"/>
			<polygon id="Rectangle-path_2_" class="st0" points="55.5,566 138.9,566 138.9,593.9 55.5,593.9 			"/>
			<polygon id="Rectangle-path_3_" class="st0" points="55.5,512.7 138.9,512.7 138.9,540.6 55.5,540.6 			"/>
			<polygon id="Rectangle-path_4_" class="st0" points="55.5,459.4 138.9,459.4 138.9,487.3 55.5,487.3 			"/>
			<polygon id="Rectangle-path_5_" class="st0" points="55.5,406 138.9,406 138.9,433.9 55.5,433.9 			"/>
			<rect id="Rectangle-path_6_" x="0.1" y="352.7" class="st0" width="194.4" height="27.9"/>
			<rect id="Rectangle-path_7_" x="0.1" y="299.5" class="st0" width="194.4" height="27.9"/>
		</g>
		<g>
			<path id="Shape_16_" class="st0" d="M222.2,647.2h299c5.1-8.6,8.8-18,11.1-27.9H222.2V647.2z"/>
			<path id="Shape_17_" class="st0" d="M497.9,512.7H277.8v27.9h243.4C514.9,529.9,507,520.5,497.9,512.7z"/>
			<path id="Shape_18_" class="st0" d="M277.8,459.4v27.9h220.2c9.3-7.8,17.1-17.2,23.3-27.9L277.8,459.4L277.8,459.4z"/>
			<path id="Shape_19_" class="st0" d="M521.2,352.7h-299v27.9h310.1C529.7,370.8,525.9,361.4,521.2,352.7z"/>
			<path id="Shape_20_" class="st0" d="M429.3,299.5H222.2v27.9h278.5C482.1,310.2,456.8,299.5,429.3,299.5z"/>
			<rect id="Rectangle-path_8_" x="277.8" y="406" class="st0" width="83.3" height="27.9"/>
			<path id="Shape_21_" class="st0" d="M444.4,433.9h87.1c2.5-8.9,3.8-18.3,3.8-27.9h-90.9L444.4,433.9L444.4,433.9z"/>
			<polygon id="Rectangle-path_9_" class="st0" points="277.8,566 361.1,566 361.1,593.9 277.8,593.9 			"/>
			<path id="Shape_22_" class="st0" d="M444.4,566v27.9h90.9c0-9.6-1.3-19-3.8-27.9H444.4z"/>
			<path id="Shape_23_" class="st0" d="M222.2,700.2l207.1,0.3c27.7,0,52.8-10.7,71.5-27.9H222.2V700.2z"/>
		</g>
		<g>
			<polygon id="Rectangle-path_10_" class="st0" points="555.6,672.6 694.4,672.6 694.4,700.4 555.6,700.4 			"/>
			<polygon id="Rectangle-path_11_" class="st0" points="555.6,619.2 694.4,619.2 694.4,647.2 555.6,647.2 			"/>
			<polygon id="Rectangle-path_12_" class="st0" points="611,566 694.4,566 694.4,593.9 611,593.9 			"/>
			<polygon id="Rectangle-path_13_" class="st0" points="611,512.7 694.4,512.7 694.4,540.6 611,540.6 			"/>
			<polygon id="Shape_24_" class="st0" points="733,352.7 555.6,352.7 555.6,380.7 742.6,380.7 			"/>
			<polygon id="Shape_25_" class="st0" points="714.6,299.5 555.6,299.5 555.6,327.4 724.2,327.4 			"/>
			<polygon id="Rectangle-path_14_" class="st0" points="861,672.6 999.9,672.6 999.9,700.4 861,700.4 			"/>
			<polygon id="Rectangle-path_15_" class="st0" points="861,619.2 999.9,619.2 999.9,647.2 861,647.2 			"/>
			<polygon id="Rectangle-path_16_" class="st0" points="861,566 944.4,566 944.4,593.9 861,593.9 			"/>
			<polygon id="Rectangle-path_17_" class="st0" points="861,512.7 944.4,512.7 944.4,540.6 861,540.6 			"/>
			<polygon id="Shape_26_" class="st0" points="861,487.3 944.4,487.3 944.4,459.4 861,459.4 861,459.4 785.5,459.4 777.7,482 
				769.9,459.4 694.4,459.4 694.4,459.4 611,459.4 611,487.3 694.4,487.3 694.4,461.7 703.2,487.3 852.2,487.3 861,461.7 			"/>
			<polygon id="Shape_27_" class="st0" points="944.4,406 803.9,406 794.3,433.9 944.4,433.9 			"/>
			<polygon id="Shape_28_" class="st0" points="840.9,299.5 831.3,327.4 999.9,327.4 999.9,299.5 			"/>
			<polygon id="Shape_29_" class="st0" points="777.7,700.2 787.3,672.6 768.1,672.6 			"/>
			<polygon id="Shape_30_" class="st0" points="759.3,647.2 796.1,647.2 806,619.2 749.5,619.2 			"/>
			<polygon id="Shape_31_" class="st0" points="740.6,593.9 814.8,593.9 824.6,566 730.7,566 			"/>
			<polygon id="Shape_32_" class="st0" points="721.9,540.6 833.5,540.6 843.1,512.7 712.3,512.7 			"/>
			<polygon id="Shape_33_" class="st0" points="611,433.9 761.1,433.9 751.4,406 611,406 			"/>
			<polygon id="Shape_34_" class="st0" points="812.8,380.7 999.9,380.7 999.9,352.7 822.4,352.7 			"/>
		</g>
	</g>
</g>
</svg>
