<?xml version="1.0" encoding="UTF-8"?><svg id="Layer_2" xmlns="http://www.w3.org/2000/svg" viewBox="0 0 1003.00004 1000"><defs><style>.cls-1{fill:none;}.cls-2{fill:#e91c25;}.cls-3,.cls-4{fill:#283891;}.cls-4{stroke:#283891;stroke-miterlimit:10;stroke-width:3px;}</style></defs><g id="Layer_2-2"><g id="Layer_1-2"><rect class="cls-1" x="1.5" width="1000" height="1000"/><path class="cls-4" d="m533.23523,142.66602c-196.60236-.99799-337.31784,66.86478-438.11407,210.57416C2.30882,484.97375,11.29075,691.55597,114.08274,820.29559c2.99398,3.99194,3.99187,9.9798,4.98991,14.96973-11.97575-.99799-28.94141,1.99591-33.93132-3.99194C-44.59629,668.60236-18.64878,413.11905,130.05051,264.4198c200.59439-200.59431,546.89395-192.61046,745.49234-.99799,146.70325,141.71338,171.65283,413.16443,40.9173,566.85364-4.98993,5.98785-20.9577,2.99396-31.93536,4.98993,2.99396-5.98785,4.98993-12.97382,8.98175-18.96167,126.74365-163.66901,97.80225-414.16241-58.88086-548.88995-92.81232-80.83652-199.59637-121.75375-301.39044-124.74771v-.00003Z"/><path class="cls-2" d="m873.54688,187.5752c-117.76184,150.69525-235.52374,300.39249-353.28546,451.08777-14.96973,18.96167-30.9375,11.97577-43.91113,1.99597-11.97574-8.98187-22.95361-21.95563-7.98389-37.92328,128.73956-135.72552,257.47931-271.45102,386.21893-407.17651,3.99188-3.99196,12.97382-4.98994,18.96161-7.98389,0,.99799,0,0,0,0l-.00006-.00006Z"/><path class="cls-2" d="m855.58331,202.54492h0c-1.99591-1.99596-1.99591-4.98991-.99805-6.98587l13.97168-16.9657c1.99591-1.99596,4.98993-1.99596,6.98584-.99799h0c1.99591,1.99596,1.99591,4.98991.99805,6.98587l-13.97168,16.9657c-1.99591,2.99396-4.98993,2.99396-6.98584.99799Z"/></g><path class="cls-3" d="m696.42121,842.16797l26.5625-3.22266c.8457,6.77148,3.125,11.94727,6.83594,15.52734,3.71094,3.58105,8.20312,5.37109,13.47656,5.37109,5.66406,0,10.43262-2.14844,14.30664-6.44531,3.87305-4.29688,5.81055-10.09082,5.81055-17.38281,0-6.90039-1.85547-12.36914-5.56641-16.40625-3.71094-4.03613-8.23633-6.05469-13.57422-6.05469-3.51562,0-7.71484.68359-12.59766,2.05078l3.02734-22.36328c7.42188.19531,13.08594-1.41602,16.99219-4.83398s5.85938-7.95898,5.85938-13.62305c0-4.81738-1.43262-8.6582-4.29688-11.52344-2.86523-2.86426-6.67383-4.29688-11.42578-4.29688-4.6875,0-8.69141,1.62793-12.01172,4.88281-3.32031,3.25586-5.33887,8.00781-6.05469,14.25781l-25.29297-4.29688c1.75781-8.6582,4.41016-15.57617,7.95898-20.75195,3.54785-5.17578,8.49609-9.24414,14.84375-12.20703,6.34766-2.96191,13.45996-4.44336,21.33789-4.44336,13.47656,0,24.2832,4.29688,32.42188,12.89062,6.70508,7.03125,10.05859,14.97461,10.05859,23.82812,0,12.56543-6.86914,22.5918-20.60547,30.07812,8.20312,1.75781,14.76172,5.69727,19.67773,11.81641,4.91504,6.12012,7.37305,13.50977,7.37305,22.16797,0,12.56543-4.58984,23.27539-13.76953,32.12891-9.17969,8.85449-20.60547,13.28125-34.27734,13.28125-12.95605,0-23.69824-3.72656-32.22656-11.18164-8.5293-7.4541-13.47656-17.20312-14.84375-29.24805Z"/><path class="cls-3" d="m598.67853,881.17249v-86.8244h-13.97168v-17.96368h13.97168v-7.98389c0-26.9455,12.97382-40.91724,37.92334-40.91724,7.98389,0,16.96564.99799,25.94757,3.99194v19.95966c-7.98389-2.99396-14.96973-4.98993-20.9577-4.98993-9.9798,0-14.96973,6.98584-14.96973,21.95557v8.98187h25.94757v17.96368h-25.94757v85.82642h-27.94354.00006Z"/><path class="cls-3" d="m507.86212,881.17249v-103.7901h27.94354v19.95966c6.98584-14.96973,17.96368-21.95557,32.93341-21.95557,1.99591,0,3.99188,0,4.98993.99799v24.94952c-3.99188-.99799-7.98389-1.99591-10.97784-1.99591-10.97784,0-19.95966,5.98785-26.9455,16.96564v64.86884h-27.94354v-.00006Z"/><path class="cls-3" d="m478.92072,877.18054c-12.97382,3.99194-25.94757,5.98785-37.92334,5.98785-16.96567,0-30.9375-4.98993-40.9173-14.96973s-14.96973-22.95361-14.96973-39.91925c0-15.96771,4.9899-28.94147,13.97168-38.92133,8.98178-9.9798,20.95767-14.96973,36.92529-14.96973,14.96973,0,25.94757,4.98993,32.93341,13.97174,6.98584,9.9798,10.97784,24.94952,10.97784,45.90717h-64.8688c1.99594,19.95966,12.97379,29.93945,32.93344,29.93945,8.98175,0,19.95966-1.99591,31.93536-6.98584v19.95966h-.99786Zm-64.8688-58.88092h36.92526c0-17.96368-5.98798-26.9455-16.96567-26.9455-11.97574.99799-17.96371,9.9798-19.95963,26.9455h.00003Z"/><path class="cls-3" d="m275.33237,881.17249v-140.71539h48.90103c16.96567,0,28.94141,2.99396,36.92529,8.98187,6.98584,5.98785,10.97787,14.96973,10.97787,28.94147,0,14.96973-4.9899,26.9455-14.96973,34.92938s-22.95361,12.97382-40.9173,12.97382h-11.97574v54.88892h-28.94141l-.00003-.00006Zm27.94351-73.85065h5.98795c9.97983,0,17.96371-1.99591,23.95151-6.98584,5.98795-4.98993,8.98178-10.97778,8.98178-18.96167,0-13.97174-8.98178-20.95758-26.94547-20.95758h-10.97787v46.90509h-.99789Z"/><path class="cls-3" d="m211.46161,759.41876v-22.95361h27.94351v22.95361h-27.94351Zm0,121.75372v-103.7901h27.94351v103.7901h-27.94351Z"/></g></svg>