<?xml version="1.0" encoding="UTF-8"?><svg id="Layer_2" xmlns="http://www.w3.org/2000/svg" viewBox="0 0 1003 1000"><defs><style>.cls-1{fill:none;}.cls-2{fill:#e91c25;}.cls-3,.cls-4{fill:#283891;}.cls-4{stroke:#283891;stroke-miterlimit:10;stroke-width:3px;}</style></defs><g id="Layer_1-2"><rect class="cls-1" x="1.5" width="1000" height="1000"/><path class="cls-4" d="m533.2352,142.66602c-196.60236-.99798-337.31784,66.86477-438.11406,210.57414C2.30882,484.97374,11.29075,691.55595,114.08274,820.29561c2.99398,3.99194,3.99187,9.97982,4.98991,14.96973-11.97575-.99797-28.94141,1.99593-33.93132-3.99194C-44.59629,668.60238-18.64878,413.11905,130.05051,264.4198c200.59438-200.59432,546.894-192.61046,745.4923-.99799,146.70328,141.71339,171.65282,413.16442,40.91731,566.85361-4.98991,5.98787-20.95768,2.99398-31.93538,4.98991,2.99398-5.98787,4.98991-12.97379,8.98177-18.96167,126.74364-163.66901,97.80224-414.1624-58.88086-548.88993-92.81233-80.83652-199.59634-121.75376-301.39044-124.74771Z"/><path class="cls-2" d="m873.54687,187.5752c-117.76187,150.69524-235.52374,300.39248-353.28546,451.08773-14.96973,18.96167-30.93749,11.97579-43.91113,1.99597-11.97575-8.98185-22.95361-21.9556-7.98388-37.9233,128.73958-135.72553,257.47931-271.45103,386.21889-407.17652,3.99187-3.99196,12.97379-4.98994,18.96159-7.98388,0,.99799,0,0,0,0Z"/><path class="cls-2" d="m855.58332,202.54492h0c-1.99593-1.99596-1.99593-4.98991-.99804-6.98587l13.97168-16.96569c1.99593-1.99596,4.98991-1.99596,6.98584-.99799h0c1.99593,1.99596,1.99593,4.98991.99804,6.98587l-13.97168,16.96569c-1.99593,2.99395-4.98991,2.99395-6.98584.99799Z"/><path class="cls-3" d="m285.73571,759.41874v-22.95361h27.94352v22.95361h-27.94352Zm0,121.75374v-103.79011h27.94352v103.79011h-27.94352Z"/><path class="cls-3" d="m349.60648,881.17248v-140.7154h48.90104c16.96566,0,28.94141,2.99398,36.92529,8.98185,6.98584,5.98787,10.97786,14.96973,10.97786,28.94148,0,14.96973-4.98991,26.94548-14.96973,34.92936s-22.95361,12.97379-40.91731,12.97379h-11.97575v54.88892h-28.94141Zm27.94352-73.85066h5.98795c9.97982,0,17.9637-1.99593,23.9515-6.98584,5.98795-4.98991,8.98177-10.97778,8.98177-18.96167,0-13.97176-8.98177-20.9576-26.94548-20.9576h-10.97786v46.90511h-.99789Z"/><path class="cls-3" d="m553.19484,877.18053c-12.97379,3.99194-25.94758,5.98787-37.92333,5.98787-16.96566,0-30.93749-4.98991-40.91731-14.96973s-14.96973-22.95361-14.96973-39.91927c0-15.96769,4.98991-28.94148,13.97168-38.9213,8.98177-9.97982,20.95768-14.96973,36.92529-14.96973,14.96973,0,25.94758,4.98991,32.93343,13.97176,6.98584,9.97982,10.97786,24.94954,10.97786,45.90714h-64.86881c1.99593,19.95963,12.97379,29.93945,32.93343,29.93945,8.98177,0,19.95963-1.99593,31.93538-6.98584v19.95963h-.99789Zm-64.86881-58.88094h36.92529c0-17.9637-5.98795-26.94548-16.96566-26.94548-11.97575.99797-17.9637,9.97982-19.95963,26.94548Z"/><path class="cls-3" d="m582.13625,881.17248v-103.79011h27.94352v19.95963c6.98584-14.96973,17.9637-21.95557,32.93343-21.95557,1.99593,0,3.99187,0,4.98991.99797v24.94954c-3.99187-.99797-7.98388-1.99593-10.97786-1.99593-10.97786,0-19.95963,5.98787-26.94548,16.96566v64.86881h-27.94352Z"/><path class="cls-3" d="m672.95264,881.17248v-86.82438h-13.97168v-17.9637h13.97168v-7.98388c0-26.94548,12.97379-40.91723,37.92333-40.91723,7.98388,0,16.96566.99797,25.94758,3.99194v19.95963c-7.98388-2.99398-14.96973-4.98991-20.95768-4.98991-9.97982,0-14.96973,6.98584-14.96973,21.95557v8.98185h25.94758v17.9637h-25.94758v85.82641h-27.94352Z"/></g></svg>