<?xml version="1.0" encoding="UTF-8"?><svg id="Layer_2" xmlns="http://www.w3.org/2000/svg" viewBox="0 0 1000 1000"><defs><style>.cls-1{fill:none;}.cls-2{fill:#f4771e;}.cls-3{fill:#f27820;}.cls-4{fill:#fff;}</style></defs><g id="Layer_1-2"><rect class="cls-1" width="1000" height="1000"/><rect class="cls-3" y="270.83333" width="1000" height="458.33333"/><path class="cls-4" d="m136.74728,381.6218c0,18.28867-13.92916,33.08619-35.69127,33.08619-20.87602,0-34.80519-14.79752-34.37987-33.08619-.42532-19.13931,13.50385-33.51151,34.84063-33.51151,21.30134,0,34.80519,14.3722,35.23051,33.51151Zm-68.33442,272.06174v-212.85393h66.17239v212.85393h-66.17239Z"/><path class="cls-4" d="m300.70736,658.5747c-1.98482.42532-3.65065.74431-4.99749.95697-1.34684.21266-2.65824.31899-3.93419.31899-36.43557,0-64.0458-13.89372-82.83068-41.68116-18.78488-27.78744-28.17732-68.75974-28.17732-122.9169,0-54.29893,9.39244-95.34211,28.17732-123.12956,18.78488-27.78744,46.53688-41.68116,83.25599-41.68116,36.86089,0,64.68378,13.89372,83.46865,41.68116,18.78488,27.78744,28.17732,68.83063,28.17732,123.12956,0,37.28621-4.46584,68.51164-13.39752,93.67629-8.93168,25.16465-21.90388,43.13433-38.9166,53.90905l39.55457,38.70394-42.95712,31.89885-47.42295-54.86602Zm-8.50636-271.77819c-16.02031,0-27.71656,8.5418-35.08873,25.62541-7.37218,17.08361-11.05827,44.69383-11.05827,82.83068,0,37.99507,3.68609,65.53441,11.05827,82.61802,7.37218,17.08361,19.06842,25.62541,35.08873,25.62541,16.16208,0,27.92921-8.5418,35.30139-25.62541,7.37218-17.08361,11.05827-44.62294,11.05827-82.61802,0-38.13685-3.68609-65.74707-11.05827-82.83068-7.37218-17.08361-19.13931-25.62541-35.30139-25.62541Z"/><rect class="cls-4" x="470.91599" y="293.75" width="512.5" height="412.5"/><path class="cls-2" d="m618.48309,352.08427h61.22701v181.89771h32.49589v50.13085h-32.49589v63.8029h-56.07522v-63.8029h-117.30223v-56.66966l112.15044-175.35891Zm5.15179,64.99178l-74.70091,116.90594h74.70091v-116.90594Z"/><path class="cls-2" d="m947.99932,647.91573h-184.27546v-295.83146h184.27546v51.51787h-125.82249v63.8029h113.93375v51.51787h-113.93375v77.47495h125.82249v51.51787Z"/></g></svg>