<?xml version="1.0" encoding="utf-8"?>
<!-- Generator: Adobe Illustrator 27.6.1, SVG Export Plug-In . SVG Version: 6.00 Build 0)  -->
<svg version="1.1" id="Layer_2_00000016753981035641057610000015504070341776505475_"
	 xmlns="http://www.w3.org/2000/svg" xmlns:xlink="http://www.w3.org/1999/xlink" x="0px" y="0px" viewBox="0 0 1000 1000"
	 style="enable-background:new 0 0 1000 1000;" xml:space="preserve">
<style type="text/css">
	.st0{fill:none;}
	.st1{fill:#326DE6;}
	.st2{fill:#FFFFFF;}
</style>
<g id="Layer_1-2">
	<rect class="st0" width="1000" height="1000"/>
	<g>
		<path id="path10349" class="st1" d="M912.5,231.7c-5.7-18.3-19.4-33.2-36.6-42.3l-348.8-167c-9.1-4.6-19.4-5.7-28.6-5.7
			s-19.4,0-28.6,2.3L121.2,187.1c-17.2,8-29.7,22.9-34.3,42.3L1.1,605.6c-3.4,19.4,1.1,38.9,12.6,54.9L255,959
			c13.7,13.7,33.2,22.9,52.6,24h384.2c20.6,2.3,40-6.9,52.6-24l241.3-298.5c11.4-16,16-35.4,13.7-54.9L912.5,231.7L912.5,231.7z"/>
		<path id="path10351" class="st2" d="M858.8,590.7L858.8,590.7c-1.1,0-2.3,0-2.3-1.1c0-1.1-2.3-1.1-4.6-1.1
			c-4.6-1.1-9.1-1.1-13.7-1.1c-2.3,0-4.6,0-6.9-1.1h-1.1c-12.6-1.1-26.3-3.4-38.9-6.9c-3.4-1.1-6.9-4.6-8-8c1.1,0,0,0,0,0l0,0
			l-9.1-2.3c4.6-33.2,2.3-67.5-4.6-100.6c-8-33.2-21.7-65.2-40-93.8l6.9-6.9l0,0v-1.1c0-3.4,1.1-8,3.4-10.3
			c10.3-9.1,20.6-16,32-22.9l0,0c2.3-1.1,4.6-2.3,6.9-3.4c4.6-2.3,8-4.6,12.6-6.9c1.1-1.1,2.3-1.1,3.4-2.3c1.1-1.1,0-1.1,0-2.3l0,0
			c10.3-8,12.6-21.7,4.6-32c-3.4-4.6-10.3-8-16-8s-11.4,2.3-16,5.7l0,0l-1.1,1.1c-1.1,1.1-2.3,2.3-3.4,2.3
			c-3.4,3.4-6.9,6.9-9.1,10.3c-1.1,2.3-3.4,3.4-4.6,4.6l0,0c-8,9.1-18.3,18.3-28.6,25.2c-2.3,1.1-4.6,2.3-6.9,2.3
			c-1.1,0-3.4,0-4.6-1.1h-1.1l-9.1,5.7c-9.1-9.1-19.4-18.3-28.6-27.4c-42.3-33.2-94.9-53.7-148.7-59.5l-1.1-9.1l0,0v1.1
			c-3.4-2.3-4.6-5.7-5.7-9.1c0-12.6,0-25.2,2.3-38.9v-1.1c0-2.3,1.1-4.6,1.1-6.9c1.1-4.6,1.1-9.1,2.3-13.7v-6.9l0,0
			c1.1-11.4-8-22.9-19.4-24c-6.9-1.1-13.7,2.3-19.4,8c-4.6,4.6-6.9,10.3-6.9,16l0,0v5.7c0,4.6,1.1,9.1,2.3,13.7
			c1.1,2.3,1.1,4.6,1.1,6.9v1.1c2.3,12.6,2.3,25.2,2.3,38.9c-1.1,3.4-2.3,6.9-5.7,9.1v2.3l0,0l-1.1,9.1c-12.6,1.1-25.2,3.4-38.9,5.7
			c-53.7,11.4-102.9,40-140.7,80l-6.9-4.6h-1.1c-1.1,0-2.3,1.1-4.6,1.1s-4.6-1.1-6.9-2.3c-10.3-8-20.6-17.2-28.6-26.3l0,0
			c-1.1-2.3-3.4-3.4-4.6-4.6c-3.4-3.4-5.7-6.9-9.1-10.3c-1.1-1.1-2.3-1.1-3.4-2.3c-1.1-1.1-1.1-1.1-1.1-1.1l0,0
			c-4.6-3.4-10.3-5.7-16-5.7c-6.9,0-12.6,2.3-16,8c-6.9,10.3-4.6,24,4.6,32l0,0c1.1,0,1.1,1.1,1.1,1.1s2.3,2.3,3.4,2.3
			c3.4,2.3,8,4.6,12.6,6.9c2.3,1.1,4.6,2.3,6.9,3.4l0,0c11.4,6.9,22.9,13.7,32,22.9c2.3,2.3,4.6,6.9,3.4,10.3v-1.1l0,0l6.9,6.9
			c-1.1,2.3-2.3,3.4-3.4,5.7c-35.4,56-50.3,122.4-40,187.5l-9.1,2.3l0,0c0,1.1-1.1,1.1-1.1,1.1c-1.1,3.4-4.6,5.7-8,8
			c-12.6,3.4-25.2,5.7-38.9,6.9l0,0c-2.3,0-4.6,0-6.9,1.1c-4.6,0-9.1,1.1-13.7,1.1c-1.1,0-2.3,1.1-4.6,1.1c-1.1,0-1.1,0-2.3,1.1l0,0
			c-12.6,2.3-20.6,13.7-18.3,26.3l0,0c2.3,10.3,12.6,17.2,22.9,16c2.3,0,3.4,0,5.7-1.1l0,0c1.1,0,1.1,0,1.1-1.1c0-1.1,3.4,0,4.6,0
			c4.6-1.1,9.1-3.4,12.6-4.6c2.3-1.1,4.6-2.3,6.9-2.3h1.1c12.6-4.6,24-8,37.7-10.3h1.1c3.4,0,6.9,1.1,9.1,3.4c1.1,0,1.1,1.1,1.1,1.1
			l0,0l10.3-1.1c17.2,52.6,49.2,99.5,93.8,133.8c10.3,8,19.4,14.9,30.9,20.6l-5.7,8l0,0c0,1.1,1.1,1.1,1.1,1.1
			c2.3,3.4,2.3,8,1.1,11.4c-4.6,11.4-11.4,22.9-18.3,33.2v1.1c-1.1,2.3-2.3,3.4-4.6,5.7s-4.6,6.9-8,11.4c-1.1,1.1-1.1,2.3-2.3,3.4
			c0,0,0,1.1-1.1,1.1l0,0c-5.7,11.4-1.1,25.2,9.1,30.9c2.3,1.1,5.7,2.3,8,2.3c9.1,0,17.2-5.7,21.7-13.7l0,0c0,0,0-1.1,1.1-1.1
			c0-1.1,1.1-2.3,2.3-3.4c1.1-4.6,3.4-8,4.6-12.6l2.3-6.9l0,0c3.4-12.6,9.1-24,14.9-35.4c2.3-3.4,5.7-5.7,9.1-6.9
			c1.1,0,1.1,0,1.1-1.1l0,0l4.6-9.1c32,12.6,65.2,18.3,99.5,18.3c20.6,0,41.2-2.3,61.8-8c12.6-2.3,25.2-6.9,36.6-10.3l4.6,8l0,0
			c1.1,0,1.1,0,1.1,1.1c3.4,1.1,6.9,3.4,9.1,6.9c5.7,11.4,11.4,22.9,14.9,35.4v1.1l2.3,6.9c1.1,4.6,2.3,9.1,4.6,12.6
			c1.1,1.1,1.1,2.3,2.3,3.4c0,0,0,1.1,1.1,1.1l0,0c4.6,8,12.6,13.7,21.7,13.7c3.4,0,5.7-1.1,9.1-2.3c4.6-2.3,9.1-6.9,10.3-12.6
			c1.1-5.7,1.1-11.4-1.1-17.2l0,0c0-1.1-1.1-1.1-1.1-1.1c0-1.1-1.1-2.3-2.3-3.4c-2.3-4.6-4.6-8-8-11.4c-1.1-2.3-2.3-3.4-4.6-5.7
			v-2.3c-8-10.3-13.7-21.7-18.3-33.2c-1.1-3.4-1.1-8,1.1-11.4c0-1.1,1.1-1.1,1.1-1.1l0,0l-3.4-9.1c58.3-35.4,102.9-90.3,123.5-155.5
			l9.1,1.1l0,0c1.1,0,1.1-1.1,1.1-1.1c2.3-2.3,5.7-3.4,9.1-3.4h1.1c12.6,2.3,25.2,5.7,36.6,10.3h1.1c2.3,1.1,4.6,2.3,6.9,2.3
			c4.6,2.3,8,4.6,12.6,5.7c1.1,0,2.3,1.1,4.6,1.1c1.1,0,1.1,0,2.3,1.1l0,0c2.3,1.1,3.4,1.1,5.7,1.1c10.3,0,19.4-6.9,22.9-16
			C878.2,602.2,869.1,593,858.8,590.7L858.8,590.7z M528.3,555.3l-30.9,14.9l-30.9-14.9l-8-33.2l21.7-27.4h34.3l21.7,27.4
			L528.3,555.3z M714.7,481c5.7,24,6.9,48,4.6,72l-108.6-30.9l0,0c-10.3-2.3-16-12.6-13.7-22.9c1.1-3.4,2.3-5.7,4.6-8l85.8-77.8
			C699.8,434.1,709,456.9,714.7,481z M652.9,371.2l-93.8,66.3c-8,4.6-19.4,3.4-25.2-4.6c-2.3-2.3-3.4-4.6-3.4-8l-6.9-115.5
			C574,315.1,618.6,336.9,652.9,371.2C652.9,371.2,652.9,371.2,652.9,371.2z M446,312.9l22.9-4.6l-5.7,114.4l0,0
			c0,10.3-9.1,18.3-19.4,18.3c-3.4,0-5.7-1.1-9.1-2.3l-94.9-67.5C369.3,342.6,405.9,322,446,312.9z M306.4,413.5l84.6,75.5l0,0
			c8,6.9,9.1,18.3,2.3,26.3c-2.3,3.4-4.6,4.6-9.1,5.7l-110.9,32C269.8,505,281.3,455.8,306.4,413.5z M287,606.7l113.2-19.4
			c9.1,0,18.3,5.7,19.4,14.9c1.1,3.4,1.1,8-1.1,11.4l0,0l-43.5,105.2C335,692.5,303,652.5,287,606.7z M546.6,748.5
			c-16,3.4-32,5.7-49.2,5.7c-24,0-49.2-4.6-72-11.4l56-101.8c5.7-6.9,14.9-9.1,22.9-4.6c3.4,2.3,5.7,4.6,9.1,8l0,0l54.9,99.5
			C561.5,745.1,554.6,746.3,546.6,748.5z M686.1,649.1c-17.2,27.4-41.2,51.5-68.6,68.6l-44.6-107.5c-2.3-9.1,2.3-18.3,10.3-21.7
			c3.4-1.1,6.9-2.3,10.3-2.3l114.4,19.4C702.1,621.6,695.2,636.5,686.1,649.1z"/>
	</g>
</g>
</svg>
