<?xml version="1.0" encoding="UTF-8"?><svg id="Layer_2" xmlns="http://www.w3.org/2000/svg" viewBox="0 0 1000 1000"><defs><style>.cls-1{fill:none;}.cls-1,.cls-2,.cls-3,.cls-4,.cls-5,.cls-6,.cls-7,.cls-8,.cls-9,.cls-10,.cls-11,.cls-12,.cls-13,.cls-14,.cls-15,.cls-16,.cls-17,.cls-18,.cls-19,.cls-20,.cls-21,.cls-22,.cls-23,.cls-24,.cls-25,.cls-26,.cls-27,.cls-28,.cls-29,.cls-30,.cls-31,.cls-32,.cls-33,.cls-34,.cls-35,.cls-36,.cls-37,.cls-38,.cls-39,.cls-40,.cls-41,.cls-42,.cls-43,.cls-44,.cls-45,.cls-46,.cls-47,.cls-48,.cls-49,.cls-50,.cls-51,.cls-52,.cls-53,.cls-54,.cls-55,.cls-56,.cls-57,.cls-58,.cls-59,.cls-60,.cls-61,.cls-62,.cls-63,.cls-64,.cls-65,.cls-66,.cls-67,.cls-68,.cls-69,.cls-70,.cls-71,.cls-72,.cls-73,.cls-74,.cls-75,.cls-76,.cls-77,.cls-78,.cls-79{stroke-width:0px;}.cls-3{fill:#f7fafc;}.cls-4{fill:#f6fafc;}.cls-5{fill:#797b7c;}.cls-6{fill:#77797b;}.cls-7{fill:#77797a;}.cls-8{fill:#777879;}.cls-9{fill:#767879;}.cls-10{fill:#787a7b;}.cls-11{fill:#7a7b7c;}.cls-12{fill:#838586;}.cls-13{fill:#307bb8;}.cls-14{fill:#307bba;}.cls-15{fill:#7b7d7e;}.cls-16{fill:#4c8dc9;}.cls-17{fill:#4c8cbd;}.cls-18{fill:#508dc8;}.cls-19{fill:#5b9bda;}.cls-20{fill:#478ac8;}.cls-21{fill:#4789c3;}.cls-22{fill:#2878b7;}.cls-23{fill:#2878b9;}.cls-24{fill:#2c5375;}.cls-25{fill:#2a5074;}.cls-26{fill:#589bdd;}.cls-27{fill:#595b5b;}.cls-28{fill:#2877b7;}.cls-29{fill:#5497da;}.cls-30{fill:#5497d7;}.cls-31{fill:#6d6f70;}.cls-32{fill:#808283;}.cls-33{fill:#888b8c;}.cls-34{fill:#888c8c;}.cls-35{fill:#88888a;}.cls-36{fill:#888a8b;}.cls-37{fill:#888a8c;}.cls-38{fill:#878a8a;}.cls-39{fill:#87898b;}.cls-40{fill:#87898a;}.cls-41{fill:#87888a;}.cls-42{fill:#4588c4;}.cls-43{fill:#468ac8;}.cls-44{fill:#4688c2;}.cls-45{fill:#2e7ab9;}.cls-46{fill:#3880bf;}.cls-47{fill:#3a80be;}.cls-48{fill:#3c82c1;}.cls-49{fill:#3c82bf;}.cls-50{fill:#3c80bb;}.cls-51{fill:#599ad8;}.cls-52{fill:#828484;}.cls-53{fill:#828485;}.cls-54{fill:#2d79b9;}.cls-55{fill:#3e84c1;}.cls-56{fill:#3e83c3;}.cls-57{fill:#3d82c0;}.cls-58{fill:#4084bf;}.cls-59{fill:#4083bf;}.cls-60{fill:#080808;}.cls-61{fill:#8c8f90;}.cls-62{fill:#909394;}.cls-63{fill:#327bb9;}.cls-64{fill:#6c6e6f;}.cls-65{fill:#7f8282;}.cls-66{fill:#7f8181;}.cls-67{fill:#8b8d8d;}.cls-68{fill:#8b8c8e;}.cls-69{fill:#848488;}.cls-70{fill:#7d7f80;}.cls-71{fill:#7d7e7f;}.cls-72{fill:#7e8080;}.cls-73{fill:#7e7f80;}.cls-74{fill:#818284;}.cls-75{fill:#fefefe;}.cls-76{fill:#030303;}.cls-77{fill:#050505;}.cls-78{fill:#000101;}.cls-79{fill:#020202;}</style></defs><g id="Layer_2-2"><g id="Layer_2-2"><g id="Layer_1-2"><rect class="cls-1" x="0" width="1000" height="1000"/><path class="cls-77" d="m999.92147,502.93327c0,108.4249-.01556,216.84975.07852,325.27459.00275,3.12323-.70424,3.82666-3.82793,3.8259-330.78137-.08262-661.56275-.08262-992.3441-.00005-3.12375.00081-3.83067-.70261-3.82795-3.82584.09416-108.42485.07852-216.8497.07852-325.27459,1.06997-1.08394,2.44246-1.20947,3.85429-1.22612,1.52719-.01805,3.05437-.01729,4.58156-.01729,327.65708-.00053,655.31415-.00295,982.97121.03988,2.82538.00036,5.87188-.89225,8.43587,1.20352Z"/><path class="cls-43" d="m999.92147,168.91244v331.52192c-1.06998,1.08394-2.44245,1.20949-3.85427,1.22614-1.52716.018-3.05433.01723-4.58149.01723-327.65503.00058-655.31009.00297-982.96513-.03988-2.82734-.00038-5.87604.89357-8.44204-1.20349V168.91244c1.87392-1.35304,4.03148-.8081,6.06502-.80874,89.14827-.02819,178.29654-.02415,267.44482-.02416,239.81162-.00002,479.62325-.0021,719.43487.02994,2.30382.00031,4.74026-.64551,6.89823.80296Z"/><path class="cls-2" d="m999.92147,502.93327H.07853v-.83297c1.87607-1.3446,4.03259-.8063,6.06708-.80702,78.87229-.02832,157.7446-.02387,236.61689-.0239,250.08627,0,500.17257-.00201,750.25881.02954,2.30473.00031,4.74026-.63866,6.90016.80137v.83297Z"/><path class="cls-25" d="m999.92147,502.1003H.07853v-.83297c1.44131-.77267,2.99993-.39117,4.49792-.39124,330.28238-.01929,660.56475-.01929,990.84713,0,1.49797.0001,3.05657-.3814,4.49789.39124v.83297Z"/><path class="cls-26" d="m999.92147,501.26733H.07853v-.83297h999.84294v.83297Z"/><path class="cls-20" d="m189.34405,664.25886c1.31641,9.05692,3.01741,18.01526,6.67491,26.48426,8.09425,18.74233,21.05401,33.0263,39.06769,42.70068,1.06624.57267,2.40634.74979,3.07399,1.95853-.94986,1.8118-2.66501,1.14193-4.0789,1.14899-10.24118.05155-20.48275.01683-30.72414.04032-1.3696.00315-2.76999-.25197-4.10749.28445-7.27631-8.91162-13.13976-18.81137-19.70764-28.21817-6.64928-9.52343-13.10162-19.18423-19.94576-29.2335-8.53365,12.59084-16.6895,24.79808-25.03677,36.87309-4.78292,6.91887-8.88337,14.32338-14.51767,20.64442-8.54854-.8078-17.11869-.11912-25.67398-.38817-1.40991-.04428-3.13179.68813-4.06419-1.15642,12.58661-18.24155,25.16711-36.48726,37.76297-54.7224,4.72513-6.84063,9.34759-13.75945,14.30479-20.4287,1.76356-2.37267,1.45508-3.87643-.09524-6.0977-16.81257-24.08952-33.5268-48.24767-50.2556-72.39561-.46409-.6699-.79176-1.43431-1.18304-2.15464.43605-1.23291,1.41944-1.64715,2.60686-1.65137,8.72093-.03104,17.44247-.1741,26.16207.08317.54439.01609,1.04633.3416,1.52013.63492,9.76702,14.25965,19.53603,28.5179,29.29985,42.77971,2.96078,4.32479,5.90728,8.65929,9.19065,13.47373,5.99049-8.79585,11.69708-17.2312,17.4627-25.62612,7.04243-10.25391,14.13442-20.47377,21.20499-30.70838,1.18536-.81868,2.5116-1.077,3.93352-1.07995,10.10905-.02084,20.21814-.03836,30.327.0183,1.79753.01009,3.70679-.04372,4.41843,2.20965-14.14059,7.61437-25.92603,17.76998-34.52742,31.4941-6.18745,9.87245-9.80655,20.67223-12.23593,31.95443-.39969-.1-.40919-.57211-.72114-.75579.37391.65177-.08573,1.51337.52999,2.10429.00889,2.03524.12148,4.08284-.71577,6.01747-.87331-.65045-.21553-1.69471-.53322-2.35264.07179,5.3387.03539,10.78849.02021,16.23818-.00154.55396-.04554-.19223.1408.31806.04488.12288.04243-.52813.42234-.49117Z"/><path class="cls-7" d="m477.68209,637.96108c-2.85142.53621-5.73045.95692-8.54917,1.62989-8.92906,2.13204-13.91886,7.98901-15.64553,16.84232-6.21729-.51959-12.44581-.13407-18.66859-.22243-5.32616-.0757-5.32677-.03101-5.57616-4.98399,1.41066-10.53088,6.2421-19.42221,15.58776-24.28866,22.92629-11.93794,46.26511-12.90925,69.26117.20402,5.54041,3.15943,9.8268,7.68265,11.51598,14.14513,3.13931,24.15231.7348,48.41265,1.41722,72.61173-.00427.52747.13578,1.01437.42118,1.45943,1.5144,4.76253,5.29905,5.3537,9.3778,4.71118,2.55829-.40301,3.13315.27881,2.99798,2.7038-.20815,3.73413-.28087,7.49729-.05706,11.22689.16853,2.80893-1.0115,3.92829-3.57752,4.48438-4.34655.94202-8.66456,1.84668-13.15482,1.77199-10.77935-.17921-15.09356-3.07122-19.33224-13.31928-5.29992,3.57266-10.55803,7.12259-16.53091,9.46364-13.35138,5.23301-26.92718,5.40881-40.36445,1.05418-12.99687-4.21198-20.71905-13.38029-22.45588-27.18855.38919-2.73171.4123-5.46275-.01587-8.19288,1.64184-14.41535,9.95607-24.25724,24.06833-27.95415,9.26094-2.426,18.78006-3.50748,28.28632-4.54513.29613.26864.65903.39254,1.04059.3449.17814-.02227.51729.29965.55828-.21312.04414-.55208.0686.17281-.21079-.30713,4.48777-.80963,9.01821-1.43594,13.45395-2.46871,8.14651-1.8967,11.72947-5.71558,11.93594-12.25992.2262-7.16916-3.89521-12.64564-11.50556-14.80733-3.17206-.90104-6.50558-1.23441-9.76567-1.82588.87887-.94629,1.84333-.45858,3.27102-.57582-3.70847-.0121-6.96154-.00173-10.11133-.00747.70815.15313,1.65583-.29813,2.32802.50698Z"/><path class="cls-7" d="m773.30327,782.78148c-2.44799-.14998-5.00323.64008-7.30044-.83211.49955-5.53764.03895-11.08774.22351-16.62858.04435-1.33212-.37078-2.72154.3719-3.99275,4.00099.27901,8.0031.54206,12.00266.84065,6.48086.48385,10.75428-2.82327,13.85977-8.08312.62917-1.06562,1.02391-2.26779,1.55219-3.39507,3.86429-8.24611,3.97515-15.9854.38385-24.89788-12.77677-31.70821-24.60073-63.80027-36.76755-95.75379-.68623-1.80229-1.21166-3.66585-1.81195-5.50088.32623-2.43963,2.10854-2.48117,3.99031-2.49566,7.29215-.05608,14.58577.15506,21.8767-.11068,3.75897,6.81211,5.59025,14.36679,8.2265,21.60357,7.29622,20.02889,14.37584,40.13659,21.55225,60.20921.35537.99398.37571,2.18217,1.78256,3.01092,4.22114-12.23592,8.38583-24.39166,12.60854-36.52727,5.50039-15.80761,11.04685-31.59921,16.57353-47.39762,5.58292-1.63513,11.29461-.58904,16.9408-.7049,2.96147-.06081,6.09127-.93068,8.9375.76505-16.02282,43.2587-32.02332,86.52574-48.09491,129.76634-2.17276,5.84594-4.65625,11.59716-8.37357,16.67378-5.45197,7.44553-12.32416,12.66852-21.89836,13.44806-5.54524.09827-11.09053-.07057-16.63577.00275Z"/><path class="cls-8" d="m743.32853,621.99439c1.35772,5.5802.39158,11.23868.50372,16.85798.04175,2.09341-1.89769,1.58683-3.17613,1.59802-5.26539.04611-10.53225-.03122-15.79657.05755-1.285.02166-2.78704-.67074-3.856.70236.97997,1.67021.60914,3.51353.61143,5.28517.0268,20.48824.03016,40.97652-.0028,61.46471-.00356,2.23535.13517,4.41158.93593,6.51291.96685,2.31893,3.30469,2.86343,5.18326,4.00236,4.86094,1.7001,9.75987-.17789,14.63942.15832,1.65023,1.9328.79674,4.23984.88955,6.37432.17443,4.01039-.08244,8.03167.13939,12.04583-7.68617,2.53434-15.56961,1.59908-23.41104,1.29465-1.65735-.06436-3.3085-.35431-4.95655-.58304-10.65089-1.47859-16.83538-7.67055-18.46283-18.35304-.83905-5.5079-.88482-11.05418-.89967-16.59467-.05202-19.41403-.09983-38.82897.05614-58.24188.02665-3.31902-.90867-4.40456-4.19958-4.16698-3.72581.269-7.48753.1239-11.23033.02761-1.27925-.03284-2.82004.66026-3.78094-.88025,1.25153-4.58555.40704-9.2585.4639-13.88325.03173-2.58046.82898-3.35277,3.33688-3.25455,4.22231.16538,8.45794.07214,12.68208-.13193.54221-.26117-.28906-.65294-.00432-.17616.10232.17148.0031.28969-.29669.28496-5.33903-.0847-10.69265.51583-16.0155-.3357,4.88118-1.33878,9.86183-.51247,14.7839-.51634,3.1836-.00244,4.31797-.78716,4.2636-4.15778-.15846-9.82939.05284-19.66467.11915-29.49764,1.2972-1.08801,2.86581-.8028,4.35336-.81159,5.36486-.03178,10.73018-.03577,16.09493.00264,1.48145.0106,3.05697-.31796,4.34975.7954.04729,9.95532.19315,19.91176.07954,29.86525-.0325,2.84915.73831,3.76036,3.68488,3.79671,6.31142.07799,12.65981-.80674,18.9402.4776-6.64411,1.00151-13.31013.14927-18.97331.45319,4.24046-.00092,9.48719.20962,14.70665-.07718,3.25531-.17891,4.0938.98168,3.84329,4.00587-.28448,3.43488.07928,6.90677-.12398,10.3593.38934-4.91032-.47463-9.8756.52528-14.76071Z"/><path class="cls-7" d="m336.66697,628.01563c-1.3758-.12476-1.65293-1.11981-1.97987-2.24989-5.15943-17.83289-16.99443-27.7693-35.44279-29.85218-.40094-.04525-.78484-.24124-1.1767-.36692.21923.51023-.2456-.63337.23533-.36844.29447.16218.50903-.06462.48841-.39879-3.71102.7684-7.69235-.78289-11.24902,1.31006-20.61927,4.08691-31.6534,17.88861-37.48145,36.9644-.5234,1.71317-1.02734,3.43224-1.54031,5.14856-1.1931.31343-1.29898,1.33949-1.36616,2.27541-.85314,11.88649-1.64548,23.77492.82285,35.58464.19093.91345.25499,1.9297,1.40247,2.26092,1.01165,3.18892,2.02333,6.37783,3.03501,9.56675-.15195.9889-.22119,2.03184-1.49625,2.28604-15.32141-14.39476-23.01564-32.43381-25.99392-52.97248-1.54692-10.668,1.16833-19.84897,6.76471-28.76506,11.38686-18.14139,27.25122-29.55896,48.40871-33.4254,1.35225-.24714,2.74267-.28552,4.11531-.42104.53456.50375,1.25354.31503,1.87338.49859-.09347-.24561-.23574-.46163-.42677-.64809,1.69435-.77224,3.47899-.71677,5.27307-.57503,3.85104.46125,7.70112.49445,11.54998-.02562,1.81185-.13023,3.61236-.15781,5.32718.58904-.23942.60327-.87066.40487-1.29392.63202.86893-.28969,1.89017.26531,2.67648-.48245,27.10819,2.5546,49.48396,23.30401,53.45296,49.6241.19874,1.31789,1.38965,3.05449-.93672,3.82645-6.13292,1.51484-12.36294.37108-18.54259.63362-2.15792.09161-4.43681.55894-6.49938-.64923Z"/><path class="cls-9" d="m406.67245,578.73206c.06115,1.38344.17555,2.76686.1758,4.15031.00915,49.80977-.04366,99.61967.10372,149.429.01195,4.0321-.9921,5.27398-5.03522,5.0149-5.66691-.36315-11.37756-.20245-17.06321-.04215-2.55496.07204-3.59003-.77074-3.24979-3.31398.10939-.81777.01599-1.66269.01599-2.49515-.00008-49.25477-.00142-98.50954.00575-147.76434.00025-1.66246.0865-3.32491.13268-4.98737,1.30272-1.0979,2.88013-.79949,4.37279-.80885,5.38896-.03371,10.77834-.03137,16.16735-.00147,1.49609.00829,3.06943-.26526,4.37413.81909Z"/><path class="cls-9" d="m550.89609,736.17427c-.05238-24.07188-.13339-48.14375-.14595-72.21563-.00712-13.69438.09774-27.38891.15211-41.08334,6.5963-.9044,13.17034-.15013,17.97829-.38929-4.71275-.55553-11.32696.61151-17.81998-.42325,7.68729-1.01432,15.37443-1.02067,23.06136.00376-.4103,6.93296-1.06871,13.87003.34083,20.77315,3.1092-4.89314,5.9297-9.95369,10.2646-13.99952,6.46729-6.03603,14.08018-9.22652,22.79793-10.0265,2.47332.51095,4.94648.51578,7.41954-.00198,2.8592-.34231,4.31797.47526,4.18035,3.80398-.24573,5.94675-.02711,11.9114-.10837,17.86716-.01439,1.05235.9044,3.10681-1.7228,2.52738,1.40216-6.3912.15968-12.84229.60171-18.33596-.26292-1.46964-1.03677-.70287-.53713-.94553.22335-.10849.36081-.05003.37495.17764.35181,5.65361.09317,11.31245.13822,16.96866.00732.91757-.47554,1.55917-1.23175,2.0235-1.51526-.03137-3.03053-.06365-4.54579-.09395-19.8892-.39762-32.69704,10.58655-35.47788,30.40502-.15083,1.07512-.45235,2.12915-.68374,3.19298-1.32985,3.49706.31382,6.90683.30462,10.37806-.02116,12.98851.03484,25.96416-.02807,38.93986-1.15613,3.47581.70078,7.31995-1.309,10.6922-8.00401.12852-16.01031.57333-24.00405-.23839Z"/><path class="cls-7" d="m292.54797,740.25122c-.29763-.02903-.59523-.05811-.89285-.08714-2.24655-.69977-4.62897.2299-6.867-.57226-22.39341-2.21644-39.02934-13.65411-51.80735-32.16506,2.34135-.50256,3.4321.98874,4.65091,1.81683,12.65317,8.59752,26.36129,14.34864,41.84094,14.47386,16.70572.13518,31.76287-4.87402,43.97358-16.62365,8.38217-8.06568,11.87242-18.51334,12.8781-29.89611,3.03633-1.27035,6.20938-.3932,9.314-.56158,5.6125-.30438,11.2523.40896,16.85704-.39234.97636,4.73426-.37228,9.27213-1.40852,13.76739-6.4548,28.00138-30.68671,48.86452-57.42633,49.59677-3.66601.87339-7.45038-.29691-11.1125.64328Z"/><path class="cls-9" d="m646.13758,601.20416c-3.28984-.25827-8.49217,1.68424-10.96085-.68243-2.69158-2.5803-.67962-7.86728-.88884-11.96644-.15516-3.04038.07181-6.09958-.06184-9.14205-.09647-2.19727.79913-2.91023,2.91178-2.88563,6.65194.07758,13.30596.08119,19.9578-.00175,2.184-.02725,2.8652.83638,2.83128,2.9565-.10207,6.37224-.08905,12.74776-.01083,19.12065.02441,1.99056-.73124,2.68839-2.68523,2.63013-3.46193-.10326-6.9292-.02898-11.09328-.02898Z"/><path class="cls-6" d="m659.95326,736.95869c-7.76347.08836-15.5274.15242-23.29015.28333-1.80249.0304-2.52514-.73347-2.40553-2.48111.0567-.82855.00458-1.66436.00458-2.49693-.00025-35.24498.09459-70.49046-.11885-105.73417-.027-4.45764,1.39423-5.31359,5.40137-5.16168,6.64446.25191,13.31008-.0516,19.96675-.12115,1.50036.5805.84358,1.89335.84459,2.85474.03895,36.82022.03443,73.64049.02807,110.46075-.0001.81868.1337,1.67362-.43084,2.39621Z"/><path class="cls-79" d="m722.5481,714.47309c-1.26455-1.06073-1.72097-2.51447-1.71838-4.06118.03926-23.06722.1103-46.13444.17382-69.20161h21.96895c.00214.27662.00427.5533.00641.82992-5.4771,0-10.95857.1301-16.42966-.0516-3.00464-.0998-4.15843.80287-4.1416,3.97979.11239,21.23096.08905,42.463-.00203,63.69416-.00697,1.61383,1.20851,3.18856.14249,4.81052Z"/><path class="cls-2" d="m408.34875,736.99575c-1.70816-.67801-.76422-2.14135-.76541-3.15211-.061-50.9295-.061-101.85911-.00013-152.78859.00122-1.01086-.9417-2.4743.76674-3.15147.74271,1.29702.39496,2.71585.3955,4.07461.01973,50.31449.01973,100.62898-.00005,150.94346-.00053,1.35861.34825,2.77762-.39664,4.0741Z"/><path class="cls-2" d="m380.22361,735.73898v-157.5379c.13802-.00005.27604-.00008.41406-.0001v157.50851c-.13802.00981-.27604.01968-.41406.02949Z"/><path class="cls-60" d="m408.34875,736.99575c.00038-53.03074.00076-106.06153.00117-159.09222,1.21906,1.27053.81556,2.87035.81609,4.35098.0179,50.13024.01795,100.26054.00005,150.39078-.00051,1.48068.40262,3.08052-.81731,4.35047Z"/><path class="cls-2" d="m659.95321,736.95869c-.01556-36.78183-.02578-73.56367-.06342-110.3455-.00183-1.78821-.24492-3.57622-.37704-5.36529,1.58839.80658,1.2852,2.30719,1.28561,3.65283.01159,36.59855.01515,73.19716-.02934,109.79566-.00086.74385.81601,2.01689-.81581,2.2623Z"/><path class="cls-2" d="m549.80297,623.22529v112.5659l-.40018.00015v-112.5659l.40018-.00015Z"/><path class="cls-76" d="m677.85572,641.21111c4.40549,0,8.81936.16564,13.21371-.05516,3.21864-.16167,3.9687,1.1977,3.94586,4.15519-.11234,14.54108-.05035,29.08347-.05004,43.62541.00015,7.02899.00005,14.05799.00005,21.89743-1.22509-2.18954-.80345-3.71115-.806-5.15446-.03448-19.6662-.10807-39.33321.05304-58.99814.02975-3.63168-.97473-4.99111-4.68361-4.70716-3.83668.29365-7.71333.06533-11.57248.06533-.03351-.27617-.06703-.55228-.10054-.82844Z"/><path class="cls-66" d="m526.72162,715.32644c-1.39276-1.37528-.86799-3.13772-.87063-4.74367-.03336-20.12163-.12286-40.24432.08666-60.36381.03133-3.00696-1.96406-5.91254-.3301-8.9316.81535,1.49242,1.08259,3.11693,1.15435,4.78851,1.00392,1.50432.72076,3.21332.72224,4.85663.01785,19.7026.01434,39.4052.00681,59.1078-.00066,1.79538.17804,3.62492-.76933,5.28613Z"/><path class="cls-9" d="m909.74724,626.23428c-2.76334,2.96085-3.18187,7.13088-5.35723,10.40409-.51648.77705-.73943,1.99178-1.80483,1.94719-1.31337-.05491-1.32934-1.45876-1.7493-2.39138.31286-.34205.33452-.93206.90145-1.05774,3.59481-1.81572,3.28663-5.95647,5.22898-8.74801,1.14525-1.64611.68389-5.32172,3.60478-4.5762,2.23771.57129.8627,3.61908.9819,5.53449.20474,3.28694.09662,6.59731.01617,9.89528-.02065.84212.41009,2.62372-1.60355,1.44855.53418-4.16271.87063-8.32197-.21837-12.45626Z"/><path class="cls-2" d="m527.39824,646.39948c1.66727.08307.89148,1.37584.89306,2.07444.04582,20.94687.03768,41.89384.03595,62.84081-.00005,1.10603.08894,2.23444-.66528,3.1847-.87404-.76139-.56703-1.79233-.56774-2.71945-.01566-21.11983-.01515-42.2396-.0119-63.35943.0001-.69163-.00666-1.38123.31591-2.02106Z"/><path class="cls-27" d="m527.39824,646.39948c.03229,21.04214.06103,42.08434.10374,63.12648.00336,1.65791.1042,3.31566.15989,4.97347-.07191.28638-.14387.57272-.21593.8591-.24136-.02156-.48317-.03213-.72493-.03193.01393-23.08359.02726-46.16698.04073-69.25057.21278.10671.42489.2146.6365.32345Z"/><path class="cls-29" d="m121.12705,578.665c-8.36409.02201-16.72818.04972-25.09228.06144-1.7853.00249-3.5775-.09388-5.19679.87181-.48507-.80058-2.41421-2.21845.02974-2.27895,9.62917-.23844,19.26858-.07672,28.90397-.02481.76185.00409,1.12607.69013,1.35537,1.37051Z"/><path class="cls-2" d="m575.67145,726.23726c.00305-13.64288.0061-27.28581.00915-40.92868-.28245-1.67468-.7647-3.36264.32974-4.94555.72987.95977.64255,2.08588.64265,3.191.00188,17.04578.01337,34.09156-.03728,51.13719-.00224.76225.80208,2.01557-.79084,2.31624-.75148-3.58008-.51068-7.1743-.15343-10.77019Z"/><path class="cls-65" d="m429.24263,651.22688c.53982,3.82996,2.96518,4.43298,6.39116,4.21167,4.52698-.29249,9.08727-.09482,13.63286-.06121,1.47458.01088,3.08093-.35644,4.22048,1.05575-7.7115,1.11676-15.48834.68426-23.18814.31852-3.89414-.18496-.90893-3.58328-1.05635-5.52473Z"/><path class="cls-73" d="m781.68422,621.9316c-1.19112,1.31717-2.78216.9257-4.24519.9349-5.61186.03549-11.22453.05323-16.83599-.00752-1.84348-.02003-3.55642.07077-4.78583,1.67895-.46944-1.222-2.18639-3.02618.84892-2.98982,8.33925.09965,16.69314-.59168,25.01809.38349Z"/><path class="cls-7" d="m249.37973,678.3234c-.28049.94431-.6829,1.80956-1.16106.14484-.83864-2.91987-2.15718-5.87919-2.16951-8.82656-.0415-9.93936-1.04514-19.92015.67782-29.81857.20853-1.19805.62325-2.36022,1.21911-4.561.32603,1.6696.44996,2.30414.57417,2.93954-1.30595,1.96234-.5952,4.24619-1.01455,6.34946-1.0203,2.50781.21796,5.22701-.72501,7.74208.0031,2.87137.00618,5.74278.00928,8.61415.91523,2.52916-.29119,5.25258.71207,7.77365.17682,3.30153.56164,6.56258,1.87768,9.6424Z"/><path class="cls-40" d="m878.28378,622.05281c3.73009-1.1071,7.54571-.24078,11.31475-.4721.75784-.04652,1.84663-.10717,1.77147,1.06714-.07293,1.14091-1.1541.87979-1.91488.9253-1.22143.07311-2.4458.09761-3.66886.14266-.81388,4.97372-.50326,9.96005-.16813,14.94668-1.54273-.54979-1.61494-.54892-1.62562-1.45033-.0359-3.05256-.19732-6.11951.03275-9.15499.24044-3.17407-.33045-5.14541-4.14323-4.52475-.72254.11754-2.6064.65472-1.60182-1.47697.69345.64898,1.55575.32701,2.34796.40805-.79354-.06823-1.64586.19924-2.3444-.41069Z"/><path class="cls-72" d="m868.3059,622.89056c-8.5152.37164-17.07307-.83307-25.5629.66215-.06077.01068-.2083-.47063-.3153-.72224.26536-1.26659,1.26089-1.31824,2.25225-1.31967,7.35541-.01047,14.71093-.02288,22.06613.00702.80544.00325,2.15583-.34104,1.55981,1.37274Z"/><path class="cls-78" d="m336.66697,628.01558c8.34733.00524,16.69464.01042,25.04197.01566.51119,1.59247-.58269,1.51174-1.58483,1.51199-7.61853.00203-15.23709-.01373-22.85553.01246-1.70831.0059-1.5621-.57389-.60161-1.54011Z"/><path class="cls-41" d="m720.64599,587.87436c-8.26602.00452-16.53203.00905-24.79805.01355.05752-1.46057,1.15989-1.2903,2.09023-1.29224,6.87814-.01434,13.75623-.01518,20.63437.00092.9165.00214,2.0467-.22121,2.07345,1.27777Z"/><path class="cls-39" d="m897.51965,627.84562c-.39209-.52193-.78408-1.04386-1.98506-2.64263v13.83709c-.50234-.0063-1.00468-.01261-1.50703-.01896,0-5.37536-.13059-10.75545.06682-16.12359.07476-2.03179,1.7497-1.64118,2.60833-.59824.83422,1.0132,1.12867,2.47054,1.6601,3.73286.37185.90791.60517,1.7514-.84317,1.81348Z"/><path class="cls-2" d="m198.49127,577.33153c.67872-1.14627,1.81217-1.0903,2.91566-1.0905,13.33692-.00259,26.67386-.00168,40.03996-.00168.15114,1.33815-.97087,1.2508-1.53045,1.7088-.50872.12997-1.02526.18084-1.54985.15275-11.6746-.41104-23.35321-.09545-35.02916-.21444-1.62501-.01655-3.31218.32751-4.84617-.55492Z"/><path class="cls-30" d="m239.28623,577.79415c.20088.08895.41093.14029.63022.154-.50237,1.39145-1.85586,1.37495-2.95226,1.78376-1.73648-1.10954-3.68422-.99708-5.62335-1.00384-11.01855-.03851-22.03703-.09431-33.05557-.14418-.01995-.23043.05046-.42886.21119-.59529.44032-.37363.9496-.50731,1.52439-.49933,13.08781.18216,26.18148-.39068,39.26539.30489Z"/><path class="cls-51" d="m199.25011,736.87608c1.31791-1.08839,2.89407-.69001,4.36972-.69499,9.90679-.0333,19.81373-.01942,29.72062-.02308,1.64533-.00061,3.31844.16503,4.82018-.75574.64219,1.13944,2.10388.22568,3.32892,1.62888-14.40445-.13229-28.31523.67953-42.23945-.15506Z"/><path class="cls-24" d="m239.28623,577.79415c-13.5966.06482-27.19321.12964-40.7898.19444-.03833-.21915-.04023-.43863-.00543-.65772,13.12195-.07402,26.2436-.15598,39.36537-.19408.47597-.00137.95322.42848,1.42985.65737Z"/><path class="cls-72" d="m743.39973,737.05392c-1.86896-2.6075-.56428-5.57028-.92937-8.34703-.43786-3.3304.88014-6.80875-.83854-10.03448-.08859-.10783-.17718-.21572-.26582-.3236.09245-.10463.18491-.20926.27731-.31384,1.20963-.26534,2.28622-.25837,2.22596,1.41108-.21191,5.86795.60085,11.76331-.46954,17.60787Z"/><path class="cls-72" d="m676.68128,622.05967h16.97233c.00804.27372.01612.5475.02416.82123-3.692,0-7.40281.23285-11.07085-.06355-3.89496-.31475-5.63017.84792-5.19597,5.00951.34307,3.28841.07654,6.63646.21395,9.95252.04099.98925-.04791,1.61012-1.10975,1.77687-.19162-5.8345-.55081-11.67068.16614-17.49658Z"/><path class="cls-19" d="m90.30411,735.39733c5.52193,1.62755,11.17907.31933,16.7526.77552,4.32384.3539,8.74343-.92194,12.9855.76906-9.69901.03818-19.39807.07885-29.09716.1121-1.61561.00554-1.62881-.63973-.64095-1.65669Z"/><path class="cls-74" d="m773.30327,782.78148c5.54504-1.31311,11.09033-1.29902,16.63582-.00275-5.54514,1.13649-11.09043.70445-16.63582.00275Z"/><path class="cls-67" d="m362.49533,676.24378c-2.41488,1.50777-5.08348.6594-7.62662.73429-6.17787.18201-12.36175.15954-18.54381.21953-.54155-1.1098.366-1.11498.96316-1.11646,8.40276-.021,16.80886-.45568,25.20727.16264Z"/><path class="cls-9" d="m381.80334,577.91637c2.07421-1.52834,4.46572-.76939,6.65288-.67897,6.0533.25031,12.16913-1.02332,18.16296.6729-8.27179.66814-16.54373.65879-24.81584.00608Z"/><path class="cls-69" d="m381.80334,577.91637c8.27197-.00203,16.5439-.00407,24.81584-.00608.01777.27393.03552.54783.05327.82176-8.30477-.00292-16.60951-.00585-24.91427-.00877l.04516-.80691Z"/><path class="cls-52" d="m550.89609,736.17427c8.02008-.01205,16.04016-.02405,24.06025-.0361.28296.18714.38141.38034.29608.57989-.08645.20234-.17514.30372-.26663.30377-7.2414.05542-14.48279.12425-21.72429.14886-.87958.003-1.99345.31287-2.3654-.99642Z"/><path class="cls-18" d="m189.34405,664.25886c-.10051,1.07106-.201,2.14216-.30149,3.21322-.13955-.00554-.27908-.01113-.41861-.01668v-20.90421c.14248-.00742.28495-.01479.42743-.02217.08082,1.33909.16164,2.67812.2425,4.01731.01674,4.57091.03346,9.14172.05017,13.71253Z"/><path class="cls-35" d="m766.59824,761.32804c.00905,5.22558-.0149,10.45152.05035,15.67639.01638,1.31138-.13034,2.56948.69986,3.91873,1.24009,2.01526-1.03682.44541-1.34561,1.02621-.06092-6.45379-.122-12.90752-.18252-19.36131-.00544-.58233.15918-1.0618.77792-1.26003Z"/><path class="cls-72" d="m616.64,642.8985c1.70348-4.4311.52787-9.04075.81566-13.5598.14738-2.31405.02589-4.64519.44676-6.95436-.20021,6.87729,1.60223,13.80516-.60837,20.62581-.00005.00005-.34108.02639-.34108.02639l-.31296-.13803Z"/><path class="cls-72" d="m551.06055,622.06277h20.21935c.00214.27083.00432.5417.00646.81253h-20.38412c.05279-.27083.10552-.5417.15831-.81253Z"/><path class="cls-34" d="m574.46274,642.83968c-.95164-.56321-1.1928-1.48134-1.11997-2.47552.44625-6.09165-1.01745-12.26475.77914-18.29762.74833,6.91399.07399,13.85127.34083,20.77315Z"/><path class="cls-10" d="m897.51965,627.84562c.28102-.60439.56205-1.20883.84307-1.81333,1.59012,2.86232,3.2309,5.70597,3.37461,9.1042-.30045.35258-.6009.70516-.90145,1.05774-1.10538-2.7829-2.21075-5.56576-3.31623-8.34861Z"/><path class="cls-15" d="m287.54233,596.08946c.52764-1.87749,2.09152-1.50605,3.42186-1.52211,3.17969-.03844,6.36014-.01241,9.71527-.01241-.72163,1.3068-1.83092.63403-2.61139.99144-3.50889.1812-7.0173.36214-10.52574.54308Z"/><path class="cls-70" d="m741.63181,718.6724c-4.60057,1.58942-9.29409.78233-13.96474.5262-.0417-.00224-.10817-.2331-.09632-.35049.01297-.12817.10369-.24851.1606-.37246,2.87929.03533,5.75863.07092,8.63792.10646,1.7614-.46799,3.51706-.59016,5.25944.08745l.0031.00285Z"/><path class="cls-61" d="m885.61814,638.66248c-1.01506-4.99426-1.24706-9.97972.16813-14.94668-.05604,4.98221-.11208,9.96447-.16813,14.94668Z"/><path class="cls-73" d="m477.68209,637.96108c-1.34083-.09146-2.68172-.18287-4.02255-.27428l.01831-.44734h11.92658c-1.0503,1.11681-2.36784.3722-3.40945.79758-1.50469-.02506-3.00881-.05054-4.51289-.07596Z"/><path class="cls-36" d="m909.74724,626.23428c1.75937,4.12255,1.30869,8.28384.21827,12.45626-.07272-4.15209-.14555-8.30417-.21827-12.45626Z"/><path class="cls-32" d="m576.0103,680.36302c-.10985,1.6485-.21974,3.29705-.32969,4.94555-1.42856-3.27494-.44803-6.7057-.61819-10.06081-.03743-.7381.46507-.42233.63467-.04255.16157.36178.16314.79489.2352,1.19704.02614,1.32048.05208,2.6406.07801,3.96077Z"/><path class="cls-62" d="m302.48296,573.84207c-3.84748,1.14343-7.69756,1.11338-11.54998.02562,3.85-.00854,7.69998-.01708,11.54998-.02562Z"/><path class="cls-68" d="m574.98578,737.02178c-.00956-.29437-.01912-.58868-.02909-.88335.3929-3.28938-.70057-6.68582.71476-9.90117.05116,3.59005.10227,7.18014.15343,10.77019l-.8391.01434Z"/><path class="cls-64" d="m292.54797,740.25122c3.62965-1.48098,7.39999-.53464,11.11082-.64339-3.65708.99861-7.3847.80811-11.11082.64339Z"/><path class="cls-71" d="m250.91849,690.17619c.49873-.76205.99749-1.52404,1.49625-2.28604.66203,1.53223,1.32403,3.06451,2.14746,4.97047-2.04548-.56169-2.80499-1.67087-3.64371-2.68443Z"/><path class="cls-33" d="m424.33297,702.07387c1.07814,2.72886,1.05869,5.45991.01587,8.19288-.00529-2.73094-.01058-5.46194-.01587-8.19288Z"/><path class="cls-7" d="m247.50205,668.68101c-1.55417-2.46957-.522-5.17606-.71209-7.77213.91925,2.52728.56472,5.17266.71209,7.77213Z"/><path class="cls-7" d="m246.7807,652.2932c.20517-2.58412-.83625-5.28491.72503-7.74208-.12963,2.59118.1639,5.22197-.72503,7.74208Z"/><path class="cls-53" d="m614.94482,618.81168c-2.47286,1.14218-4.94607,1.13883-7.41954.00198,2.47306-.35787,4.94628-.33804,7.41954-.00198Z"/><path class="cls-31" d="m284.78812,739.59182c2.3001.05862,4.66647-.67719,6.86713.57236-2.31424.11017-4.63662.31979-6.86713-.57236Z"/><path class="cls-5" d="m309.1927,574.58068c-1.20876,1.21519-2.58446.7594-3.98032.17662.86562-.1086,1.73124-.21716,2.5973-.32596.4613.04962.92217.09949,1.38302.14934Z"/><path class="cls-8" d="m741.62871,718.66956c-1.7523-.02908-3.5046-.05816-5.25817-.08734,1.69992-.73012,3.48319-.66906,5.27276-.54725-.00036.21165-.00524.4232-.0146.63459Z"/><path class="cls-11" d="m478.0757,669.39923c.60995.10976,1.21995.21958,2.18883.39396-1.5531.84914-2.60483.65894-3.57691-.21861.46268-.05842.9254-.11688,1.38808-.17535Z"/><path class="cls-37" d="m285.65992,574.44272c.58966.13625,1.17934.2725,2.10317.48596-1.54939.688-2.60973.59466-3.54981-.33649.48223-.04982.96443-.09967,1.44664-.14947Z"/><path class="cls-18" d="m190.00968,644.52895c-1.00737-.96348-.84182-2.0537-.35292-4.35855.3189,1.76487.43135,2.38721.54393,3.0098-.06357.44973-.12729.89927-.19101,1.34875Z"/><path class="cls-75" d="m289.76923,280.6516c7.60841,1.51944,15.20628,3.01649,22.23668,6.55847,19.74866,9.94954,29.6197,26.75829,33.56661,47.8001.53301,2.84173-1.60945,2.85655-3.09407,3.47496-23.81019,9.918-47.64208,19.78396-71.46794,29.66432-3.9706,1.64657-7.87029,3.49485-11.92325,4.90328-3.84499,1.33616-2.88865,2.5445-.38212,4.34832,4.22386,3.03972,8.77276,5.38339,13.86684,6.41093,15.70213,3.16736,30.49445,1.01183,43.44062-8.82742,4.04709-3.07581,6.61532-2.76544,10.18268.39853,4.55459,4.03959,9.55686,7.58968,14.49024,11.18036,2.12044,1.54334,2.23829,2.57273.28891,4.43163-10.97751,10.4681-24.18357,16.74061-38.79113,19.81135-25.1568,5.28835-48.6656,1.72964-68.9253-15.22676-11.76565-9.84728-18.19322-22.85145-20.6402-37.90084-.22086-1.35832-.52004-2.70391-.78286-4.05541-.81272-.70826-.64405-1.48223-.15261-2.2778-.00103-3.06326-.00205-6.12654-.00306-9.1898-.48944-.79949-.64732-1.57797.14569-2.29614,1.62544-9.43678,3.83403-18.69601,8.92273-26.97136,12.92855-21.02474,32.09294-31.27262,56.44797-32.44178,2.62301-.12593,5.25491-.06716,7.88267-.09405,1.58336-.20917,3.18312-.67567,4.69093.29915Z"/><path class="cls-75" d="m416.68901,311.37947c-11.63376,1.21501-21.48194,11.44699-22.44487,23.31963.51335.89918.34665,1.88796.34698,2.84481.00849,23.24808.01159,46.49618-.01037,69.74424-.00099,1.06249.37495,2.23436-.54109,3.15821-11.85946.5203-23.71896.51677-35.57849.00297-.84449-.95356-.50461-2.11664-.50506-3.18871-.01762-40.33718-.01744-80.67437-.00084-121.01155.00046-1.07573-.32171-2.2336.48429-3.2011.26086-.22531.52172-.45061.78258-.6759.8973-.9824,2.08057-.56668,3.1357-.57049,9.278-.03355,18.55625-.03433,27.83425.00113,1.05005.00402,2.24007-.43255,3.1207.58812.24987.22016.49975.44032.74962.66047,1.22435,3.87029.16324,7.84718.5595,11.75123.14504,1.42864-.65923,2.98881.53359,4.28537,12.50887-13.73077,28.11893-19.73329,46.56266-18.6742,1.06357-.30516,2.13706-.72209,3.08561.27294,5.57448,1.5629,11.28383,2.63824,16.49592,5.39496,16.02333,8.47496,24.51794,21.86053,26.29348,39.73184.13548,1.36348.42143,2.71199.63746,4.06746.77472.80829.50743,1.8253.50794,2.76341.01373,25.02414.01444,50.04827-.00198,75.07242-.00061.92814.30859,1.96142-.57069,2.7222-10.93705.71596-21.88718.09977-32.82804.33443-3.28516.07044-2.53251-2.23772-2.5348-4.0229-.02853-22.31448-.00509-44.62896-.02405-66.94344-.01226-14.39379-7.36884-24.14865-21.16906-28.10947-.78026-.22393-1.63132-.20121-2.44941-.2933-4.15711-.03249-8.31417-.0887-12.47149-.02476Z"/><path class="cls-75" d="m580.67774,280.62932c6.41725,1.57715,12.95837,2.65219,19.05829,5.42077,22.35077,10.14452,35.82145,27.06243,39.59492,51.46913.08228.53255.34896,1.03664.5296,1.554.85375,5.10034.90725,10.1989-.03407,15.29524-1.9489,11.33461-5.48122,22.06668-12.6833,31.22664-16.35984,20.80716-38.13229,29.58285-64.09673,26.87535-25.96704-2.70781-45.26358-15.91608-55.8239-40.20366-16.37209-37.65378,6.49826-80.92061,47.17297-90.03133,7.65561-1.71478,15.37361-1.88377,23.13815-1.83425,1.07654-.31707,2.15374-.64246,3.14409.22811Z"/><path class="cls-75" d="m837.41236,280.39361c14.87051-.59566,29.02239,1.96297,41.9771,9.65682,23.68921,14.06912,35.82669,40.10776,31.43641,67.36895-4.2664,26.49147-24.93607,47.86652-52.04484,53.82095-31.15162,6.84244-62.4732-6.43597-76.88835-32.59587-20.77875-37.70826-.36117-84.75075,41.55328-95.68937,3.34151-.87207,6.739-1.53003,10.11046-2.28748,1.22061-1.00109,2.54431-.55269,3.85595-.274Z"/><path class="cls-75" d="m707.55636,368.01506c8.57562-23.37532,17.14117-46.75436,25.73484-70.12305,1.9071-5.18599,3.91342-10.33548,5.87412-15.50177.60222-.81301,1.49055-.59844,2.29212-.59936,11.49966-.01303,22.99927-.0129,34.49892-.00022.80289.00088,1.68893-.20843,2.29848.59172.59749,1.17016-.0979,2.12171-.51363,3.13068-16.68012,40.48758-33.39411,80.96134-49.95421,121.49793-1.20795,2.95688-2.68985,3.87557-5.7751,3.81929-10.26059-.18712-20.52763-.14553-30.79004-.01787-2.56587.0319-3.90543-.6896-4.93132-3.19735-16.57999-40.52923-33.27831-81.01001-49.91119-121.51767-.47641-1.16037-1.79558-2.32304-.5442-3.78051.65684-.69565,1.52101-.5273,2.32711-.52802,11.41463-.01008,22.82936-.0189,34.24389.01736.8626.00273,1.98359-.50406,2.51359.75189,9.97687,27.31015,19.95262,54.62071,29.93828,81.92763.23444.64112.58168,1.24101.87633,1.86011.84134.30112.0147,2.42192,1.82202,1.66921Z"/><path class="cls-75" d="m128.43857,377.96958c1.26571,1.30837,2.87783.62712,4.30262.63024,23.55438.05174,47.10893.0331,70.66343.04474,1.65828.00083,3.31651.11517,4.97477.17673.70907,10.55122.64228,21.10308.02639,31.65539-1.23842.09441-2.47681.27075-3.71527.27126-35.93042.01477-71.86112-.04957-107.79088.10318-3.77378.01601-4.55481-1.10868-4.54715-4.67679.11286-52.56278.11638-105.12598-.00586-157.68873-.00849-3.65291.88661-4.72348,4.59438-4.60576,9.00821.28604,18.0317.07316,27.04881.11292,1.47078.00648,3.08775-.4883,4.33536.81491.78212.97518.46676,2.12899.46716,3.20521.01597,42.3716.01504,84.74323.00707,127.11484-.00018.9566.17223,1.94758-.36083,2.84184Z"/><path class="cls-3" d="m944.19669,399.07381c-1.57222,2.35094-3.14455,4.70185-5.06421,7.57217-1.82538-2.76869-3.45517-5.24068-5.39995-8.19039-.96705,3.43989-.28296,6.51182-.52014,9.50614-.09235,1.16618.33534,2.68254-1.62796,2.70738-1.98181.02506-1.63823-1.49773-1.64901-2.66564-.03956-4.28892-.0356-8.57853-.006-12.86756.00722-1.04083-.34988-2.36955,1.2201-2.67126,1.31103-.25199,2.45079.04845,3.20333,1.32266.70261,1.18954,1.50184,2.32163,2.2435,3.48859q2.59267,4.07931,5.09747.16714c.8214-1.28065,1.67953-2.53826,2.4812-3.831.68694-1.10751,1.70587-1.31196,2.87512-1.16511,1.66661.20928,1.31846,1.54011,1.32731,2.5649.03865,4.42726.02472,8.85513.00244,13.28265-.00549,1.08783.10883,2.31942-1.535,2.38345-1.88884.07359-1.82243-1.26977-1.8265-2.54012-.00915-2.90121-.00285-5.80247-.00285-8.7037-.27299-.12011-.54587-.2402-.81886-.36031Z"/><path class="cls-46" d="m91.07591,409.2992v-164.20433c.12855-.00004.25711-.0001.38567-.00014v164.20434c-.12855.00005-.25711.0001-.38567.00013Z"/><path class="cls-22" d="m128.43857,377.96958c-.08226-.82238-.23623-1.64475-.23646-2.46716-.01156-42.87363-.01069-85.74727-.00442-128.6209.0001-.6913.08315-1.38259.12748-2.07386,1.69411.39452.85474,1.75236.85568,2.6165.04611,42.33581.04198,84.67166.03176,127.00752-.00029,1.2221.25638,2.52873-.77403,3.53791Z"/><path class="cls-59" d="m358.43955,283.04797c.03562,33.72435.07882,67.44869.10173,101.17304.00592,8.74277-.05167,17.48563-.08012,26.22838-1.36969-1.19877-.92098-2.82027-.92174-4.28951-.0211-39.60312-.021-79.20624-.00043-118.80935.00079-1.47174-.43839-3.08847.90056-4.30256Z"/><path class="cls-4" d="m918.41786,392.39163c1.80524.00369,3.61048-.00796,5.41561.00813,1.06988.00953,1.91915.29243,1.91763,1.62143-.00173,1.40754-.99136,1.63035-1.97682,1.458-3.92649-.68673-3.84115,1.7726-3.74483,4.4719.10385,2.9113.01119,5.82967.00041,8.74494-.00376,1.05016-.21806,1.92563-1.53276,1.99899-1.52188.08493-1.85955-.79492-1.8507-2.08433.02105-3.05396-.1073-6.11285.02614-9.16094.10924-2.4952-.00651-4.47213-3.38173-3.96947-1.03703.15438-2.38956.21386-2.29893-1.52595.0831-1.59619,1.31022-1.54413,2.42699-1.56017,1.666-.02395,3.33261-.0062,4.99901-.00254Z"/><path class="cls-23" d="m92.56336,412.12404c1.32369-1.11483,2.91652-.70638,4.40223-.70727,35.66869-.02128,71.33738-.02123,107.00607-.00028,1.48695.00086,3.07763-.4022,4.40794.69545-1.14089.75862-2.4268.42592-3.64508.42655-36.17349.01886-72.347.01871-108.5205.00048-1.22006-.00061-2.50366.32167-3.65066-.41493Z"/><path class="cls-16" d="m92.56336,412.12404c38.60538-.00384,77.21075-.00768,115.81619-.01182-1.25151,1.25736-2.85574.84423-4.33335.84504-35.71427.0196-71.42855.01952-107.14283.0002-1.47881-.00081-3.08072.40731-4.34001-.83343Z"/><path class="cls-57" d="m488.16587,410.43891c.02166-26.85285.04333-53.70571.06489-80.55829.10044-1.34215.20108-2.68458.30167-4.02699.21201.0036.42398.00719.63594.01079v3.86024c0,25.21027.01348,50.42058-.0296,75.63077-.00295,1.71541.66986,3.64694-.9729,5.08348Z"/><path class="cls-55" d="m131.237,377.33267h75.92897c.00009.13033.00018.26067.00027.391h-75.92897c-.00009-.13033-.00018-.26067-.00027-.391Z"/><path class="cls-28" d="m394.03965,410.44636c-.00008-25.24927-.39458-50.49961.20449-75.74726,1.11613,1.14528.75496,2.59537.75603,3.93903.0177,22.51891.02057,45.03782-.00664,67.55673-.00175,1.45795.47986,3.08807-.95388,4.25151Z"/><path class="cls-49" d="m674.91973,282.55812c-13.0282-.08042-26.05644-.16085-39.08464-.24126.91772-1.1502,2.22052-.94547,3.44428-.94662,10.64479-.01009,21.28963-.01464,31.93443.00536,1.33656.00252,2.83215-.33707,3.70593,1.18252Z"/><path class="cls-49" d="m778.25484,282.38239c-13.02982.00259-26.0597.00517-39.08952.0078.86565-1.21985,2.17215-1.01866,3.39353-1.0198,10.76588-.00999,21.5317-.00999,32.29758-.00001,1.22138.00113,2.52727-.2005,3.39841,1.012Z"/><path class="cls-23" d="m688.69564,411.55885h35.9407c.00066.12219.00137.24442.00203.36661h-35.81306c-.04323-.12219-.08645-.24442-.12968-.36661Z"/><path class="cls-23" d="m454.83955,411.5329h32.24159c-.00031.12227-.00066.24457-.00097.36684h-32.61049c.12332-.12227.24659-.24457.36987-.36684Z"/><path class="cls-49" d="m393.31276,282.39083c-11.36355-.00628-22.72712-.01256-34.09066-.0188.75389-1.05343,1.88137-1.004,2.9873-1.00421,9.37597-.00178,18.75196-.0017,28.12793.00013,1.1067.00022,2.23402-.04567,2.97543,1.02288Z"/><path class="cls-23" d="m360.4409,411.57736h31.78217c.00018.12227.00033.24452.00051.36679h-31.73887c-.0146-.12227-.02922-.24452-.04381-.36679Z"/><path class="cls-50" d="m208.40578,410.47669c-.0088-10.5518-.0176-21.10361-.02639-31.65539.89254.85653.83211,1.97289.8323,3.06987.00149,8.5009.00169,17.00183.00003,25.50273-.0002,1.09609.06514,2.2127-.80593,3.08279Z"/><path class="cls-48" d="m416.68901,311.37947c4.15948-1.15845,8.31656-1.11283,12.47149.02475-4.15968,1.25317-8.31692,1.29503-12.47149-.02475Z"/><path class="cls-58" d="m639.82647,354.36846c.01144-5.09863.02294-10.19727.03428-15.29557.07059-.40563.00559-1.04741.23434-1.17903,1.41661-.81506.66314.65162.66498.83069.05818,5.76952.04791,11.53974.04791,17.38003-1.11138-.31038-.73973-1.16989-.98149-1.73612Z"/><path class="cls-56" d="m949.73191,394.23904v15.10645c-.13619.00003-.27228.00008-.40846.00013v-15.0687c.13619-.01263.27228-.02524.40846-.03788Z"/><path class="cls-28" d="m395.15548,299.08789c-1.15865-.20307-1.20108-.20329-1.19826-.76008.02599-5.09225.06787-10.18443.10514-15.27657,1.98262,3.14571.55732,6.61662.91823,9.91921.22089,2.02139.12724,4.07712.17489,6.11744Z"/><path class="cls-42" d="m773.08658,340.92307v11.78148c-.13827.00013-.2765.00025-.41477.00038v-11.73836c.13827-.0145.2765-.029.41477-.04351Z"/><path class="cls-21" d="m289.76923,280.6516c-1.56365-.09971-3.12728-.19942-4.69093-.29915,2.05468-1.1797,4.22877-.54878,6.42729-.53112-.35064.97278-1.15496.64142-1.73636.83026Z"/><path class="cls-44" d="m837.41236,280.39361c-1.28545.09125-2.57096.18248-3.85615.27386-.31021-.21913-1.33336-.51692-.67764-.7329,1.44681-.47657,3.11978-.60825,4.53379.45904Z"/><path class="cls-14" d="m211.68231,351.34559c.0508.75935.10162,1.51871.15254,2.27793-.14623.51602-.25186,1.45594-.44596,1.47456-.8192.07862-.44605-.69176-.47925-1.09001-.08046-.96444-.05683-1.94275.77267-2.66249Z"/><path class="cls-45" d="m211.82493,339.85964c-.04855.76539-.09712,1.53077-.14567,2.29614-.90964-.80449-1.1335-2.00681-.62358-2.85609.49051-.81698.49409.34688.76925.55994Z"/><path class="cls-17" d="m707.55636,368.01506c-.17382.32896-.4372.96265-.50814.94179-1.33453-.39197-1.09175-1.62222-1.31388-2.61104.60736.55644,1.21466,1.11285,1.82202,1.66924Z"/><path class="cls-63" d="m580.67774,280.62932c-1.04801-.07603-2.09608-.15208-3.14409-.22811,1.09195-.52905,2.23125-1.70989,3.14409.22811Z"/><path class="cls-13" d="m444.80375,280.68663l-3.08561-.27294c1.09271-.63426,2.21996-1.65831,3.08561.27294Z"/><path class="cls-77" d="m490.83091,682.84597c2.84944.13091,5.47898-.8046,8.0331-1.85552,1.98175-.81543,3.13234-.89728,3.07426,1.76015-.13324,6.09531.10446,12.21197-.31998,18.28425-.46644,6.67357-4.63265,11.17483-10.19361,14.28835-9.96054,5.57679-20.53546,6.42847-31.35799,3.02953-6.90576-2.1688-10.25113-6.72949-10.4845-13.38623-.25677-7.32204,3.09364-12.59592,9.79328-15.31405,7.49608-3.04122,15.53141-3.95574,23.31909-5.84756.69656-.81807,1.47855-.59793,2.2762-.18714,1.76949.088,3.52494.0698,5.18361-.68284.17479-.41521.40033-.4446.67652-.08892Z"/><path class="cls-38" d="m484.97078,683.61772c-.75885.06228-1.51771.12456-2.27641.18699-.22137-.27271-1.38299-.25969-.58361-.76352.83778-.52818,2.03912-.30301,2.86001.57653Z"/><path class="cls-12" d="m490.83091,682.84597l-.32735.12883s-.34952-.04011-.34932-.04001c-.80757-.08653-1.61525-.17311-2.97078-.31846,1.66956-.82738,2.69575-.70282,3.64745.22965Z"/><path class="cls-72" d="m743.32853,621.99439v16.40346l-.86885-.00015c0-3.98238-.11376-7.96919.03941-11.94572.10451-2.71213-.93929-3.67541-3.62909-3.61013-5.63942.13686-11.28454.04154-16.92865-.82778,7.13633,0,14.27261,0,21.40909-.0001.00015-.00005-.02192-.01957-.02192-.01957Z"/><path class="cls-7" d="m635.81205,679.26726c.00005-17.07029.15175-34.14291-.10486-51.20933-.0655-4.35565,1.31937-5.58264,5.44577-5.25024,4.13779.33321,8.33803.28943,12.48359.00839,3.63417-.24637,4.7723.93989,4.75109,4.65912-.14961,26.22909-.07928,52.4595-.07918,78.68945,0,8.46575-.10252,16.93347.05711,25.39622.0538,2.85616-.28799,4.18635-3.73573,3.88151-4.82112-.4263-9.75265-.51471-14.55317.01352-4.1239.45375-4.35092-1.28911-4.326-4.56186.13105-17.20811.06133-34.4177.06138-51.62678Z"/><path class="cls-37" d="m878.28378,622.05281h3.93981c-1.37684.96322-2.70964,1.09978-3.94337.00264l.00356-.00264Z"/><path class="cls-20" d="m285.02919,308.86372c10.17683,1.01291,16.8797,6.93117,21.83869,15.37495,1.69239,2.88169-.91213,2.92143-2.3234,3.51151-17.399,7.27477-34.82775,14.47834-52.24124,21.71852-6.6453,2.763-6.63643,2.78425-6.60182-4.68315.08264-17.83067,9.81957-31.47946,25.26522-35.34801,1.32494-.33185,2.72174-.37684,4.08515-.55509,3.32615.1776,6.65204.21643,9.9774-.01873Z"/><path class="cls-54" d="m285.02919,308.86372c-3.32343,1.27158-6.6493,1.2497-9.97743.01873,3.3246-.66414,6.65021-.76028,9.97743-.01873Z"/><path class="cls-20" d="m604.95941,350.49025c-.53367,23.47975-24.8668,38.9933-46.82548,29.85357-13.71087-5.70684-22.03557-19.66231-21.40014-35.87493.61529-15.69749,9.50122-27.98039,23.51264-32.50134,21.27443-6.86442,44.07643,8.9711,44.70789,31.04871-.62058,2.49175-.63044,4.98309.00509,7.47399Z"/><path class="cls-47" d="m604.95941,350.49025c-1.25555-2.49048-1.2497-4.98183-.00509-7.474.44299,2.49104.4225,4.98239.00509,7.474Z"/><path class="cls-20" d="m842.55972,310.46809c19.43654.02912,34.50803,15.83181,34.55705,36.23358.05014,20.87919-14.52215,36.29749-34.24816,36.23645-19.59592-.06065-34.52145-15.98093-34.45499-36.75126.06677-20.8419,14.31701-35.74849,34.14609-35.71877Z"/></g></g></g></svg>