<?xml version="1.0" encoding="utf-8"?>
<!-- Generator: Adobe Illustrator 27.6.1, SVG Export Plug-In . SVG Version: 6.00 Build 0)  -->
<svg version="1.1" id="Layer_2_00000179618300031858364590000013138060977599550652_"
	 xmlns="http://www.w3.org/2000/svg" xmlns:xlink="http://www.w3.org/1999/xlink" x="0px" y="0px" viewBox="0 0 1000 1000"
	 style="enable-background:new 0 0 1000 1000;" xml:space="preserve">
<style type="text/css">
	.st0{fill:none;}
	.st1{fill:#020204;}
	.st2{fill:#FDFDFB;}
	.st3{opacity:0.3;enable-background:new    ;}
	.st4{fill:url(#SVGID_1_);}
	.st5{fill:url(#SVGID_00000183233002868082485650000017022664159241769120_);}
	.st6{fill:url(#SVGID_00000103953997174019479750000015338341996620961423_);}
	.st7{fill:#7C7C7C;}
	.st8{fill:#141413;}
	.st9{fill:url(#SVGID_00000023962306222725071370000008214611700615955861_);}
	.st10{clip-path:url(#SVGID_00000136395282704069378780000002551008151559253439_);}
	.st11{fill:url(#SVGID_00000020380458327394961580000004995676444869789327_);}
	.st12{fill:url(#SVGID_00000147924653036155655170000017081492913148344510_);}
	.st13{fill:url(#SVGID_00000036252062952726881670000014464129414925702547_);}
	.st14{fill:url(#SVGID_00000157304778059380922600000004406292884439483781_);}
	.st15{fill:url(#SVGID_00000158733482161631755820000015817726050443146639_);}
	.st16{fill:#D9B30D;}
	.st17{fill:#604405;}
	.st18{fill:url(#SVGID_00000052067469610583007820000001274667661209531788_);}
	.st19{fill:#F6DA4A;}
	.st20{opacity:0.8;fill:url(#SVGID_00000090997410607613724430000016842074895632960897_);enable-background:new    ;}
	.st21{opacity:0.8;fill:url(#SVGID_00000062163852559779830610000005863598096135521438_);enable-background:new    ;}
	.st22{fill:url(#SVGID_00000145047524893590511170000013259637792808408961_);}
	.st23{clip-path:url(#SVGID_00000075870504446091180190000017362843532727659185_);}
	.st24{fill:url(#SVGID_00000015331206844359902300000001903142012714875546_);}
	.st25{clip-path:url(#SVGID_00000054232353123485768710000014840313688727567266_);}
	.st26{fill:#838384;}
	.st27{opacity:0.25;fill:url(#SVGID_00000025409500506142964140000002432035833378052240_);enable-background:new    ;}
	.st28{opacity:0.42;fill:url(#SVGID_00000031181332417795316740000010714447347472824239_);enable-background:new    ;}
	.st29{opacity:0.2;fill:url(#SVGID_00000083808841768445588780000016227694311330489234_);enable-background:new    ;}
	.st30{opacity:0.1;enable-background:new    ;}
	.st31{opacity:0.2;fill:url(#SVGID_00000078011031456082674890000003876744162266151324_);enable-background:new    ;}
	.st32{clip-path:url(#SVGID_00000109015170313954249260000014672933350343372449_);}
	.st33{fill:url(#SVGID_00000180348959301684392820000017538844283348494524_);}
	.st34{clip-path:url(#SVGID_00000030454042904062579430000002405779764834204573_);}
	.st35{fill:#CD8907;}
	.st36{clip-path:url(#SVGID_00000104704503792524914080000014187417007336702891_);}
	.st37{fill:#F5C021;}
	.st38{fill:url(#SVGID_00000038381477933992108450000005490870823773016705_);}
	.st39{opacity:0.75;fill:#7C7C7C;enable-background:new    ;}
	.st40{opacity:0.25;fill:#7C7C7C;enable-background:new    ;}
	.st41{fill:url(#Aa_00000119081132630259552420000011085152799311307924_);}
	.st42{fill:url(#Aa-2_00000064323968233874753340000012388663236539481249_);}
	.st43{clip-path:url(#SVGID_00000181078080581018663370000000683354201635757987_);}
	.st44{fill:url(#Ab_00000094582379381884187280000014342219262077530268_);}
	.st45{clip-path:url(#SVGID_00000072999236154843184760000011318430032480502715_);}
	.st46{fill:url(#Ab-2_00000165203129672354173380000001968336272635232939_);}
	.st47{clip-path:url(#SVGID_00000089558620971050282340000016880995058357607359_);}
	.st48{opacity:0.95;fill:#7C7C7C;enable-background:new    ;}
	.st49{clip-path:url(#SVGID_00000008870433670708956270000014424399844059648394_);}
	.st50{fill:url(#SVGID_00000007411633404930861410000016526261628227026619_);}
	.st51{fill:#D99A03;}
	.st52{fill:#F5BD0C;}
	.st53{fill:url(#SVGID_00000088113288975823446010000016518598148350876602_);}
</style>
<g id="Layer_1-2">
	<rect class="st0" width="1000" height="1000"/>
	<g>
		<path class="st1" d="M697.6,349.3l34.1,71.1c21,46,36.8,94.6,43.4,144.8c6.6,50.1,3.7,102.2-12,150
			c-17.7,54.3-51.4,102.5-92.5,142.1C622,904,559.4,940,492,942.6c-44,1.7-87.7-10.8-126.6-31.3c-32.7-17.2-62.6-40.2-86.4-68.4
			s-41.5-61.9-49.7-98c-10.1-44.4-5.5-91.5,9.7-134.4c10.9-30.7,27.1-59.2,38.6-89.7c12.6-33.3,19.6-68.8,36.3-100.2
			c15.1-28.5,37.8-52.8,49.8-82.8c7.2-17.9,10.3-37.1,15-55.8c4.7-18.7,11.2-37.5,23.8-52.1c15.2-17.5,38.2-27,61.3-29.7
			c23.1-2.7,46.4,0.9,69,6.1c18,4.1,35.8,9.2,53.2,15.4c14.9,5.3,29.6,11.5,42.5,20.6c17.5,12.5,30.8,30,41.5,48.7
			c10.6,18.7,18.8,38.6,27.7,58.2L697.6,349.3L697.6,349.3z"/>
		<path class="st1" d="M504,943.1l55.4,5.4l48,9.5c24.8,6,49.6,13.4,75.1,14.4c6.7,0.2,13.5-0.1,20.1-1.6c6.6-1.4,12.8-4.2,18.2-8.3
			c7.9-6.3,12.8-15.7,14.7-25.5s0.7-20.2-2.2-29.7c-5.8-19.2-18.1-35.6-28.4-52.9l-17.5-29.7c-6.4-9.6-14-18.6-23.7-24.7
			c-13.4-8.6-29.9-11.4-45.8-9.8c-15.8,1.6-31,7.3-45.1,14.6c-19.8,10.2-38.4,24.3-49.2,43.8c-3.8,6.8-6.5,14.1-9.7,21.2
			c-3.2,7.1-6.9,14-12.3,19.6c-6,6.2-13.8,10.4-20.1,16.4c-3.1,3-5.8,6.5-7.4,10.5c-1.6,4-2,8.6-0.5,12.7c1,2.8,2.8,5.3,5.1,7.2
			c2.3,1.9,4.9,3.4,7.7,4.3c5.6,2,11.6,2.3,17.5,2.6L504,943.1L504,943.1z"/>
		<path class="st1" d="M449.2,941.8c-15.4,0.3-30.7,3.1-45.8,6.2l-43.1,10.1c-24.1,6.3-48.2,13.9-73.1,14.4
			c-6.6,0.2-13.1-0.3-19.5-1.7c-6.4-1.5-12.6-4.1-17.7-8.2c-8.1-6.2-12.8-15.6-14.7-25.5c-1.9-9.8-0.7-20.1,2.2-29.7
			c5.7-19.2,18-35.6,28-53l16.9-29.7c6.2-9.6,13.6-18.8,23.1-24.8c13-8.5,29.1-11.4,44.6-9.9c15.4,1.5,30.2,7.2,43.8,14.7
			c19.2,10.8,36.8,25,47.9,43.8c8.1,13.2,12.3,28.4,21.4,40.7c4.9,6.7,11.1,12.4,15.2,19.6c2.1,3.6,3.4,7.6,3.9,11.7
			c0.4,4.2-0.5,8.4-2.8,11.8c-1.6,2.3-3.6,4.1-6,5.5c-2.4,1.3-5,2.3-7.7,2.8C460.2,942,454.7,941.8,449.2,941.8L449.2,941.8
			L449.2,941.8z M362.7,299.3l-5.1-154c1-25.6,5.2-51.5,16.6-74.5c11.5-23.2,29.8-42.3,52.5-54.6C448.2,4.6,472.4-0.3,496.5,0
			c32.7,0.3,65.5,10.2,92.1,29.4c16.6,12,30.6,27.5,41.6,44.8c9.4,14.8,16.7,30.9,21.3,47.8c9.4,35,7.2,71.2,9,107.1
			c1.7,34,7.2,67.9,5.3,102.2c-0.4,7.4-1.2,14.9-4.5,21.6c-3.4,6.4-8.5,11.7-14.9,15.2c-6.3,3.5-13.3,5.7-20.4,6.7
			c-14.2,2.2-28.8,0.8-43.1,2.1c-20.8,1.9-40.7,9.7-61.3,12.9c-24.6,3.8-49.7,1.1-74.6,0.1l-29.6-1.7c-9.9-1.2-19.8-3.6-28.6-8.1
			c-5.4-2.9-10.4-6.7-14.4-11.3c-4-4.6-7.1-10.1-8.7-16.1c-2.4-8.9-1.3-18.3-1.1-27.6c0.2-8.5-0.4-16.9-1.6-25.3L362.7,299.3
			L362.7,299.3z"/>
		<path class="st2" d="M401.9,288.9c1,22.4-3.1,45.1-12,65.7c-4.8,11-10.9,21.5-17.4,31.6c-11.3,17.6-24.2,34.6-30.4,54.6
			c-3.8,12.1-5,25-3.5,37.6c-13.6,20-25.4,41.1-35.1,63.2c-14.8,33.5-24.9,69.1-28.5,105.6c-4.4,44.6,1.3,90.5,19,131.7
			c12.7,29.8,31.7,57.1,56.5,78.3c12.4,10.8,26.3,20,41.1,27.3c51.2,25.2,114.5,25.2,164.9-1.6c26.3-14,48.6-34.5,70-55.3
			c12.9-12.5,25.7-25.3,35.6-40.3c19-28.9,25.5-64.1,29.7-98.5c7.2-60.1,7.4-123.5-18.9-178c-9.1-18.8-21.1-36-35.6-51
			c-4-26.2-11.6-51.8-22.5-75.9l-25.2-51.5c-6.2-14.4-11.4-29.8-22.3-41c-11.3-11.7-27.7-17.5-43.9-19c-16.2-1.5-32.3,1-48.6,3.6
			l-72.3,13L401.9,288.9L401.9,288.9z"/>
		<path d="M394,348.8c5.7,16.6,17.3,30.8,30.9,41.9c4.5,3.7,9.4,7.1,14.7,9.5c5.3,2.4,11.2,3.8,17,3.3c5.7-0.5,11.1-2.7,16.1-5.5
			c5-2.8,9.6-6.2,14.5-9.3c8.3-5.3,17.2-9.5,25.8-14.2c10.4-5.7,20.4-12.1,29.2-20.1c4-3.7,7.7-7.6,12.2-10.8
			c4.4-3.1,9.7-5.4,15.1-5c4.1,0.3,7.9,2,11.8,2.9c2,0.4,4,0.6,6.1,0.3c2-0.3,4-1.2,5.4-2.6c1.7-1.8,2.5-4.4,2.4-6.9
			c-0.1-2.5-1-4.9-2.1-7.1c-2.3-4.4-5.8-8.2-7.4-12.9c-1.4-4.2-1.1-8.8-1-13.2c0.1-4.4,0-9.1-2-13c-1.6-3-4.2-5.4-7.1-7
			s-6.3-2.4-9.7-2.7c-6.7-0.6-13.5,0.7-20.2,1.1c-8.9,0.5-17.9-0.6-26.9-0.1c-11.1,0.7-22.1,3.9-33.3,3.9c-12.8,0-25.5-4.1-38.1-2.2
			c-5.4,0.9-10.6,2.8-15.7,4.6c-5.2,1.7-10.6,3.3-16,3.2c-6.2-0.1-12.2-2.2-18.4-2.7c-3.1-0.2-6.3,0-9.2,1.1c-2.9,1.1-5.5,3.1-7,5.9
			c-0.8,1.6-1.2,3.4-1.3,5.1c-0.1,1.8,0.2,3.6,0.6,5.3c0.9,3.5,2.4,6.7,3.7,10C388.7,323.5,389.7,336.7,394,348.8L394,348.8
			L394,348.8z"/>
		<path class="st3" d="M378,301.4c11.1,6.9,21.1,15.3,29.5,25c7.8,8.9,14.4,19.1,24.6,25.7c7.2,4.7,15.8,7.3,24.6,8.1
			c10.3,0.9,20.7-0.6,30.6-3.3c9.2-2.5,18.1-6,26.2-10.6c15.5-8.8,28.4-21.7,45.5-27.5c3.7-1.3,7.6-2.2,11.2-3.7
			c3.6-1.6,7-3.9,8.7-7.2c1.7-3.2,1.6-6.8,2.1-10.3c0.6-3.7,1.9-7.3,2.6-11c0.7-3.7,0.8-7.7-0.9-11.1c-1.4-2.8-4.1-5.1-7.1-6.5
			c-3-1.4-6.4-2.1-9.8-2.2c-6.8-0.3-13.4,1.3-20.2,1.9c-8.9,0.8-17.9-0.3-26.9-0.1c-11.1,0.3-22.1,2.6-33.3,3.1
			c-12.7,0.6-25.4-1.3-38.1-1.7c-5.5-0.2-11-0.1-16.4,0.8c-5.4,0.9-10.7,2.6-15.3,5.4c-4.4,2.7-8.1,6.4-12.1,9.6
			c-2,1.6-4.2,3.1-6.6,4.2s-5,1.9-7.6,2c-1.4,0.1-2.8,0-4.1,0.1C380.4,292.9,377.2,297,378,301.4C378,301.4,378,301.4,378,301.4
			L378,301.4L378,301.4z"/>
		
			<radialGradient id="SVGID_1_" cx="4398.5977" cy="26379.3672" r="391.7908" gradientTransform="matrix(0.1021 -4.298005e-03 3.709035e-03 0.1563 -132.0684 -3904.3022)" gradientUnits="userSpaceOnUse">
			<stop  offset="0" style="stop-color:#FEFEFC"/>
			<stop  offset="0.757" style="stop-color:#FEFEFC"/>
			<stop  offset="1" style="stop-color:#D4D4D4"/>
		</radialGradient>
		<path class="st4" d="M407,149.3c-6.1,0.5-11.8,3-16.1,7.2c-4.4,4.1-7.5,9.5-9.4,15.2c-3.8,11.4-2.7,23.7-2.1,35.8
			c0.8,10.9,1.6,21.9,5.4,32.3c2,5.1,4.9,9.7,8.7,13.7c3.8,4,8.6,6.8,13.9,8.2c5,1.2,10.2,1,15.1-0.5c4.8-1.5,9.3-4.3,13-7.9
			c5.3-5.2,8.9-12,11-19.2c1.9-7.2,2.8-14.6,2.5-22.1c-0.1-9.3-1.3-18.7-4.3-27.5c-3-8.8-7.5-17.2-14.1-23.9
			c-3.1-3.2-6.7-6.1-10.8-8.1c-4-2-8.6-3.1-13.1-2.9L407,149.3L407,149.3z"/>
		
			<radialGradient id="SVGID_00000006687253364007935240000011631533659973435572_" cx="3992.1016" cy="26368.082" r="391.7908" gradientTransform="matrix(0.136 -4.297823e-03 4.939953e-03 0.1563 -134.8834 -3904.302)" gradientUnits="userSpaceOnUse">
			<stop  offset="0" style="stop-color:#FEFEFC"/>
			<stop  offset="0.757" style="stop-color:#FEFEFC"/>
			<stop  offset="1" style="stop-color:#D4D4D4"/>
		</radialGradient>
		<path style="fill:url(#SVGID_00000006687253364007935240000011631533659973435572_);" d="M513.1,149.3
			c-9.8,5.9-17.4,15.3-21.1,26.1c-4.6,13.6-2.9,28.6,1.7,42.1c4.7,13.9,12.7,27.2,24.8,35.5c6,4.2,13,6.9,20.4,7.9
			c7.3,0.9,14.8-0.4,21.4-3.8c7.9-4.1,14-11.4,17.7-19.5c3.7-8.1,5.4-17.1,5.9-26c0.7-11.4-0.4-22.9-4.2-33.7
			c-4.1-11.6-11.6-22.3-21.9-29c-5.2-3.3-11-5.6-17.2-6.5c-6.1-0.9-12.4-0.3-18.2,1.8C519.1,145.4,516,147.1,513.1,149.3
			L513.1,149.3L513.1,149.3z"/>
		<path class="st3" d="M405,246.3l-17.3,15.8c-3,3.1-6.1,6.3-7.5,10.4c-1.2,3.6-1,7.6-1.6,11.4c-0.2,1.3-0.5,2.6-0.5,3.9
			c0,0.7,0.1,1.3,0.3,1.9c0.2,0.6,0.5,1.2,1,1.7c0.7,0.8,1.8,1.2,2.9,1.4c1.1,0.2,2.2,0.2,3.3,0.4c4.9,0.5,9.4,2.9,13.5,5.7l12,8.7
			c9.2,5.8,20.2,8.4,31.1,8.9c10.9,0.4,21.7-1.2,32.4-3.4c8.5-1.7,17-3.7,25-6.9c12.3-4.9,23.5-12.3,34.1-20.3
			c4.8-3.6,9.6-7.3,13.9-11.5c1.5-1.4,2.9-2.9,4.5-4.2c1.6-1.3,3.3-2.4,5.3-3.1c3-1,6.2-0.7,9.3-0.2c2.3,0.4,4.6,0.9,7,0.8
			c1.2,0,2.3-0.2,3.4-0.7s2.1-1.1,2.8-2c1-1.2,1.5-2.7,1.5-4.3c0-1.5-0.5-3.1-1.2-4.4c-1.6-2.7-4.3-4.5-7.1-5.7
			c-3.9-1.7-8-2.6-12.1-3.6c-12.6-3-24.9-7.5-36.5-13.3c-5.8-2.9-11.4-6-17.1-9.1c-5.8-3.1-11.8-6.1-18.2-8.1
			c-14.2-4.3-29.7-2.9-43.7,2C429.7,224.1,415.7,233.7,405,246.3L405,246.3L405,246.3z"/>
		
			<radialGradient id="SVGID_00000077319179151667628190000005775518556083590584_" cx="-15141.6006" cy="36521.6484" r="413.5689" gradientTransform="matrix(8.741290e-02 -6.352912e-02 5.766182e-02 7.933979e-02 -323.9095 -3625.0076)" gradientUnits="userSpaceOnUse">
			<stop  offset="0" style="stop-color:#020204"/>
			<stop  offset="0.734" style="stop-color:#020204"/>
			<stop  offset="1" style="stop-color:#5C5C5C"/>
		</radialGradient>
		<path style="fill:url(#SVGID_00000077319179151667628190000005775518556083590584_);" d="M435.2,228.5c5.9-6.7,10-14.8,15.7-21.8
			c2.9-3.4,6.2-6.6,10-8.8c3.9-2.3,8.4-3.4,12.9-3.1c5,0.4,9.6,2.9,13.3,6.3c3.6,3.4,6.3,7.7,8.5,12.2c2.1,4.3,3.7,8.9,6.7,12.6
			c3.2,4,7.6,6.7,11.6,9.8c2,1.5,3.9,3.3,5.5,5.2c1.6,2,2.8,4.3,3.3,6.8c0.5,2.5,0.3,5.2-0.6,7.6c-0.9,2.4-2.4,4.6-4.2,6.5
			c-3.8,3.6-8.8,5.5-13.9,6.2c-10.2,1.5-20.6-1.6-30.9-1.3c-10.3,0.3-20.7,4-31.1,3.6c-5.3,0-10.4-1.6-14.8-4.5
			c-2.2-1.5-4-3.4-5.4-5.6c-1.3-2.2-2.2-4.8-2.3-7.4c0-2.5,0.5-5,1.5-7.3c1-2.3,2.4-4.4,4-6.3C428,235.4,431.8,232.2,435.2,228.5
			L435.2,228.5L435.2,228.5z"/>
		<path class="st7" d="M551.8,43.2c-8.6,6.1-4.9,13.7-1.1,21.3c3.7,7.6-8.2,29.6-8.3,30.6c-0.1,0.9,23.4-11.2,29.8-19
			c7.6-9.3,26.7,12.6,25.6,9.2C597.8,79.4,560.5,37.1,551.8,43.2L551.8,43.2L551.8,43.2z"/>
		<path class="st1" d="M534.7,177.6c-3.5,0.3-7,1.5-9.9,3.4s-5.5,4.4-7.5,7.3c-4,5.8-5.8,13-6,20c-0.2,5.3,0.4,10.7,2.1,15.7
			c1.8,5,4.7,9.6,8.8,13c4.2,3.5,9.5,5.5,14.9,5.8s10.9-1.3,15.4-4.4c3.5-2.5,6.4-5.9,8.4-9.7c2-3.8,3.3-8,3.8-12.3
			c1-7.6-0.1-15.5-3.6-22.3s-9.4-12.4-16.6-15C541.4,178,538,177.4,534.7,177.6L534.7,177.6L534.7,177.6z"/>
		<path class="st8" d="M543.1,200.7c-2.9,1.2-7.5,0.4-8.8,3.3c-0.8,1.7,0.3,4.5,2,5.2c3.5,1.4,8.9-1.1,10.3-4.6
			c0.6-1.5-0.3-3.9-1.8-4.5C544.2,199.7,543.7,200.5,543.1,200.7L543.1,200.7z"/>
		
			<linearGradient id="SVGID_00000116205664314728733990000000681505697231370145_" gradientUnits="userSpaceOnUse" x1="5302.3037" y1="31773.1152" x2="5482.9014" y2="31986.998" gradientTransform="matrix(0.1253 0 0 0.1253 -126.5833 -3795.5977)">
			<stop  offset="0" style="stop-color:#949494;stop-opacity:0.392"/>
			<stop  offset="0.5" style="stop-color:#949494"/>
			<stop  offset="1" style="stop-color:#949494;stop-opacity:0.392"/>
		</linearGradient>
		<path style="fill:url(#SVGID_00000116205664314728733990000000681505697231370145_);" d="M556.5,208.3c3.9-3.9-2.8-14.3-8-18.5
			c-3.8-3.1-14.8-6.3-14.3-2.9c0.5,3.4,5.4,7.6,8.7,10.9C547,201.7,554.6,210.1,556.5,208.3z"/>
		<g>
			<defs>
				<path id="SVGID_00000068636422391511619900000013547211527169834641_" d="M513.1,149.3c-8.6,7.2-17.5,15.5-21,26.1
					c-4.4,13.3-5.5,30,1.7,42.1c13.2,22.2,41.7,46.6,66.5,39.6c16.4-4.7,20.6-28.6,23.6-45.5c2-11.1,2-24.2-4.2-33.7
					c-12.2-18.5-35.1-33.3-57.3-33.7C518.9,144.2,515.8,147.1,513.1,149.3L513.1,149.3z"/>
			</defs>
			<clipPath id="SVGID_00000025434890307205470470000012189204981459859615_">
				<use xlink:href="#SVGID_00000068636422391511619900000013547211527169834641_"  style="overflow:visible;"/>
			</clipPath>
			<g style="clip-path:url(#SVGID_00000025434890307205470470000012189204981459859615_);">
				
					<linearGradient id="SVGID_00000125595603465046023770000007965042539636423077_" gradientUnits="userSpaceOnUse" x1="4970.0928" y1="31373.4629" x2="5544.793" y2="31709.5449" gradientTransform="matrix(0.1253 0 0 0.1253 -100.2784 -3795.5977)">
					<stop  offset="0" style="stop-color:#747474"/>
					<stop  offset="0.125" style="stop-color:#8C8C8C"/>
					<stop  offset="0.25" style="stop-color:#A4A4A4"/>
					<stop  offset="0.5" style="stop-color:#D4D4D4"/>
					<stop  offset="0.619" style="stop-color:#D4D4D4"/>
					<stop  offset="1" style="stop-color:#7C7C7C"/>
				</linearGradient>
				<path style="fill:url(#SVGID_00000125595603465046023770000007965042539636423077_);" d="M477.8,183.4
					c8.1-6.7,17.4-11.7,27.4-14.8c20.5-6.3,43.8-3.8,61.9,7.7c6.3,4,11.8,8.9,17.6,13.5c5.8,4.6,12,8.9,19,11.3
					c3.8,1.3,7.8,2.1,11.8,1.7c3.6-0.4,7.1-1.7,10-3.8c3-2,5.5-4.8,7.3-7.9c3.7-6.2,5-13.7,4.3-20.9c-1.3-14.4-9.4-27.1-16.2-39.9
					c-2.1-4-4.2-8.1-6.7-11.8c-7.9-11.4-20.5-19-33.6-23.4c-13.2-4.4-27.1-6-40.9-7.8c-6.1-0.8-12.4-1.6-18.5-0.8
					c-7.1,0.9-13.7,3.7-20.6,5.5c-3.3,0.8-6.6,1.4-9.9,2.4c-3.2,0.9-6.4,2.3-9.1,4.4c-3.9,3.1-6.3,7.7-7.3,12.5s-0.8,9.8,0,14.7
					c1.5,9.8,5.2,19.3,4.8,29.1c-0.2,6.8-2.4,13.4-2.1,20.2c0.1,2,0.4,4,0.8,5.9"/>
			</g>
		</g>
		
			<linearGradient id="SVGID_00000000197772403129497440000007943979445144124549_" gradientUnits="userSpaceOnUse" x1="5071.7163" y1="31255.293" x2="5454.3394" y2="31616.5117" gradientTransform="matrix(0.1253 0 0 0.1253 -90.3828 -3794.4702)">
			<stop  offset="0" style="stop-color:#646464;stop-opacity:0"/>
			<stop  offset="0.306" style="stop-color:#646464;stop-opacity:0.583"/>
			<stop  offset="0.47" style="stop-color:#646464"/>
			<stop  offset="0.728" style="stop-color:#646464;stop-opacity:0.257"/>
			<stop  offset="1" style="stop-color:#646464;stop-opacity:0"/>
		</linearGradient>
		<path style="fill:url(#SVGID_00000000197772403129497440000007943979445144124549_);" d="M545.7,121.6c-1.6,2-3.1,4.2-4.2,6.6
			c7.2,1.6,14.1,4.5,20.3,8.6c11.9,7.9,21,19.5,27.4,32.4c1.5-1.6,2.8-3.4,4-5.4c-6.4-13.4-15.6-25.6-28-33.8
			C559.2,126.2,552.6,123.2,545.7,121.6L545.7,121.6L545.7,121.6z"/>
		
			<linearGradient id="SVGID_00000167376223851752053790000002519936818624809094_" gradientUnits="userSpaceOnUse" x1="3972.9072" y1="31273.7793" x2="4333.187" y2="31620.748" gradientTransform="matrix(0.1253 0 0 0.1253 -90.3828 -3794.4702)">
			<stop  offset="0" style="stop-color:#646464;stop-opacity:0"/>
			<stop  offset="0.306" style="stop-color:#646464;stop-opacity:0.583"/>
			<stop  offset="0.47" style="stop-color:#646464"/>
			<stop  offset="0.728" style="stop-color:#646464;stop-opacity:0.257"/>
			<stop  offset="1" style="stop-color:#646464;stop-opacity:0"/>
		</linearGradient>
		<path style="fill:url(#SVGID_00000167376223851752053790000002519936818624809094_);" d="M406.3,128.2c-0.8,0-1.6,0.1-2.4,0.1
			l-1.6,0.1c4.8,0.4,9.5,1.7,13.8,3.6c5.9,2.6,11,6.4,15.6,10.6c8.4,7.9,14.7,17.6,18.9,28c-1-7.8-3.4-15.4-6.9-22.4
			c-1.7-1.9-3.4-3.8-5.3-5.6c-4.5-4.3-9.7-8-15.6-10.6C417.7,129.7,412,128.3,406.3,128.2L406.3,128.2L406.3,128.2z"/>
		<path class="st1" d="M392.5,199c-1.3,7.5-1.3,15.5,1.3,22.7c1.8,4.8,4.5,9.1,8,12.8c2.3,2.7,4.8,4.7,8.1,6.1c3,1.5,6.4,2,9.7,1.2
			c3-0.8,5.6-2.6,7.5-5.1c1.9-2.4,3.2-5.2,4.1-8.1c2.7-8.6,2.3-18.1-0.4-26.7c-1.9-6.3-5.2-12.4-10.2-16.6c-2.4-2-5.2-3.6-8.3-4.3
			s-6.4-0.5-9.2,0.8c-3.2,1.6-5.7,4.1-7.2,7.3c-1.6,3.1-2.4,6.5-3,9.9L392.5,199L392.5,199z"/>
		
			<linearGradient id="SVGID_00000068652717570960050510000007602761091846808466_" gradientUnits="userSpaceOnUse" x1="4158.7783" y1="31751.7402" x2="4315.6079" y2="32032.166" gradientTransform="matrix(0.1253 0 0 0.1253 -114.0572 -3795.5977)">
			<stop  offset="0" style="stop-color:#757574;stop-opacity:0"/>
			<stop  offset="0.263" style="stop-color:#757574"/>
			<stop  offset="0.5" style="stop-color:#757574"/>
			<stop  offset="1" style="stop-color:#757574;stop-opacity:0"/>
		</linearGradient>
		<path style="fill:url(#SVGID_00000068652717570960050510000007602761091846808466_);" d="M408.5,193.5c0.8,2.1,3.5,2.9,5.1,4.6
			c1.5,1.7,3,3.4,3.8,5.5c1.5,4-1.5,9.8,1.7,12.6c1,0.9,3,0.9,4,0c3.9-3.5,3-10.6,1.5-15.6c-1.4-4.5-4.8-8.8-9-11
			c-2-1-4.9-1.8-6.6-0.4C407.9,190.2,408,192.2,408.5,193.5L408.5,193.5z"/>
		
			<radialGradient id="SVGID_00000041994588044729574850000000463753713474468261_" cx="-6288.1748" cy="43838.3906" r="836.4675" gradientTransform="matrix(0.1173 -4.839994e-02 3.398602e-02 8.234195e-02 -246.6355 -3638.8152)" gradientUnits="userSpaceOnUse">
			<stop  offset="0" style="stop-color:#D2940A"/>
			<stop  offset="0.751" style="stop-color:#D89C08"/>
			<stop  offset="0.866" style="stop-color:#B67E07"/>
			<stop  offset="1" style="stop-color:#946106"/>
		</radialGradient>
		<path style="fill:url(#SVGID_00000041994588044729574850000000463753713474468261_);" d="M378.4,293c0.2,1,0.6,2,1.1,2.8
			c0.9,1.5,2.2,2.7,3.6,3.7c1.4,1,2.9,1.9,4.4,2.8c7.9,4.9,14.3,11.9,20,19.2c7.6,9.8,14.4,20.8,24.6,27.9
			c7.2,5.1,15.8,7.9,24.6,8.8c10.3,1,20.7-0.6,30.6-3.5c9.2-2.7,18.1-6.5,26.2-11.5c15.5-9.6,28.4-23.6,45.5-29.8
			c3.7-1.4,7.6-2.4,11.2-4c3.6-1.7,7-4.2,8.7-7.8c1.7-3.4,1.6-7.4,2.1-11.2c0.6-4,1.9-8,2.6-12c0.7-4,0.8-8.3-0.9-12
			c-1.4-3.1-4.1-5.5-7.1-7s-6.4-2.2-9.8-2.4c-6.8-0.3-13.4,1.4-20.2,2c-8.9,0.8-17.9-0.3-26.9-0.1c-11.1,0.3-22.1,2.8-33.3,3.4
			c-12.7,0.6-25.4-1.3-38.1-1.9c-5.5-0.2-11-0.2-16.5,0.8c-5.4,0.9-10.8,2.8-15.3,5.9c-4.4,3.1-7.9,7.2-12,10.7
			c-2,1.8-4.2,3.4-6.6,4.5c-2.4,1.2-5.1,1.9-7.8,1.8c-1.3,0-2.8-0.3-4.1,0.2c-0.8,0.3-1.5,0.8-2.2,1.4s-1.1,1.3-1.6,2
			C380.2,289.4,379.2,291.2,378.4,293L378.4,293L378.4,293z"/>
		<path class="st16" d="M428.3,306.7c-2.6,11.3,3.7,22.7,14.6,26.4c6.7,2.2,14.2,1.1,20.4-2.1c3.6-1.9,6.9-4.5,9-8
			c1.1-1.7,1.7-3.7,2-5.7c0.3-2,0.1-4.1-0.6-6c-0.8-2.1-2.2-3.9-3.9-5.4c-1.7-1.4-3.7-2.5-5.8-3.2c-4.2-1.4-8.8-1.4-13.2-1.2
			c-6.8,0.3-13.5,1.2-20.1,2.5"/>
		<path class="st17" d="M406.4,264.9l-13.1,8.6c-2.2,1.6-4.5,3.3-5.7,5.7c-0.8,1.7-1,3.7-1,5.6c0,1.9,0.1,3.9-0.2,5.7
			c-0.2,1.3-0.5,2.6-0.6,3.9c0,0.7,0,1.3,0.2,2c0.2,0.6,0.5,1.2,0.9,1.7c0.6,0.6,1.4,1,2.2,1.2c0.8,0.2,1.7,0.4,2.5,0.6
			c4,0.9,7.4,3.4,10.4,6.1l8.9,8.3c8.5,7,19.9,9.8,30.8,10c11,0.2,21.9-2.1,32.7-4.5l25-6.9c12.5-4.6,24-11.6,34.1-20.3
			c4.5-4,8.8-8.3,13.9-11.5c4.5-2.8,9.6-4.7,14.2-7.4c0.4-0.2,0.8-0.5,1.2-0.8c0.4-0.3,0.7-0.7,0.9-1.1c0.4-0.7,0.4-1.6,0.1-2.4
			s-0.7-1.5-1.2-2.1c-0.6-0.7-1.2-1.4-1.9-1.9c-4.8-4.1-11.3-5.6-17.6-6.1c-6.3-0.5-12.7-0.1-18.9-1.2c-5.9-1-11.4-3.2-17.1-5
			c-5.9-1.9-12-3.4-18.1-4.4c-14.5-2.4-29.4-1.9-43.7,1.1C431.7,252.6,418.5,257.8,406.4,264.9L406.4,264.9L406.4,264.9z"/>
		
			<linearGradient id="SVGID_00000117641407256956081920000005800488759825076382_" gradientUnits="userSpaceOnUse" x1="3851.3477" y1="32451.9043" x2="5369.9004" y2="32440.0215" gradientTransform="matrix(0.1253 0 0 0.1253 -100.2784 -3795.5977)">
			<stop  offset="0" style="stop-color:#AD780A"/>
			<stop  offset="0.12" style="stop-color:#D89E08"/>
			<stop  offset="0.255" style="stop-color:#EDB80B"/>
			<stop  offset="0.392" style="stop-color:#EBC80D"/>
			<stop  offset="0.527" style="stop-color:#F5D838"/>
			<stop  offset="0.769" style="stop-color:#F6D811"/>
			<stop  offset="1" style="stop-color:#F5CD31"/>
		</linearGradient>
		<path style="fill:url(#SVGID_00000117641407256956081920000005800488759825076382_);" d="M405,249.7c-6.5,4.4-12.3,9.7-17.3,15.8
			c-2.8,3.5-5.4,7.2-6.8,11.5c-1.1,3.3-1.5,6.9-2.2,10.3c-0.3,1.3-0.6,2.6-0.6,3.9c0,0.7,0.1,1.3,0.3,2c0.2,0.6,0.5,1.2,1,1.7
			c0.8,0.8,1.8,1.2,2.9,1.4c1.1,0.2,2.2,0.3,3.3,0.4c4.9,0.6,9.4,2.9,13.5,5.7l12,8.7c9.2,5.8,20.2,8.4,31.1,8.8s21.7-1.2,32.4-3.4
			c8.5-1.7,17-3.7,25-6.9c12.3-4.9,23.5-12.3,34.1-20.3c4.8-3.6,9.6-7.3,13.9-11.5c1.5-1.4,2.9-2.9,4.5-4.2s3.3-2.4,5.3-3.1
			c3-1,6.2-0.7,9.3-0.2c2.3,0.4,4.6,0.9,7,0.8c1.2,0,2.3-0.2,3.4-0.7c1.1-0.4,2.1-1.1,2.8-2c1-1.2,1.5-2.7,1.5-4.3
			c0-1.5-0.5-3.1-1.2-4.4c-1.6-2.7-4.3-4.5-7.1-5.7c-3.9-1.7-8-2.6-12.1-3.6c-12.6-3-24.9-7.5-36.5-13.3c-5.8-2.9-11.4-6-17.1-9.1
			c-5.8-3.1-11.8-6.1-18.2-8.1c-14.2-4.3-29.7-2.9-43.7,2C429.7,227.5,415.7,237.1,405,249.7L405,249.7L405,249.7z"/>
		<path class="st19" d="M504.7,252.8c-0.8-1-1.9-1.6-3-2s-2.4-0.3-3.7-0.2c-2.4,0.4-4.6,1.7-6.6,3.1c-5.8,4-10.8,8.9-15.3,14.2
			c-5.9,7.1-10.7,15.4-12.4,24.5c-0.3,1.5-0.5,3.1-0.3,4.6c0.2,1.5,0.8,3.1,1.9,4.2c1,1,2.3,1.6,3.6,1.8c1.4,0.2,2.7,0,4-0.4
			c2.6-0.9,4.7-2.7,6.8-4.5c11.2-10.1,21.4-22.1,25.5-36.6c0.4-1.5,0.8-3,0.7-4.5C506,255.5,505.6,254,504.7,252.8L504.7,252.8
			L504.7,252.8z"/>
		
			<radialGradient id="SVGID_00000086686717669969654700000016338154938202756285_" cx="4679.9165" cy="52622.4453" r="86.8436" gradientTransform="matrix(0.1253 0 0 7.307000e-02 -100.2784 -3611.8013)" gradientUnits="userSpaceOnUse">
			<stop  offset="0" style="stop-color:#3A2903"/>
			<stop  offset="0.555" style="stop-color:#735208"/>
			<stop  offset="1" style="stop-color:#AC8C04"/>
		</radialGradient>
		<path style="opacity:0.8;fill:url(#SVGID_00000086686717669969654700000016338154938202756285_);enable-background:new    ;" d="
			M477.8,232c0.8,2.5,4.8,2.1,7.1,3.3c2,1.1,3.7,3.4,6,3.4c2.2,0.1,5.6-0.8,5.9-2.9c0.4-2.9-3.8-4.7-6.5-5.8
			c-3.5-1.4-7.9-2-11.2-0.2C478.3,230.2,477.5,231.1,477.8,232L477.8,232L477.8,232z"/>
		
			<radialGradient id="SVGID_00000076569524455727934960000010911199938732194948_" cx="4288.7998" cy="30165.7383" r="41.2709" gradientTransform="matrix(0.1253 0 0 0.1347 -100.2784 -3828.7366)" gradientUnits="userSpaceOnUse">
			<stop  offset="0" style="stop-color:#3A2903"/>
			<stop  offset="0.555" style="stop-color:#735208"/>
			<stop  offset="1" style="stop-color:#AC8C04"/>
		</radialGradient>
		<path style="opacity:0.8;fill:url(#SVGID_00000076569524455727934960000010911199938732194948_);enable-background:new    ;" d="
			M439.3,230.5c-3-1-7.9,4.3-6.3,7c0.4,0.7,1.8,1.7,2.7,1.2c1.4-0.8,2.5-3.5,4-4.5C440.7,233.5,440.5,230.9,439.3,230.5L439.3,230.5
			L439.3,230.5z"/>
		
			<linearGradient id="SVGID_00000019674039128229446990000014432412183056146617_" gradientUnits="userSpaceOnUse" x1="7993.5317" y1="22550.1504" x2="8005.3076" y2="22624.0859" gradientTransform="matrix(0.1372 0 -2.131698e-02 0.1902 -43.8342 -4024.8687)">
			<stop  offset="0" style="stop-color:#F5CE2D"/>
			<stop  offset="1" style="stop-color:#D79B08"/>
		</linearGradient>
		<path style="fill:url(#SVGID_00000019674039128229446990000014432412183056146617_);" d="M563.5,267.2c1.9-6.4,7.6-10.3,12.6-8.8
			c5,1.5,7.5,7.9,5.5,14.3c-1.9,6.4-7.6,10.3-12.6,8.8S561.5,273.6,563.5,267.2z"/>
		<g>
			<defs>
				<path id="SVGID_00000147901842110291685400000016837942185417594531_" d="M407,149.3c-12.8,16.1-28.7,39.4-27.6,58.1
					c1.1,18.7,13,46.9,28.2,53.9c15.2,7,19.4,0,28.1-8.4c8.7-8.5,13-24.7,13.5-41.3c0.5-16.5-10.2-40.1-18.3-51.4
					C422.7,149.1,419.8,133.2,407,149.3L407,149.3L407,149.3z"/>
			</defs>
			<clipPath id="SVGID_00000065076716630392346230000015525921278498130622_">
				<use xlink:href="#SVGID_00000147901842110291685400000016837942185417594531_"  style="overflow:visible;"/>
			</clipPath>
			<g style="clip-path:url(#SVGID_00000065076716630392346230000015525921278498130622_);">
				
					<radialGradient id="SVGID_00000073683220241158874040000001639448455024050074_" cx="-2261.3813" cy="154314.625" r="954.7684" gradientTransform="matrix(2.523033e-02 -4.153973e-03 3.838811e-03 2.331610e-02 -126.8566 -3437.8943)" gradientUnits="userSpaceOnUse">
					<stop  offset="0" style="stop-color:#C8C8C8"/>
					<stop  offset="1" style="stop-color:#797978"/>
				</radialGradient>
				<path style="fill:url(#SVGID_00000073683220241158874040000001639448455024050074_);" d="M394.1,173.5c9-5.4,20.1-6.6,30.5-5.6
					c10.5,1,20.6,4.1,30.8,6.8c7.4,2,15,3.9,22,7.2c7,3.3,13.5,8.1,17.3,14.8l1.8,3.2c0.7,1.1,1.4,2.1,2.4,2.8s2.2,1.2,3.4,1.2
					c0.6,0,1.2-0.2,1.8-0.5c0.5-0.3,1-0.8,1.3-1.3c0.3-0.6,0.4-1.4,0.4-2.1c-0.1-0.7-0.2-1.4-0.4-2.1c-2.5-9.3-8.5-17.1-13.1-25.6
					l-7.7-15.5c-9.5-17.4-25.1-31-42.8-39.9s-37.5-13.1-57.2-14.3c-22.9-1.3-45.9,1.4-68.5,5.4c-9.8,1.7-19.7,3.8-28.4,8.6
					c-4.3,2.4-8.3,5.6-11.4,9.5s-5.3,8.5-6,13.5c-0.7,4.7,0,9.6,1.7,14.1c1.7,4.5,4.2,8.6,7.3,12.3c6.1,7.4,13.8,13.2,21,19.6
					s13.8,13.4,21.8,18.7c4,2.6,8.3,4.8,12.9,6.1c4.6,1.3,9.5,1.7,14.2,0.7c4.9-1,9.4-3.4,13.3-6.4c3.9-3,7.4-6.7,10.6-10.4
					C379.5,186.8,385.5,178.5,394.1,173.5L394.1,173.5L394.1,173.5z"/>
			</g>
		</g>
		<path class="st1" d="M713,496.5c20.5,16.5,33.5,41.4,37.5,67.4c3.1,20.3,1.1,41.1-3.5,61c-4.6,19.9-11.6,39.3-18.6,58.6
			c-2.8,7.7-5.6,15.5-6.7,23.6c-1.1,8.1-0.4,16.7,3.5,23.9c4.5,8.2,12.9,13.9,21.8,16.6c9,2.6,18.4,2.7,27.5,0.3
			c9-2.2,17.4-6.6,24.7-12.3c18.6-14.4,29.8-36.8,34.1-60c4.4-23.1,2.3-47-1.7-70.2c-5.5-31.6-14.8-62.5-26.5-92.3
			c-8.7-21.9-18.8-43.5-33-62.4c-13.9-18.4-31.3-34-44.9-52.6c-9.4-13-17-27.4-28.3-38.8c-5.6-5.8-12.3-10.4-19.7-13.4
			c-7.5-3-15.8-3.6-23.6-1.6c-10.2,2.9-18.5,10.9-22.9,20.5c-4.4,9.6-5.2,20.6-3.5,31.1c2.2,13.4,8.3,25.9,15.3,37.7
			c7.8,13.3,16.9,26,28.8,35.9c12.4,10.3,27.3,17.1,39.8,26.9L713,496.5L713,496.5z"/>
		<g>
			<defs>
				<path id="SVGID_00000065762262917807079060000010857072892194712251_" d="M713,496.5c20.6,16.6,33.5,41.5,37.5,67.4
					c6.3,40.5-8,81.1-22.1,119.7c-2.8,7.7-5.6,15.5-6.7,23.6c-1.1,8.1-0.4,16.7,3.5,23.9c4.5,8.2,12.8,13.9,21.8,16.6
					c8.9,2.6,18.5,2.6,27.5,0.3c9-2.2,17.3-6.6,24.6-12.3c18.8-14.5,30-37,34.3-60.1c4.3-23.1,2.2-46.9-1.9-70
					c-5.6-31.6-14.8-62.4-26.5-92.3c-8.6-21.9-18.7-43.5-33-62.4c-13.9-18.4-31.4-34-44.9-52.7c-9.4-12.9-16.8-27.4-28.1-38.8
					c-5.6-5.7-12.3-10.6-19.8-13.5c-7.5-2.9-16-3.8-23.8-1.6c-5.2,1.4-9.9,4.2-13.8,7.7s-7,8-9.2,12.8c-4.4,9.6-5.1,20.6-3.3,31
					c2.3,13.4,8.4,25.9,15.3,37.7c7.8,13.2,16.9,26,28.7,35.9C685.5,479.6,700.5,486.5,713,496.5"/>
			</defs>
			<clipPath id="SVGID_00000048478122834993337670000013648914412634263225_">
				<use xlink:href="#SVGID_00000065762262917807079060000010857072892194712251_"  style="overflow:visible;"/>
			</clipPath>
			<g style="clip-path:url(#SVGID_00000048478122834993337670000013648914412634263225_);">
				<path class="st26" d="M664.8,464.7l5.1,4.6c12.6,10.3,19.3,21.8,32,31.9c20.9,16.5,42,44.9,46.1,70.9c3.2,20.3-1,31.3-6.2,55.2
					c-5.2,23.9-19.8,57.8-27.7,80.8c-3.2,9.2,6.4,5.4,5.1,15.1c-0.6,4.8-0.7,9.6-0.1,14.3l0.2-2.8c1.5-13.2,5.6-25.9,10-38.4
					c8.5-24,18.2-47.5,24.9-72.1s6-42.3,2.5-63.5c-4.4-26.6-19.9-51.1-41.8-67.4C699.6,482.1,681.3,474.8,664.8,464.7L664.8,464.7
					L664.8,464.7z"/>
			</g>
		</g>
		
			<radialGradient id="SVGID_00000160874953098987827320000009085089064092933022_" cx="-4049.0088" cy="47372.9062" r="736.4495" gradientTransform="matrix(-0.101 0 0 0.101 -92.8424 -3694.6628)" gradientUnits="userSpaceOnUse">
			<stop  offset="0" style="stop-color:#000000"/>
			<stop  offset="1" style="stop-color:#000000;stop-opacity:0.25"/>
		</radialGradient>
		<path style="opacity:0.25;fill:url(#SVGID_00000160874953098987827320000009085089064092933022_);enable-background:new    ;" d="
			M345.3,449.8c3.4,5.1-2.1,22.8,77.6,11.5c0,0-14,1.5-27.8,4.7c-21.5,7.2-40.2,15.2-54.6,25.8c-14.3,10.5-24.8,24.2-37.9,36
			c0,0,21.2-38.8,26.5-50.5c5.3-11.7-0.9-11.1,3.3-28.3s14.4-33.7,14.4-33.7S338.6,439.7,345.3,449.8L345.3,449.8L345.3,449.8z"/>
		
			<radialGradient id="SVGID_00000065770214192776351060000004104765925552595113_" cx="5547.9121" cy="43959.75" r="736.4495" gradientTransform="matrix(0.1253 0 0 9.562000e-02 -126.5832 -3689.293)" gradientUnits="userSpaceOnUse">
			<stop  offset="0" style="stop-color:#000000"/>
			<stop  offset="1" style="stop-color:#000000;stop-opacity:0.25"/>
		</radialGradient>
		<path style="opacity:0.42;fill:url(#SVGID_00000065770214192776351060000004104765925552595113_);enable-background:new    ;" d="
			M601.7,445.2c-16.2,11.3-25.8,10-45.5,12.2c-19.7,2.2-73.1,1.4-73.1,1.4s7.7-0.1,24.8,3c17.1,3.2,52,6.2,71.7,13.7
			c19.7,7.5,26.8,9.6,38.8,17.2c17,10.8,29.5,27.6,45.8,39.4c0,0,0.8-15.6-5.8-27.3c-6.6-11.7-24.2-30.1-29.4-47.3
			c-5.2-17.2-7.7-51-7.7-51S618,433.9,601.7,445.2L601.7,445.2L601.7,445.2z"/>
		
			<radialGradient id="SVGID_00000083809803579238441710000012587549374244054715_" cx="4564.1064" cy="32287.9316" r="291.5846" gradientTransform="matrix(0.1253 0 0 0.1339 -126.5832 -3826.7185)" gradientUnits="userSpaceOnUse">
			<stop  offset="0" style="stop-color:#000000"/>
			<stop  offset="1" style="stop-color:#000000;stop-opacity:0.25"/>
		</radialGradient>
		<path style="opacity:0.2;fill:url(#SVGID_00000083809803579238441710000012587549374244054715_);enable-background:new    ;" d="
			M448.9,421l-2.3,14.6c-0.5,2.4-1,4.8-1.9,7c-0.9,2.3-2.2,4.4-4,6c-1.6,1.4-3.5,2.4-5.5,3.3c-7.6,3.5-15.7,5.8-23.9,6.8l9.9,0.9
			c2.1,0.2,4.1,0.5,6.2,1c2,0.5,4,1.3,5.7,2.5c1.8,1.3,3.3,3.2,4.4,5.2c2.2,4,2.9,8.6,3.3,13.1c0.5,5.8,0.5,11.7,0.1,17.5
			c0.4-3.9,1.2-7.7,2.4-11.4c2.2-6.7,5.7-13,10.5-18.1c1.9-2.1,4-3.9,6.3-5.6c7.1-5,15.8-7.1,24.4-5.9c-8.7,0.4-17.3-2.3-24.2-7.5
			c-3.5-2.6-6.6-5.9-8.7-9.8C448.1,434.7,447.2,427.7,448.9,421L448.9,421L448.9,421z"/>
		<path class="st30" d="M428.1,535.7c-4.1,15.8-7,31.8-8.5,48.1c-2.1,22.9-1.6,46-2.9,69.1c-1,19.5-3.3,39.3,0.1,58.5
			c1.6,9.2,4.5,18.1,8.6,26.5c0.6-3.2,1.1-6.4,1.4-9.7c1.4-15.6-1.2-31.3-2.1-46.9c-1.6-27.4,2.2-54.9,3.8-82.3
			C429.7,577.9,429.6,556.7,428.1,535.7L428.1,535.7L428.1,535.7z"/>
		<path class="st26" d="M617.3,299.2c-7.3,6.6,3.4,16.6,8.5,28.3c3.2,7.3,11.9,17.5,20.3,15.9c6.3-1.2,10.3-10.4,9.7-16.8
			c-1.2-12.4-11.6-15.3-19.3-19.6C630.5,303.6,622.4,294.5,617.3,299.2L617.3,299.2L617.3,299.2z"/>
		
			<linearGradient id="SVGID_00000032612591895421010380000010804714982134794632_" gradientUnits="userSpaceOnUse" x1="6389.3433" y1="35318.5117" x2="6488.7153" y2="36060.2031" gradientTransform="matrix(0.1286 0 0 0.1253 -87.5966 -3795.5977)">
			<stop  offset="0" style="stop-color:#000000"/>
			<stop  offset="1" style="stop-color:#000000;stop-opacity:0"/>
		</linearGradient>
		<path style="opacity:0.2;fill:url(#SVGID_00000032612591895421010380000010804714982134794632_);enable-background:new    ;" d="
			M920,851.2c3.1,5.4-5.4,11.4-9.7,16c-9.5,10-22.3,16.5-34.2,23.6c-20.5,12.2-43.6,19.9-63.7,32.7c-13.4,8.6-25.3,19.3-37.6,29.4
			c-10.5,8.7-19,19.8-30.5,27c-11.6,7.2-24.4,14-38,15.7c-16.5,2-34.1-0.9-49.5-7.3c-10.7-4.5-21.3-11.4-27.5-21
			c-6.3-9.6-7.1-22-7.7-33.4c-1.1-20.4,4.7-40.6,7.5-60.9c2.4-16.8,6.4-33.5,7.8-50.4c2.6-30.8-2.7-62,1.1-92.7
			c1.2-9.9-0.6-22.4,7-29.1c7-6.2,18.8-3.8,28.3-3.6c11.6,0.2,22.9,3.2,34.2,5.8c7.1,1.6,13.8,4.7,21,6.1
			c11.9,2.2,24.1,3.6,36.2,3.2c13.1-0.4,25.7-6,38.8-5.9c5.4,0,10.8,0.9,15.9,2.7c5.1,1.8,10.3,4.1,14.3,7.7c3,2.8,4.9,6.6,6.5,10.3
			c2.3,5.6,3.1,11.7,4,17.7c0.8,5.3-0.5,11,1.4,16c6.3,16.2,19.3,29.4,31.9,41.6c6,6.5,13.9,11.9,21.3,16.3
			c7.9,4.6,15.1,8.3,18.9,16.2C920,839.9,915.8,847.6,920,851.2L920,851.2L920,851.2z"/>
		<g>
			<defs>
				<path id="SVGID_00000123402155420353078760000010410390345320969912_" d="M918.1,854.9c3.1,5.4-5.3,11.4-9.5,16
					c-9.2,10-21.7,16.5-33.3,23.6c-19.9,12.2-42.5,19.9-62,32.7c-13.1,8.6-24.7,19.3-36.6,29.4c-10.2,8.7-18.5,19.8-29.7,27
					c-11.3,7.2-23.7,14-37,15.7c-16.1,2-33.2-0.9-48.2-7.3c-10.4-4.5-20.7-11.4-26.8-21c-6.1-9.6-6.9-22-7.5-33.4
					c-1-20.4,4.6-40.6,7.3-60.9c2.3-16.8,6.2-33.5,7.6-50.4c2.5-30.8-2.6-62,1.1-92.7c1.2-9.9-0.6-22.4,6.8-29.1
					c6.9-6.2,18.3-3.8,27.5-3.6c11.3,0.2,22.3,3.2,33.3,5.8c6.9,1.6,13.5,4.7,20.4,6.1c11.6,2.2,23.5,3.6,35.3,3.2
					c12.7-0.4,25-6,37.8-5.9c5.2,0,10.5,0.9,15.4,2.7c5,1.8,10.1,4.1,13.9,7.7c2.9,2.8,4.8,6.6,6.3,10.3c2.3,5.6,3,11.7,3.9,17.7
					c0.8,5.3-0.5,11,1.4,16c6.2,16.2,18.8,29.4,31.1,41.6c5.9,6.5,13.6,11.9,20.8,16.3c7.6,4.6,14.7,8.3,18.4,16.2
					C918.1,843.7,914,851.3,918.1,854.9L918.1,854.9L918.1,854.9z"/>
			</defs>
			<clipPath id="SVGID_00000003785844946819582960000013067986052915996047_">
				<use xlink:href="#SVGID_00000123402155420353078760000010410390345320969912_"  style="overflow:visible;"/>
			</clipPath>
			<g style="clip-path:url(#SVGID_00000003785844946819582960000013067986052915996047_);">
				
					<linearGradient id="SVGID_00000031897887767292238260000012194254591142304387_" gradientUnits="userSpaceOnUse" x1="6373.8696" y1="38144.8164" x2="7666.6558" y2="36048.7734" gradientTransform="matrix(0.1253 0 0 0.1253 -139.1093 -3795.5977)">
					<stop  offset="0" style="stop-color:#3E2A06"/>
					<stop  offset="1" style="stop-color:#AD780A"/>
				</linearGradient>
				<path style="fill:url(#SVGID_00000031897887767292238260000012194254591142304387_);" d="M918.1,854.9c-2.3,5.8-5.5,11.2-9.5,16
					c-8.8,10.5-21.1,17.4-33.3,23.6c-20.8,10.6-42.4,19.9-62,32.7c-13.1,8.6-25.2,18.6-36.6,29.4c-9.7,9.3-18.9,19.2-29.7,27
					c-11,7.9-23.6,13.7-37,15.7c-16.3,2.4-33.1-0.7-48.2-7.3c-10.6-4.6-20.7-11.2-26.8-21c-6.1-9.8-7.5-21.9-7.5-33.4
					c0-20.5,3.8-40.8,7.3-60.9c3-16.7,5.8-33.5,7.6-50.4c3.3-30.7,3.3-61.8,1.1-92.7c-0.3-5.2-0.8-10.4,0-15.5
					c0.8-5.1,2.9-10.2,6.8-13.6c3.6-3.1,8.5-4.5,13.3-4.8c4.8-0.3,9.5,0.5,14.3,1.2c11.2,1.6,22.4,2.9,33.3,5.8
					c6.9,1.8,13.6,4.2,20.4,6.1c11.5,3.1,23.5,4.6,35.3,3.2c12.7-1.5,25-6.3,37.8-5.9c5.2,0.1,10.4,1.1,15.4,2.7
					c5.1,1.6,10.1,3.9,13.9,7.7c2.8,2.9,4.8,6.6,6.3,10.3c2.2,5.6,3.4,11.6,3.9,17.7c0.5,5.3,0.4,10.8,1.4,16
					c1.7,8.7,6.2,16.6,11.9,23.4s12.5,12.5,19.2,18.2c6.7,5.7,13.5,11.3,20.8,16.3c3.4,2.3,6.9,4.5,10.2,7.1
					c3.2,2.6,6.2,5.5,8.2,9.1C918.6,843.6,919.4,849.5,918.1,854.9L918.1,854.9L918.1,854.9z"/>
			</g>
		</g>
		<g>
			<defs>
				<path id="SVGID_00000099647226652583070210000012595119866962197152_" d="M918.1,854.9c3.1,5.4-5.3,11.4-9.5,16
					c-9.2,10-21.7,16.5-33.3,23.6c-19.9,12.2-42.5,19.9-62,32.7c-13.1,8.6-24.7,19.3-36.6,29.4c-10.2,8.7-18.5,19.8-29.7,27
					c-11.3,7.2-23.7,14-37,15.7c-16.1,2-33.2-0.9-48.2-7.3c-10.4-4.5-20.7-11.4-26.8-21c-6.1-9.6-6.9-22-7.5-33.4
					c-1-20.4,4.6-40.6,7.3-60.9c2.3-16.8,6.2-33.5,7.6-50.4c2.5-30.8-2.6-62,1.1-92.7c1.2-9.9-0.6-22.4,6.8-29.1
					c6.9-6.2,18.3-3.8,27.5-3.6c11.3,0.2,22.3,3.2,33.3,5.8c6.9,1.6,13.5,4.7,20.4,6.1c11.6,2.2,23.5,3.6,35.3,3.2
					c12.7-0.4,25-6,37.8-5.9c5.2,0,10.5,0.9,15.4,2.7c5,1.8,10.1,4.1,13.9,7.7c2.9,2.8,4.8,6.6,6.3,10.3c2.3,5.6,3,11.7,3.9,17.7
					c0.8,5.3-0.5,11,1.4,16c6.2,16.2,18.8,29.4,31.1,41.6c5.9,6.5,13.6,11.9,20.8,16.3c7.6,4.6,14.7,8.3,18.4,16.2
					C918.1,843.7,914,851.3,918.1,854.9L918.1,854.9L918.1,854.9z"/>
			</defs>
			<clipPath id="SVGID_00000029030190619085630250000015809050446867876243_">
				<use xlink:href="#SVGID_00000099647226652583070210000012595119866962197152_"  style="overflow:visible;"/>
			</clipPath>
			<g style="clip-path:url(#SVGID_00000029030190619085630250000015809050446867876243_);">
				<path class="st35" d="M907.6,844.3c-2.1,5.2-5,10.1-8.7,14.3c-8.1,9.5-19.3,15.7-30.4,21.3c-19,9.5-38.7,17.9-56.6,29.4
					c-12,7.7-23,16.7-33.4,26.5c-8.9,8.3-17.3,17.2-27.2,24.3c-10,7.1-21.6,12.3-33.8,14.1c-14.9,2.2-30.2-0.6-44-6.6
					c-9.6-4.1-18.9-10-24.5-18.9c-5.5-8.8-6.8-19.6-6.9-30c0-18.4,3.4-36.6,6.7-54.7c2.7-15.1,5.3-30.1,7-45.3
					c3-27.6,2.9-55.6,1-83.3c-0.3-4.6-0.7-9.3,0-13.9c0.7-4.6,2.6-9.2,6.1-12.2c3.3-2.9,7.8-4.1,12.1-4.3c4.4-0.2,8.7,0.5,13,1.1
					c10.2,1.5,20.4,2.6,30.4,5.2c6.3,1.6,12.4,3.8,18.7,5.5c10.5,2.8,21.4,4.1,32.2,2.9c11.6-1.3,22.9-5.6,34.5-5.3
					c4.8,0.1,9.5,1,14.1,2.4c4.7,1.4,9.3,3.5,12.7,6.9c2.6,2.6,4.4,5.9,5.8,9.3c2.1,5,3.5,10.4,3.6,15.9c0.1,5.7-1.1,11.4-0.4,17.1
					c0.6,4.6,2.6,8.9,5.1,12.8s5.5,7.4,8.5,11c5.8,6.8,11.6,13.8,18.8,19c8.3,6,18.1,9.5,26.6,15c2.5,1.7,5,3.5,6.8,6
					C908.6,833.9,909.4,839.4,907.6,844.3L907.6,844.3L907.6,844.3z"/>
			</g>
		</g>
		<g>
			<defs>
				<path id="SVGID_00000066501954044803905610000001780635175313082270_" d="M918.1,854.9c3.1,5.4-5.3,11.4-9.5,16
					c-9.2,10-21.7,16.5-33.3,23.6c-19.9,12.2-42.5,19.9-62,32.7c-13.1,8.6-24.7,19.3-36.6,29.4c-10.2,8.7-18.5,19.8-29.7,27
					c-11.3,7.2-23.7,14-37,15.7c-16.1,2-33.2-0.9-48.1-7.3c-10.4-4.5-20.8-11.4-26.8-21c-6.1-9.6-6.9-22-7.5-33.4
					c-1-20.4,4.6-40.6,7.3-60.9c2.3-16.8,6.2-33.5,7.6-50.4c2.5-30.8-2.6-62,1.1-92.7c1.2-9.9-0.6-22.4,6.8-29.1
					c6.9-6.2,18.3-3.7,27.5-3.6c11.3,0.2,22.3,3.2,33.3,5.8c6.9,1.6,13.5,4.8,20.5,6.1c11.5,2.2,23.5,3.6,35.3,3.2
					c12.7-0.4,25-6.1,37.8-5.9c5.2,0,10.5,1,15.4,2.7c5,1.8,10.1,4.1,13.9,7.7c2.9,2.8,4.8,6.6,6.3,10.4c2.3,5.6,3,11.7,3.9,17.7
					c0.8,5.3-0.5,11,1.4,16c6.2,16.2,18.8,29.4,31.1,41.6c5.9,6.5,13.6,11.9,20.8,16.3c7.6,4.6,14.7,8.3,18.4,16.2
					C918.1,843.7,914,851.4,918.1,854.9L918.1,854.9z"/>
			</defs>
			<clipPath id="SVGID_00000088841335728578972990000013066581061154929803_">
				<use xlink:href="#SVGID_00000066501954044803905610000001780635175313082270_"  style="overflow:visible;"/>
			</clipPath>
			<g style="clip-path:url(#SVGID_00000088841335728578972990000013066581061154929803_);">
				<path class="st37" d="M906.5,838.4c-2.3,5.3-5.3,10.1-8.9,14.5c-8.3,10.1-19.5,17-31.3,21.5c-19.4,7.3-40.6,8.3-59.6,16.7
					c-11.6,5.1-22.1,12.8-32.6,20c-8.6,5.9-17.3,11.5-26.7,15.6c-10.6,4.6-21.9,7.2-33.2,9c-7.2,1.2-14.5,2-21.8,1.6
					c-7.3-0.4-14.6-2.1-21-5.8c-4.9-2.8-9.2-6.9-11.8-12.1c-2.9-5.8-3.4-12.7-3.3-19.3c0.2-17.6,3.9-35.1,3.8-52.7
					c-0.1-15.3-3.1-30.5-4-45.8c-1.7-29.4,4.6-59.4-0.9-88.3c-0.9-4.6-2.1-9.2-2-14c0-2.4,0.4-4.7,1.2-6.9c0.8-2.2,2.2-4.2,3.9-5.6
					c1.5-1.2,3.3-1.9,5.1-2.2c1.8-0.3,3.7-0.3,5.5,0c3.6,0.6,7.1,2,10.7,3.1c10.2,3,20.9,3,31.2,5.3c6.5,1.4,12.8,3.8,19.2,5.5
					c10.8,2.9,22,4.2,33.1,2.9c11.9-1.4,23.5-5.7,35.5-5.4c4.9,0.1,9.8,1,14.5,2.4c4.7,1.4,9.5,3.4,13,7c2.6,2.6,4.4,5.9,5.9,9.4
					c2.2,5,3.7,10.5,3.7,16.1c0,2.9-0.5,5.8-0.7,8.6c-0.3,2.9-0.3,5.8,0.3,8.6s2.1,5.3,3.8,7.6c1.7,2.3,3.5,4.4,5.2,6.6
					c4.8,6.3,8.2,13.6,11.9,20.7c3.7,7.1,7.9,14.1,13.8,19.2c8,6.9,18.4,9.7,27.3,15.2c2.6,1.6,5.1,3.5,7,6.1
					C907.3,827.9,908.1,833.4,906.5,838.4L906.5,838.4L906.5,838.4z"/>
			</g>
		</g>
		
			<linearGradient id="SVGID_00000064356197192783229940000003420229732179268257_" gradientUnits="userSpaceOnUse" x1="6639.8779" y1="36016.5625" x2="6601.8604" y2="36358.7773" gradientTransform="matrix(0.1253 0 0 0.1253 -87.7523 -3795.5977)">
			<stop  offset="0" style="stop-color:#F3CD0C"/>
			<stop  offset="1" style="stop-color:#F3CD0C;stop-opacity:0"/>
		</linearGradient>
		<path style="fill:url(#SVGID_00000064356197192783229940000003420229732179268257_);" d="M653.1,716.1c11-3,20.4,5.4,28.4,11.7
			c5.2,4.4,12.6,3.3,19,3.5c10.5-0.4,21,1.8,31.5,0.5c20.7-1.8,41-6.8,61.8-7.7c9.9-0.6,21.1-1.2,29.7,4.6c3.5,2.4,8.6,12.6,12,8.8
			c-1.4-10.7-9.4-21.1-20-23.9c-8.3-1.3-16.8,1-25.2,0.2c-25-0.6-49.8-5.2-74.9-3.9c-17.4,0.2-34.8-0.7-52.3-1.3
			c-6.8-1.4-9.3,4.7-13,7"/>
		<path class="st39" d="M702.6,512.6c4-0.6,28.7,20.4,25.3,28.2c-3.4,7.8-9.7,3.1-14.3,3.1c-4.5,0.1-16.9,5.7-19,2.1
			c-2.1-3.6,5.5-11.9,9.4-18.8C707.2,521.7,698.6,513.2,702.6,512.6L702.6,512.6L702.6,512.6z"/>
		<path class="st40" d="M354.3,380.5c-0.4-4.8-7.3-5.6-10.4-3.1c-2.6,2-5,9-2.8,11.7C344.7,393.5,354.8,387.1,354.3,380.5
			C354.3,380.5,354.3,380.5,354.3,380.5z"/>
		
			<radialGradient id="Aa_00000182525430939958874000000009775913382965109413_" cx="11248.959" cy="24670.9941" r="452.9308" gradientTransform="matrix(0.1639 4.390863e-02 -4.609047e-02 0.172 33.9752 -3977.6394)" gradientUnits="userSpaceOnUse">
			<stop  offset="0" style="stop-color:#110800"/>
			<stop  offset="0.591" style="stop-color:#A65A00;stop-opacity:0.8"/>
			<stop  offset="1" style="stop-color:#FF921E;stop-opacity:0"/>
		</radialGradient>
		<path id="Aa" style="fill:url(#Aa_00000182525430939958874000000009775913382965109413_);" d="M801.9,732.9
			c-1.9-3.7-5.3-6.5-9.2-8.1c-3.8-1.6-8.1-2.1-12.2-2.1c-8.3,0.1-16.6,2.2-24.9,1.5c-7-0.6-13.7-3.2-20.5-4.9
			c-7.1-1.7-14.6-2.4-21.6-0.5c-7.5,2-14.1,7.1-18.3,13.6c-3.7,5.8-5.4,12.6-5.9,19.5c-0.5,6.8,0,13.7,0.7,20.5
			c0.5,4.9,1.1,9.9,2.2,14.7c1.2,4.8,3,9.5,5.9,13.5c4.2,5.8,10.4,9.9,17.1,12.4c11.1,4,23.2,3.8,34.1-0.6
			c19.1-8.3,35.2-23.1,45-41.4c3.5-6.6,6.3-13.5,8-20.8c0.7-2.9,1.3-5.8,1.3-8.8C803.7,738.5,803.2,735.5,801.9,732.9L801.9,732.9
			L801.9,732.9z"/>
		
			<radialGradient id="Aa-2_00000156567244043826135150000001997870633666361237_" cx="13620.0518" cy="33102.5625" r="452.9308" gradientTransform="matrix(0.1639 3.174163e-02 -4.609040e-02 0.1244 33.9751 -3799.9817)" gradientUnits="userSpaceOnUse">
			<stop  offset="0" style="stop-color:#110800"/>
			<stop  offset="0.591" style="stop-color:#A65A00;stop-opacity:0.8"/>
			<stop  offset="1" style="stop-color:#FF921E;stop-opacity:0"/>
		</radialGradient>
		<path id="Aa-2" style="fill:url(#Aa-2_00000156567244043826135150000001997870633666361237_);" d="M801.9,729
			c-1.9-2.7-5.3-4.7-9.2-5.9c-3.8-1.2-8.1-1.5-12.2-1.5c-8.3,0-16.6,1.6-24.9,1.1c-7-0.4-13.7-2.3-20.5-3.5
			c-7.1-1.2-14.6-1.7-21.6-0.3c-7.5,1.5-14.1,5.1-18.3,9.8c-3.7,4.2-5.4,9.1-5.9,14.1c-0.5,4.9,0,9.9,0.7,14.8
			c0.5,3.6,1.1,7.1,2.2,10.6c1.2,3.5,3,6.9,5.9,9.8c4.2,4.2,10.4,7.2,17.1,8.9c11.1,2.9,23.2,2.8,34.1-0.4c19.1-6,35.2-16.7,45-29.9
			c3.5-4.7,6.3-9.8,8-15c0.7-2.1,1.3-4.2,1.3-6.3C803.7,733.1,803.2,730.9,801.9,729L801.9,729z"/>
		<path class="st1" d="M817.7,698.2c-1.4-3.7-3.8-7-6.7-9.7s-6.4-4.7-10-6.2c-7.3-3.1-15.2-4.2-23-5.7l-22-4.3
			c-7.6-1.3-15.6-2.1-23.1-0.4c-6.6,1.5-12.7,4.9-17.8,9.5c-5,4.6-8.9,10.3-11.7,16.5c-5,10.9-6.5,23.1-5.6,35
			c0.7,8.9,2.9,18,8.8,24.7c4.7,5.4,11.4,8.8,18.3,10.8c11.9,3.5,24.8,3.3,36.6-0.5c19.6-6.6,36.5-19.3,48.3-36.3
			c3.8-5.6,7.1-11.6,8.6-18.2C819.5,708.4,819.5,703,817.7,698.2L817.7,698.2L817.7,698.2z"/>
		<g>
			<defs>
				<path id="SVGID_00000093895074427367998480000007386095623367505308_" d="M817.7,698.2c-1.4-3.7-3.8-7-6.7-9.7s-6.4-4.7-10-6.2
					c-7.3-3.1-15.2-4.2-23-5.7l-22-4.3c-7.6-1.3-15.6-2.1-23.1-0.4c-6.6,1.5-12.7,4.9-17.8,9.5c-5,4.6-8.9,10.3-11.7,16.5
					c-5,10.9-6.5,23.1-5.6,35c0.7,8.9,2.9,18,8.8,24.7c4.7,5.4,11.4,8.8,18.3,10.8c11.9,3.5,24.8,3.3,36.6-0.5
					c19.6-6.6,36.5-19.3,48.3-36.3c3.8-5.6,7.1-11.6,8.6-18.2C819.5,708.4,819.5,703,817.7,698.2"/>
			</defs>
			<clipPath id="SVGID_00000178887014208975348220000001435857692587087806_">
				<use xlink:href="#SVGID_00000093895074427367998480000007386095623367505308_"  style="overflow:visible;"/>
			</clipPath>
			<g style="clip-path:url(#SVGID_00000178887014208975348220000001435857692587087806_);">
				
					<radialGradient id="Ab_00000072251968777558124580000013297373113835923853_" cx="49559.1953" cy="150250.4844" r="552.196" gradientTransform="matrix(4.512109e-02 1.963954e-02 -9.075455e-03 2.085051e-02 -73.9124 -3417.9258)" gradientUnits="userSpaceOnUse">
					<stop  offset="0" style="stop-color:#7C7C7C"/>
					<stop  offset="1" style="stop-color:#7C7C7C;stop-opacity:0.33"/>
				</radialGradient>
				<path id="Ab" style="fill:url(#Ab_00000072251968777558124580000013297373113835923853_);" d="M737,668.3
					c-1.8,0.1-3.7,0.3-5.5,0.6c-11.7,2.1-22.4,9.5-28.4,19.7c-4.3,7.3-6.2,15.7-5.6,24.1c0.2-5.9,1.8-11.6,4.6-16.7
					c4.8-8.7,13.6-15.3,23.4-17c6.1-1.1,12.2-0.4,18.3,0.3c5.8,0.7,11.7,1.5,17.5,2.7c8.9,1.9,17.7,4.9,25.2,10.1
					c1.7,1.2,3.4,2.6,4.7,4.2s2.4,3.5,2.8,5.6c0.6,3-0.3,6.2-1.8,8.9c-1.5,2.7-3.6,5.1-5.8,7.3c-1.8,1.8-3.7,3.5-5.6,5.2
					c8.6-1.7,17.4-4,24.5-9c3-2.1,5.8-4.7,7.6-7.9c1.8-3.2,2.6-7.1,1.7-10.7c-0.6-2.4-1.9-4.7-3.6-6.5c-1.7-1.9-3.6-3.4-5.7-4.8
					c-9-6.3-19.6-10.4-30.5-11.7c-7-1.3-14.1-2.4-21.2-3.3C748.2,668.5,742.6,668,737,668.3L737,668.3L737,668.3z"/>
			</g>
		</g>
		<g>
			<defs>
				<path id="SVGID_00000158713061184710127330000000894016894586381991_" d="M817.7,698.2c-1.4-3.7-3.8-7-6.7-9.7s-6.4-4.7-10-6.2
					c-7.3-3.1-15.2-4.2-23-5.7l-22-4.3c-7.6-1.3-15.6-2.1-23.1-0.4c-6.6,1.5-12.7,4.9-17.8,9.5c-5,4.6-8.9,10.3-11.7,16.5
					c-5,10.9-6.5,23.1-5.6,35c0.7,8.9,2.9,18,8.8,24.7c4.7,5.4,11.4,8.8,18.3,10.8c11.9,3.5,24.8,3.3,36.6-0.5
					c19.6-6.6,36.5-19.3,48.3-36.3c3.8-5.6,7.1-11.6,8.6-18.2C819.5,708.4,819.5,703,817.7,698.2"/>
			</defs>
			<clipPath id="SVGID_00000161632148498788508430000001432630306459395003_">
				<use xlink:href="#SVGID_00000158713061184710127330000000894016894586381991_"  style="overflow:visible;"/>
			</clipPath>
			<g style="clip-path:url(#SVGID_00000161632148498788508430000001432630306459395003_);">
				
					<linearGradient id="Ab-2_00000154385732921895794080000005350843671047533449_" gradientUnits="userSpaceOnUse" x1="6800.6172" y1="35867.375" x2="6881.2769" y2="35864.0156" gradientTransform="matrix(0.1253 0 0 0.1253 -126.5832 -3795.5977)">
					<stop  offset="0" style="stop-color:#7C7C7C"/>
					<stop  offset="1" style="stop-color:#7C7C7C;stop-opacity:0.33"/>
				</linearGradient>
				<path id="Ab-2" style="fill:url(#Ab-2_00000154385732921895794080000005350843671047533449_);" d="M737,668.3
					c-1.8,0.1-3.7,0.3-5.5,0.6c-11.7,2.1-22.4,9.5-28.4,19.7c-4.3,7.3-6.2,15.7-5.6,24.1c0.2-5.9,1.8-11.6,4.6-16.7
					c4.8-8.7,13.6-15.3,23.4-17c6.1-1.1,12.2-0.4,18.3,0.3c5.8,0.7,11.7,1.5,17.5,2.7c8.9,1.9,17.7,4.9,25.2,10.1
					c1.7,1.2,3.4,2.6,4.7,4.2s2.4,3.5,2.8,5.6c0.6,3-0.3,6.2-1.8,8.9c-1.5,2.7-3.6,5.1-5.8,7.3c-1.8,1.8-3.7,3.5-5.6,5.2
					c8.6-1.7,17.4-4,24.5-9c3-2.1,5.8-4.7,7.6-7.9c1.8-3.2,2.6-7.1,1.7-10.7c-0.6-2.4-1.9-4.7-3.6-6.5c-1.7-1.9-3.6-3.4-5.7-4.8
					c-9-6.3-19.6-10.4-30.5-11.7c-7-1.3-14.1-2.4-21.2-3.3C748.2,668.5,742.6,668,737,668.3L737,668.3L737,668.3z"/>
			</g>
		</g>
		<path class="st1" d="M354,358.4l-57,71.4c-11.9,14.8-24.1,29.6-31.8,46.9c-6.7,14.9-9.8,31-14.4,46.6c-5.2,17.7-12.2,35-20.1,51.6
			l-23.4,45.6c-5.9,11-11.8,22.2-13.8,34.4c-1.6,9.7-0.7,19.7,1.8,29.2c2.5,9.5,6.5,18.8,10.9,27.3c18.8,37.3,47.7,69.4,81.7,94
			c15.4,11.2,31.9,20.8,49.2,28.7c9.4,4.3,19.3,8.1,29.6,8.3c5.2,0.1,10.4-0.8,15.1-2.8c4.7-2.1,8.9-5.4,11.7-9.7
			c3.4-5.3,4.6-11.9,3.9-18.2c-0.8-6.3-3-12.4-6.5-17.7c-8.1-13.2-20.8-22.8-33-32.3l-76.4-64.5c-6.9-6.5-13.8-13.1-18.6-21.2
			c-4.7-7.9-7.3-16.9-9-25.9c-4.7-24.7-3.5-50.8,4.9-74.5c3.3-9.3,7.6-18.1,11.8-27.1c7.3-15.5,14.2-31.2,23.7-45.4
			c11.9-17.6,27.9-32.3,37.6-51.5c8.2-16,11.5-33.9,14.7-51.6l7.4-41.5L354,358.4L354,358.4z"/>
		<g>
			<defs>
				<path id="SVGID_00000085957157830280488360000011945828881626113972_" d="M352.5,359c0,0-17.2,21.4-26.6,34.5
					c-9.4,13.1-19.3,22.4-28.9,36.2c-9.6,13.8-24.8,31.8-31.8,46.9c-7,15.1-7.8,30.4-14.4,46.6c-6.6,16.2-12.5,35.8-20.1,51.6
					c-7.6,15.8-18.1,32.6-23.4,45.6c-5.3,13-12.8,19.3-13.8,34.4c-1,15.1-1.9,28,12.7,56.5c14.6,28.5,58,74.1,81.6,94
					c23.6,19.9,31.6,24.3,49.2,28.7s46.7,10.1,56.3-4.3c9.7-14.4,7.7-20.1-2.5-35.9c-10.2-15.8-16.2-17.9-33-32.2
					c-16.7-14.4-62.8-50.1-76.4-64.8c-13.6-14.7-23.9-11.5-18.6-21.2c5.3-9.7-7.4-13.5-9-25.9c-2.6-21,3.2-63,4.9-74.5
					c1.7-11.6,4.1-9.8,11.8-27.1c7.7-17.2,13.9-29,23.7-45.4c9.9-16.3,29-34.1,37.6-51.5c8.5-17.3,11.8-36.1,14.7-51.6
					C349.5,384.3,352.5,359,352.5,359L352.5,359L352.5,359z"/>
			</defs>
			<clipPath id="SVGID_00000047050663864835445810000014511550672428675474_">
				<use xlink:href="#SVGID_00000085957157830280488360000011945828881626113972_"  style="overflow:visible;"/>
			</clipPath>
			<g style="clip-path:url(#SVGID_00000047050663864835445810000014511550672428675474_);">
				<path class="st48" d="M299.6,492.5c-7.8,7.2-14.6,15.5-20,24.6c-9,15-14.3,31.9-20.8,48.1c-4.9,12.1-10.5,24.2-11.2,37.2
					c-0.3,6.7,0.6,13.4,0.9,20c0.2,6.7-0.4,13.6-3.7,19.5c-2.7,4.9-7.3,8.7-12.6,10.6c7.2,2.4,13.4,7,18,13c3.8,5.1,6.2,11,9.4,16.3
					c2.7,4.4,5.9,8.4,9.9,11.6c4,3.2,8.8,5.5,13.9,6.1c7.1,0.9,14.2-1.4,19.4-6.2c-6.5-60.7-0.5-122.8,17.3-181.2
					c1.1-3.7,2.3-7.4,2.6-11.2s-0.4-7.9-2.8-11c-1.2-1.6-2.9-2.9-4.8-3.7c-1.9-0.8-4-1.1-6-0.8s-4,1-5.7,2.3
					C301.7,489,300.3,490.7,299.6,492.5L299.6,492.5L299.6,492.5z"/>
			</g>
		</g>
		<g>
			<defs>
				<path id="SVGID_00000051373779172606029810000015070009094713982376_" d="M216.2,683.7c21.3-4.6,40.4,16.4,56.8,30.8
					c21.6,18.9-28.8,87.6,44.6,66.8c19.7-5.6,23.2,38.1,34.2,55.4c13.8,21.7,39,46.1,46,70.9c5.3,19,4.5,36.7-5.5,53.7
					c-12,20.4-39.7,35.1-63.3,37.8c-19.3,2.2-40-12.9-58.5-18.7c-41.5-12.9-80.1-19.6-121.6-32.5L112,936.2
					c-15.2-4.5-21.8-3.3-29.4-16.1c-9-15.1,2.3-32.8,10.7-49.8c13.7-28,6.4-60,1.6-85.9c-3.1-16.5-2.2-26.7,9.2-36.3
					c16.8-14.2,48.9-5.2,68.5-13.8C192.2,725.7,195.1,688.2,216.2,683.7L216.2,683.7L216.2,683.7z"/>
			</defs>
			<clipPath id="SVGID_00000070105937384048605740000012031784017802367640_">
				<use xlink:href="#SVGID_00000051373779172606029810000015070009094713982376_"  style="overflow:visible;"/>
			</clipPath>
			<g style="clip-path:url(#SVGID_00000070105937384048605740000012031784017802367640_);">
				
					<linearGradient id="SVGID_00000055706999908635539930000000506395884595029137_" gradientUnits="userSpaceOnUse" x1="2151.3381" y1="36386.1953" x2="3434.6331" y2="38539.2695" gradientTransform="matrix(0.1253 0 0 0.1253 -117.815 -3795.5977)">
					<stop  offset="0" style="stop-color:#B98309"/>
					<stop  offset="1" style="stop-color:#382605"/>
				</linearGradient>
				<path style="fill:url(#SVGID_00000055706999908635539930000000506395884595029137_);" d="M216.2,683.7
					c5.4-2.2,11.4-2.6,17.2-1.6c5.7,1.1,11.1,3.5,16,6.8c9.6,6.6,16.8,16.1,23.7,25.5c15.7,21.7,30.9,43.8,44.6,66.8
					c11.1,18.7,21.4,37.9,34.2,55.4c8.4,11.4,17.9,22,26.3,33.4c8.4,11.4,15.9,23.8,19.7,37.4c4.9,17.8,3,37.4-5.5,53.7
					c-6,11.5-15.1,21.4-26.2,28.1c-11.1,6.7-24.1,10.2-37.1,9.7c-20.6-0.8-39.4-11.1-58.5-18.7c-39-15.5-81.4-20.4-121.6-32.5
					c-12.4-3.7-24.5-8.1-36.9-11.5c-5.5-1.5-11.1-2.9-16.4-5.2c-5.2-2.4-10.1-5.9-13-10.8c-2.2-3.8-3.2-8.3-3.1-12.8
					c0.1-4.4,1.1-8.8,2.6-13c3-8.3,7.9-15.9,11.2-24.1c5.4-13.4,6.3-28.2,5.6-42.7c-0.7-14.5-3.1-28.8-4.1-43.2
					c-0.4-6.4-0.6-13,0.6-19.3s4-12.5,8.6-17c4.3-4.1,10-6.6,15.8-7.8s11.8-1.3,17.8-1.1c6,0.1,11.9,0.5,17.9,0
					c5.9-0.5,11.9-1.8,17.1-4.8c4.9-2.8,8.9-7,12.3-11.6c3.3-4.6,6-9.6,8.8-14.5c2.8-4.9,5.6-9.9,9.2-14.2
					C206.5,689.6,211,685.8,216.2,683.7L216.2,683.7L216.2,683.7z"/>
				<path class="st51" d="M224.7,693c4.9-2,10.4-2.2,15.6-1c5.1,1.2,9.9,3.7,14.1,6.9c8.3,6.4,14.1,15.5,19.7,24.5
					c13.4,21.7,26.4,43.6,38.8,65.9c9.4,16.8,18.3,34,29.8,49.4c7.6,10.2,16.3,19.6,24.1,29.8s14.7,21.2,18.2,33.5
					c4.4,15.8,2.6,33.3-5,47.9c-5.6,10.5-13.9,19.3-24.2,25.3c-10.3,6-22.1,8.9-34,8.4c-18.9-0.9-36.1-10.3-53.8-16.7
					c-34-12.3-70.9-14-105.8-23.6c-12.5-3.4-24.7-7.9-37.3-11.1c-5.6-1.4-11.2-2.5-16.5-4.8c-5.3-2.2-10.3-5.7-13.1-10.7
					c-2.1-3.7-3-8-2.9-12.3c0.1-4.3,1.2-8.4,2.7-12.4c3-8,7.8-15.2,10.9-23.2c4.6-12,5.2-25.3,4.4-38.1s-3.1-25.6-3.9-38.5
					c-0.4-5.8-0.4-11.6,0.8-17.2s3.6-11.1,7.7-15.2c4.4-4.4,10.6-6.8,16.8-7.8c6.2-0.9,12.5-0.5,18.7,0c6.2,0.6,12.5,1.3,18.7,0.9
					c6.2-0.4,12.6-1.9,17.7-5.4c4.7-3.2,8.2-7.8,10.9-12.8c2.7-5,4.6-10.3,6.7-15.5c2-5.3,4.3-10.5,7.5-15.2
					C215,699.2,219.4,695.1,224.7,693"/>
				<path class="st52" d="M220.1,680.7c4.7-2.4,10.3-2.8,15.5-1.8c5.2,1.1,10,3.6,14.1,6.9c8.2,6.6,13.4,16.1,18.3,25.4
					c11.1,21.3,21.5,43.2,34.8,63.3c9.7,14.6,20.8,28.2,30.6,42.7c13.3,19.7,24,41.3,28.5,64.5c3,15.6,2.9,32.4-4.6,46.5
					c-5,9.2-13,16.9-22.4,21.6s-20.4,6.7-31,5.7c-16.7-1.5-31.8-9.7-47.5-15.4c-27.9-10.2-58-12.6-86.7-20.2
					c-12.1-3.2-23.9-7.4-36.2-9.9c-5.4-1.1-10.9-2-16.1-3.9c-5.2-2-10.1-5.2-12.7-10c-1.9-3.4-2.5-7.3-2.2-11.1
					c0.3-3.8,1.4-7.5,2.9-11.1c3-7.1,7.4-13.5,9.8-20.8c3.4-10.7,2-22.3-0.6-33.3c-2.6-11-6.3-21.7-7.4-32.9
					c-0.5-5-0.5-10.1,0.6-14.9c1.1-4.9,3.5-9.6,7.1-13.1c4.7-4.5,11.3-6.7,17.8-7.4c6.5-0.6,13.1,0.2,19.6,1.2
					c6.5,0.9,13,2,19.6,1.7c6.6-0.3,13.2-2,18.4-6c5.1-4,8.3-9.9,10.1-16s2.4-12.5,3.2-18.8c0.8-6.3,1.7-12.7,4.1-18.6
					C210.3,689,214.4,683.6,220.1,680.7L220.1,680.7L220.1,680.7z"/>
				
					<linearGradient id="SVGID_00000083792545309517072850000002580112361933094056_" gradientUnits="userSpaceOnUse" x1="3573.8225" y1="36862.6484" x2="3977.8196" y2="37623.1328" gradientTransform="matrix(0.1253 0 0 0.1253 -117.815 -3795.5977)">
					<stop  offset="0" style="stop-color:#EBC40C"/>
					<stop  offset="1" style="stop-color:#EBC40C;stop-opacity:0"/>
				</linearGradient>
				<path style="fill:url(#SVGID_00000083792545309517072850000002580112361933094056_);" d="M279.6,734
					c8.8,15.9,14.1,34.1,22.8,50.1c8,14.7,17.1,29.9,25.3,43.5c3.6,6,12.1,15.3,20.6,29.8c7.7,13.1,15.6,31.3,19.9,37.4
					c-2.5-7.2-7.7-26.4-13.8-40.2c-5.7-12.8-12.5-20.1-16.6-27c-8.1-13.6-16.9-25.8-25.3-38.7C301,771,292.2,751,279.6,734
					L279.6,734L279.6,734z"/>
			</g>
		</g>
	</g>
</g>
</svg>
