<?xml version="1.0" encoding="UTF-8"?>
<svg id="Livello_2" data-name="Livello 2" xmlns="http://www.w3.org/2000/svg" viewBox="0 0 1000 1000">
  <defs>
    <style>
      .cls-1 {
        fill: none;
      }

      .cls-1, .cls-2 {
        stroke-width: 0px;
      }

      .cls-2 {
        fill: #000;
      }
    </style>
  </defs>
  <g id="Livello_2-2" data-name="Livello 2">
    <g id="Layer_2" data-name="Layer 2">
      <g id="Layer_2-2" data-name="Layer 2-2">
        <g id="Layer_2-2-2" data-name="Layer 2-2-2">
          <g id="Layer_1-2" data-name="Layer 1-2">
            <path id="path2" class="cls-2" d="M0,613.62h39.21v-102.2c0-20.16,13.23-34.8,32.13-34.8s29.61,11.5,29.61,30.08v106.92h38.11v-103.15c0-20,12.91-33.86,31.81-33.86s29.92,11.65,29.92,32.13v104.88h39.21v-114.48c0-33.38-21.57-55.59-54.49-55.59-24.09,0-43.93,12.91-51.97,33.54h-.94c-6.14-21.42-22.99-33.54-46.61-33.54s-40.31,12.76-47.56,32.13h-.79v-28.98H0v166.92h0ZM325.82,586.69c-17.01,0-28.35-8.66-28.35-22.36s10.87-21.73,29.76-22.99l38.58-2.36v12.76c0,20.16-17.79,34.96-40,34.96h0ZM314.01,616.3c21.42,0,42.36-11.18,51.97-29.29h.79v26.61h37.79v-114.96c0-33.54-26.93-55.43-68.34-55.43s-69.13,22.36-70.86,53.54h36.38c2.52-13.86,14.33-22.83,32.91-22.83s31.18,10.08,31.18,27.56v11.97l-44.1,2.52c-40.63,2.52-63.46,20.31-63.46,49.92s23.46,50.39,55.75,50.39h0ZM576.69,506.22c-2.68-35.12-29.92-62.99-74.01-62.99-48.5,0-80,33.54-80,86.92s31.5,86.77,80.31,86.77c41.89,0,70.71-24.57,73.85-61.89h-37.01c-3.62,18.9-16.54,30.24-36.38,30.24-24.88,0-40.94-20.16-40.94-55.12s15.9-55.12,40.63-55.12c20.94,0,33.38,13.39,36.53,31.18h37.01,0ZM697.8,382.6c-66.3,0-107.87,45.2-107.87,117.48s41.57,117.32,107.87,117.32,107.71-45.04,107.71-117.32-41.57-117.48-107.71-117.48ZM697.8,417.25c40.47,0,66.3,32.13,66.3,82.83s-25.83,82.68-66.3,82.68-66.3-32.13-66.3-82.68,25.67-82.83,66.3-82.83ZM822.05,549.68c1.73,41.89,36.06,67.71,88.34,67.71,54.96,0,89.61-27.09,89.61-70.23,0-33.86-19.53-52.91-65.67-63.46l-26.14-5.98c-27.87-6.61-39.37-15.43-39.37-30.55,0-18.9,17.32-31.5,42.99-31.5s43.78,12.76,45.67,34.01h38.74c-.94-40-34.01-67.09-84.09-67.09s-84.57,27.24-84.57,67.56c0,32.44,19.84,52.6,61.73,62.2l29.45,6.93c28.66,6.77,40.31,16.22,40.31,32.6,0,18.9-19.05,32.44-46.45,32.44s-48.66-13.7-51.18-34.64h-39.37Z"/>
            <rect class="cls-1" width="1000" height="1000"/>
          </g>
        </g>
      </g>
    </g>
  </g>
</svg>