<?xml version="1.0" encoding="UTF-8"?>
<svg id="Layer_2" data-name="Layer 2" xmlns="http://www.w3.org/2000/svg" viewBox="0 0 1000 1000">
  <defs>
    <style>
      .cls-1 {
        fill: #030303;
      }

      .cls-1, .cls-2, .cls-3, .cls-4, .cls-5, .cls-6, .cls-7 {
        stroke-width: 0px;
      }

      .cls-2 {
        fill: none;
      }

      .cls-3 {
        fill: #020202;
      }

      .cls-4 {
        fill: #010101;
      }

      .cls-5 {
        fill: #0d0d0d;
      }

      .cls-6 {
        fill: #070707;
      }

      .cls-7 {
        fill: #00adef;
      }
    </style>
  </defs>
  <g id="Layer_2-2" data-name="Layer 2">
    <g id="Layer_2-2" data-name="Layer 2-2">
      <g id="Layer_1-2" data-name="Layer 1-2">
        <g>
          <g>
            <path class="cls-4" d="M829.33,425.09c4.06.04,7.99.7,11.67,2.46.96.46,2.29.71,2.2,2.14-.12,2.03,1.01,4.58-.54,5.96-1.29,1.14-2.81-1.07-4.28-1.67-4.04-1.64-8.14-2.62-12.54-2.07-5.47.68-9.23,3.81-10.33,8.72-1.09,4.89.6,9.19,5.27,12,4.49,2.7,9.27,4.91,13.84,7.49,8.97,5.07,11.76,10.62,10.1,19.66-1.33,7.26-7.56,12.61-16.46,14.05-6.17,1-12.13.33-17.69-2.71-2.17-1.19-3.78-6.62-2.47-8.59,1.07-1.59,1.85,0,2.62.49,5.43,3.48,11.22,5.25,17.73,4.13,4.87-.84,7.93-3.36,8.98-7.42,1.27-4.92.25-9.09-4.06-12.02-2.39-1.62-5.02-2.89-7.56-4.29-2.9-1.59-5.95-2.96-8.72-4.74-7.31-4.69-10.42-11.89-8.61-19.41,1.81-7.52,8.75-13.18,17.13-13.96,1.24-.12,2.48-.15,3.73-.22Z"/>
            <path class="cls-4" d="M935.87,462.54c0-8.72-.11-17.45.06-26.16.05-2.34-.44-3.37-2.89-3.14-1.51.14-3.06-.1-4.56.05-2.71.27-3.83-.45-3.9-3.55-.08-3.52,1.96-2.93,3.99-2.95q7.29-.06,7.29-7.42c.01-4.15-.02-8.3,1.21-12.34,2.87-9.34,12.43-14.53,21.65-11.81,1.29.38,2.48.63,2.39,2.26-.09,1.63.54,3.4-.42,4.86-.64.98-1.48-.08-2.17-.3-8.4-2.67-14.37.93-15.39,9.69-.49,4.24-.15,8.57-.31,12.86-.07,2.04,1.07,2.21,2.62,2.19,3.74-.04,7.48.1,11.21-.05,2.37-.1,2.77,1.04,2.68,3.02-.09,1.88.1,3.65-2.71,3.53-3.46-.15-6.93.12-10.38-.08-2.65-.16-3.49.56-3.47,3.39.15,17.3,0,34.61.14,51.91.03,3.19-.67,4.4-4.1,4.25-2.57-.12-2.97-1.14-2.96-3.23.04-9,.02-18,.01-27Z"/>
            <path class="cls-3" d="M549.54,552.89c0,9,.06,18.01-.04,27.01-.02,2.04,1.24,4.97-2.95,4.89-3.92-.07-2.67-2.78-2.7-4.69-.1-7.34-.14-14.68,0-22.02.04-2.37-.3-3.41-3.08-3.35-9.42.19-18.84.19-28.26,0-2.87-.06-3.47.92-3.42,3.56.16,7.61.05,15.23.06,22.85,0,1.81.34,3.6-2.55,3.65-2.83.05-3.12-1.38-3.12-3.62.04-18.84.04-37.67,0-56.51,0-2.18.11-3.72,3.01-3.69,2.78.04,2.68,1.62,2.67,3.54-.03,7.2.08,14.41-.06,21.61-.05,2.63.55,3.56,3.45,3.49,9.36-.22,18.73-.15,28.1,0,2.46.04,3.32-.49,3.24-3.16-.21-7.33-.03-14.68-.1-22.02-.02-2.01.07-3.45,2.72-3.45,2.75,0,3.1,1.37,3.07,3.66-.09,9.42-.04,18.84-.04,28.25Z"/>
            <path class="cls-3" d="M976.35,456.91c0-6.74-.08-13.48.04-20.21.04-2.56-.61-3.91-3.46-3.47-1.22.19-2.49-.04-3.73.05-2.42.17-4.01.13-4.06-3.3-.05-3.64,1.86-3.2,4.11-3.2,7.09,0,7.09-.03,7.08-7.19,0-2.34,0-4.69-.05-7.03-.02-1.12-.22-2.35,1.1-2.84,1.66-.62,3.61-1.82,5.04-1.4,1.81.53.88,2.91.93,4.48.11,3.74.14,7.48,0,11.21-.08,2.2.72,2.9,2.87,2.81,3.6-.15,7.21.15,10.8-.1,2.8-.19,2.7,1.33,2.72,3.28.03,2.07-.19,3.43-2.83,3.29-3.59-.19-7.2.02-10.8-.07-1.83-.05-2.78.33-2.76,2.48.13,14.26-.03,28.52.27,42.78.16,7.55,5.06,10.47,12.17,8.02,1.14-.39,2.91-2.6,3.63-.23.58,1.9,1.45,4.6-1.55,6.13-9.11,4.66-19.03-.25-20.91-10.33-.79-4.26-.58-8.52-.6-12.8-.02-4.12,0-8.24,0-12.37Z"/>
            <path class="cls-4" d="M663.83,425.14c4.32.02,8.52.66,12.51,2.38,1.75.75,3.09,6.11,1.86,7.49-.28.32-.98.48-1.43.39-.66-.12-1.27-.53-1.9-.81-15.94-7.19-30.63-.35-34.64,16.52-2.23,9.39-1.8,18.76,3.64,27.21,6.14,9.53,18.51,11.96,29.93,6.28,1.15-.57,2.87-3.35,3.89-.95.85,2,1.68,5.25-1.49,6.96-2.94,1.58-6.04,2.58-9.38,3.05-17.09,2.43-29.02-5.37-33.6-22.06-4.15-15.1.73-31.75,11.71-40.29,5.58-4.35,11.91-6.21,18.89-6.18Z"/>
            <path class="cls-3" d="M790.23,574.67c6.57-17,12.93-33.45,19.3-49.9.72-1.86.96-3.96,3.96-3.82,2.81.13,3.33.87,2.29,3.47-5.23,13.04-10.33,26.13-15.47,39.21-2.42,6.17-4.8,12.35-7.21,18.53-.56,1.43-1.07,2.65-3.12,2.66-2.08.01-2.51-1.21-3.05-2.68-7-19.04-14.02-38.07-20.96-57.13-.43-1.18-2.26-3.04.18-3.74,1.92-.55,4.39-1.09,5.46,2.01,2.71,7.82,5.61,15.58,8.43,23.37,3.33,9.18,6.66,18.36,10.17,28.03Z"/>
            <path class="cls-3" d="M579.84,576.61c4.7-11.8,9.2-23.09,13.7-34.38.31-.77.51-1.61.97-2.28,1.3-1.92,3.37-1.33,4.88-.78,1.87.68.27,2.19-.1,3.1-6.79,16.75-13.67,33.46-20.54,50.18-1.32,3.21-2.81,6.32-5.06,9-2.73,3.26-6.32,4.25-10.4,4.02-2.34-.13-2.84-1.41-2.81-3.6.04-2.68,1.72-2.02,3.1-1.84,3.69.5,6.21-1.2,7.76-4.28,1.8-3.57,3.31-7.28,4.94-10.93.64-1.43-.06-2.63-.56-3.93-4.85-12.48-9.69-24.96-14.39-37.49-.5-1.33-2.81-3.4.08-4.38,2.26-.76,4.27-.23,5.35,2.86,3.73,10.68,7.86,21.22,11.85,31.81.28.76.63,1.49,1.24,2.92Z"/>
            <path class="cls-1" d="M607.89,459.47c0-9.83.15-19.67-.08-29.49-.07-3.16,1.39-3.16,3.72-3.26,2.5-.1,3.29.57,3.28,3.2-.12,19.8-.12,39.6,0,59.4.02,2.91-1.11,3.38-3.67,3.39-2.58.01-3.32-.81-3.29-3.34.12-9.97.05-19.94.05-29.91Z"/>
            <path class="cls-3" d="M714.38,545.76c3.93-5.97,8.36-8.33,14.4-7.61,3.04.36,3.15,2.23,2.84,4.4-.44,3.04-2.31.9-3.4.67-5.11-1.05-9.92,2.08-12.17,8.31-1.32,3.66-1.77,7.49-1.7,11.42.11,6.23,0,12.46.06,18.68.02,1.95-.37,3.12-2.71,3.15-2.39.03-2.71-1.21-2.7-3.12.03-13.02.03-26.04,0-39.06,0-2.05-.12-3.83,2.9-3.79,2.96.04,2.44,1.93,2.48,3.67.02.66,0,1.33,0,3.28Z"/>
            <path class="cls-5" d="M743.38,560.66c-3.18,0-6.36-.06-9.54.02-1.88.05-2.75-.52-2.78-2.58-.03-2.18.76-2.89,2.91-2.86,6.64.1,13.28.08,19.92.01,1.85-.02,2.72.44,2.76,2.54.05,2.25-.87,2.91-2.9,2.88-3.46-.06-6.91-.02-10.37-.02Z"/>
            <path class="cls-6" d="M616.71,406.58c-.13,2.66-2.99,5.31-5.76,5.12-2.94-.21-5.18-2.97-4.93-6.08.22-2.77,3-5.27,5.69-4.84,3.07.49,4.99,2.24,5,5.81Z"/>
            <path class="cls-4" d="M582.93,400.77c-2.55-.31-4.77-.47-6.18,3.02-4.29,10.62-9.19,21-13.82,31.49-6.46,14.63-12.89,29.26-19.34,43.89-.12-.04-.27-.04-.3-.1-10.7-25.45-22.44-50.44-33.48-75.74-1.48-3.39-3.75-2.64-6.04-2.56-2.61.09-1.89,2.31-1.9,3.81-.04,28.11,0,56.21-.07,84.32,0,2.75.61,3.9,3.67,3.85,2.8-.05,3.86-.67,3.83-3.65-.12-13.43-.03-26.86-.03-40.29,0-9.3,0-18.6,0-28.73.81,1.58,1.28,2.39,1.66,3.23,9.9,22.05,19.78,44.11,29.73,66.13.55,1.22.43,3.16,2.66,3.2,2.41.04,2.36-1.99,2.99-3.36,2.44-5.26,4.76-10.57,7.14-15.86,7.57-16.87,15.14-33.73,22.7-50.6h0c-.1-1.17.62-1.98,1.67-3.57,0,2.26,0,3.82,0,5.38-.02,21.84-.04,43.68-.04,65.53,0,.82.19,1.64.29,2.46,6.55.02,6.51.02,6.51-6.57-.02-26.98.02-53.97-.07-80.95,0-1.49,1.3-3.98-1.59-4.33Z"/>
            <path class="cls-3" d="M723.53,425.99c-7.4-2.36-14.76,1.05-20.14,9.31-.31.7-.62,1.4-.93,2.09-.25-.02-.5-.03-.75-.05v-10.24c-2.33.58-6.52-3.11-6.52,2.83,0,19.79.06,39.58-.06,59.37-.02,2.89,1.06,3.39,3.63,3.42,2.68.03,3.22-.96,3.19-3.4-.12-8.85-.13-17.71-.02-26.57.09-7.48.59-14.92,4.15-21.75,4.05-7.76,9.15-10.01,17.65-7.76.65.17,1.24.61,1.85-.03,1.41-1.49-.03-6.57-2.06-7.22Z"/>
            <path class="cls-4" d="M792.35,451.27c-1.91-15.32-12.06-25.22-26.77-26.11-15.55-.94-27.62,7.76-31.37,22.62-1.74,6.93-1.87,13.9-.76,20.96,2.23,14.13,12.3,23.84,26.63,25.45,13.76,1.54,25.69-6.11,30.64-19.63,1.78-4.86,2.23-9.94,2.51-15.94-.22-1.87-.54-4.61-.88-7.35ZM785.86,459.21c0,6.54-.81,12.55-3.91,17.96-7.78,13.59-29.14,14.25-37.17.81-7.15-11.97-6.8-24.59.07-36.63,4.47-7.83,13.6-10.99,23.56-9.16,8.71,1.6,14.58,7.93,16.58,17.95.62,3.12,1.02,6.28.87,9.07Z"/>
            <path class="cls-4" d="M915.66,443.31c-4.24-12.2-13.87-18.32-26.78-18.19-15.1.15-25.62,8.54-29.28,23.12-1.75,6.97-1.99,13.97-.55,20.94,2.47,11.96,8.84,20.84,21.15,24.06,12.91,3.38,25.04-.68,31.91-10.97,8.14-12.19,8.19-25.61,3.55-38.96ZM909.93,470.6c-2.96,11.3-10.62,17.13-21.89,16.97-10.77-.15-18.99-6.91-21.57-17.77-.77-3.24-1.15-6.53-1.07-9.86.17-8.63,1.65-16.82,8.53-22.94,11.57-10.3,30.34-5.53,35.33,9.09,2.75,8.04,2.82,16.31.67,24.51Z"/>
            <path class="cls-3" d="M648.65,552.61c-2.4-10.2-9.52-15.53-19.91-14.72-5.64.44-10.18,3.11-14.35,8.36,0-1.86,0-2.68,0-3.5-.01-1.85.69-3.95-2.57-3.95-2.97,0-2.91,1.71-2.91,3.8.03,19.66.03,39.32,0,58.99,0,1.97.03,3.45,2.76,3.45,2.68,0,2.78-1.31,2.76-3.37-.09-7.4-.04-14.8-.04-22.67,11.4,11.96,29.29,7.4,33.89-9.14,1.57-5.65,1.73-11.47.37-17.25ZM641.7,571.92c-2.7,6.21-8.42,9.58-14.52,8.75-6.63-.9-11.68-6.08-12.58-13.01-.23-1.78-.18-3.59-.26-5.39.05-3.6.09-7.17,1.72-10.54,3.08-6.35,8.76-9.72,15.4-8.99,5.99.66,10.36,4.78,11.8,11.7,1.24,5.92.89,11.85-1.57,17.48Z"/>
            <path class="cls-3" d="M666.85,562.52c4.42.24,8.86.06,13.3.06,3.19,0,6.37,0,9.56,0q8.24,0,6.77-8.32c-1.27-7.24-4.27-13.42-11.83-15.62-7.41-2.16-14.32-.67-19.85,5.09-8.03,8.36-8.99,24.99-2.09,34.35,6.3,8.54,18.19,10.12,29.21,4.12,2.71-1.48,3.3-3.84,2.14-5.78-1.25-2.08-2.78.52-3.96,1.19-12.61,7.14-23.67,2.28-26.11-11.48-.47-2.65-.21-3.78,2.86-3.62ZM664.37,555.55c1.03-8.35,9.29-14.35,17.29-12.44,5.61,1.34,9.8,7.18,9.54,12.94-.08,1.83-1.09,1.57-2.15,1.58-3.72.02-7.44,0-11.16,0-3.86,0-7.72-.04-11.58.02-1.56.03-2.17-.35-1.95-2.11Z"/>
          </g>
          <path class="cls-7" d="M0,341.61l180.04-24.52.08,173.67L.16,491.78l-.16-150.17ZM179.96,510.76l.14,173.82L.14,659.84v-150.24s179.82,1.17,179.82,1.17ZM201.78,313.88l238.72-34.84v209.51l-238.72,1.9v-176.56ZM440.56,512.4l-.06,208.56-238.72-33.69-.33-175.26,239.12.39Z"/>
        </g>
        <rect class="cls-2" x="0" width="1000" height="1000"/>
      </g>
    </g>
  </g>
</svg>