<?xml version="1.0" encoding="UTF-8"?>
<svg id="Layer_2" data-name="Layer 2" xmlns="http://www.w3.org/2000/svg" viewBox="0 0 1000 1000">
  <defs>
    <style>
      .cls-1 {
        fill: none;
      }

      .cls-1, .cls-2, .cls-3 {
        stroke-width: 0px;
      }

      .cls-2 {
        fill-rule: evenodd;
      }

      .cls-2, .cls-3 {
        fill: #676867;
      }
    </style>
  </defs>
  <g id="Layer_2-2" data-name="Layer 2">
    <g id="Layer_2-2" data-name="Layer 2-2">
      <g id="Layer_1-2" data-name="Layer 1-2">
        <rect class="cls-1" width="1000" height="1000"/>
        <g>
          <polygon class="cls-3" points="41.99 456.92 0 618.08 17.88 618.08 54.44 470.01 54.98 470.01 86.12 618.08 104.54 618.08 211.52 472.28 212.06 472.28 172.26 618.08 190.41 618.08 231.84 456.92 205.03 456.92 98.86 601.6 68.8 456.92 41.99 456.92"/>
          <polygon class="cls-3" points="249.24 501.61 219.16 618.08 236.23 618.08 266.29 501.61 249.24 501.61"/>
          <polygon class="cls-3" points="290.81 501.59 261.11 618.08 278.15 618.08 289 575.87 318.79 555.11 355.91 618.08 374.58 618.08 332.34 546.54 398.41 501.61 375.66 501.61 293.87 558.48 293.33 558.05 307.9 501.59 290.81 501.59"/>
          <path class="cls-2" d="M408.47,501.61l-30.06,116.47h17.11l15.72-60.93c5.68-21.9,21.94-42.42,52.54-42.88,3.25,0,6.49.23,9.74.23l3.79-14.22c-2.98-.23-6.25-.23-9.2-.23-24.98-.23-39.82,11.74-50.65,28.44h-.54l7.04-26.85-15.49-.02Z"/>
          <path class="cls-2" d="M595.65,543.83c0-28.66-22.75-45.59-55.25-45.59-49.84,0-78,36.58-78,74.71,0,29.14,19.78,48.52,55.79,48.52,51.73,0,77.46-38.37,77.46-77.65M578.58,546.77c0,27.06-19.78,62.74-57.14,62.74-28.44,0-41.99-15.34-41.99-37.91,0-27.31,20.59-61.39,57.95-61.39,27.35,0,41.18,14.9,41.18,36.55"/>
          <polygon class="cls-2" points="759.4 501.53 770.49 456.9 603.65 456.9 592.61 501.59 646.13 501.59 646.13 501.61 705.82 501.61 705.82 501.59 759.4 501.53"/>
          <polygon class="cls-2" points="640.85 522.95 617.2 618.04 676.78 618.04 700.49 522.97 700.49 522.93 640.85 522.93 640.85 522.95"/>
          <path class="cls-2" d="M768.97,522.95l-23.54,95.09h53.62l23.54-95.09h-53.62ZM827.99,501.53l11.14-44.63h-53.62l-11.22,44.69,53.71-.06Z"/>
          <polygon class="cls-2" points="861.34 456.9 821.25 618.04 874.87 618.04 883.26 584.65 895.46 575.62 914.42 618.04 972.65 618.04 936.88 548.08 1000 500.91 935.82 500.91 896.27 535.21 895.73 535.21 914.96 456.9 861.34 456.9"/>
          <path class="cls-2" d="M272.28,378.52c6.56,45.51,30.98,73.13,80.75,75.4-46.9,17.94-95.24-24.23-80.75-75.4"/>
          <path class="cls-2" d="M246.26,386.54c.56-.12.62.25.67.67,1.58,29.02,13.82,51.02,30.04,66.07,16.22,15.05,37.99,27.23,68.7,26.69-57.5,22.9-117.93-32.12-99.42-93.43"/>
        </g>
      </g>
    </g>
  </g>
</svg>