<?xml version="1.0" encoding="UTF-8"?><svg id="Layer_2" xmlns="http://www.w3.org/2000/svg" viewBox="0 0 1000 1000"><defs><style>.cls-1{fill:none;}.cls-1,.cls-2,.cls-3,.cls-4,.cls-5,.cls-6,.cls-7{stroke-width:0px;}.cls-2{opacity:.2;}.cls-2,.cls-7{isolation:isolate;}.cls-3{fill:#50d9ff;}.cls-4{fill:#28a8ea;}.cls-5{fill:#fff;}.cls-6{fill:#0078d4;}.cls-7{opacity:.1;}</style></defs><g id="Layer_2-2"><g id="Layer_2-2"><g id="Layer_1-2"><rect class="cls-1" width="1000" height="1000"/><path class="cls-4" d="m936.53972,63.63479h-221.94627c-16.83002-.00125-32.97055,6.68662-44.86745,18.59098L145.8587,606.09127c-11.90368,11.89722-18.59088,28.03768-18.58916,44.86745v221.94627c-.00301,35.04513,28.40423,63.45723,63.44934,63.46021h221.9553c16.83064.00173,32.9719-6.68615,44.86926-18.59096L981.41806,393.90872c11.89829-11.9002,18.58236-28.03934,18.58187-44.86743V127.09502c.00298-35.0451-28.4042-63.45722-63.44933-63.46023-.00361,0-.00728,0-.01089,0Z"/><path class="cls-6" d="m936.5452,936.36521h-221.95168c-16.82926,0-32.96923-6.68545-44.86926-18.58555l-106.09128-106.09128v-198.23344c0-62.65944,50.79551-113.45495,113.45492-113.45495h198.23708l106.08947,106.09128c11.9001,11.90006,18.58555,28.04,18.58555,44.86926v221.94987c0,35.04513-28.40961,63.4548-63.45474,63.4548h-.00007Z"/><path class="cls-3" d="m190.72433,63.63479h221.94989c16.82926.00003,32.96919,6.68544,44.86926,18.58552l106.09131,106.09129v198.23344c0,62.65944-50.79551,113.45495-113.45495,113.45495h-198.23529l-106.09129-106.09128c-11.89897-11.89992-18.58368-28.0391-18.5837-44.86743V127.08956c0-35.0451,28.40967-63.45477,63.45478-63.45477h0Z"/><path class="cls-2" d="m527.27099,287.81742v478.91079c.03999,2.44301-.20405,4.88241-.72729,7.26911-3.41507,20.31493-21.03844,35.16872-41.6383,35.09472H127.26774V245.45363h357.63765c23.35668-.04019,42.32359,18.86154,42.36379,42.2182.00007.04853.00007.09705,0,.14558h.0018Z"/><path class="cls-7" d="m545.45287,287.81742v442.54702c-.31263,33.30881-27.23867,60.23408-60.54747,60.54571H127.26774V227.27174h357.63765c33.38958.1177,60.42797,27.1561,60.54567,60.54567h.0018Z"/><path class="cls-2" d="m527.27099,287.81742v442.54702c.04023,23.35664-18.86149,42.32359-42.21817,42.36382-.04914.00007-.09828.00007-.14742,0H127.26774V245.45363h357.63765c23.35668-.04019,42.32359,18.86154,42.36379,42.2182.00007.04853.00007.09705,0,.14558h.0018Z"/><path class="cls-7" d="m509.0891,287.81742v442.54702c.04023,23.35664-18.86149,42.32359-42.21817,42.36382-.04914.00007-.09828.00007-.14742,0H127.26774V245.45363h339.45577c23.35668-.04019,42.32359,18.86154,42.36379,42.2182.00007.04853.00007.09705,0,.14558h.0018Z"/><rect class="cls-6" y="245.45363" width="509.09275" height="509.09275" rx="42.42378" ry="42.42378"/><path class="cls-5" d="m337.91213,406.93059h-119.03861v69.61116h111.73493v44.61291h-111.73493v72.30209h125.38411v44.4256h-179.42067v-275.76463h173.07517v44.81287Z"/></g></g></g></svg>