<?xml version="1.0" encoding="UTF-8"?><svg id="Layer_2" xmlns="http://www.w3.org/2000/svg" viewBox="0 0 1000 1000"><defs><style>.cls-1{fill:none;}.cls-2{fill:#00678c;fill-rule:evenodd;}</style></defs><g id="Layer_1-2"><rect class="cls-1" width="1000" height="1000"/><path class="cls-2" d="m921.10285,766.86321c-54.39713-1.51511-96.59776,4.06053-131.96827,18.93919-10.18422,4.09081-26.52788,4.09081-27.86948,16.90887,5.44269,5.37878,6.09825,14.18162,10.87026,21.63615,8.15659,13.53012,22.45726,31.75725,35.37051,41.2117l43.52687,31.10575c26.52788,16.21194,56.45547,25.68154,82.29708,41.90863,14.97135,9.4696,29.92759,21.63615,44.89917,31.78753,7.62293,5.40907,12.24233,14.21202,21.771,17.57563v-2.04547c-4.75665-6.06056-6.12873-14.84838-10.87026-21.63615l-20.4294-19.59069c-19.71289-26.36332-44.21291-49.36316-70.74079-68.27195-21.771-14.87866-69.36872-35.15114-78.21134-60.15089l-1.3416-1.51511c14.94088-1.51511,32.62613-6.77263,46.92681-10.83316,23.1433-6.06056,44.21291-4.72717,67.99664-10.80288l32.67196-9.4696v-6.06056c-12.24233-12.16656-21.08496-28.39365-33.99821-39.87842-34.68424-29.74207-72.7989-58.81761-112.25538-83.15061-21.08496-13.51498-48.29888-22.31794-70.74079-33.78757-8.18707-4.06053-21.771-6.09085-26.52788-12.84834-12.27281-14.84838-19.05733-34.46935-27.89995-52.06001l-55.76943-117.61997c-12.24233-26.36332-19.74336-52.72676-34.68424-77.05976-70.06987-114.923-146.26871-184.54349-263.26562-252.83065-25.15558-14.19682-55.0834-20.30282-86.90136-27.72701l-51.01255-2.72725c-10.90074-4.72723-21.771-17.57557-31.29966-23.66642C132.87674,29.87114,32.87916-22.85556,4.29317,46.62852c-18.37129,43.93895,27.21392,87.19606,42.68846,109.514,11.58689,15.5453,26.52777,33.12087,34.71483,50.69644,4.5738,11.48472,6.09837,23.66642,10.87026,35.83298,10.87026,29.74213,21.08508,62.87814,35.37039,90.60515,7.62293,14.19676,15.62703,29.09057,25.15569,41.92377,5.44269,7.57568,14.97135,10.81802,16.99922,22.98458-9.52866,13.53012-10.18422,33.78757-15.62692,50.71158-24.50013,76.39312-14.97147,171.02851,19.71289,227.27031,10.90074,16.89373,36.58997,54.09033,71.44218,39.87842,30.61362-12.16656,23.78351-50.69644,32.62613-84.49915,2.05811-8.10603.68604-13.51498,4.75665-18.93919v1.51511l27.89995,56.10551c21.08496,33.12081,57.82754,67.60531,88.42604,90.60515,16.31318,12.16656,29.24155,33.13596,49.64047,40.5602v-2.04547h-1.3416c-4.08597-6.06056-10.2147-8.78781-15.65739-13.51498-12.24233-12.16656-25.84185-27.04522-35.37051-40.5602-28.55552-37.8481-53.71109-79.77187-76.16836-123.02903-10.90074-20.95437-20.4294-43.93895-29.24155-64.8932-4.11645-8.12117-4.11645-20.30276-10.90074-24.33312-10.2147,14.84838-25.15558,27.72701-32.67196,45.96916-12.9286,29.06029-14.2702,64.8932-19.02685,102.07466-2.74414.68178-1.52468,0-2.74414,1.51511-21.74052-5.39392-29.24155-27.72701-37.39814-46.63591-20.39892-47.99948-23.81398-125.05924-6.12873-180.49811,4.75665-14.19676,25.18605-58.81761,17.02969-72.33259-4.11645-12.84834-17.68526-20.27247-25.18605-30.42397-8.84263-12.84834-18.34082-29.06029-24.46954-43.25717-16.31307-37.87838-24.46966-79.77187-42.17004-117.63511-8.18707-17.57557-22.45715-35.83298-34.0288-52.04492-12.92848-18.25741-27.18333-31.10575-37.39814-52.7267-3.39982-7.57568-8.15659-19.60583-2.71378-27.72701,1.3416-5.40901,4.08586-7.57568,9.49819-8.78781,8.84263-7.57568,34.0288,2.03026,42.87131,6.06056,25.15569,10.15138,46.24065,19.60583,67.32561,33.78751,9.52866,6.75749,19.74336,19.60583,31.98593,22.99978h14.30067c21.771,4.72723,46.24077,1.51511,66.62434,7.57568,36.05655,11.515,68.6978,28.39365,97.96983,46.6662,89.09673,56.10545,162.58189,135.87738,212.22236,231.20969,8.15659,15.5453,11.5563,29.74207,19.05733,45.96916,14.30067,33.13596,31.98593,66.92353,46.24077,99.39284,14.30067,31.77239,27.89995,64.24171,48.29888,90.60515,10.2147,14.19676,51.01255,21.62101,69.36872,29.06029,13.61464,6.06056,34.68424,11.51506,46.95728,18.93919,23.11282,14.19676,46.24077,30.42397,67.99664,45.96916,10.87026,8.09077,44.89917,24.99976,46.92681,38.48445l.07537-.36343ZM227.41615,179.41493c-9.39816-.08265-18.767,1.05319-27.86948,3.37875v1.51511h1.3416c5.44269,10.81808,14.97135,18.25741,21.771,27.72701l15.65739,32.45417,1.3416-1.51511c9.52866-6.75749,14.30067-17.57557,14.30067-33.78751-4.08597-4.72723-4.75665-9.4696-8.15659-14.19682-4.08597-6.75749-12.9286-10.15138-18.38641-15.5453l.00023-.03029Z"/></g></svg>