<?xml version="1.0" encoding="utf-8"?>
<!-- Generator: Adobe Illustrator 27.6.1, SVG Export Plug-In . SVG Version: 6.00 Build 0)  -->
<svg version="1.1" id="Layer_1" xmlns="http://www.w3.org/2000/svg" xmlns:xlink="http://www.w3.org/1999/xlink" x="0px" y="0px"
	 viewBox="0 0 1000 1000" style="enable-background:new 0 0 1000 1000;" xml:space="preserve">
<style type="text/css">
	.st0{fill:none;}
	.st1{fill:#009438;}
	.st2{fill:#FEFEFE;}
</style>
<rect y="0" class="st0" width="1000" height="1000"/>
<path class="st1" d="M64.1,499.7V262.2c0-7.8,4.7-17.2,12.5-20.3L487.5,4.4c7.8-4.7,15.6-6.2,23.4-1.6l414,239
	c7.8,4.7,10.9,12.5,10.9,20.3v476.5c0,7.8-3.1,15.6-10.9,20.3L568.7,963.7c-18.7,10.9-37.5,21.9-56.2,32.8c-7.8,4.7-17.2,4.7-25,0
	L75,759c-7.8-4.7-10.9-10.9-10.9-20.3V499.7L64.1,499.7z"/>
<path class="st2" d="M360.2,413.3v278.1c0,31.2-25,59.4-57.8,57.8c-20.3-1.6-35.9-9.4-46.9-26.6c-6.2-7.8-7.8-17.2-7.8-28.1V308.6
	c0-26.6,15.6-43.7,35.9-53.1c20.3-7.8,40.6-6.2,60.9,0c18.7,6.2,34.4,17.2,46.9,32.8l245.3,295.3c1.6,1.6,1.6,3.1,3.1,4.7V307.1
	c0-29.7,20.3-53.1,48.4-56.2c35.9-4.7,59.4,21.9,64.1,48.4V693c0,21.9-10.9,37.5-28.1,48.4c-14.1,7.8-28.1,9.4-43.7,7.8
	c-23.4-1.6-43.7-10.9-60.9-26.6c-9.4-7.8-15.6-18.7-23.4-28.1L361.7,414.9C361.7,414.9,360.2,413.3,360.2,413.3L360.2,413.3z"/>
</svg>
