<?xml version="1.0" encoding="UTF-8"?>
<svg id="Layer_2" data-name="Layer 2" xmlns="http://www.w3.org/2000/svg" xmlns:xlink="http://www.w3.org/1999/xlink" viewBox="0 0 1000 1000">
  <defs>
    <style>
      .cls-1 {
        clip-path: url(#clippath);
      }

      .cls-2 {
        fill: none;
      }

      .cls-2, .cls-3, .cls-4, .cls-5, .cls-6, .cls-7, .cls-8, .cls-9, .cls-10, .cls-11, .cls-12, .cls-13, .cls-14, .cls-15, .cls-16, .cls-17, .cls-18, .cls-19 {
        stroke-width: 0px;
      }

      .cls-3 {
        fill: url(#linear-gradient);
      }

      .cls-4 {
        fill: url(#linear-gradient-11);
      }

      .cls-5 {
        fill: url(#linear-gradient-12);
      }

      .cls-6 {
        fill: url(#linear-gradient-10);
      }

      .cls-20 {
        clip-path: url(#clippath-1);
      }

      .cls-21 {
        clip-path: url(#clippath-4);
      }

      .cls-22 {
        clip-path: url(#clippath-3);
      }

      .cls-23 {
        clip-path: url(#clippath-2);
      }

      .cls-24 {
        clip-path: url(#clippath-7);
      }

      .cls-25 {
        clip-path: url(#clippath-8);
      }

      .cls-26 {
        clip-path: url(#clippath-6);
      }

      .cls-27 {
        clip-path: url(#clippath-5);
      }

      .cls-28 {
        clip-path: url(#clippath-9);
      }

      .cls-29 {
        clip-path: url(#clippath-13);
      }

      .cls-30 {
        clip-path: url(#clippath-12);
      }

      .cls-31 {
        clip-path: url(#clippath-10);
      }

      .cls-32 {
        clip-path: url(#clippath-11);
      }

      .cls-7 {
        fill: url(#linear-gradient-4);
      }

      .cls-8 {
        fill: url(#linear-gradient-2);
      }

      .cls-9 {
        fill: url(#linear-gradient-3);
      }

      .cls-10 {
        fill: url(#linear-gradient-8);
      }

      .cls-11 {
        fill: url(#linear-gradient-9);
      }

      .cls-12 {
        fill: url(#linear-gradient-7);
      }

      .cls-13 {
        fill: url(#linear-gradient-5);
      }

      .cls-14 {
        fill: url(#linear-gradient-6);
      }

      .cls-15 {
        fill: #808183;
      }

      .cls-16 {
        fill: #898b8d;
      }

      .cls-17 {
        fill: #58595b;
      }

      .cls-18 {
        fill: #403f41;
      }

      .cls-19 {
        fill: #e24525;
      }
    </style>
    <clipPath id="clippath">
      <path class="cls-2" d="m302.9,146.43v-19.21c0-1.6.4-4.4.4-4.4l.8-2v-.8l.8-1.6.4-.4.4-.8.4-.4v-.4l.8-.8v-.4l2.79-2.8.8-.4h.4l1.2-.8h1.2l2.39-1.2c1.59-.4,2.79-.4,4.38-.4h377.07v36.83h35.87v-73.66h-412.94c-29.1,0-53.01,24.42-53.01,54.44v19.21h35.87Z"/>
    </clipPath>
    <clipPath id="clippath-1">
      <path class="cls-2" d="m302.9,146.43v-19.21c0-1.6.4-4.4.4-4.4l.8-2v-.8l.8-1.6.4-.4.4-.8.4-.4v-.4l.8-.8v-.4l2.79-2.8.8-.4h.4l1.2-.8h1.2l2.39-1.2c1.59-.4,2.79-.4,4.38-.4h377.07v36.83h35.87v-73.66h-412.94c-29.1,0-53.01,24.42-53.01,54.44v19.21h35.87Z"/>
    </clipPath>
    <linearGradient id="linear-gradient" x1="-2225.27" y1="1069.83" x2="-2145.21" y2="1069.83" gradientTransform="translate(402.77 1277.08) rotate(62.5) scale(.4 -.76) skewX(-.39)" gradientUnits="userSpaceOnUse">
      <stop offset="0" stop-color="#737373"/>
      <stop offset="1" stop-color="#333"/>
    </linearGradient>
    <clipPath id="clippath-2">
      <path class="cls-2" d="m302.9,146.43v-19.21c0-1.6.4-4.4.4-4.4l.8-2v-.8l.8-1.6.4-.4.4-.8.4-.4v-.4l.8-.8v-.4l2.79-2.8.8-.4h.4l1.2-.8h1.2l2.39-1.2c1.59-.4,2.79-.4,4.38-.4h377.07v36.83h35.87v-73.66h-412.94c-29.1,0-53.01,24.42-53.01,54.44v19.21h35.87Z"/>
    </clipPath>
    <linearGradient id="linear-gradient-2" x1="-3415.13" y1="-860.92" x2="-3331.06" y2="-860.92" gradientTransform="translate(136.03 1572.4) rotate(117.37) scale(.4 -.62) skewX(.32)" xlink:href="#linear-gradient"/>
    <clipPath id="clippath-3">
      <path class="cls-2" d="m697.1,479.09v19.21c0,1.6-.4,4.4-.4,4.4l-.8,2v.8l-.8,1.6-.4.4-.4.8-.4.4v.4l-.8.8v.4l-1.99,2h-.4l-.4.4-.8.4-.4.4-1.2.8h-1.2l-1.99.8c-1.59.4-2.79.4-4.38.4h-377.47v-36.83h-35.87v73.66h412.94c29.1,0,53.01-24.42,53.01-54.44v-19.21h-35.87v.4Z"/>
    </clipPath>
    <clipPath id="clippath-4">
      <path class="cls-2" d="m697.1,479.09v19.21c0,1.6-.4,4.4-.4,4.4l-.8,2v.8l-.8,1.6-.4.4-.4.8-.4.4v.4l-.8.8v.4l-1.99,2h-.4l-.4.4-.8.4-.4.4-1.2.8h-1.2l-1.99.8c-1.59.4-2.79.4-4.38.4h-377.47v-36.83h-35.87v73.66h412.94c29.1,0,53.01-24.42,53.01-54.44v-19.21h-35.87v.4Z"/>
    </clipPath>
    <linearGradient id="linear-gradient-3" x1="764.94" y1="-1577.13" x2="849.01" y2="-1577.13" gradientTransform="translate(-625.27 1352.62) rotate(-117.5) scale(.4 -.76) skewX(-.39)" xlink:href="#linear-gradient"/>
    <clipPath id="clippath-5">
      <path class="cls-2" d="m697.1,479.09v19.21c0,1.6-.4,4.4-.4,4.4l-.8,2v.8l-.8,1.6-.4.4-.4.8-.4.4v.4l-.8.8v.4l-1.99,2h-.4l-.4.4-.8.4-.4.4-1.2.8h-1.2l-1.99.8c-1.59.4-2.79.4-4.38.4h-377.47v-36.83h-35.87v73.66h412.94c29.1,0,53.01-24.42,53.01-54.44v-19.21h-35.87v.4Z"/>
    </clipPath>
    <linearGradient id="linear-gradient-4" x1="2401.85" y1="-1127.15" x2="2481.92" y2="-1127.15" gradientTransform="translate(-358.22 1056.7) rotate(-62.63) scale(.4 -.62) skewX(.32)" xlink:href="#linear-gradient"/>
    <clipPath id="clippath-6">
      <rect class="cls-2" x="302.9" y="220.49" width="137.91" height="36.83"/>
    </clipPath>
    <clipPath id="clippath-7">
      <rect class="cls-2" x="302.9" y="220.49" width="137.91" height="36.83"/>
    </clipPath>
    <linearGradient id="linear-gradient-5" x1="3781.42" y1="-2286.37" x2="3933.69" y2="-2286.37" gradientTransform="translate(-936.23 703.22) rotate(-146.01) scale(1.83 -.49) skewX(62.04)" gradientUnits="userSpaceOnUse">
      <stop offset=".11" stop-color="#58595b"/>
      <stop offset="1" stop-color="#000"/>
    </linearGradient>
    <clipPath id="clippath-8">
      <rect class="cls-2" x="559.19" y="220.49" width="137.91" height="36.83"/>
    </clipPath>
    <clipPath id="clippath-9">
      <rect class="cls-2" x="559.19" y="220.49" width="137.91" height="36.83"/>
    </clipPath>
    <linearGradient id="linear-gradient-6" x1="1597.43" y1="-818.87" x2="1749.7" y2="-818.87" gradientTransform="translate(654.98 703.22) rotate(-33.99) scale(1.83 .49) skewX(62.04)" xlink:href="#linear-gradient-5"/>
    <clipPath id="clippath-10">
      <rect class="cls-2" x="559.19" y="368.2" width="137.91" height="36.83"/>
    </clipPath>
    <clipPath id="clippath-11">
      <rect class="cls-2" x="559.19" y="368.2" width="137.91" height="36.83"/>
    </clipPath>
    <linearGradient id="linear-gradient-7" x1="-4028.22" y1="1882.3" x2="-3875.95" y2="1882.3" gradientTransform="translate(714.73 1552.98) rotate(33.99) scale(1.83 -.49) skewX(62.04)" xlink:href="#linear-gradient-5"/>
    <clipPath id="clippath-12">
      <rect class="cls-2" x="302.9" y="368.2" width="137.91" height="36.83"/>
    </clipPath>
    <clipPath id="clippath-13">
      <rect class="cls-2" x="302.9" y="368.2" width="137.91" height="36.83"/>
    </clipPath>
    <linearGradient id="linear-gradient-8" x1="-2046.69" y1="550.47" x2="-1890.57" y2="550.47" gradientTransform="translate(-877.48 1552.98) rotate(146.01) scale(1.83 .49) skewX(62.04)" xlink:href="#linear-gradient-5"/>
    <linearGradient id="linear-gradient-9" x1="298.41" y1="789.92" x2="472.94" y2="789.92" gradientTransform="translate(-30.1 982.19) scale(1 -1)" gradientUnits="userSpaceOnUse">
      <stop offset=".24" stop-color="#a6a8ab"/>
      <stop offset="1" stop-color="#404040"/>
    </linearGradient>
    <linearGradient id="linear-gradient-10" x1="-1097.57" x2="-923.03" gradientTransform="translate(-359.87 982.19) rotate(-180)" xlink:href="#linear-gradient-9"/>
    <linearGradient id="linear-gradient-11" x1="-929.09" y1="-910.96" x2="-754.55" y2="-910.96" gradientTransform="translate(-192.12 1344.41) rotate(-180) scale(1 -1)" xlink:href="#linear-gradient-9"/>
    <linearGradient id="linear-gradient-12" x1="130.31" y1="-910.96" x2="304.56" y2="-910.96" gradientTransform="translate(137.68 1344.41)" xlink:href="#linear-gradient-9"/>
  </defs>
  <g id="Layer_2-2" data-name="Layer 2">
    <g id="Layer_2-2" data-name="Layer 2-2">
      <g id="Layer_1-2" data-name="Layer 1-2">
        <g>
          <g>
            <g class="cls-1">
              <rect class="cls-16" x="268.62" y="68.77" width="466.75" height="48.04"/>
            </g>
            <g class="cls-20">
              <polygon class="cls-3" points="681.56 118.01 734.17 89.59 748.92 118.41 696.31 146.83 681.56 118.01"/>
            </g>
            <g class="cls-23">
              <polygon class="cls-8" points="275.39 94.39 318.04 117.61 303.3 146.43 260.65 123.61 275.39 94.39"/>
            </g>
            <rect class="cls-18" x="338.77" y="146.43" width="322.46" height="36.83"/>
            <rect class="cls-18" x="338.77" y="442.26" width="322.46" height="36.83"/>
            <g class="cls-22">
              <rect class="cls-16" x="264.63" y="508.71" width="466.75" height="48.04"/>
            </g>
            <g class="cls-21">
              <polygon class="cls-9" points="318.44 507.91 265.83 536.33 251.08 507.11 303.69 478.69 318.44 507.91"/>
            </g>
            <g class="cls-27">
              <polygon class="cls-7" points="725 531.13 681.96 507.91 696.7 479.09 739.75 501.91 725 531.13"/>
            </g>
            <g class="cls-26">
              <rect class="cls-17" x="302.9" y="220.49" width="137.91" height="36.83"/>
            </g>
            <g class="cls-24">
              <polygon class="cls-13" points="426.06 286.94 301.3 219.69 316.05 190.06 441.21 257.32 426.06 286.94"/>
            </g>
            <g class="cls-25">
              <rect class="cls-17" x="559.19" y="220.49" width="137.91" height="36.83"/>
            </g>
            <g class="cls-28">
              <polygon class="cls-14" points="573.94 286.94 699.1 219.69 683.95 190.06 559.19 257.32 573.94 286.94"/>
            </g>
            <g class="cls-31">
              <rect class="cls-17" x="559.19" y="368.2" width="137.91" height="36.83"/>
            </g>
            <g class="cls-32">
              <polygon class="cls-12" points="573.94 338.58 699.1 405.83 683.95 435.45 559.19 368.2 573.94 338.58"/>
            </g>
            <g class="cls-30">
              <rect class="cls-17" x="302.9" y="368.2" width="137.91" height="36.83"/>
            </g>
            <g class="cls-29">
              <polygon class="cls-10" points="426.06 338.58 301.3 405.83 316.05 435.45 441.21 368.2 426.06 338.58"/>
            </g>
            <polygon class="cls-11" points="440.81 220.49 440.81 257.32 267.02 164.04 267.02 127.21 440.81 220.49"/>
            <polygon class="cls-6" points="559.19 220.49 559.19 257.32 732.98 164.04 732.98 127.21 559.19 220.49"/>
            <polygon class="cls-4" points="559.19 405.43 559.19 368.2 732.98 461.48 732.98 498.7 559.19 405.43"/>
            <polygon class="cls-5" points="440.81 405.43 440.81 368.2 267.02 461.48 267.02 498.7 440.81 405.43"/>
            <polygon class="cls-19" points="559.19 331.37 559.19 331.37 559.19 331.37 559.19 331.37 661.23 386.22 661.23 348.99 628.15 331.37 732.98 331.37 732.98 294.14 628.15 294.14 661.23 276.53 661.23 239.7 559.19 294.14 559.19 331.37"/>
            <polygon class="cls-19" points="338.77 386.22 440.81 331.37 440.81 331.37 440.81 331.37 440.81 331.37 440.81 294.14 440.81 294.14 440.81 294.14 338.77 239.7 338.77 276.53 372.25 294.14 267.02 294.14 267.02 331.37 371.85 331.37 338.77 348.99 338.77 386.22"/>
          </g>
          <g>
            <path class="cls-15" d="m140.54,695.14H29.51c-16.3,0-29.51,13.27-29.51,29.65v200.45h121.16c16.3,0,29.51-13.27,29.51-29.87v-200.45h-10.13v.22Zm236.74,230.98h-20.05v-200.23c0-8.19,3.31-15.71,8.59-21.02s12.78-8.63,20.93-8.63h120.96v200.23c0,26.11-20.93,30.31-41.2,30.31-3.31,0-7.49-.22-11.46-.44-2.42-.22-4.85-.22-7.71-.22v-19.91c1.98,0,5.07.22,8.37.22,3.08.22,6.39.22,10.57.22,10.35,0,21.15-1.33,21.15-10.18v-180.32h-102.22c-1.76,1.77-2.86,4.2-2.86,6.86m-67.41-27.66h-105.31c-15.2,0-27.77,12.39-27.77,27.88v201.78h20.05v-91.15h95.18c15.2,0,27.77-12.61,27.77-27.88v-110.62h-9.91Zm-105.31,20.13h95.18v93.59l-.22.22v.22l-.22.22v.44l-.44.44-.22.44-.44.44-.44.22-.44.44h-.22l-.44.22-.22.22h-.22c-.22,0-.44.22-.66.22h-97.38v-92.48l.22-.44v-.44l.22-.22.22-.44v-.22l1.98-1.99h.44l.22-.22h.22l.22-.22h2.42c-.44-.44,0-.66.22-.66h0Zm-180.18-.22h100.89v180.32c0,.88-.22,2.43-.22,2.43l-.44,1.11v.44l-.44.66-.22.22-.22.44-.88.88v.22l-1.1,1.11h-.22l-.22.22-.44.22-.22.22-.66.44h-.66l-1.1.44c-.88.22-1.54.22-2.42.22H19.74v-180.32c0-.88.22-2.43.22-2.43l.44-1.11v-.44l.44-.66.22-.22.22-.44.88-.88v-.22l1.1-1.11h.22l.22-.22.44-.22.22-.22.66-.44h.66l1.1-.44c.88-.22,1.76-.22,2.64-.22h0Zm952.28,48.9c3.08,0,6.17.88,9.03,2.43,2.86,1.55,5.29,3.76,6.83,6.86,1.54,2.88,2.42,5.97,2.42,9.29,0,3.1-.88,6.19-2.42,9.07-1.54,2.88-3.96,5.31-6.83,6.86-2.86,1.55-5.95,2.43-9.25,2.43-3.08,0-6.17-.88-9.25-2.43-2.86-1.55-5.29-3.98-6.83-6.86-1.54-2.88-2.42-5.97-2.42-9.07s.88-6.19,2.42-9.29c1.54-2.88,3.96-5.31,6.83-6.86,3.31-1.55,6.39-2.43,9.47-2.43h0Zm0,3.1c-2.64,0-5.07.66-7.49,1.99s-4.41,3.32-5.73,5.75c-1.32,2.43-1.98,5.09-1.98,7.74s.66,5.31,1.98,7.74c1.32,2.43,3.31,4.42,5.73,5.75s5.07,1.99,7.71,1.99,5.29-.66,7.71-1.99,4.41-3.32,5.73-5.75c1.32-2.43,1.98-5.09,1.98-7.74s-.66-5.31-1.98-7.74c-1.32-2.43-3.31-4.42-5.73-5.75-2.86-1.33-5.29-1.99-7.93-1.99h0Zm7.49,21.68c-.88-1.77-2.2-3.1-2.86-3.76-.44-.44-.88-.88-1.76-1.11,1.76-.22,3.08-.66,4.19-1.77,1.1-1.11,1.54-2.43,1.54-3.76,0-1.11-.22-1.99-.88-2.88s-1.54-1.55-2.42-1.99c-1.1-.44-2.64-.44-5.07-.44h-6.83v19.91h3.08v-8.41h1.98c1.1,0,1.98.44,2.42.88.88.66,2.42,2.43,3.08,3.98.66,1.11,1.1,3.32,1.1,3.32h3.96c-.22-.22-.66-2.43-1.54-3.98h0Zm-7.27-7.3h-3.96v-5.97h3.52c1.54,0,2.64.22,3.31.44s1.1.66,1.32,1.11c.22.44.44.88.44,1.55,0,.88-.44,1.55-1.1,2.21-.44.22-1.54.66-3.52.66h0Z"/>
            <path class="cls-19" d="m604.72,843.15h-32.17v-6.64c0-5.53-.22-9.07-.88-10.62-.66-1.55-2.2-2.21-4.63-2.21-1.98,0-3.52.66-4.63,1.99-1.1,1.33-1.54,3.32-1.54,6.19,0,3.76.22,6.42.66,8.19.44,1.77,1.98,3.54,4.63,5.75,2.42,1.99,7.71,5.09,15.64,9.07,10.57,5.09,17.4,10.18,20.71,14.6,3.31,4.65,4.85,11.28,4.85,19.91,0,9.73-1.32,17.26-3.75,22.12-2.42,4.87-6.83,8.85-12.56,11.5-5.95,2.66-13,3.98-21.37,3.98-9.25,0-17.18-1.55-23.78-4.42s-11.02-6.86-13.66-11.73c-2.42-4.87-3.75-12.39-3.75-22.35v-5.75h32.39v7.52c0,6.42.44,10.62,1.1,12.61.88,1.99,2.42,2.88,4.85,2.88,2.64,0,4.41-.66,5.29-1.99,1.1-1.33,1.54-3.98,1.54-8.19,0-5.75-.66-9.29-1.98-10.84-1.32-1.55-8.37-5.75-21.15-12.83-10.57-5.97-17.18-11.5-19.61-16.37s-3.52-10.84-3.52-17.48c0-9.51,1.32-16.59,3.75-21.24,2.42-4.65,6.83-8.19,12.78-10.62,5.95-2.43,13-3.76,20.93-3.76s14.76,1.11,20.27,3.1,9.91,4.65,12.78,7.96c2.86,3.32,4.85,6.42,5.29,9.29.66,2.88.88,7.3.88,13.27v7.08h.65Zm95.18,23.67h-47.37v26.11c0,5.53.44,8.85,1.1,10.62.88,1.55,2.2,2.43,4.63,2.43,2.86,0,4.63-1.11,5.51-3.1.88-2.21,1.32-6.19,1.32-12.17v-15.04h34.58v8.19c0,7.52-.44,13.05-1.32,17.04s-3.08,8.19-6.61,12.83c-3.31,4.65-7.71,7.96-13,10.18s-11.9,3.32-19.83,3.32-14.54-1.11-20.49-3.32c-5.95-2.21-10.35-5.31-13.66-9.07-3.31-3.98-5.51-8.19-6.83-12.83-1.32-4.65-1.98-11.5-1.98-20.35v-34.96c0-10.4,1.32-18.81,4.19-24.78s7.49-10.62,13.88-13.94,13.88-4.87,22.26-4.87c10.13,0,18.73,1.99,25.33,5.75,6.61,3.98,11.24,9.07,14.1,15.49,2.64,6.42,3.96,15.49,3.96,26.99v15.49h.23Zm-36.35-19.47v-8.85c0-6.19-.44-10.18-1.1-11.95s-1.98-2.66-4.19-2.66c-2.64,0-4.19.88-4.85,2.21-.66,1.55-.88,5.75-.88,12.39v8.85h11.02Zm85.03-42.7l-.66,9.07c3.75-4.42,5.51-5.97,9.25-8.19s8.59-3.1,13.66-3.1c6.17,0,11.24,1.55,15.42,4.42,3.96,2.88,6.61,6.64,7.71,11.28,1.1,4.42,1.76,11.95,1.76,22.57v84.3h-36.35v-83.19c0-8.19-.22-13.27-.88-15.04-.44-1.77-1.98-2.66-4.63-2.66s-4.19,1.11-4.85,3.1c-.66,2.21-.88,7.74-.88,16.81v81.2h-36.35v-120.14h36.79v-.44Zm133.94,38.5h-32.17v-6.64c0-5.53-.22-9.07-.88-10.62-.66-1.55-2.2-2.21-4.63-2.21-1.98,0-3.52.66-4.63,1.99s-1.54,3.32-1.54,6.19c0,3.76.22,6.42.66,8.19.44,1.77,1.98,3.54,4.63,5.75,2.42,1.99,7.71,5.09,15.64,9.07,10.57,5.09,17.4,10.18,20.71,14.6,3.31,4.65,4.85,11.28,4.85,19.91,0,9.73-1.32,17.26-3.75,22.12s-6.83,8.85-12.56,11.5c-5.95,2.66-13,3.98-21.37,3.98-9.25,0-17.18-1.55-23.78-4.42-6.61-2.88-11.02-6.86-13.66-11.73-2.42-4.87-3.75-12.39-3.75-22.35v-5.75h32.39v7.52c0,6.42.44,10.62,1.1,12.61.88,1.99,2.42,2.88,4.85,2.88,2.64,0,4.41-.66,5.29-1.99,1.1-1.33,1.54-3.98,1.54-8.19,0-5.75-.66-9.29-1.98-10.84-1.32-1.55-8.37-5.75-21.15-12.83-10.57-5.97-17.18-11.5-19.61-16.37-2.42-4.87-3.52-10.84-3.52-17.48,0-9.51,1.32-16.59,3.75-21.24,2.42-4.65,6.83-8.19,12.78-10.62,5.95-2.43,13-3.76,20.93-3.76s14.76,1.11,20.27,3.1c5.51,1.99,9.91,4.65,12.78,7.96s4.85,6.42,5.29,9.29c.66,2.88.88,7.3.88,13.27v7.08h.65Zm94.96,23.67h-47.15v26.11c0,5.53.44,8.85,1.1,10.62.88,1.55,2.2,2.43,4.63,2.43,2.86,0,4.63-1.11,5.51-3.1.88-2.21,1.32-6.19,1.32-12.17v-15.04h34.58v8.19c0,7.52-.44,13.05-1.32,17.04s-3.08,8.19-6.61,12.83c-3.31,4.65-7.71,7.96-13,10.18-5.29,2.21-11.9,3.32-19.83,3.32s-14.54-1.11-20.49-3.32c-5.95-2.21-10.35-5.31-13.66-9.07-3.31-3.98-5.51-8.19-6.83-12.83s-1.98-11.5-1.98-20.35v-34.96c0-10.4,1.32-18.81,4.19-24.78,2.86-5.97,7.49-10.62,13.88-13.94s13.88-4.87,22.26-4.87c10.13,0,18.73,1.99,25.33,5.75,6.61,3.98,11.24,9.07,14.1,15.49,2.64,6.42,3.96,15.49,3.96,26.99v15.49Zm-36.35-19.47v-8.85c0-6.19-.44-10.18-1.1-11.95s-1.98-2.66-4.19-2.66c-2.64,0-4.19.88-4.85,2.21-.66,1.55-.88,5.75-.88,12.39v8.85h11.02Z"/>
          </g>
        </g>
        <rect class="cls-2" width="1000" height="1000"/>
      </g>
    </g>
  </g>
</svg>