<?xml version="1.0" encoding="UTF-8"?>
<svg id="Livello_2" xmlns="http://www.w3.org/2000/svg" viewBox="0 0 1000 1000">
  <defs>
    <style>
      .cls-1 {
        fill: none;
      }

      .cls-2 {
        fill: #f04e23;
      }
    </style>
  </defs>
  <g id="Livello_2-2" data-name="Livello_2">
    <g id="Layer_2">
      <g id="Layer_2-2">
        <g id="Layer_2-2-2">
          <g id="Layer_1-2">
            <g>
              <path d="M425,441.87c-12.92,0-26.34,3.54-42.95,12.47l9.23,22.91c14.42-8.09,26.34-11.62,35.07-11.62,9.9,0,14.26,3.71,14.26,8.59v.33c0,3.37-2.69,5.23-9.23,5.9l-11.41,1.18c-28.53,3.03-40.27,15.5-40.27,32.68v1.18c0,16.35,13.42,29.15,32.38,29.15,12.48,0,23.33-5.29,29.92-14.63l2.13,12.95h25.84v-58.8c0-27.8-15.94-42.29-44.97-42.29M422.48,522.22c-9.56,0-14.09-3.71-14.09-9.44v-.33c0-5.06,2.85-8.76,13.25-10.27l4.53-.67c6.62-.93,10.69-2.15,14.43-4.43v7.46c0,11.29-7.05,17.69-18.12,17.69"/>
              <polygon class="cls-2" points="99.15 525.75 182.05 442.54 148.98 409.35 115.91 442.54 132.37 459.06 49.5 542.28 82.54 575.49 115.61 542.28 99.15 525.75"/>
              <polygon class="cls-2" points="0 492.58 82.89 409.34 115.95 442.53 33.05 525.77 0 492.58"/>
              <polygon class="cls-2" points="115.59 542.33 198.49 459.09 231.54 492.28 148.65 575.52 115.59 542.33"/>
              <rect x="486.72" y="408.17" width="29.36" height="134.77"/>
              <path d="M330.36,441.87c-13.35,0-24.07,5.93-29.96,15.22l-2.24-13.54h-25.84v133.07h29.36v-46.13c5.59,8.65,16.16,14.12,28.69,14.12,23.49,0,42.62-20.89,42.62-49.71v-3.37c0-28.79-19.13-49.69-42.62-49.69M342.78,494.07c0,15.16-7.88,26.12-20.97,26.12s-20.97-10.95-20.97-26.12v-1.68c0-15.17,7.88-26.12,20.97-26.12s20.97,10.95,20.97,26.12v1.68Z"/>
              <path d="M912.45,441.87c-30.03,0-51.17,20.89-51.17,49.71v3.37c0,28.81,21.14,49.71,51.17,49.71s51.17-20.89,51.17-49.71v-3.37c0-28.81-21.14-49.71-51.17-49.71M933.43,494.1c0,15.16-7.88,26.12-20.97,26.12s-20.97-10.95-20.97-26.12v-1.68c0-15.17,7.88-26.12,20.97-26.12s20.97,10.95,20.97,26.12v1.68Z"/>
              <path d="M990.71,447.94v-.5c0-2.86-2.18-4.89-6.04-4.89h-6.71v15.5h3.19v-5.23h3.54l2.66,5.23h3.52l-3.28-6.13c1.99-.62,3.11-2.11,3.11-3.98M981.14,445.41h3.52c2.02,0,2.85.67,2.85,2.19v.17c0,1.35-.84,2.19-2.85,2.19h-3.52v-4.55Z"/>
              <path d="M984.06,434.29c-9.06,0-15.94,6.91-15.94,16s6.88,16,15.94,16,15.94-6.91,15.94-16-6.88-16-15.94-16M984.06,464.11c-7.88,0-13.59-5.73-13.59-13.82s5.71-13.82,13.59-13.82,13.59,5.73,13.59,13.82-5.71,13.82-13.59,13.82"/>
              <rect x="745.61" y="408.17" width="29.36" height="134.77"/>
              <path d="M832.73,520.19c-8.56,0-11.75-4.21-11.75-13.31v-40.61h34.56v-22.74h-34.56v-22.75l-29.36,4.38v84.58c0,23.08,11.75,34.88,35.24,34.88,10.4,0,22.65-3.2,32.72-8.93l-8.39-20.89c-5.88,3.2-14.1,5.4-18.46,5.4"/>
              <path d="M683.53,441.87c-12.92,0-26.34,3.54-42.95,12.47l9.23,22.91c14.42-8.09,26.34-11.62,35.07-11.62,9.9,0,14.26,3.71,14.26,8.59v.33c0,3.37-2.69,5.23-9.23,5.9l-11.41,1.18c-28.53,3.03-40.27,15.5-40.27,32.68v1.18c0,16.35,13.42,29.15,32.38,29.15,12.48,0,23.33-5.29,29.92-14.63l2.13,12.95h25.84v-58.8c0-27.8-15.94-42.29-44.97-42.29M681.01,522.22c-9.57,0-14.09-3.71-14.09-9.44v-.33c0-5.06,2.85-8.76,13.25-10.27l4.53-.67c6.62-.93,10.69-2.15,14.42-4.43v7.46c0,11.29-7.04,17.69-18.12,17.69"/>
              <path d="M580.33,441.87c-30.03,0-51.17,20.89-51.17,49.71v3.37c0,28.81,21.14,49.71,51.17,49.71s51.17-20.89,51.17-49.71v-3.37c0-28.81-21.14-49.71-51.17-49.71M601.29,494.1c0,15.16-7.88,26.12-20.97,26.12s-20.97-10.95-20.97-26.12v-1.68c0-15.17,7.88-26.12,20.97-26.12s20.97,10.95,20.97,26.12v1.68Z"/>
              <polygon points="718.15 591.13 707.52 577.04 707.45 577.04 707.45 591.13 700.51 591.13 700.51 566.89 708.04 566.89 718.45 580.6 718.52 580.6 718.52 566.89 725.46 566.89 725.46 591.13 718.15 591.13"/>
              <polygon points="741.92 581.42 741.92 585.2 756.69 585.2 755.95 591.13 734.61 591.13 734.61 566.89 755.95 566.89 755.95 572.75 741.92 572.75 741.92 576.08 753 576.08 753 581.42 741.92 581.42"/>
              <polygon points="771.45 591.13 771.45 573.12 762.59 573.12 762.59 566.89 786.22 566.89 786.95 573.12 778.1 573.12 778.1 591.13 771.45 591.13"/>
              <polygon points="822.39 583.72 826.08 566.89 833.46 566.89 826.82 591.13 817.96 591.13 813.53 576.45 812.79 576.45 808.36 591.13 798.77 591.13 792.86 566.89 800.24 566.89 804.67 583.72 804.67 583.72 809.84 566.89 817.22 566.89 821.65 583.72 822.39 583.72"/>
              <path d="M838.63,578.97c0-7.9,5.34-12.85,13.8-12.85s13.8,4.95,13.8,12.85-5.34,12.85-13.8,12.85-13.8-4.96-13.8-12.85M859.02,578.97c0-4.19-2.41-6.69-6.59-6.69s-6.59,2.5-6.59,6.69,2.41,6.69,6.56,6.69,6.63-2.5,6.63-6.69"/>
              <path d="M874.07,566.89h14.08c6.42,0,9.56,3.05,9.56,8.7,0,3.88-1.59,6.52-4.7,7.76l5.73,7.8h-8.21l-4.45-6.38h-4.76v6.38h-7.25v-24.26ZM887.21,579.08c2.41,0,3.28-1.35,3.28-3.19s-.86-3.15-3.28-3.15h-5.9v6.34h5.9Z"/>
              <polygon points="923.53 578.53 933.12 591.06 933.12 591.13 925 591.13 917.62 581.79 914.67 581.79 914.67 591.13 907.29 591.13 907.29 566.89 914.67 566.89 914.67 575.78 917.62 575.78 924.27 566.89 933.12 566.89 933.12 566.89 923.53 578.53"/>
              <path d="M939.03,589.5v-6.65h.04c4.04,2.05,7.97,3.05,11.38,3.05,2.59,0,3.9-.62,3.9-1.84s-.86-1.53-6.04-2.36c-5.65-.9-9.42-2.6-9.42-7.49,0-4.54,3.97-8.04,11.73-8.04,3.11,0,6.35.66,9.35,1.94v6.58l-.04.04c-2.86-1.66-6.73-2.71-9.83-2.71-2.76,0-3.86.66-3.86,1.76,0,1.42,1.69,1.56,5.94,2.29,5.65.97,9.42,2.56,9.42,7.69,0,3.98-2.97,7.97-11.49,7.97-4.21,0-7.56-.87-11.08-2.25"/>
            </g>
            <rect class="cls-1" width="1000" height="1000"/>
          </g>
        </g>
      </g>
    </g>
  </g>
</svg>