<?xml version="1.0" encoding="UTF-8"?><svg id="Layer_2" xmlns="http://www.w3.org/2000/svg" viewBox="0 0 1000 1000"><defs><style>.cls-1{fill:none;}.cls-2{fill:#7185c1;}.cls-3{fill:#2a71b7;}.cls-4{fill:#2a2b67;}.cls-5{fill:#344898;}</style></defs><g id="Layer_1-2"><rect class="cls-1" width="1000" height="1000"/><circle class="cls-2" cx="487.71916" cy="142.98264" r="31.57895"/><path class="cls-5" d="m289.47357,706.14028c36.84206,0,70.17541-12.28071,96.49119-33.33335,26.31578-21.05264,45.61399-50.8772,56.14027-87.71926,10.52628-36.84206,7.01757-64.91227-7.01757-87.71926-14.03514-21.05264-40.35091-33.33335-78.94734-33.33335-36.84206,0-70.17541,12.28071-96.49119,33.33335-26.31578,21.05264-45.61399,50.8772-56.14027,87.71926-10.52628,36.84206-8.77193,64.91227,7.01757,87.71926,14.03514,22.80706,40.35091,33.33335,78.94734,33.33335"/><path class="cls-3" d="m608.77177,464.03513l33.33335-119.29818h59.64913l22.80706-84.21048c7.01757-26.31578,17.54385-50.8772,28.07014-75.43855,10.52628-22.807,26.31578-43.85963,43.85963-61.40348,17.54385-17.54385,40.35091-31.57892,68.42105-42.10524,26.31578-10.52632,61.40348-15.78946,101.7544-15.78946,10.52642,0,19.29834,0,29.8245,1.75439-8.77193-36.8421-42.10514-64.91227-80.70183-64.91227H84.21055C38.59656,2.63186,0,41.22834,0,86.84237v738.59623l135.08761-480.70159h136.8421l-17.54385,63.15784h1.75436c7.01757-8.77193,17.54385-17.54385,31.57899-26.31578,12.28064-8.77193,26.31578-17.54385,40.35091-24.56142,14.03514-7.01757,29.8245-12.28071,45.61399-17.54385,17.54385-5.26314,33.33335-7.01757,50.8772-7.01757,36.84206,0,64.9122,7.01757,91.22798,17.54385,26.31578,10.52628,45.61399,29.82456,61.40348,50.8772,12.28064,19.29821,21.05257,42.10527,24.56142,70.17541l10.52628-7.01757h-3.50872Z"/><path class="cls-4" d="m987.71882,192.10542c-7.01743-1.75436-14.03514-1.75436-22.80706-1.75436-22.80706,0-42.10514,5.26314-57.89477,15.78949-14.03514,10.52628-26.31578,31.57892-36.84206,63.15784l-21.05257,75.43855h84.21041l21.05257,64.91227-54.38605,52.63156h-84.21055l-101.75386,361.40334h-147.36839l101.7544-361.40334h-56.14027l-12.28064,7.01757c0,1.75436,1.75436,7.01757,1.75436,8.77193,1.75436,29.82456-1.75436,63.15784-12.28064,99.99997-8.77193,33.33335-22.80706,64.91227-42.10527,96.49119-19.29821,31.57892-40.35091,57.8947-64.9122,80.70176-26.31578,22.80706-54.38592,42.10527-84.21055,56.14027-31.57899,14.03514-63.15784,21.05257-98.24555,21.05257-31.57899,0-57.89477-5.26321-82.45605-14.03514-24.56142-8.77193-40.35091-26.31578-50.8772-49.12284h-1.75436l-64.9122,228.07008h815.78915c45.61412,0,84.21055-36.84206,84.21055-84.21055V197.36856c-5.26348-1.75436-8.77219-3.50878-12.28118-5.26314"/></g></svg>