<?xml version="1.0" encoding="utf-8"?>
<!-- Generator: Adobe Illustrator 27.6.1, SVG Export Plug-In . SVG Version: 6.00 Build 0)  -->
<svg version="1.1" id="Layer_2_00000054250747671278449790000004845875464549317560_"
	 xmlns="http://www.w3.org/2000/svg" xmlns:xlink="http://www.w3.org/1999/xlink" x="0px" y="0px" viewBox="0 0 1000 1000"
	 style="enable-background:new 0 0 1000 1000;" xml:space="preserve">
<style type="text/css">
	.st0{fill:#0B5ED8;}
	.st1{fill:#FFFFFF;}
	.st2{fill:none;}
</style>
<g>
	<path class="st0" d="M107.4,21.5C107.4,21.5,268.7,0,502,0c234.8,0,390.6,21.5,390.6,21.5v580.8c0,228.2-177.3,397.8-392.6,397.8
		c-217.1,0-392.6-171.8-392.6-392.6V21.5z"/>
	<g transform="matrix(2.16168 0 0 -2.16168 -413.046 924.185)">
		<g>
			<g>
				<path class="st1" d="M374.1,383.4h-16.9v-22h-17.6v22h-16.9v-55.3h16.9v21.8h17.6v-21.8h16.9V383.4z M432.8,339.2v44.2h-16.9
					v-55.3h30.5l2.5,11.1H432.8L432.8,339.2z M403.4,383.4h-16.9v-55.3h16.9V383.4z M471.9,383.4H455v-55.3h16.9V383.4z
					 M555.1,369.3c0,3,3,4.4,7.9,4.4c5.3,0,11.1-1.2,15-2.8l-1.4,12c-4.4,0.9-8.3,1.6-15.5,1.6c-13.6,0-22.9-5.4-22.9-16.7
					c0-19.4,26.4-15.5,26.4-24.5c0-3.5-2.5-5.3-8.8-5.3c-5.5,0-14.1,1.8-19.2,4.4l1.9-12.7c5.1-1.9,12-2.8,17.6-2.8
					c14.1,0,25.7,4.6,25.7,18.5C581.7,364,555.1,360.5,555.1,369.3 M507.5,341.3c15.7,0,25.7,8.1,25.7,22.2
					c0,15.5-10.6,21.1-28,21.1c-6.7,0-14.8-0.5-20.6-1.2v-55.3h16.9v13.2L507.5,341.3L507.5,341.3z M516.5,363.3
					c0-7.2-3.5-12-12.3-12h-2.1v22.9c1,0.1,1.2,0.1,2.1,0.1C512.6,374.1,516.5,370.2,516.5,363.3 M290.4,341.3
					c15.7,0,25.7,8.1,25.7,22.2c0,15.5-10.6,21.1-28,21.1c-6.7,0-14.8-0.5-20.6-1.2v-55.3h16.9v13.2L290.4,341.3L290.4,341.3z
					 M299.4,363.3c0-7.2-3.5-12-12.3-12h-2v22.9c1,0.1,1.1,0.1,2,0.1C295.4,374.1,299.4,370.2,299.4,363.3"/>
			</g>
		</g>
	</g>
	<path class="st1" d="M161.8,649.4c-1.1-9.5-2.1-29.2-2.4-42c29.3,15.2,73.3,33.2,138.5,33.2c158,0,229.4-118.4,384.9-118.4
		c63.9,0,118.1,18.4,154.7,41.1c1.6,14.2,2.1,28.3,2.6,42.5c-41.7-20.5-84.9-32.7-138.4-32.7c-159.8,0-225,117.6-385.3,117.6
		C254.5,690.7,203,674.8,161.8,649.4L161.8,649.4z"/>
	<path class="st1" d="M162.5,564.7c5.4-47,18.6-82.2,39.8-122l70.7,9c13.4,1.7,23.1,4.6,29.6,11.7c6.2,7,9,11.2,12.7,37.5l10.5,82.5
		c0,0-21.5,3.7-48.2,4C231.2,587.4,189.3,575.5,162.5,564.7L162.5,564.7z M209.5,430.4c24.9-41.2,62-82.1,113-112.9l-8.4,63.7
		c-1.9,13.7-3.3,20.4-10.6,28.9c-6.2,6.8-16.5,9.5-28.5,11.7L209.5,430.4z M339.1,350.6l-4.8-40.4c21-11.9,47.3-23.6,77.5-31.2
		l-5.9,45.2c-2.6,14.2-8.7,18.7-23.8,21L339.1,350.6z M411.5,425.9l-37.6-5.5c-17.7-3.7-27.7-16.1-30.3-38.4l-3.7-26.8l44.6,6.3
		c14.7,1.6,19.9,8.8,21.9,24.5L411.5,425.9L411.5,425.9z"/>
	<path class="st1" d="M332.4,582l9-76.9c5.5-38.3,10.5-48.1,42.7-53.2l91.2-12.1v-6.1l-58.5-7.1l5.8-44.6c1.5-13,7.5-18.9,23.8-20.9
		l47.5-6.4v-3.5l-50.6-6.6c-14.6-2.4-19.2-8.5-20.9-21.8l-5.9-44.9c0,0,35-10.6,83.4-10.6c188.2,0,300,142.2,327.3,246.3
		c-28.6-18.6-87-45.4-157.1-45.4C528.1,468.3,456.1,558.7,332.4,582L332.4,582z M499.8,947.8c-143.9,0-280.4-89.7-327.7-248
		c41.6,26.3,101.4,45.6,159.1,45.6c150.3,0,223.1-95.6,335.6-115.5L655,722.9c-4.2,24-10.8,34.5-39.6,39.2L523,773.9v6.3l86.6,11
		c28.7,3.1,42.1,12.6,45.2,40.9l9.7,72.9C636.1,922.1,575.6,947.8,499.8,947.8L499.8,947.8z M675.9,899.2l7.2-58.2
		c4.8-32.9,10-44.7,42-48.8l66.2-8.5C757.8,837.8,720.4,870.4,675.9,899.2L675.9,899.2z M798,772l-66.9-8.8c-34.4-4-43-12.5-47.4-46
		L672.4,629c0,0,22.9-3.9,48.9-3.9c38.9,0,91.8,12.5,116.5,23.4C832,689.6,824.4,723.1,798,772L798,772z"/>
	<path class="st0" d="M583.6,924.2h2.8l5-37.6c2.4-15.3,8.2-16.5,19.1-18.5l36.7-4.6v-2.8l-39.5-5.1c-10.4-1.6-14.5-7.1-16.1-16.2
		l-5-39.3h-3l-5.1,40c-2.1,9.7-5.9,13.5-16.3,15.3l-39.2,5.3v2.8l37.8,4.8c12.5,1.6,17,7.4,18.3,19.2L583.6,924.2L583.6,924.2z"/>
</g>
<rect class="st2" width="1000" height="1000"/>
</svg>
