<?xml version="1.0" encoding="utf-8"?>
<!-- Generator: Adobe Illustrator 27.6.1, SVG Export Plug-In . SVG Version: 6.00 Build 0)  -->
<svg version="1.1" id="Layer_2_00000054250747671278449790000004845875464549317560_"
	 xmlns="http://www.w3.org/2000/svg" xmlns:xlink="http://www.w3.org/1999/xlink" x="0px" y="0px" viewBox="0 0 1000 1000"
	 style="enable-background:new 0 0 1000 1000;" xml:space="preserve">
<style type="text/css">
	.st0{fill:none;}
	.st1{fill:url(#path281_00000117669751927792602840000007042041878601121945_);}
</style>
<rect class="st0" width="1000" height="1000"/>
<linearGradient id="path281_00000068658508799924310880000005707418138119606707_" gradientUnits="userSpaceOnUse" x1="778.4407" y1="6515.5264" x2="881.4406" y2="6515.5264" gradientTransform="matrix(9.7087 0 0 9.7087 -7557.6782 -62757.5547)">
	<stop  offset="0" style="stop-color:#ED1C24"/>
	<stop  offset="6.000000e-02" style="stop-color:#F03F23"/>
	<stop  offset="0.13" style="stop-color:#F26321"/>
	<stop  offset="0.17" style="stop-color:#F37021"/>
	<stop  offset="0.24" style="stop-color:#F78A1E"/>
	<stop  offset="0.32" style="stop-color:#FBA51B"/>
	<stop  offset="0.37" style="stop-color:#FCAF1A"/>
	<stop  offset="0.41" style="stop-color:#EEB21F"/>
	<stop  offset="0.5" style="stop-color:#C7BA2C"/>
	<stop  offset="0.61" style="stop-color:#8DC63F"/>
	<stop  offset="0.64" style="stop-color:#7DC24D"/>
	<stop  offset="0.76" style="stop-color:#3FB184"/>
	<stop  offset="0.82" style="stop-color:#26AB9A"/>
	<stop  offset="0.88" style="stop-color:#1B9A9F"/>
	<stop  offset="1" style="stop-color:#006EAB"/>
</linearGradient>
<path id="path281" style="fill:url(#path281_00000068658508799924310880000005707418138119606707_);" d="M0.5,572.2v113.9
	c0,5.7,2.3,11.1,6.3,15.1c4.1,4,9.6,6.2,15.3,6.2c5.7,0,11.3-2.2,15.3-6.2c4.1-4,6.3-9.4,6.3-15.1V572.2L0.5,572.2L0.5,572.2z
	 M223.2,572.2v113.9c0,2.8,0.6,5.6,1.6,8.2c1.1,2.6,2.7,4.9,4.7,6.9c2,2,4.4,3.6,7,4.6c2.6,1.1,5.4,1.6,8.3,1.6
	c2.8,0,5.7-0.6,8.3-1.6c2.6-1.1,5-2.6,7-4.6c2-2,3.6-4.3,4.7-6.9c1.1-2.6,1.6-5.4,1.6-8.2V572.2L223.2,572.2L223.2,572.2z
	 M576.8,572.2v10.3c0,54.4-39.5,97.1-89.9,97.1c-59.8,0-88.8-31.8-88.8-95.5v-11.9h-43.3V586c0,84,40.3,127.3,119.5,127.3
	c21,1.1,41.9-4,60.1-14.5c18.1-10.6,32.7-26.2,41.8-44.8v-1.4v35.3c0,5.7,2.3,11.1,6.3,15.1c4.1,4,9.6,6.2,15.3,6.2
	c5.7,0,11.3-2.2,15.3-6.2c4.1-4,6.3-9.4,6.3-15.1V572.2L576.8,572.2z M354.8,425.5v114.9h43.3V425.5c0-5.7-2.3-11.1-6.3-15.1
	c-4.1-4-9.6-6.2-15.3-6.2c-5.7,0-11.3,2.2-15.3,6.2C357.1,414.4,354.8,419.8,354.8,425.5z M576.8,425.5v114.9h43.3V425.5
	c0-5.7-2.3-11.1-6.3-15.1c-4.1-4-9.6-6.2-15.3-6.2c-5.7,0-11.3,2.2-15.3,6.2C579.1,414.4,576.8,419.8,576.8,425.5L576.8,425.5
	L576.8,425.5z M752.7,538.9c5-64.9,48.5-106.8,110.3-106.8c47.4,0,97,28.2,97,106.9v1.3H752.6L752.7,538.9L752.7,538.9z
	 M708.4,540.3h-27.7c-4.3,0-8.4,1.7-11.4,4.7c-3,3-4.7,7-4.7,11.3c0,4.2,1.7,8.3,4.7,11.3c3,3,7.1,4.7,11.4,4.7h27.7
	c6.3,85.8,68.7,140.5,163,140.5c33.4,1.2,66.5-5.2,97-18.6c4-1.3,7.4-3.9,9.7-7.4c2.2-3.5,3.1-7.7,2.5-11.8c-0.2-2-0.9-4-1.9-5.7
	c-1.1-1.7-2.5-3.2-4.2-4.3c-2.8-1.3-5.8-1.9-8.8-1.9c-3,0-6.1,0.6-8.8,1.9c-5.3,1.6-10,3.3-14.7,4.9c-21.2,8.2-43.9,11.9-66.6,11.1
	c-72.9,0-121.1-41.9-122.9-106.9v-1.8H979c2.7,0.3,5.4,0,8-0.8c2.6-0.8,5-2.2,7-4c2-1.8,3.6-4,4.6-6.5c1-2.5,1.5-5.1,1.4-7.8v-2.4
	c0-139.6-106.1-150.5-138.6-150.5c-39.1-1.1-77.1,13-105.7,39.2C727.1,465.6,710.1,501.9,708.4,540.3L708.4,540.3L708.4,540.3z
	 M0.5,307.9v232.5h43.3c0-51.2,30.1-106.5,96.1-106.5c53.7,0,83.3,34.1,83.3,95.5v11h43.3v-10c0-84-40.6-130.3-114-130.3
	c-21.1-1.3-42.1,3.4-60.5,13.6c-18.4,10.2-33.3,25.5-43,44l-5.7,11.5V307.9c0-5.7-2.3-11.1-6.3-15.1c-4.1-4-9.6-6.2-15.3-6.2
	c-5.7,0-11.3,2.2-15.3,6.2c-4.1,4-6.3,9.4-6.3,15.1"/>
</svg>
