<svg version="1.1" id="Layer_1" xmlns="http://www.w3.org/2000/svg" xmlns:xlink="http://www.w3.org/1999/xlink" x="0px" y="0px"
	 width="100%" viewBox="0 0 426 448" enable-background="new 0 0 426 448" xml:space="preserve">
<path fill="#FFFEFE" opacity="1.000000" stroke="none" 
	d="
M279.000000,449.000000 
	C186.026443,449.000000 93.552887,449.000000 1.039664,449.000000 
	C1.039664,299.735809 1.039664,150.471603 1.039664,1.103697 
	C142.890213,1.103697 284.780518,1.103697 426.835419,1.103697 
	C426.835419,150.333191 426.835419,299.666565 426.835419,449.000000 
	C377.804932,449.000000 328.652466,449.000000 279.000000,449.000000 
M72.751091,41.774395 
	C59.729725,34.291435 46.708359,26.808479 32.847469,18.843073 
	C32.847469,37.529789 32.779224,54.842941 32.978374,72.153015 
	C32.994125,73.522453 34.583424,75.335098 35.923061,76.150139 
	C42.606426,80.216255 49.461075,83.999954 56.236504,87.915817 
	C72.890221,97.540825 89.533562,107.183792 106.784492,117.168808 
	C101.921730,120.071495 97.869049,122.484833 93.821877,124.907387 
	C66.225258,141.426163 46.902237,164.406448 38.358795,195.834244 
	C33.504532,213.691086 32.494694,231.998672 32.442104,250.331985 
	C32.270042,310.316254 32.381092,370.301300 32.402836,430.286041 
	C32.403469,432.038361 32.622623,433.790588 32.775608,436.076477 
	C34.599564,435.160583 35.786377,434.632294 36.908451,433.990784 
	C50.066269,426.468231 63.137230,418.788300 76.417908,411.489777 
	C79.847107,409.605194 80.981506,407.493408 80.955223,403.670013 
	C80.783401,378.677612 80.850700,353.683533 80.858627,328.690002 
	C80.859169,326.979828 81.012283,325.269714 81.125694,322.909119 
	C82.990646,324.073456 84.096367,324.746216 85.184761,325.445892 
	C119.796143,347.696686 156.640976,354.401459 195.632675,339.283295 
	C211.845016,332.997284 227.447998,324.811523 242.624832,316.243958 
	C289.608612,289.720734 336.257324,262.603851 383.026398,235.700531 
	C387.125061,233.342834 391.152740,230.861694 395.216492,228.436035 
	C394.694550,227.603241 394.590363,227.219559 394.345978,227.078094 
	C379.501251,218.486191 364.678314,209.855026 349.726776,201.452652 
	C348.531952,200.781204 346.154053,201.195755 344.811798,201.959488 
	C325.994995,212.665985 307.271332,223.536118 288.503876,234.329636 
	C283.669739,237.109833 278.762299,239.762665 273.901154,242.466980 
	C273.417480,241.651855 273.120483,241.384293 273.123444,241.120102 
	C273.151520,238.625412 273.240387,236.131531 273.293610,233.637009 
	C273.726288,213.370987 270.527924,193.844955 261.715790,175.396835 
	C250.385254,151.676392 232.060196,134.358124 209.975174,121.270126 
	C164.710800,94.445602 118.953041,68.453636 72.751091,41.774395 
z"/>
<path fill="#FC3B04" opacity="1.000000" stroke="none" 
	d="
M73.074753,41.946640 
	C118.953041,68.453636 164.710800,94.445602 209.975174,121.270126 
	C232.060196,134.358124 250.385254,151.676392 261.715790,175.396835 
	C270.527924,193.844955 273.726288,213.370987 273.293610,233.637009 
	C273.240387,236.131531 273.151520,238.625412 273.123444,241.120102 
	C273.120483,241.384293 273.417480,241.651855 273.901154,242.466980 
	C278.762299,239.762665 283.669739,237.109833 288.503876,234.329636 
	C307.271332,223.536118 325.994995,212.665985 344.811798,201.959488 
	C346.154053,201.195755 348.531952,200.781204 349.726776,201.452652 
	C364.678314,209.855026 379.501251,218.486191 394.345978,227.078094 
	C394.590363,227.219559 394.694550,227.603241 395.216492,228.436035 
	C391.152740,230.861694 387.125061,233.342834 383.026398,235.700531 
	C336.257324,262.603851 289.608612,289.720734 242.624832,316.243958 
	C227.447998,324.811523 211.845016,332.997284 195.632675,339.283295 
	C156.640976,354.401459 119.796143,347.696686 85.184761,325.445892 
	C84.096367,324.746216 82.990646,324.073456 81.125694,322.909119 
	C81.012283,325.269714 80.859169,326.979828 80.858627,328.690002 
	C80.850700,353.683533 80.783401,378.677612 80.955223,403.670013 
	C80.981506,407.493408 79.847107,409.605194 76.417908,411.489777 
	C63.137230,418.788300 50.066269,426.468231 36.908451,433.990784 
	C35.786377,434.632294 34.599564,435.160583 32.775608,436.076477 
	C32.622623,433.790588 32.403469,432.038361 32.402836,430.286041 
	C32.381092,370.301300 32.270042,310.316254 32.442104,250.331985 
	C32.494694,231.998672 33.504532,213.691086 38.358795,195.834244 
	C46.902237,164.406448 66.225258,141.426163 93.821877,124.907387 
	C97.869049,122.484833 101.921730,120.071495 106.784492,117.168808 
	C89.533562,107.183792 72.890221,97.540825 56.236504,87.915817 
	C49.461075,83.999954 42.606426,80.216255 35.923061,76.150139 
	C34.583424,75.335098 32.994125,73.522453 32.978374,72.153015 
	C32.779224,54.842941 32.847469,37.529789 32.847469,18.843073 
	C46.708359,26.808479 59.729725,34.291435 73.074753,41.946640 
M201.540833,281.869873 
	C201.782562,281.668304 201.982864,281.431641 202.776321,281.010834 
	C203.580887,280.075287 204.385452,279.139740 205.760437,277.997009 
	C206.237793,277.390778 206.715149,276.784576 207.777328,275.995758 
	C208.227020,275.372070 208.676697,274.748413 209.797318,273.959808 
	C213.249496,268.921295 217.083191,264.092010 220.005219,258.762787 
	C221.655563,255.752914 221.806259,251.920761 222.605988,248.190186 
	C222.605988,248.190186 222.774307,247.978912 223.428192,247.640945 
	C224.605911,242.907806 226.530930,238.220703 226.825974,233.433167 
	C227.848709,216.838348 224.717850,201.008209 214.904831,187.280640 
	C211.081619,181.932297 205.721741,177.682404 200.806763,172.526138 
	C200.600372,172.270935 200.344101,172.084244 199.713028,171.377518 
	C191.228363,162.819550 180.408722,158.566284 169.047302,156.222870 
	C154.369156,153.195297 139.766403,154.954132 125.799919,160.394073 
	C122.189323,161.800385 119.128532,164.618256 115.107918,166.925720 
	C111.068695,169.949860 107.029472,172.974014 102.515793,176.318863 
	C102.296547,176.838165 102.077301,177.357483 101.470909,178.143875 
	C101.227142,178.349457 101.033104,178.594421 100.220161,179.026413 
	C92.071640,184.126434 88.516808,192.885559 85.544624,200.946320 
	C79.647163,216.940643 77.926788,233.715439 84.097557,250.334137 
	C87.322487,259.019348 90.837036,267.599976 98.080605,274.695068 
	C102.419884,280.276581 107.007378,285.563049 114.294868,288.638397 
	C120.949615,291.749084 127.433609,295.341949 134.325623,297.782654 
	C138.218765,299.161377 142.782959,298.645111 147.835831,298.900757 
	C148.889053,298.995789 149.942291,299.090820 151.301178,299.593750 
	C151.871109,299.459045 152.441040,299.324341 153.852432,299.033020 
	C155.562897,299.057709 157.273361,299.082397 159.586319,299.653076 
	C164.617645,299.060211 169.976624,299.358978 174.601334,297.659576 
	C181.075928,295.280457 187.003494,291.412567 193.862534,288.054077 
	C195.953995,286.411194 198.045456,284.768311 200.542694,282.868530 
	C200.808792,282.676025 201.014435,282.432465 201.540833,281.869873 
z"/>
<path fill="#E14A27" opacity="1.000000" stroke="none" 
	d="
M97.990555,274.010040 
	C90.837036,267.599976 87.322487,259.019348 84.097557,250.334137 
	C77.926788,233.715439 79.647163,216.940643 85.544624,200.946320 
	C88.516808,192.885559 92.071640,184.126434 100.665909,179.059784 
	C101.111649,179.093140 101.339172,179.302536 101.243851,179.551605 
	C100.926620,180.273697 100.704720,180.746735 100.417282,181.296112 
	C100.351738,181.372467 100.226288,181.529816 99.978806,181.626068 
	C99.341942,182.294479 98.952568,182.866653 98.546219,183.492065 
	C98.529251,183.545319 98.435783,183.606628 98.167480,183.724670 
	C97.544868,184.517929 97.190559,185.193130 96.901314,185.939362 
	C96.966377,186.010376 96.853874,185.854721 96.547661,186.000793 
	C94.957253,188.300552 93.673065,190.454254 92.174286,192.795746 
	C91.636597,193.652756 91.313492,194.321960 90.721390,195.182892 
	C89.975365,196.587692 89.498337,197.800751 89.010117,199.007660 
	C88.998924,199.001511 89.017563,199.021484 88.731567,199.229385 
	C81.892502,214.551544 79.922401,230.299210 85.149826,245.922836 
	C88.352692,255.495514 94.067017,264.227905 98.487732,273.505707 
	C98.321968,273.673767 97.990555,274.010040 97.990555,274.010040 
z"/>
<path fill="#E14A27" opacity="1.000000" stroke="none" 
	d="
M115.815186,166.787720 
	C119.128532,164.618256 122.189323,161.800385 125.799919,160.394073 
	C139.766403,154.954132 154.369156,153.195297 169.047302,156.222870 
	C180.408722,158.566284 191.228363,162.819550 199.715515,171.866943 
	C199.612381,172.487320 199.506760,172.618271 199.096588,172.605591 
	C196.875214,171.288834 194.958389,170.115677 193.020828,168.970551 
	C193.000076,168.998596 193.054306,168.954834 192.912277,168.643860 
	C189.863480,166.840469 186.956696,165.348038 183.849854,163.708832 
	C183.349228,163.399353 183.028671,163.331970 182.459579,163.095673 
	C178.468414,161.628891 174.705765,160.426331 170.639969,159.099213 
	C169.902847,158.943390 169.468872,158.912140 168.749786,158.624680 
	C165.350204,157.905777 162.250305,157.253250 159.118774,157.012527 
	C143.730209,155.829529 129.476639,159.571320 116.068970,167.084549 
	C115.983795,166.986099 115.815186,166.787720 115.815186,166.787720 
z"/>
<path fill="#E14A27" opacity="1.000000" stroke="none" 
	d="
M201.061783,172.932175 
	C205.721741,177.682404 211.081619,181.932297 214.904831,187.280640 
	C224.717850,201.008209 227.848709,216.838348 226.825974,233.433167 
	C226.530930,238.220703 224.605911,242.907806 223.083252,247.390411 
	C223.399780,242.404221 224.061234,237.668564 224.797760,232.501343 
	C224.832367,229.733521 224.791901,227.397293 224.875076,224.631363 
	C223.014908,216.106888 221.031097,208.012085 219.013885,199.673401 
	C218.980484,199.429504 218.704285,199.021912 218.740631,198.775391 
	C218.709274,198.147491 218.483215,197.932999 218.066910,197.944702 
	C218.035019,198.003998 218.125824,197.904449 218.122437,197.544403 
	C215.739792,193.466293 213.360519,189.748215 210.917358,185.794952 
	C210.695435,185.254913 210.453827,185.047318 210.079132,184.599670 
	C208.037979,182.152695 206.046356,180.042984 204.027588,177.965637 
	C204.000443,177.998001 204.066513,177.945511 203.982666,177.631241 
	C202.719406,176.066238 201.539963,174.815506 200.536606,173.407471 
	C200.712677,173.250153 201.061783,172.932175 201.061783,172.932175 
z"/>
<path fill="#FEE0D0" opacity="1.000000" stroke="none" 
	d="
M150.995514,299.185852 
	C149.942291,299.090820 148.889053,298.995789 147.396835,298.717743 
	C146.957840,298.534729 146.966156,298.079010 147.243134,297.761322 
	C147.827515,297.328918 148.133331,297.118347 148.442535,297.113312 
	C159.620499,296.930511 170.696396,296.231689 181.036880,291.285217 
	C181.473358,291.076447 182.376892,291.844086 182.857712,292.440552 
	C174.763000,294.851868 166.873413,296.979492 158.983826,299.107117 
	C157.273361,299.082397 155.562897,299.057709 153.101822,298.999786 
	C151.899307,299.039673 151.447418,299.112762 150.995514,299.185852 
z"/>
<path fill="#E14A27" opacity="1.000000" stroke="none" 
	d="
M159.285065,299.380096 
	C166.873413,296.979492 174.763000,294.851868 183.144928,292.396545 
	C184.125122,291.777130 184.612991,291.485413 185.369736,291.177307 
	C185.774292,291.043243 185.909973,290.925598 186.320984,290.780640 
	C187.032150,290.430389 187.467972,290.107452 188.203094,289.781067 
	C189.007172,289.460114 189.511963,289.142578 190.266418,288.803497 
	C190.733246,288.541229 190.950394,288.300476 191.407990,287.999756 
	C191.648453,287.939819 192.039932,287.635803 192.227005,287.699249 
	C192.414078,287.762695 192.807526,287.798462 192.897552,287.893677 
	C192.987579,287.988861 193.165085,288.181610 193.165085,288.181610 
	C187.003494,291.412567 181.075928,295.280457 174.601334,297.659576 
	C169.976624,299.358978 164.617645,299.060211 159.285065,299.380096 
z"/>
<path fill="#E14A27" opacity="1.000000" stroke="none" 
	d="
M146.966156,298.079010 
	C146.966156,298.079010 146.957840,298.534729 147.001373,298.758575 
	C142.782959,298.645111 138.218765,299.161377 134.325623,297.782654 
	C127.433609,295.341949 120.949615,291.749084 114.276443,288.178619 
	C114.258026,287.718842 114.563362,287.388519 114.885185,287.508911 
	C124.462570,293.047607 134.033737,297.544281 145.348724,297.965729 
	C146.092590,298.084015 146.529373,298.081512 146.966156,298.079010 
z"/>
<path fill="#E14A27" opacity="1.000000" stroke="none" 
	d="
M222.632462,248.459000 
	C221.806259,251.920761 221.655563,255.752914 220.005219,258.762787 
	C217.083191,264.092010 213.249496,268.921295 209.338348,273.917297 
	C208.879379,273.874817 208.633270,273.624054 208.724915,273.317261 
	C209.517471,271.946075 210.218399,270.881653 211.155029,269.788391 
	C211.705322,269.560364 211.807373,269.282898 211.929886,268.677063 
	C213.430618,266.286743 214.698364,264.146545 216.255524,261.821472 
	C217.161621,260.163177 217.778290,258.689758 218.603287,256.972351 
	C219.236221,255.526794 219.660828,254.325272 220.361938,252.928497 
	C221.303116,251.308502 221.967789,249.883759 222.632462,248.459000 
z"/>
<path fill="#FEE0D0" opacity="1.000000" stroke="none" 
	d="
M222.619232,248.324585 
	C221.967789,249.883759 221.303116,251.308502 220.204620,252.610321 
	C220.594681,246.390747 221.361420,240.284897 222.340637,234.213318 
	C222.427856,233.672531 223.895920,233.354431 224.722687,232.932922 
	C224.061234,237.668564 223.399780,242.404221 222.756317,247.559387 
	C222.774307,247.978912 222.605988,248.190186 222.619232,248.324585 
z"/>
<path fill="#E14A27" opacity="1.000000" stroke="none" 
	d="
M114.104874,287.883545 
	C107.007378,285.563049 102.419884,280.276581 98.035583,274.352539 
	C97.990555,274.010040 98.321968,273.673767 98.736816,273.658630 
	C99.772865,274.084412 100.394058,274.525330 101.007080,274.984039 
	C100.998909,275.001801 101.035622,274.988190 101.087555,275.242371 
	C101.432167,275.653046 101.724846,275.809570 102.007889,275.982758 
	C101.998260,275.999451 102.030670,275.979126 102.100891,276.289612 
	C103.107674,277.408173 104.044228,278.216278 104.990242,279.012207 
	C104.999695,279.000000 104.975494,279.020050 105.092964,279.335510 
	C108.328079,282.230194 111.445717,284.809357 114.563354,287.388519 
	C114.563362,287.388519 114.258026,287.718842 114.104874,287.883545 
z"/>
<path fill="#E14A27" opacity="1.000000" stroke="none" 
	d="
M102.990250,175.998154 
	C107.029472,172.974014 111.068695,169.949860 115.461548,166.856720 
	C115.815186,166.787720 115.983795,166.986099 115.927322,167.317108 
	C115.543221,168.063416 115.215591,168.478714 114.945374,168.939667 
	C115.002792,168.985336 114.902176,168.878067 114.555031,168.905258 
	C110.732079,171.540482 107.256271,174.148529 103.583405,176.566452 
	C103.254318,176.250275 103.122284,176.124207 102.990250,175.998154 
z"/>
<path fill="#E14A27" opacity="1.000000" stroke="none" 
	d="
M200.136932,283.125458 
	C198.045456,284.768311 195.953995,286.411194 193.513809,288.117859 
	C193.165085,288.181610 192.987579,287.988861 192.947159,287.693451 
	C192.906738,287.398041 192.964981,286.989502 193.190674,286.920227 
	C193.722443,286.717834 193.935959,286.495728 194.340576,286.128662 
	C195.034882,285.691345 195.445511,285.309937 195.895691,284.941345 
	C195.935226,284.954193 195.938110,284.871094 196.186081,284.823120 
	C196.608582,284.505493 196.783112,284.235901 197.184021,283.882263 
	C197.701096,283.632629 197.913925,283.396820 198.339737,283.084290 
	C198.995621,282.948120 199.360733,282.818481 199.827194,282.799316 
	C199.928558,282.909790 200.136932,283.125458 200.136932,283.125458 
z"/>
<path fill="#E14A27" opacity="1.000000" stroke="none" 
	d="
M205.190018,278.204193 
	C204.385452,279.139740 203.580887,280.075287 202.371674,280.992126 
	C201.967010,280.973419 201.788742,280.790314 201.832886,280.561646 
	C201.877045,280.332947 201.970032,279.876434 202.199661,279.815613 
	C202.723038,279.579315 202.891708,279.321899 203.187714,278.863556 
	C203.899353,278.434326 204.358612,278.123993 204.911499,277.910706 
	C205.005112,278.007782 205.190018,278.204193 205.190018,278.204193 
z"/>
<path fill="#E14A27" opacity="1.000000" stroke="none" 
	d="
M209.002884,273.999756 
	C208.676697,274.748413 208.227020,275.372070 207.383255,275.995667 
	C206.989182,275.995575 206.785309,275.813324 206.829056,275.586548 
	C206.872803,275.359741 206.965042,274.906982 207.188629,274.812897 
	C207.703568,274.490448 207.796661,274.198792 207.922470,273.769775 
	C208.153458,273.695709 208.633270,273.624054 208.633270,273.624054 
	C208.633270,273.624054 208.879379,273.874817 209.002884,273.999756 
z"/>
<path fill="#E14A27" opacity="1.000000" stroke="none" 
	d="
M207.090851,276.086975 
	C206.715149,276.784576 206.237793,277.390778 205.475220,278.100586 
	C205.190018,278.204193 205.005112,278.007782 205.031296,277.648926 
	C205.633423,276.797821 206.209366,276.305573 206.785309,275.813324 
	C206.785309,275.813324 206.989182,275.995575 207.090851,276.086975 
z"/>
<path fill="#E14A27" opacity="1.000000" stroke="none" 
	d="
M151.148346,299.389832 
	C151.447418,299.112762 151.899307,299.039673 152.681091,299.078094 
	C152.441040,299.324341 151.871109,299.459045 151.148346,299.389832 
z"/>
<path fill="#E14A27" opacity="1.000000" stroke="none" 
	d="
M101.858063,177.876785 
	C102.077301,177.357483 102.296547,176.838165 102.753021,176.158508 
	C103.122284,176.124207 103.254318,176.250275 103.442642,176.796539 
	C103.103577,177.576553 102.708229,177.936386 102.199783,178.190704 
	C102.086685,178.085190 101.858063,177.876785 101.858063,177.876785 
z"/>
<path fill="#E14A27" opacity="1.000000" stroke="none" 
	d="
M199.877960,172.161224 
	C200.344101,172.084244 200.600372,172.270935 200.934265,172.729156 
	C201.061783,172.932175 200.712677,173.250153 200.353271,173.301300 
	C199.761444,173.185593 199.563873,172.984512 199.401138,172.749207 
	C199.506760,172.618271 199.612381,172.487320 199.877960,172.161224 
z"/>
<path fill="#E14A27" opacity="1.000000" stroke="none" 
	d="
M101.000229,178.985962 
	C101.033104,178.594421 101.227142,178.349457 101.664490,178.010330 
	C101.858063,177.876785 102.086685,178.085190 102.101257,178.412888 
	C101.921761,179.017502 101.662880,179.204819 101.339172,179.302536 
	C101.339172,179.302536 101.111649,179.093140 101.000229,178.985962 
z"/>
<path fill="#E14A27" opacity="1.000000" stroke="none" 
	d="
M201.159637,282.137848 
	C201.014435,282.432465 200.808792,282.676025 200.339813,282.997009 
	C200.136932,283.125458 199.928558,282.909790 199.950943,282.595581 
	C200.199295,282.041962 200.473328,281.888306 200.886276,281.899994 
	C200.977112,281.979614 201.159637,282.137848 201.159637,282.137848 
z"/>
<path fill="#E14A27" opacity="1.000000" stroke="none" 
	d="
M202.054382,281.066650 
	C201.982864,281.431641 201.782562,281.668304 201.350235,282.003845 
	C201.159637,282.137848 200.977112,281.979614 200.922028,281.688477 
	C200.866928,281.397369 200.914307,280.970856 201.131317,280.917938 
	C201.348312,280.865021 201.788742,280.790314 201.788742,280.790314 
	C201.788742,280.790314 201.967010,280.973419 202.054382,281.066650 
z"/>
<path fill="#FEFEFE" opacity="1.000000" stroke="none" 
	d="
M208.724915,273.317261 
	C208.633270,273.624054 208.153458,273.695709 207.775269,273.723083 
	C207.397079,273.750488 207.094345,273.688538 206.999191,273.404236 
	C204.289749,275.756348 201.675461,278.392761 198.809479,281.205872 
	C198.388168,281.951996 198.218567,282.521362 198.048950,283.090759 
	C197.913925,283.396820 197.701096,283.632629 196.931717,283.842590 
	C196.282928,283.894775 196.112854,283.902588 195.540710,283.931152 
	C191.276154,284.096436 187.700531,284.596802 187.903793,289.784515 
	C187.467972,290.107452 187.032150,290.430389 186.301086,290.532349 
	C185.777145,290.129028 185.548462,289.946747 185.319778,289.764435 
	C185.246811,290.240845 185.173828,290.717285 185.100861,291.193695 
	C184.612991,291.485413 184.125122,291.777130 183.350037,292.112854 
	C182.376892,291.844086 181.473358,291.076447 181.036880,291.285217 
	C170.696396,296.231689 159.620499,296.930511 148.442535,297.113312 
	C148.133331,297.118347 147.827515,297.328918 147.243134,297.761322 
	C146.529373,298.081512 146.092590,298.084015 145.266327,297.606262 
	C142.589966,296.427124 140.217072,295.928925 138.032074,294.992401 
	C130.944931,291.954681 123.870743,288.874329 116.903084,285.574921 
	C112.809280,283.636383 110.720062,278.016327 104.975494,279.020050 
	C104.975494,279.020050 104.999695,279.000000 104.999901,278.643036 
	C104.010292,277.517090 103.020477,276.748108 102.030670,275.979126 
	C102.030670,275.979126 101.998260,275.999451 101.936157,275.742065 
	C101.594582,275.319183 101.315102,275.153687 101.035622,274.988190 
	C101.035622,274.988190 100.998909,275.001801 101.018738,274.587585 
	C100.308418,272.251862 99.817902,270.192078 98.803841,268.434418 
	C95.571014,262.830872 91.319206,257.657227 89.029053,251.713348 
	C86.850082,246.058075 87.056107,239.532333 85.462090,233.590927 
	C83.468651,226.160828 85.077866,219.043808 86.228012,211.854614 
	C86.918495,207.538620 88.072098,203.296692 89.017563,199.021484 
	C89.017563,199.021484 88.998924,199.001511 89.351486,198.977295 
	C90.132828,197.632446 90.561600,196.311798 90.990372,194.991165 
	C91.313492,194.321960 91.636597,193.652756 92.575836,192.884598 
	C97.462761,192.086868 97.057785,188.917679 96.853874,185.854721 
	C96.853874,185.854721 96.966377,186.010376 97.267937,185.933746 
	C97.858261,185.106949 98.147018,184.356796 98.435783,183.606628 
	C98.435783,183.606628 98.529251,183.545319 98.923676,183.625092 
	C99.620827,182.979843 99.923553,182.254822 100.226288,181.529816 
	C100.226288,181.529816 100.351738,181.372467 100.758652,181.497772 
	C105.292412,178.377899 109.469025,175.192505 113.501968,171.834534 
	C114.262199,171.201538 114.450150,169.881226 114.902176,168.878067 
	C114.902176,168.878067 115.002792,168.985336 115.339874,168.992142 
	C116.501190,168.917557 117.398750,169.020416 118.138283,168.726151 
	C125.334511,165.862640 132.283417,161.866440 139.743622,160.321091 
	C147.225906,158.771179 155.211533,159.675949 162.974579,159.439713 
	C164.998474,159.378128 167.014999,159.073761 169.034912,158.880905 
	C169.468872,158.912140 169.902847,158.943390 170.722534,159.439056 
	C174.968201,161.055603 178.828156,162.207733 182.688095,163.359863 
	C183.028671,163.331970 183.349228,163.399353 183.859085,164.080200 
	C185.644745,168.977341 189.183807,169.307892 193.054306,168.954834 
	C193.054306,168.954834 193.000076,168.998596 192.999939,169.342499 
	C196.688690,172.439453 200.377609,175.192474 204.066513,177.945511 
	C204.066513,177.945511 204.000443,177.998001 203.995758,178.364105 
	C203.753296,183.057327 206.424408,184.507965 210.128677,184.936966 
	C210.453827,185.047318 210.695435,185.254913 210.897964,186.179657 
	C210.487366,191.559677 213.033417,195.495636 218.125824,197.904449 
	C218.125824,197.904449 218.035019,198.003998 218.054810,198.181931 
	C218.166214,198.693069 218.376114,198.913757 218.704285,199.021912 
	C218.704285,199.021912 218.980484,199.429504 218.966599,200.096710 
	C219.987625,205.897018 220.923187,211.052917 222.095062,216.154541 
	C222.787231,219.167770 223.853439,222.095093 224.751434,225.061050 
	C224.791901,227.397293 224.832367,229.733521 224.797760,232.501343 
	C223.895920,233.354431 222.427856,233.672531 222.340637,234.213318 
	C221.361420,240.284897 220.594681,246.390747 219.928116,252.805573 
	C219.660828,254.325272 219.236221,255.526794 218.234055,256.936951 
	C214.210327,259.073792 213.871918,260.046967 215.966125,262.006348 
	C214.698364,264.146545 213.430618,266.286743 211.729065,268.751892 
	C211.042435,269.258881 210.917114,269.505676 210.919312,269.817200 
	C210.218399,270.881653 209.517471,271.946075 208.724915,273.317261 
z"/>
<path fill="#FEE0D0" opacity="1.000000" stroke="none" 
	d="
M88.731567,199.229385 
	C88.072098,203.296692 86.918495,207.538620 86.228012,211.854614 
	C85.077866,219.043808 83.468651,226.160828 85.462090,233.590927 
	C87.056107,239.532333 86.850082,246.058075 89.029053,251.713348 
	C91.319206,257.657227 95.571014,262.830872 98.803841,268.434418 
	C99.817902,270.192078 100.308418,272.251862 101.026917,274.569824 
	C100.394058,274.525330 99.772865,274.084412 98.902588,273.490540 
	C94.067017,264.227905 88.352692,255.495514 85.149826,245.922836 
	C79.922401,230.299210 81.892502,214.551544 88.731567,199.229385 
z"/>
<path fill="#FEE0D0" opacity="1.000000" stroke="none" 
	d="
M114.555031,168.905258 
	C114.450150,169.881226 114.262199,171.201538 113.501968,171.834534 
	C109.469025,175.192505 105.292412,178.377899 100.824188,181.421417 
	C100.704720,180.746735 100.926620,180.273697 101.243851,179.551605 
	C101.662880,179.204819 101.921761,179.017502 102.214348,178.518402 
	C102.708229,177.936386 103.103577,177.576553 103.639694,176.986664 
	C107.256271,174.148529 110.732079,171.540482 114.555031,168.905258 
z"/>
<path fill="#FEE0D0" opacity="1.000000" stroke="none" 
	d="
M96.547661,186.000793 
	C97.057785,188.917679 97.462761,192.086868 92.790421,192.696808 
	C93.673065,190.454254 94.957253,188.300552 96.547661,186.000793 
z"/>
<path fill="#FEE0D0" opacity="1.000000" stroke="none" 
	d="
M90.721390,195.182892 
	C90.561600,196.311798 90.132828,197.632446 89.362679,198.983444 
	C89.498337,197.800751 89.975365,196.587692 90.721390,195.182892 
z"/>
<path fill="#FEE0D0" opacity="1.000000" stroke="none" 
	d="
M98.167480,183.724670 
	C98.147018,184.356796 97.858261,185.106949 97.202873,185.862732 
	C97.190559,185.193130 97.544868,184.517929 98.167480,183.724670 
z"/>
<path fill="#FEE0D0" opacity="1.000000" stroke="none" 
	d="
M99.978806,181.626068 
	C99.923553,182.254822 99.620827,182.979843 98.940643,183.571838 
	C98.952568,182.866653 99.341942,182.294479 99.978806,181.626068 
z"/>
<path fill="#FEE0D0" opacity="1.000000" stroke="none" 
	d="
M168.749786,158.624680 
	C167.014999,159.073761 164.998474,159.378128 162.974579,159.439713 
	C155.211533,159.675949 147.225906,158.771179 139.743622,160.321091 
	C132.283417,161.866440 125.334511,165.862640 118.138283,168.726151 
	C117.398750,169.020416 116.501190,168.917557 115.282455,168.946472 
	C115.215591,168.478714 115.543221,168.063416 116.012497,167.415558 
	C129.476639,159.571320 143.730209,155.829529 159.118774,157.012527 
	C162.250305,157.253250 165.350204,157.905777 168.749786,158.624680 
z"/>
<path fill="#FEE0D0" opacity="1.000000" stroke="none" 
	d="
M203.982666,177.631241 
	C200.377609,175.192474 196.688690,172.439453 193.020691,169.314453 
	C194.958389,170.115677 196.875214,171.288834 199.096588,172.605591 
	C199.563873,172.984512 199.761444,173.185593 200.177200,173.458618 
	C201.539963,174.815506 202.719406,176.066238 203.982666,177.631241 
z"/>
<path fill="#FEE0D0" opacity="1.000000" stroke="none" 
	d="
M192.912277,168.643860 
	C189.183807,169.307892 185.644745,168.977341 184.059174,164.226990 
	C186.956696,165.348038 189.863480,166.840469 192.912277,168.643860 
z"/>
<path fill="#FEE0D0" opacity="1.000000" stroke="none" 
	d="
M182.459579,163.095673 
	C178.828156,162.207733 174.968201,161.055603 171.025696,159.563629 
	C174.705765,160.426331 178.468414,161.628891 182.459579,163.095673 
z"/>
<path fill="#FEE0D0" opacity="1.000000" stroke="none" 
	d="
M224.875076,224.631363 
	C223.853439,222.095093 222.787231,219.167770 222.095062,216.154541 
	C220.923187,211.052917 219.987625,205.897018 219.000000,200.340607 
	C221.031097,208.012085 223.014908,216.106888 224.875076,224.631363 
z"/>
<path fill="#FEE0D0" opacity="1.000000" stroke="none" 
	d="
M218.122437,197.544403 
	C213.033417,195.495636 210.487366,191.559677 210.961838,186.414856 
	C213.360519,189.748215 215.739792,193.466293 218.122437,197.544403 
z"/>
<path fill="#FEE0D0" opacity="1.000000" stroke="none" 
	d="
M210.079132,184.599670 
	C206.424408,184.507965 203.753296,183.057327 204.022903,178.331757 
	C206.046356,180.042984 208.037979,182.152695 210.079132,184.599670 
z"/>
<path fill="#FEE0D0" opacity="1.000000" stroke="none" 
	d="
M218.740631,198.775391 
	C218.376114,198.913757 218.166214,198.693069 218.086700,198.122620 
	C218.483215,197.932999 218.709274,198.147491 218.740631,198.775391 
z"/>
<path fill="#FEE0D0" opacity="1.000000" stroke="none" 
	d="
M188.203094,289.781067 
	C187.700531,284.596802 191.276154,284.096436 195.544327,284.171753 
	C195.950027,284.391663 195.938110,284.871094 195.938110,284.871094 
	C195.938110,284.871094 195.935226,284.954193 195.601013,284.985840 
	C194.863495,285.406525 194.460190,285.795563 194.056885,286.184601 
	C193.935959,286.495728 193.722443,286.717834 193.003906,286.976562 
	C192.347229,287.217682 192.163391,287.395538 192.039932,287.635803 
	C192.039932,287.635803 191.648453,287.939819 191.169037,288.046295 
	C190.376297,288.287781 190.152008,288.511871 190.016754,288.825012 
	C189.511963,289.142578 189.007172,289.460114 188.203094,289.781067 
z"/>
<path fill="#FEE0D0" opacity="1.000000" stroke="none" 
	d="
M185.369736,291.177307 
	C185.173828,290.717285 185.246811,290.240845 185.319778,289.764435 
	C185.548462,289.946747 185.777145,290.129028 186.025742,290.559662 
	C185.909973,290.925598 185.774292,291.043243 185.369736,291.177307 
z"/>
<path fill="#FED7C0" opacity="1.000000" stroke="none" 
	d="
M190.266418,288.803528 
	C190.152008,288.511871 190.376297,288.287781 190.928574,288.106262 
	C190.950394,288.300476 190.733246,288.541229 190.266418,288.803528 
z"/>
<path fill="#FED7C0" opacity="1.000000" stroke="none" 
	d="
M192.227005,287.699249 
	C192.163391,287.395538 192.347229,287.217682 192.778214,287.045837 
	C192.964981,286.989502 192.906738,287.398041 192.857132,287.598267 
	C192.807526,287.798462 192.414078,287.762695 192.227005,287.699249 
z"/>
<path fill="#FEE0D0" opacity="1.000000" stroke="none" 
	d="
M105.092964,279.335510 
	C110.720062,278.016327 112.809280,283.636383 116.903084,285.574921 
	C123.870743,288.874329 130.944931,291.954681 138.032074,294.992401 
	C140.217072,295.928925 142.589966,296.427124 144.959229,297.485474 
	C134.033737,297.544281 124.462570,293.047607 114.885178,287.508911 
	C111.445717,284.809357 108.328079,282.230194 105.092964,279.335510 
z"/>
<path fill="#FEE0D0" opacity="1.000000" stroke="none" 
	d="
M216.255524,261.821472 
	C213.871918,260.046967 214.210327,259.073792 218.025726,257.180969 
	C217.778290,258.689758 217.161621,260.163177 216.255524,261.821472 
z"/>
<path fill="#FED7C0" opacity="1.000000" stroke="none" 
	d="
M211.155029,269.788391 
	C210.917114,269.505676 211.042435,269.258881 211.496094,269.002045 
	C211.807373,269.282898 211.705322,269.560364 211.155029,269.788391 
z"/>
<path fill="#FEE0D0" opacity="1.000000" stroke="none" 
	d="
M102.100891,276.289612 
	C103.020477,276.748108 104.010292,277.517090 104.990448,278.655243 
	C104.044228,278.216278 103.107674,277.408173 102.100891,276.289612 
z"/>
<path fill="#FEE0D0" opacity="1.000000" stroke="none" 
	d="
M101.087555,275.242371 
	C101.315102,275.153687 101.594582,275.319183 101.945793,275.725342 
	C101.724846,275.809570 101.432167,275.653046 101.087555,275.242371 
z"/>
<path fill="#FED7C0" opacity="1.000000" stroke="none" 
	d="
M198.339737,283.084290 
	C198.218567,282.521362 198.388168,281.951996 199.117615,281.194000 
	C200.089737,280.993866 200.502029,280.982361 200.914307,280.970856 
	C200.914307,280.970856 200.866928,281.397369 200.831177,281.608887 
	C200.473328,281.888306 200.199295,282.041962 199.849579,282.485077 
	C199.360733,282.818481 198.995621,282.948120 198.339737,283.084290 
z"/>
<path fill="#FED7C0" opacity="1.000000" stroke="none" 
	d="
M194.340561,286.128662 
	C194.460190,285.795563 194.863495,285.406525 195.561462,284.972992 
	C195.445511,285.309937 195.034882,285.691345 194.340561,286.128662 
z"/>
<path fill="#FED7C0" opacity="1.000000" stroke="none" 
	d="
M196.186081,284.823120 
	C195.938110,284.871094 195.950027,284.391663 195.946411,284.151031 
	C196.112854,283.902588 196.282928,283.894775 196.705322,283.926636 
	C196.783112,284.235901 196.608582,284.505493 196.186081,284.823120 
z"/>
<path fill="#FEE0D0" opacity="1.000000" stroke="none" 
	d="
M201.131317,280.917938 
	C200.502029,280.982361 200.089737,280.993866 199.369324,281.017273 
	C201.675461,278.392761 204.289749,275.756348 206.955826,273.709137 
	C206.993423,274.501221 206.979233,274.704102 206.965042,274.906982 
	C206.965042,274.906982 206.872803,275.359741 206.829056,275.586548 
	C206.209366,276.305573 205.633423,276.797821 204.937683,277.551849 
	C204.358612,278.123993 203.899353,278.434326 202.980347,278.956726 
	C202.258438,279.343506 202.074921,279.579407 201.970032,279.876434 
	C201.970032,279.876434 201.877045,280.332947 201.832886,280.561646 
	C201.788742,280.790314 201.348312,280.865021 201.131317,280.917938 
z"/>
<path fill="#FED7C0" opacity="1.000000" stroke="none" 
	d="
M202.199661,279.815613 
	C202.074921,279.579407 202.258438,279.343506 202.727966,279.075623 
	C202.891708,279.321899 202.723038,279.579315 202.199661,279.815613 
z"/>
<path fill="#FED7C0" opacity="1.000000" stroke="none" 
	d="
M207.188629,274.812897 
	C206.979233,274.704102 206.993423,274.501221 207.050980,273.993469 
	C207.094345,273.688538 207.397079,273.750488 207.544281,273.797180 
	C207.796661,274.198792 207.703568,274.490448 207.188629,274.812897 
z"/>
</svg>