<?xml version="1.0" encoding="UTF-8"?><svg id="Layer_2" xmlns="http://www.w3.org/2000/svg" viewBox="0 0 1000 1000"><defs><style>.cls-1{fill:none;}.cls-2{fill:#eb671b;}</style></defs><g id="Layer_1-2"><rect class="cls-1" width="1000" height="1000"/><path class="cls-2" d="m926.79559,406.07736c27.62431,0,46.96124,22.09943,46.96124,46.96135v500.00005c0,27.62431-22.09953,46.96124-46.96124,46.96124H73.20451c-27.62431,0-46.96135-22.09953-46.96135-46.96124h0V46.96135C26.24317,19.33704,48.34259,0,73.20451,0h104.97235c27.62431,0,46.96124,22.09943,46.96124,46.96135v314.91716c2.76239,22.09943,19.33693,41.43646,41.43646,44.19885h77.34815c24.86192-2.76239,44.19885-22.09943,44.19885-44.19885V46.96135c0-27.62431,22.09953-46.96135,46.96124-46.96135h104.97246c27.62431,0,46.96124,22.09943,46.96124,46.96135v312.15467c0,24.86192,19.33693,44.19885,41.43646,46.96135h298.34262Zm-138.12154,342.54147v-96.68508c0-27.62431-22.09953-46.96135-46.96124-46.96135h-104.97246c-27.62431,0-46.96124,22.09943-46.96124,46.96135v96.68508c0,27.62431,22.09953,46.96135,46.96124,46.96135h104.97246c27.62431,2.76239,46.96124-19.33704,46.96124-46.96135h0Z"/></g></svg>