<?xml version="1.0" encoding="UTF-8"?><svg id="Layer_2" xmlns="http://www.w3.org/2000/svg" xmlns:xlink="http://www.w3.org/1999/xlink" viewBox="0 0 1000 1000"><defs><style>.cls-1{fill:none;}.cls-2{fill:url(#linear-gradient);}.cls-3{fill:red;}.cls-4{fill:#980200;}</style><linearGradient id="linear-gradient" x1="-3092.36035" y1="-16180.18686" x2="-1695.28043" y2="-16180.18686" gradientTransform="translate(1323.39335 -5823.13254) scale(.36943 -.36943)" gradientUnits="userSpaceOnUse"><stop offset="0" stop-color="#12b212"/><stop offset="1" stop-color="lime"/></linearGradient></defs><g id="Layer_1-2"><rect class="cls-1" width="1000" height="1000"/><path class="cls-2" d="m441.50778,307.31959C316.67122,294.00472,190.91108,199.64614,180.98265,0c193.71987,0,297.31419,114.67723,307.31958,296.3906,36.63516-217.9637,208.34313-192.41146,208.34313-192.41146,8.15823,123.52815-93.28107,198.41472-208.34313,204.64883-32.32513-68.11366-225.96802-235.20377-225.96802-235.20377-.22703-.19232-.56699-.16419-.75931.06285-.13006.15353-.16372.36673-.08729.55286,0,0,186.87002,162.78009,180.02015,233.27967"/><path class="cls-4" d="m500.00025,1000c-12.08333-.68752-124.83335-5.00003-131.66666-131.66666-5.5625-76.97916,55.25001-133.70832,55.25001-208.43752-13.79168-186.33334-263.45833-163.25001-263.45833,0-.10458,40.80089,16.04335,79.96368,44.87501,108.83331l186.02083,186.08332c28.86963,28.83164,68.03246,44.97957,108.83331,44.87499"/><path class="cls-3" d="m839.87524,659.97918c-.68752,12.08337-5.00003,124.83335-131.66666,131.66666-76.97916,5.56246-133.79169-55.25001-208.43752-55.25001-186.33334,13.77082-163.25001,263.37496,0,263.37496,40.80085.10459,79.96368-16.04335,108.83331-44.87499l186.16668-186.02085c28.83164-28.86963,44.97957-68.03242,44.87499-108.83331"/><path class="cls-4" d="m500.00025,320.10416c12.08333.6875,124.83335,5,131.68748,131.66666,5.54168,76.97916-55.27083,133.70836-55.27083,208.43748,13.79168,186.33334,263.37496,163.22915,263.37496,0,.11007-40.79787-16.03015-79.96027-44.85416-108.83331l-186.10414-186.18751c-28.87305-28.82401-68.03544-44.96425-108.83331-44.85414"/><path class="cls-3" d="m160.75025,659.97918c.6875-12.08333,5-124.85417,131.66667-131.68748,76.97918-5.54168,133.77084,55.25001,208.4375,55.25001,186.33334-14.00002,163.22915-263.375,0-263.375-40.80085-.10459-79.96368,16.04335-108.83331,44.87499l-186.18753,186.10414c-28.82403,28.87305-44.96428,68.03548-44.85416,108.83335"/></g></svg>