<?xml version="1.0" encoding="UTF-8"?><svg id="Layer_2" xmlns="http://www.w3.org/2000/svg" viewBox="0 0 1000 1000"><defs><style>.cls-1{fill:none;}.cls-2{fill:#fff;}.cls-3{fill:#ad2115;}.cls-4{fill:#d82c20;}.cls-5{fill:#a41e11;}.cls-6{fill:#7a0c00;}</style></defs><g id="Layer_1-2"><rect class="cls-1" width="1000" height="1000"/><path class="cls-5" d="m960.42521,732.03432c-53.20689,27.61376-330.01765,141.43614-388.61271,172.41743-58.59505,30.98129-91.59678,30.30774-138.06861,8.08215-46.47183-22.2256-340.79378-140.76259-393.32712-166.35592C14.1501,733.38141.00645,722.60529.00645,712.50271v-101.02581s383.22454-83.51463,444.51357-105.74043c61.96258-22.2256,83.51463-22.89914,136.04818-3.36753,52.53334,19.53162,367.06045,76.10603,418.92045,94.9643v99.67872c.67334,10.10258-11.44967,20.87871-39.06344,35.02236h0Z"/><path class="cls-4" d="m960.42521,631.00851c-53.20689,27.61376-330.01765,141.43614-388.61271,172.41743-58.59505,30.98129-91.59678,30.30774-138.06861,8.08215-46.47183-22.2256-340.79378-140.76259-393.32712-166.35592-53.20689-25.59312-53.88043-42.43076-2.02043-63.30947l406.12368-157.60023c61.96258-22.2256,83.51463-22.89914,136.04818-3.36753,52.53355,19.53162,327.32367,128.63958,379.18347,147.49765,52.53334,18.85807,54.55398,35.02216.67355,62.63592h0Z"/><path class="cls-5" d="m960.42521,567.02549c-53.20689,27.61376-330.01765,141.43614-388.61271,172.41743-58.59505,30.98129-91.59678,30.30774-138.06861,8.08215-46.47183-22.2256-340.79378-140.76259-393.32712-166.35592C14.1501,568.37259.00645,557.59646.00645,547.49388v-101.02581s383.22454-83.51463,444.51357-105.74043c61.96258-22.2256,83.51463-22.89914,136.04818-3.36753,52.53355,19.53162,367.06045,76.10603,418.92045,94.9643v99.67872c.67334,10.10258-11.44967,20.87871-39.06344,35.02236h0Z"/><path class="cls-4" d="m960.42521,465.99968c-53.20689,27.61376-330.01765,141.43614-388.61271,172.41743-58.59505,30.98129-91.59678,30.30774-138.06861,8.08215-46.47183-22.2256-340.79378-140.76259-393.32712-166.35592-53.20689-25.59312-53.88043-42.43076-2.02043-63.30947l406.12368-157.60023c61.96258-22.2256,83.51463-22.89914,136.04818-3.36753,52.53355,19.53162,327.32367,128.63958,379.18347,147.49765,52.53334,19.53162,54.55398,35.02216.67355,62.63592h0Z"/><path class="cls-5" d="m960.42521,396.62871c-53.20689,27.61376-330.01765,141.43614-388.61271,172.41743-58.59505,30.98129-91.59678,30.30774-138.06861,8.08215-46.47183-22.2256-340.79378-140.76259-393.32712-166.35592C14.1501,397.9758.00645,387.19967.00645,377.09709v-101.02581s383.22454-83.51463,444.51357-105.74043c61.96258-22.2256,83.51463-22.89914,136.04818-3.36753,52.53355,19.53162,367.06045,76.10603,418.92045,94.9643v99.67872c.67334,9.42903-11.44967,20.87871-39.06344,35.02236h0Z"/><path class="cls-4" d="m960.42521,295.60289c-53.20689,27.61376-330.01765,141.43614-388.61271,172.41743-58.59505,30.98129-91.59678,30.30774-138.06861,8.08215-46.47183-22.2256-340.79378-140.76259-393.32712-166.35592-53.20689-25.59312-53.88043-42.43076-2.02043-63.30947L444.52002,88.83685c61.96258-22.2256,83.51463-22.89914,136.04818-3.36753,52.53355,19.53162,327.32367,128.63958,379.18347,147.49765,52.53334,18.85807,54.55398,34.34861.67355,62.63592h0Z"/><path class="cls-2" d="m544.19874,206.7001l-19.53162,46.47183-31.65484-51.86-100.35227-8.75549,74.75914-26.94022-22.2256-41.08387,70.04452,27.61376,66.00345-21.55226-17.51118,42.43076,67.35054,24.91978-86.88216,8.75569Zm-185.88733,150.86517l231.68582-35.6957-70.04452,102.37291-161.6413-66.6772Z"/><ellipse class="cls-2" cx="295.67529" cy="272.0302" rx="123.92496" ry="47.81893"/><path class="cls-6" d="m870.17553,264.6216l-136.72152,53.88043v-108.43441l136.72152,54.55398Z"/><path class="cls-3" d="m733.45381,210.74117v108.43441l-14.8172,6.06151-136.72152-53.88043,151.53872-60.61549Z"/></g></svg>