<?xml version="1.0" encoding="UTF-8"?>
<svg id="Livello_2" data-name="Livello 2" xmlns="http://www.w3.org/2000/svg" viewBox="0 0 1000 1000">
  <defs>
    <style>
      .cls-1 {
        fill: none;
      }
    </style>
  </defs>
  <g id="Livello_2-2" data-name="Livello 2">
    <g id="Layer_2" data-name="Layer 2">
      <g id="Layer_2-2" data-name="Layer 2-2">
        <g id="Layer_2-2-2" data-name="Layer 2-2-2">
          <g id="Layer_1-2" data-name="Layer 1-2">
            <rect class="cls-1" x="0" width="1000" height="1000"/>
          </g>
        </g>
      </g>
      <g id="g4">
        <path id="path1" d="M356.26,588c-36.26,0-69.86-10.8-92.26-30.94-16.2-14.56-25.35-35.4-25.1-57.18-.05-21.68,9.07-42.38,25.1-56.98,20.8-18.9,57.6-30.9,92.26-30.9,38.34,0,69.04,9.66,92.5,30.94,15.97,14.6,24.98,35.3,24.76,56.94-.11,21.64-9.05,42.3-24.76,57.18-21.86,20.26-56.18,30.94-92.5,30.94v-23.16c19.22,0,37.06-6.64,49.52-19.04s18.12-27.44,18.12-46-6.22-34.28-18.12-46c-12.3-12.1-30.56-18.92-49.52-18.92s-37.3,6.76-49.6,18.92c-11.86,11.74-18,28.36-18,46-.36,17.12,6.12,33.67,18,46,12.3,12.26,30.52,19.04,49.6,19.04v23.16ZM91.5,412c-19.38,0-41.4,3.64-60,12C14.14,431.76,0,444.22,0,464.88c-.03,10.82,4.09,21.24,11.5,29.12,5.02,4.64,13.12,12.52,34.28,17.16,9.46,2,29.68,5.22,49.82,7.34,20.14,2.12,39.66,4,47.66,6.14,6.36,1.62,17.06,3.82,17.06,15.82s-11.26,15.6-13.22,16.38c-1.96.78-15.48,6.98-39.76,6.98-16.09-.45-32.03-3.19-47.34-8.14-9.06-3.24-18.56-7.5-27.42-18.32-3.58-5.1-5.56-11.14-5.7-17.36H4.88v61.6h24.44v-8.34c-.01-1.92,1.54-3.49,3.46-3.5.64,0,1.27.17,1.82.5,11.51,5.01,23.49,8.88,35.76,11.56,12.84,2.68,21.14,4.62,37.1,4.62,16.84.32,33.63-2.05,49.72-7.02,10.69-2.93,20.71-7.88,29.54-14.58,10.06-7.73,15.92-19.73,15.82-32.42.08-11.89-4.51-23.34-12.78-31.88-4.6-4.47-9.93-8.11-15.76-10.78-6.27-2.83-12.77-5.1-19.44-6.78-12.68-3.1-41.16-6.98-54.78-8.34-14.28-1.48-39.06-3.54-48.96-6.6-3-.94-9.12-3.84-9.12-10.94,0-5.06,2.8-9.34,8.32-12.8,8.78-5.5,26.5-8.92,44.98-8.92,17.89-.22,35.63,3.25,52.12,10.18,4.43,1.93,8.6,4.42,12.4,7.4,6.2,5.29,10.49,12.47,12.22,20.44h19.74v-53.62h-22v6.22c0,2-2,4.64-6,2.46-9.92-5.16-37.8-16.32-71.98-16.46ZM574.48,421.84l107.52,97.02-1.1-65.32c-.12-8.58-1.68-12.16-10.96-12.16h-20.2v-19.54h92v19.54h-19.74c-9.44,0-10,3.04-10.16,12.16l1.66,124.82h-31.5l-123.86-110.52v78.42c.1,8.54.5,12.56,9.28,12.56h22v19.54h-90.18v-19.54h21.12c7.88,0,7.56-7.52,7.56-13v-91.54c0-6-.84-12.88-13.2-12.88h-17.12v-19.56h76.88ZM846.7,558.78c1.82,0,3.64-.11,5.44-.34,1.9-.57,3.45-1.94,4.24-3.76.28-1.39.42-2.8.42-4.22v-30.9c0-1.04,0-1.06-1.32-2.7s-56.32-64-58.82-66.8c-3.12-3.4-8.6-8.66-16.94-8.66h-19.1v-19.56h107.8v19.52h-13c-3,0-5,2.86-2.44,6,0,0,36.28,43.4,36.62,43.86.34.46.64.56,1.1.14s37.18-43.6,37.46-44c1.25-1.64.93-3.99-.71-5.24-.71-.54-1.6-.81-2.49-.76h-13.34v-19.52h88.38v19.56h-19.74c-7.16,0-10,1.32-15.46,7.4l-59.5,67.88c-.58.84-.84,1.86-.72,2.88v30.88c.01,1.42.16,2.83.44,4.22.78,1.82,2.32,3.2,4.22,3.76,1.79.24,3.59.35,5.4.34h20.18v19.56h-107.24v-19.56l19.12.02Z"/>
      </g>
    </g>
  </g>
</svg>