<?xml version="1.0" encoding="UTF-8"?>
<svg id="Livello_2" xmlns="http://www.w3.org/2000/svg" viewBox="0 0 1000 1000">
  <defs>
    <style>
      .cls-1 {
        fill: none;
      }

      .cls-2 {
        fill: #007aff;
      }
    </style>
  </defs>
  <g id="Layer_2">
    <g id="Layer_2-2">
      <g id="Layer_2-2-2" data-name="Layer_2-2">
        <g id="Layer_1-2">
          <rect class="cls-1" width="1000" height="1000"/>
          <g>
            <path id="path13161" class="cls-2" d="M7.93,553.28h75.34c13.13,0,20.32-1.24,24.53-3.96,5.21-3.23,8.18-8.66,8.18-15.11,0-7.69-3.97-14.38-10.66-17.6-3.47-1.98-9.92-2.97-17.85-2.97h-30.49c-19.82,0-32.71-3.47-41.38-10.9-9.91-8.68-15.61-22.06-15.61-36.43,0-21.06,11.64-39.41,28.75-45.36,7.43-2.73,16.11-3.46,35.44-3.46h81.78v29.49h-73.85c-15.62.24-16.86.24-22.05,1.48-6.94,1.73-11.15,8.18-11.15,16.84,0,7.45,3.46,13.39,9.42,16.11,4.96,2.23,8.92,2.73,20.82,2.73h26.51c24.29,0,37.42,3.72,47.09,13.63,7.43,7.43,12.4,22.06,12.4,36.44,0,17.59-8.18,33.94-21.06,41.88-8.18,5.2-18.58,6.69-43.12,6.69H7.93v-29.49h0Z"/>
            <path id="path13163" class="cls-2" d="M249.56,416.22c-23.3,0-43.62,5.71-56.5,16.11-16.35,12.89-25.03,36.94-25.03,68.66,0,22.05,4.69,40.16,14.37,53.78,12.88,18.6,37.92,29.01,69.65,29.01,22.3,0,41.15-5.46,53.54-15.38,16.35-13.12,25.54-36.94,25.54-65.94l-.07-4.73-.2-4.65-.33-4.53-.44-4.44-.58-4.33-.72-4.2-.83-4.06-.96-3.93-.52-1.92-.56-1.88-.58-1.86-.61-1.79-.62-1.78-.67-1.73-.7-1.67-.73-1.66-.74-1.58-.77-1.56-.81-1.51-.83-1.45-.87-1.42-.88-1.38-.91-1.32-.94-1.27c-12.65-16.39-36.21-25.57-65.7-25.57ZM249.8,444.21c29.5,0,42.63,17.37,42.63,56.02s-13.39,55.76-42.63,55.76-43.12-17.6-43.12-56.26l.02-1.63.02-1.61.03-1.58.07-1.56.07-1.53.07-1.51.09-1.48.11-1.46.13-1.43.14-1.39.15-1.35.17-1.34.18-1.32.2-1.3.22-1.25.22-1.25.25-1.2.27-1.16.27-1.16.29-1.12.31-1.1.31-1.08.33-1.02.36-1.01.38-.98.38-.96.41-.91.42-.91.42-.87.45-.83.47-.81.47-.77c6.69-10.67,19.33-16.64,35.44-16.64Z"/>
            <path id="path13167" class="cls-2" d="M349.95,417.47v165.31h35.17v-57.77h56.53c18.83,0,27.73-2.46,37.4-10.64,11.4-9.66,18.34-25.77,18.34-43.12,0-14.62-5.2-28.26-14.86-38.67-10.9-12.14-21.08-15.1-50.07-15.1h-82.51ZM385.12,446.96h48.57c5.7,0,10.16.49,12.89,1.48,7.69,2.72,12.15,10.66,12.15,21.56,0,9.18-2.73,17.11-7.19,20.83l-.35.31-.36.31-.38.3-.37.3-.41.26-.4.25-.42.24-.44.23-.45.21-.47.23-.47.19-.49.19-.52.18-.52.15-.54.16-.56.16-.57.12-.58.1-.61.11-.62.11-.64.09-.65.09-.69.07-.69.09-.71.05-.76.05-.76.05-.78.05h-.81s-.83.04-.83.04h-.85l-.88.02h-47.84v-48.56h.01Z"/>
            <polygon id="polygon13171" class="cls-2" points="647.83 582.76 612.64 582.76 612.64 514.61 548.95 514.61 548.95 582.76 513.75 582.76 513.75 417.47 548.95 417.47 548.95 485.12 612.64 485.12 612.64 417.47 647.83 417.47 647.83 582.76"/>
            <path id="path13173" class="cls-2" d="M750.44,416.22c-23.29,0-43.62,5.71-56.5,16.11-16.35,12.89-25.05,36.94-25.05,68.66,0,22.05,4.71,40.16,14.39,53.78,12.87,18.6,37.91,29.01,69.64,29.01,22.31,0,41.14-5.46,53.52-15.38,16.35-13.12,25.53-36.94,25.53-65.94l-.07-4.73-.2-4.65-.33-4.53-.45-4.44-.59-4.33-.72-4.2-.83-4.06-.94-3.93-.53-1.92-.53-1.88-.58-1.86-.62-1.79-.62-1.78-.67-1.73-.7-1.67-.72-1.66-.76-1.58-.78-1.56-.8-1.51-.83-1.45-.87-1.42-.87-1.38-.93-1.32-.94-1.27c-12.63-16.39-36.15-25.57-65.65-25.57ZM750.7,444.21c29.48,0,42.62,17.37,42.62,56.02s-13.39,55.76-42.62,55.76-43.12-17.6-43.12-56.26v-1.63l.02-1.61.05-1.58.04-1.56.07-1.53.1-1.51.09-1.48.1-1.46.1-1.43.13-1.39.18-1.35.16-1.34.18-1.32.21-1.3.21-1.25.23-1.25.24-1.2.26-1.16.27-1.16.3-1.12.31-1.1.31-1.08.35-1.02.35-1.01.36-.98.38-.96.4-.91.43-.91.42-.87.45-.83.47-.81.5-.77c6.68-10.67,19.32-16.64,35.44-16.64Z"/>
            <path id="path13177" class="cls-2" d="M852.8,553.28h75.34c13.12,0,20.31-1.24,24.53-3.96,5.2-3.23,8.17-8.66,8.17-15.11,0-7.69-3.96-14.38-10.65-17.6-3.48-1.98-9.91-2.97-17.84-2.97h-30.49c-19.82,0-32.71-3.47-41.39-10.9-9.91-8.68-15.62-22.06-15.62-36.43,0-21.06,11.64-39.41,28.75-45.36,7.43-2.73,16.12-3.47,35.44-3.47h81.78v29.49h-73.85c-15.62.24-16.86.24-22.05,1.48-6.95,1.73-11.16,8.18-11.16,16.84,0,7.45,3.48,13.39,9.43,16.11,4.94,2.23,8.91,2.73,20.81,2.73h26.51c24.28,0,37.42,3.72,47.1,13.63,7.43,7.43,12.38,22.05,12.38,36.43,0,17.6-8.17,33.94-21.06,41.88-8.17,5.2-18.58,6.69-43.12,6.69h-83.02v-29.49h0Z"/>
          </g>
        </g>
      </g>
    </g>
  </g>
</svg>