<?xml version="1.0" encoding="utf-8"?>
<!-- Generator: Adobe Illustrator 27.6.1, SVG Export Plug-In . SVG Version: 6.00 Build 0)  -->
<svg version="1.1" id="Layer_2_00000151526664613851291000000010195219845337994420_"
	 xmlns="http://www.w3.org/2000/svg" xmlns:xlink="http://www.w3.org/1999/xlink" x="0px" y="0px" viewBox="0 0 1000 1000"
	 style="enable-background:new 0 0 1000 1000;" xml:space="preserve">
<style type="text/css">
	.st0{fill:none;}
	.st1{fill:#99BF00;}
	.st2{fill:#FFFFFF;}
	.st3{fill:#FFA300;}
</style>
<g id="Layer_1-2">
	<rect class="st0" width="1000" height="1000"/>
</g>
<g>
	<path class="st1" d="M815.3,177.4C680.3,146.1,720.5,0,501.9,0h-3.9C279.5,0,319.7,146.1,184.7,177.4S22,378.7,92.7,530
		c110.5,230,302.2,470,405.3,470h3.9c103.1,0,294.8-240,405.3-470C978,378.7,950.4,208.7,815.3,177.4L815.3,177.4z"/>
	<path class="st2" d="M748.6,247.2c-105.8-24.5-74.3-139-245.6-139h-3c-171.3,0-139.8,114.5-245.6,139
		c-105.8,24.5-127.5,157.7-72,276.3c86.6,180.3,236.9,368.4,317.7,368.4h3c80.8,0,231.1-188.1,317.7-368.4
		C876.1,404.9,854.4,271.7,748.6,247.2z"/>
	<g>
		<path class="st3" d="M393.7,432h214.1c4.9,0,8.9,4,8.9,8.9v187.2c0,4.9-4,8.9-8.9,8.9H393.7c-4.9,0-8.9-4-8.9-8.9V440.9
			C384.7,436,388.7,432,393.7,432z"/>
		<path class="st1" d="M442.3,408.3v-32.1c0-27.9,18.8-53.6,46.2-58.9c36.9-7.2,69.2,21,69.2,56.6v34.4c0,3,2.5,5.5,5.5,5.5h20.7
			c3,0,5.5-2.5,5.5-5.5v-30.4c0-46.7-34-88.4-80.5-92.9c-53.3-5.2-98.3,36.7-98.3,89v34.4c0,3,2.5,5.5,5.5,5.5h20.7
			C439.8,413.8,442.3,411.4,442.3,408.3L442.3,408.3z"/>
		<path class="st2" d="M535.3,511.2c0-19.1-15.5-34.6-34.6-34.6c-19.1,0-34.6,15.5-34.6,34.6c0,11.4,5.9,21.1,14.4,27.4v38.9
			c0,8.1,6.6,14.7,14.7,14.7h10.8c8.1,0,14.7-6.6,14.7-14.7v-38.9C529.4,532.3,535.3,522.7,535.3,511.2L535.3,511.2z"/>
	</g>
</g>
</svg>
