<?xml version="1.0" encoding="utf-8"?>
<!-- Generator: Adobe Illustrator 27.6.1, SVG Export Plug-In . SVG Version: 6.00 Build 0)  -->
<svg version="1.1" id="Layer_2_00000150820128909350002060000006925287021161089441_"
	 xmlns="http://www.w3.org/2000/svg" xmlns:xlink="http://www.w3.org/1999/xlink" x="0px" y="0px" viewBox="0 0 1000 1000"
	 style="enable-background:new 0 0 1000 1000;" xml:space="preserve">
<style type="text/css">
	.st0{fill:none;}
	.st1{fill:#28B5C8;}
	.st2{fill:#009DE0;}
	.st3{fill:#7E8083;}
	.st4{fill:#8A8B8E;}
	.st5{fill:#95979A;}
	.st6{fill:#86878A;}
	.st7{fill:#828386;}
	.st8{fill:#77797C;}
	.st9{fill:#7B7D80;}
	.st10{fill:#A1A3A6;}
	.st11{fill:#8D8E91;}
	.st12{fill:#909194;}
	.st13{fill:#929497;}
	.st14{fill:#9C9DA0;}
	.st15{fill:#9FA0A3;}
	.st16{fill:#717376;}
	.st17{fill:#9A9B9E;}
	.st18{fill:#A4A6A8;}
	.st19{fill:#09A1E1;}
	.st20{fill:#0BA1E1;}
	.st21{fill:#0AA0E1;}
	.st22{fill:#757679;}
	.st23{fill:#049FE1;}
	.st24{fill:#019DE0;}
</style>
<g id="Layer_1-2">
	<rect class="st0" width="1000" height="1000"/>
	<g>
		<path class="st1" d="M551.3,970.6c0,16.2-13.2,29.4-29.4,29.4s-29.4-13.2-29.4-29.4c0-16.2,13.2-29.4,29.4-29.4l0,0
			c14.8-1.4,28,9.5,29.3,24.4l0,0c0,0.4,0.1,0.8,0.1,1.1L551.3,970.6L551.3,970.6z"/>
		<path class="st2" d="M156,151.2c27.2-1.3,40.7,11.1,40.7,37.4c0,80.7,0.6,161.5-0.4,242.2c-0.2,18.3,7.2,20.3,22.3,20
			c15-0.3,27.2-0.6,23.4-20.7c-0.4-3.7-0.4-7.4-0.1-11.1c-0.4-14,10.6-25.7,24.6-26.2c4.8-0.1,9.6,1.1,13.7,3.5
			c7.1,3.7,4.5,10.3,4.6,15.7c0.2,29.6,1.2,59.3-0.2,88.9c-1.2,24.7,16.4,14.2,27.3,16.4c13.8,2.8,17.5-3,17.3-16.8
			c-0.8-55.5,0.6-111.1-0.8-166.6c-0.5-19,8.3-19.1,22.5-19.6c15.5-0.6,20.1,3.9,20,19.6c-0.7,117.8,0.5,235.5-0.6,353.3
			c-1.1,113.5,32.1,212.5,117.8,290.7c4.4,2.8,7,7.8,6.7,13.1h-17.8c-7.2-4.7-15.4-1.1-23-2.4c-65.5-5.1-127.7-31.2-177.3-74.3
			c-44.2-38.7-77.7-87.9-97.5-143.2c-16.2-46.6-25.6-95.3-28-144.5v-8.9c2.9-7.6,3.6-15.9,2.2-23.9c0.2-139.6,0.2-279.2,0.2-418.8
			C152,167,152.8,158.7,156,151.2L156,151.2z"/>
		<path d="M626.9,790.6c3.7-31.6,5.6-63.3,5.7-95c-0.3-166.5-0.4-333.1-0.2-499.6c-0.7-24.4,1.2-48.8,5.5-72.8
			C650.7,61.3,695.1,20.6,764.1,8.9C786,5.2,808.3,4.1,830.4,1c13.2-1.9,18.2,1.4,17.9,15.9c-0.9,48.1-0.4,96.2-0.4,144.3
			c0,94.7,2.6,189.6-0.7,284.2c-2.2,89.8-30.1,177.1-80.3,251.5C735,746,684.4,779.9,626.9,790.6L626.9,790.6z"/>
		<path class="st3" d="M565.9,981.4c-18.5,8.6-40.5,3.3-53.1-12.8c-3.6-40.2-4.3-80.6-2.2-120.9c0.1-17,9.7-23.6,26.2-20.2
			c5.1,1,10.3,1,15.3,2.1c8.3,7.3,7.1,17.4,7.3,26.8c0.4,23.6,0.4,47.2,0.1,70.8C558.4,945.4,560.6,963.8,565.9,981.4L565.9,981.4
			L565.9,981.4z"/>
		<path class="st4" d="M610.4,821.8c12.5-5,25.7-8.2,39.1-9.5c7.9-1.4,7.3,3.9,4.4,7.3c-8.8,13.8-12.3,30.4-9.9,46.6
			c1.3,31,0.6,62.1-2.2,93c-6.6,4.8-14.3,7.9-22.4,8.7c-9.7,1-18.3-6.1-19.3-15.7c-0.1-1.1-0.1-2.2,0-3.2
			c-0.8-35.4-0.7-70.8-0.1-106.2C600.6,834.7,604.4,827.2,610.4,821.8L610.4,821.8z"/>
		<path class="st5" d="M699,790.3l31.7-21.9c9.6,0,10.6,7.8,10.7,13.9c2.7,36.8,2.2,73.8-1.5,110.5c-8.2,11.2-18.8,20.5-30.9,27.3
			c-7.6-3.6-11.9-11.7-10.8-20C697.7,863.5,695.9,826.8,699,790.3L699,790.3z"/>
		<path class="st6" d="M610.4,821.8c-4.7,24.8-6.1,50.2-4,75.4c-0.7,16.2,0.8,32.6-0.4,48.8c-1.6,9.7,4.1,19,13.4,22
			c-11.1,5.3-23.1,8.6-35.4,9.6c-7.8-4.6-12.1-13.4-10.9-22.4c-0.1-38.7-2.1-77.4,1.1-116c0.4-4.8,4.9-8.4,4.2-13.5
			C588.6,821.9,599.6,820.6,610.4,821.8L610.4,821.8z"/>
		<path class="st7" d="M579.5,830.9c0,40.4,0,80.7,0,121.1c-1,8.8,0.6,17.7,4.5,25.6l-18.1,3.8c-9.1-3.3-14.7-12.4-13.5-21.9
			c0.9-42.8,0.4-85.7,0.4-128.5C561.3,827.5,570.9,827.5,579.5,830.9L579.5,830.9L579.5,830.9z"/>
		<path class="st8" d="M502.5,960.4c-15.5-10.9-28.9-24.6-39.3-40.5c-0.9-35.5-6.4-71.2,4.8-106.1l39.9,8.6
			c-10.4,42-10.7,85.8-0.6,127.9C508.5,954.6,512.2,960.8,502.5,960.4L502.5,960.4z"/>
		<path class="st9" d="M502.5,960.4c-14-37.2-5.1-76-8.1-114c-1.8-10.2,3.9-20.2,13.5-23.9c23.5,1.1,46.9,2.2,70.4,3.3
			c2.3,1.3,5.1,2.5,1.1,5.2l-26.8,0c-3,0.2-5.9,0.2-8.9-0.1c-21-3.4-28.6,4.5-27.3,26.3c1.8,30.1,0.6,60.4,0.4,90.6
			c-0.1,7.1,2.5,14.9-4.1,20.8C508.4,967.3,504.7,964.4,502.5,960.4z"/>
		<path class="st10" d="M794.7,693.5l17.4-31.3c14.2,0.1,15.3,11.3,17.7,21c0.6,9.4,2.2,18.8,4.8,27.9
			c-3.5,28.2-12.4,55.4-26.3,80.1c-15.9,10.5-15.6-3.9-16-11.8C789.9,750.8,790.7,722,794.7,693.5L794.7,693.5z"/>
		<path class="st11" d="M641.8,959.2c-3.5-49.3-15.2-99,7.7-146.9c3.3-1.3,6.6-2.5,10-3.8c8.8-4.2,10.4,0.4,9.5,7.8
			c-3.8,43.2-3.9,86.7-0.3,130C660.8,952.6,651.6,956.9,641.8,959.2z"/>
		<path class="st12" d="M668.7,946.4c-6.5-5-9.9-13.1-9-21.2c2.5-38.4-4.5-77.2,3.9-115.4c0-0.1-2.7-0.8-4.1-1.1
			c6.5-4.8,14-7.9,21.9-9.2c5-1.1,6.9,2.2,6.9,6c2,43.7,1.3,87.5-2.1,131.1L668.7,946.4L668.7,946.4z"/>
		<path class="st13" d="M686.2,936.4c-5.1-18.4-6.4-37.6-3.9-56.6c-1.1-26.8-0.7-53.7-0.9-80.5c5.9-3,11.7-6,17.6-9.1
			c9.2,7.5,4.6,17.8,5.3,26.9c2.8,34.2-5.3,69,4.7,102.9L686.2,936.4L686.2,936.4L686.2,936.4z"/>
		<path class="st14" d="M784.9,835.6c-5.2,11.9-12.7,22.6-22.1,31.5c-11.5,2-14.7-5.7-14.9-14.3c-2.4-33.8-1.8-67.8,1.8-101.6l27-31
			c11.7,4.1,5.6,13.6,5.8,20.6C781,772.4,781.8,804.1,784.9,835.6L784.9,835.6z"/>
		<path class="st15" d="M784.9,835.6c-9.7-3.2-9.3-10.9-9.2-19c0.5-32.1,0.7-64.3,0.9-96.4c6-8.9,12-17.8,18-26.7
			c7.6,28.1,1.4,56.8,3.5,85.1c0.5,6.3-3.6,16.6,10.1,12.6C803.6,807.5,795.7,822.6,784.9,835.6L784.9,835.6L784.9,835.6z"/>
		<path class="st16" d="M441.2,888.7c-21.5-32.9-36.9-69.4-45.3-107.8l58.5,28.2c-1.2,20.4-2.5,40.7-2.8,61.1
			C451.5,877.4,453,887.2,441.2,888.7L441.2,888.7L441.2,888.7z"/>
		<path class="st17" d="M749.7,751.2c8.7,32.1,2,64.8,3.6,97.2c0.4,8.4,0.8,15.2,9.5,18.7c-5.7,10.1-13.4,18.9-22.8,25.7
			c-9-32.2-1.9-65.1-4.4-97.6c-0.7-9,3.7-19.2-4.9-26.8C735.7,761.3,742.2,755.5,749.7,751.2z"/>
		<path class="st18" d="M834.5,711.1c-12.2-1.5-9.5-10.9-9.5-18.4c1.7-11.8-3.3-23.5-12.9-30.4c12.7-28.8,23.8-58.2,33.3-88.1
			C850.4,620,846.7,666.5,834.5,711.1L834.5,711.1z"/>
		<path class="st19" d="M284.5,311c1,17.6,4.4,31.7-21.3,31.4c-24-0.3-21.1-13-21.1-27.8c-0.1-14.8-3.2-28.1,21-27.4
			C284.2,287.9,289,295.1,284.5,311z"/>
		<path class="st20" d="M284.3,138.9c2.7,15.6,0.7,25.2-21.7,25.6C237.1,165,242.8,150,242,136c-1-16.2-0.6-26.7,22.3-26.6
			C289.3,109.4,284.9,123.4,284.3,138.9L284.3,138.9z"/>
		<path class="st21" d="M285.5,80.7c-2.4-15.8-2.4-27,21-27c24.1,0,21.2,12.9,21.6,28c0.4,16.1,0.8,27-22.3,27
			C281.6,108.8,284.1,96,285.5,80.7z"/>
		<path class="st22" d="M441.2,888.7c9.3-17.4,2.7-36,4.2-54c0.8-9.6-0.8-19.4,9-25.6l13.6,4.7c0,16.2,0.9,32.5-0.4,48.6
			c-1.5,19.2,5.8,39.1-4.4,57.5C453.9,911.1,446.4,900.4,441.2,888.7L441.2,888.7z"/>
		<path class="st23" d="M326.8,233.1c0.3,13.5,4.2,26.2-19.2,26.2c-21.9,0-24.1-8.6-22.7-25.7c1.2-14.5-5-29.8,21.8-29.1
			C331.9,205.2,326.5,219.4,326.8,233.1z"/>
		<path class="st24" d="M155.9,53l0.3-52.8c1.5-0.1,3-0.2,4.4-0.3c37.3-0.4,43.1,7.1,36.2,44.7c-1.5,8.3-5.8,9-12.1,8.8
			C175.2,53.4,165.6,53.2,155.9,53L155.9,53z"/>
		<path class="st2" d="M369.8,164.7c3,17.1,2,27.1-20.8,27.4c-27.2,0.3-19.3-16.4-20.4-30.1c-1.3-15-1.1-24.9,20.5-25.5
			C375.2,135.8,371.6,149.9,369.8,164.7z"/>
	</g>
</g>
</svg>
