<?xml version="1.0" encoding="UTF-8"?>
<svg id="Layer_2" data-name="Layer 2" xmlns="http://www.w3.org/2000/svg" viewBox="0 0 1000 1000">
  <defs>
    <style>
      .cls-1 {
        fill: none;
      }

      .cls-1, .cls-2, .cls-3, .cls-4, .cls-5, .cls-6, .cls-7 {
        stroke-width: 0px;
      }

      .cls-2 {
        fill: #78bd21;
      }

      .cls-3 {
        fill: #727175;
      }

      .cls-4 {
        fill: #717074;
      }

      .cls-5 {
        fill: #737276;
      }

      .cls-6 {
        fill: #0191d9;
      }

      .cls-7 {
        fill: #01c0d4;
      }
    </style>
  </defs>
  <g id="Layer_2-2" data-name="Layer 2">
    <g id="Layer_2-2" data-name="Layer 2-2">
      <g id="Layer_1-2" data-name="Layer 1-2">
        <rect class="cls-1" width="1000" height="1000"/>
        <g>
          <path class="cls-7" d="M467.51,1.25c-7.51,13.57-17.14,18.25-31.47,17.81-32.77-1.02-65.59-.56-98.38-.25-37.89.35-62.47,24.77-62.57,62.83-.27,96.04-.23,192.09-.02,288.13.08,39.02,24.37,63.48,63.42,63.92,38.26.43,76.53.1,114.79.1,5.33,0,10.65,0,18.07,0-7.72,12.93-16.07,18.24-29.85,17.88-35.51-.92-71.06-.03-106.59-.41-44.75-.48-77.04-31.37-77.35-76.07-.69-99.31-.64-198.64,0-297.95.27-42.34,28.62-73.53,70.7-75.5,45.7-2.14,91.57-.49,139.24-.49Z"/>
          <path class="cls-2" d="M498.32,451.34c8.63-14.13,18.12-18.31,31.7-17.89,32.21.99,64.47.52,96.7.27,39.99-.31,64.24-24.54,64.31-64.48.16-95.46.16-190.91,0-286.37-.07-40.1-24.07-63.88-64.45-64.08-43.11-.21-86.21-.05-131.24-.05C502.26,6.23,509.79-.36,523.82.02c38.21,1.03,76.54-.52,114.66,1.69,40.94,2.37,69.95,33.27,70.25,74.31.73,99.81.74,199.64,0,299.45-.33,44.48-32.92,75.4-77.61,75.79-43.55.38-87.1.08-132.8.08Z"/>
          <path class="cls-4" d="M287.59,660.15c18.12-33.77,34.76-64.27,50.83-95.06,4.17-7.99,8.47-14.19,18.55-11.55,9.69,2.54,5.61,10.73,5.66,16.42.35,40.9.25,81.8.13,122.7-.02,6.57,2.61,14.85-9.4,14.55-12.08-.3-8.79-8.89-8.84-15.2-.25-30.44-.11-60.89-3.6-92.7-17.27,32.06-34.55,64.12-53.33,98.98-18.65-34.62-36.02-66.87-53.46-99.24-6.6,2.96-3.96,7.96-4,11.61-.27,28.36-.23,56.72-.11,85.07.03,6.64-.44,11.69-9.37,11.5-8.22-.17-8.2-4.99-8.19-10.79.06-44.17,0-88.35.06-132.52,0-4.7-1.19-10.12,6.46-10.7,7.31-.56,12.4,1.49,15.97,8.39,11.52,22.28,23.45,44.34,35.26,66.47,5.12,9.59,10.35,19.12,17.36,32.06Z"/>
          <path class="cls-6" d="M310.17,189.06c0-31.64-.16-63.29.05-94.93.18-27.45,12.69-40.31,39.97-40.42,62.3-.24,124.61-.27,186.91,0,28.79.13,44.69,20.44,39.84,48.98-.99,5.81-3.54,6.97-8.56,7.06-5.83.1-8.52-1.55-9.43-8.08-4.18-30.25-4.43-30.22-35.32-30.22-56.29,0-112.58-.06-168.88.03-21.74.03-26.77,5.17-26.8,27.23-.07,60.02-.06,120.03,0,180.05.02,22.76,4.63,27.26,28,27.6,7.63.11,16.27-1.67,14.52,10.92-.49,3.52-1.34,5.6-5.3,6.8-29.36,8.91-54.71-9.29-54.95-40.09-.24-31.64-.05-63.29-.05-94.93Z"/>
          <path class="cls-4" d="M433.28,678.74c8.41-24.58,16.65-49.22,25.37-73.69,1.97-5.53,1.41-13.28,11.2-13.55,10.61-.29,10.32,7.72,12.52,14.01,8.61,24.62,17.11,49.27,27.16,78.26,9.08-29.16,17.34-53.89,24.36-78.97,3.38-12.06,9.15-16.36,21.86-11.22-11.8,35.1-23.7,70.18-35.32,105.35-2.07,6.27-5.73,8.31-12.1,8.3-7.32,0-8.87-4.8-10.65-10.17-8.54-25.76-17.2-51.48-27.15-81.18-9.85,29.16-18.3,54.22-26.78,79.27-2.07,6.13-3.15,12.38-12.49,12.21-9.28-.18-10.2-6.57-12.23-12.63-10.06-29.99-20.2-59.96-29.92-90.06-1.29-4.01-7.86-10.23,1.59-12.69,6.83-1.78,12.39-.17,14.86,8.28,7.65,26.14,15.98,52.08,24.05,78.1,1.22.12,2.44.25,3.66.37Z"/>
          <path class="cls-4" d="M206.79,963.07c-19.93.57-37.48-5.73-53.35-17.61-5.43-4.07-6.85-7.41-2.05-13.2,4.49-5.41,7.5-5.55,13.08-1.07,15.95,12.82,34.05,19.28,54.85,14.76,12.81-2.78,22.37-9.54,24.03-23.29,1.71-14.19-8.13-20.5-19.62-24.37-12.89-4.34-26.17-7.53-39.07-11.85-23.95-8.03-32.79-19.07-32.32-39.27.48-20.23,13.3-35.6,35.76-40.92,23.2-5.49,44.18.38,63.23,14.48,5.22,3.86,5.3,6.86,1.68,11.91-3.99,5.58-7.04,6.82-12.89,2.03-12.2-9.98-26.27-15.74-42.42-13.72-14.16,1.77-25.39,8.39-27.56,23.51-2.09,14.56,8.99,19.77,20.35,23.49,13.45,4.4,27.4,7.45,40.54,12.59,24.42,9.55,33.61,24.4,30.12,45.94-3.24,19.98-19.35,33.51-42.93,35.94-3.79.39-7.63.43-11.44.64Z"/>
          <path class="cls-4" d="M112.59,682.03c17.09-38.58,34.02-76.8,50.97-115.02,1.54-3.48,2.77-7.23,4.94-10.28,3.89-5.46,10.23-4.55,14.93-2.62,6.3,2.58,1.57,7.54.06,11-19.47,44.43-39.23,88.73-58.65,133.18-2.79,6.38-6.58,9.07-13.64,9.01-6.83-.06-11.01-2.01-13.89-8.62-19.6-44.97-39.57-89.78-59.28-134.7-1.35-3.07-5.5-7.38-.19-9.74,4.84-2.15,11.12-2.77,15.19,1.89,2.77,3.16,4.12,7.62,5.89,11.59,14.6,32.88,29.06,65.82,43.81,98.63,2.35,5.23,3.07,11.67,9.87,15.66Z"/>
          <path class="cls-3" d="M444.6,860.51c12.58-12.74,24.99-18.36,39.97-17.67,21.53.99,36.26,12.41,39.96,33.78,4.39,25.37,1.09,51.1,1.76,76.66.17,6.61-3.97,8.05-9.66,7.98-6.73-.09-8.06-4.16-8.05-9.7.04-19.62.13-39.24-.04-58.86-.2-22.68-11.17-35.63-29.51-35.26-20.79.42-34.17,13.99-34.38,35.27-.19,18.53,0,37.06-.08,55.59-.03,5.87,1.16,12.52-8.1,12.94-9.29.43-8.82-5.82-8.82-11.99.01-44.69.03-89.38,0-134.07,0-5.79.04-10.75,8.25-10.8,7.89-.05,8.82,4.23,8.75,10.41-.16,14.03-.05,28.06-.05,45.73Z"/>
          <path class="cls-3" d="M79.43,936.22c10.2-25.46,20.2-50.39,30.18-75.33,1.41-3.53,2.75-7.1,4.16-10.64,3.05-7.68,10.05-6.63,15.33-5.13,8.23,2.34,2.07,8.21.69,11.6-12.96,31.7-26.46,63.19-39.65,94.79-2.49,5.95-5.36,10.15-12.95,9.9-6.98-.23-9.25-4.56-11.45-9.72-13.24-31-26.67-61.92-39.54-93.08-1.63-3.94-9-10.05-.2-13.3,6.66-2.46,13.42-1.24,16.84,7.85,8.79,23.4,18.48,46.47,27.96,69.61,1.76,4.29,2.15,9.49,8.64,13.44Z"/>
          <path class="cls-3" d="M703.48,862.15c9.86-9.42,19.45-17.41,32.52-18.64,4.66-.44,10.14-2.26,11.05,5.51.78,6.66-3.19,7.66-8.43,9.23-30.06,8.99-36.54,17.94-36.58,49.04-.02,14.16-.1,28.33.03,42.49.06,6.57-.38,11.85-9.33,11.57-8.44-.26-7.78-5.72-7.78-11.25,0-31.05-.03-62.1.03-93.14,0-5.79-1.53-12.26,8.21-12.39,9.36-.12,8.9,5.69,8.91,11.91,0,1.38.64,2.76,1.37,5.67Z"/>
          <path class="cls-5" d="M712.82,608.33c9.29-10.68,20.12-16.5,32.67-18.88,4.43-.84,9.19-1.57,10.09,4.74.75,5.23-.27,8.67-6.77,10.69-34.3,10.68-37.96,16.16-37.98,52.4,0,13.64-.15,27.28.02,40.92.08,6.04-2.07,8.9-8.52,9.01-8.05.14-8.45-4.72-8.44-10.66.07-31.1-.04-62.2.09-93.29.02-5.02-1.88-11.17,7.1-11.7,8.53-.5,10.4,3.51,9.89,10.68-.1,1.33.78,2.73,1.84,6.1Z"/>
          <path class="cls-6" d="M615.18,127.01c-62.25-.23-124.51-.23-186.76,0-26.69.1-39.67,13.6-39.82,40.82-.18,31.62-.04,63.24-.04,94.86,0,31.62-.15,63.24.04,94.86.17,27.76,13.34,40.79,41.47,40.86,61.16.14,122.32.14,183.48,0,27.93-.07,41.59-13.48,41.65-40.86.14-63.24.13-126.47,0-189.71-.05-26.78-13.56-40.71-40.02-40.81ZM636.7,355.65c-.11,19.63-4.53,24.13-24.26,24.18-60.61.16-121.22.16-181.82,0-18.92-.05-24.28-5.52-24.32-24.47-.12-61.6-.12-123.19,0-184.79.04-19.86,5.24-24.93,25.45-24.97,60.06-.1,120.12-.11,180.19,0,20.63.04,24.7,4.26,24.79,25.26.13,30.52.03,61.05.03,91.58,0,31.07.13,62.14-.05,93.21Z"/>
          <path class="cls-3" d="M388.05,861.04c-7.98-9.5-17.97-15.81-30.47-17.64-19.02-2.78-35.49,2.47-48.56,17.74-3.82-7.38-.11-17.5-11.94-16.47-11.9,1.04-8,9.95-8.04,16.07-.3,42.55-.1,85.1-.21,127.65-.02,6.74.75,11.9,9.49,11.58,7.91-.29,8.33-5.24,8.29-11.14-.09-13.92-.03-27.84-.03-42.93,35.11,22.92,60.71,22.57,80.45.19,19.25-21.84,19.81-62.72,1.02-85.07ZM356.82,946.47c-26.36,9.19-50.07-11.26-50.18-43.28-.09-25.39,13.95-43.46,35.43-45.6,18.26-1.82,35.38,11.6,40.18,31.49,6.15,25.49-4.79,50.19-25.42,57.39Z"/>
          <path class="cls-3" d="M790.89,656.36c11.98.61,24.01.14,36.01.12,12.55-.01,25.11-.12,37.66.03,6.47.08,9.89-1.74,10.1-9.22.69-23.75-15.98-48.84-37.9-55.93-25.6-8.28-53.92,3.35-66.91,27.48-14.59,27.08-7.57,61.13,16.41,79.54,20.14,15.47,57.39,15.18,75.14-.51,2.96-2.62,6.3-5.08,2.84-9.35-2.68-3.31-5.3-7.27-10.72-3.96-3.71,2.26-7.53,4.46-11.56,6.04-25.78,10.13-49.95,1.07-58.99-21.53-3.41-8.51-3.39-13.29,7.92-12.71ZM781.86,632.41c4.32-15.46,20.16-27.69,37.85-27.99,18.22-.31,31.59,9.83,36.17,26.61,1.87,6.87,1.09,10.19-6.94,9.91-10.3-.36-20.61-.09-30.92-.09-9.77,0-19.53-.09-29.29.03-6.04.07-8.92-1.11-6.87-8.47Z"/>
          <path class="cls-3" d="M828.28,844.55c-26.7-7.76-55.45,4.72-67.88,29.48-13.24,26.39-6.42,58.62,16.29,76.96,20.21,16.31,57.52,16.41,76.48.25,2.96-2.52,6.64-4.82,2.85-9.14-2.68-3.06-4.9-7.9-10.51-4.47-3.25,1.99-6.43,4.16-9.89,5.72-25.63,11.58-51.38,2.95-60.71-20.01-3.68-9.05-3.41-14.56,8.75-13.91,11.43.61,22.91.13,34.38.12,12.55,0,25.1-.01,37.66,0,5.06,0,9.23.14,10.09-7.19,2.62-22.26-15.97-51.55-37.52-57.81ZM838.27,894.13c-9.8-.42-19.63-.09-29.44-.1-9.27-.01-18.54-.14-27.81.02-8.2.14-8.8-4.03-6.72-10.5,4.48-14,20.25-25.47,36.35-26.17,16.06-.7,29.3,8.4,35.58,23.68,3.51,8.54,3.2,13.54-7.96,13.06Z"/>
          <path class="cls-3" d="M627.22,846.06c-25.39-10.19-55.73.52-69.65,24.6-15.32,26.51-9.17,61.76,13.99,80.14,20.33,16.13,59.08,16.36,76.58.56,3.03-2.73,6.06-5.32,2.65-9.42-2.6-3.14-4.92-7.7-10.52-3.93-3.6,2.42-7.48,4.6-11.5,6.22-26.07,10.52-50.86.63-59.61-23.11-3.07-8.33-2.17-12.1,7.76-11.67,12,.52,24.04.12,36.06.11,13.12-.01,26.23-.09,39.35.03,5.71.05,8.91-1.33,9.21-8.15.95-21.73-14.68-47.51-34.31-55.39ZM632.76,894.19c-9.19-.73-18.49-.14-27.74-.15-9.8-.01-19.59-.09-29.39.02-6.12.07-8.98-1.33-6.87-8.56,4.25-14.6,20.03-27.19,36.58-28.1,15.85-.88,29.96,8.22,35.93,23.09,3.4,8.46,4.14,14.71-8.51,13.71Z"/>
          <path class="cls-4" d="M662,692.94c.52-16.35-.75-32.78.37-49.07,3.54-51.11-37.19-66.38-82.15-47.18-5.06,2.16-6.41,4.91-3.86,10.07,2.3,4.66,4.74,6.91,10.1,4.4,4.92-2.31,9.98-4.61,15.23-5.88,22.48-5.48,38.1,2.44,42.65,21.29,2.16,8.95,2.16,15.02-10.58,11.42-15.38-4.35-31.15-5.79-46.64.58-18.06,7.42-27.18,23.02-24.18,41.65,2.53,15.73,16.73,27.7,34.73,29.55,17.27,1.77,32.15-3.76,46.72-16.52.96,8.34,1.64,15.67,11.63,13.86,9.84-1.78,5.81-9.17,5.97-14.18ZM641.97,678.48c-9.59,15.5-37.25,21.76-52.74,11.95-13.05-8.27-13.85-24.85-1.45-34.32,8.74-6.67,18.9-7.97,29.54-6.76,3.81.33,7.63.59,11.43,1.01,17.26,1.92,22.5,13.11,13.21,28.12Z"/>
          <g>
            <path class="cls-3" d="M943.1,826.95h-7.03v-8.6h5.09c2.74,0,7.43.4,7.43,3.91,0,3.91-2.34,4.69-5.46,4.69M957.57,822.27c0-7.81-4.69-10.15-16.01-10.15h-14.07v36.71h8.98v-15.24h2.74l8.6,15.24h8.98l-9.78-16.01c6.26-.4,10.55-2.74,10.55-10.55"/>
            <path class="cls-3" d="M941.53,855.46c-13.67,0-24.61-10.55-24.61-25.39s10.92-25.39,24.61-25.39,24.61,10.15,24.61,25.39-11.32,25.39-24.61,25.39M941.53,796.48c-18.75,0-36.31,12.5-36.31,33.97s17.58,33.97,36.31,33.97,36.71-12.5,36.71-33.97c-.4-21.47-17.96-33.97-36.71-33.97"/>
          </g>
        </g>
      </g>
    </g>
  </g>
</svg>