<?xml version="1.0" encoding="utf-8"?>
<!-- Generator: Adobe Illustrator 27.6.1, SVG Export Plug-In . SVG Version: 6.00 Build 0)  -->
<svg version="1.1" id="Layer_2_00000136388263520408772460000003455045456967752594_"
	 xmlns="http://www.w3.org/2000/svg" xmlns:xlink="http://www.w3.org/1999/xlink" x="0px" y="0px" viewBox="0 0 1000 1000"
	 style="enable-background:new 0 0 1000 1000;" xml:space="preserve">
<style type="text/css">
	.st0{fill:none;}
	.st1{fill:#ABD16B;}
	.st2{fill:#7CA850;}
	.st3{fill:#83AE53;}
	.st4{fill:#79A64E;}
	.st5{fill:#7FAB52;}
	.st6{fill:#94BC5E;}
	.st7{fill:#7AA74F;}
	.st8{fill:#91BA5C;}
	.st9{fill:#7EAA52;}
	.st10{fill:#88B257;}
	.st11{fill:#87B157;}
	.st12{fill:#9AC161;}
	.st13{fill:#8CB659;}
	.st14{fill:#A6CD69;}
	.st15{fill:#9FC664;}
	.st16{fill:#8EB75A;}
	.st17{fill:#96BD5F;}
	.st18{fill:#8BB559;}
	.st19{fill:#A2CA66;}
	.st20{fill:#FEFEFE;}
	.st21{fill:#A7CE69;}
	.st22{fill:#A4CA69;}
	.st23{fill:#80AB52;}
	.st24{fill:#83AE54;}
	.st25{fill:#FDCF54;}
	.st26{fill:#F6D76B;}
	.st27{fill:#FACC5A;}
	.st28{fill:#F9DA68;}
	.st29{fill:#FBDC65;}
	.st30{fill:#F9DA66;}
	.st31{fill:#FBCE56;}
	.st32{fill:#FCDB60;}
</style>
<g id="Layer_1-2">
	<rect y="0" class="st0" width="1000" height="1000"/>
	<g>
		<path class="st1" d="M8,892.2c-7.2-13.6-4.6-28.5-4.6-42.8c0-142.5,0.2-285,0.9-427.5c0.1-21.8,1.9-43.7,4.8-65.2
			c7.5-56.3,46.6-89.2,110.1-92.1c35.6-1.6,71.3-2,106.9-1c22.3,0.6,31.5-5.3,30.9-30c-0.9-42.7-3.5-85.6,3.6-128.4
			C272,35.9,302.7,5.7,373.5,2.5c54.9-2.5,110.1-0.9,165.1-1.2c6.9,6.9,20.5-3,23.7,6.4c3.9,11.4-8.4,17.9-15.2,25.5
			c-19.8,22.5-37.6,46.6-58.2,68.5c-3.8,4-8.7,8.6-5.4,14.8c3.1,5.8,9.8,4.9,15.3,5.1c16.2,0.4,32.4,0.3,48.6-0.5
			c12.2-0.2,24.4-0.3,36.6-0.1c17.5-0.8,35-0.6,52.6-0.1c25.7-1.3,51.4,0.1,77.1-0.3c12.9-0.7,25.8-0.9,38.6,0.4
			c8.2,0.9,18.7-0.5,20.4,12c-10.9,9.6-24.4,7.2-37.1,7.2c-83.2,0.3-166.5,0-249.7,0.2c-77.4,0.2-95.6,18.5-95.6,95.8
			c0,42,0.4,84-0.3,126c-0.2,10.7,2.3,23.3-10.9,29.6c-15.2-19.2-6.2-41.7-8.4-62.6c1.6-28.1,2.7-56.3-6.4-85.6
			c-16.9,9.4-24.8,25.1-36.1,37.2c-22.6,24.4-41.3,52-63.5,76.7c-4.6,5.1-11.2,11.2-7.1,19.2c3.8,7.4,12.4,6.7,19.5,7.3
			c8.1,0.8,16.2,0,24.4-0.5c25.5,2.3,52-7.2,76.3,7.3c-4.4,15.5-17.9,11.6-28.1,11.8c-44.5,0.9-89,0.1-133.6,0.5
			c-58.5,0.5-78.5,20.5-78.8,79.6c-0.5,101.2,0,202.3-0.3,303.5c0,12.7,2.3,26.1-6.8,37.3c-13.6-0.4-11.2-11.5-12-19.3
			c-2.6-23.9-1-47.9-0.5-71.8c-1-22.6-0.6-45.1,0-67.7c-0.6-16.9-0.2-33.9,0.2-50.8c0-20.9,0.9-41.9,0.2-64.7
			c-12.8,3.1-18.3,13.1-25.2,21.3c-20.8,24.6-37.1,53.1-63.4,73.1c-8.5,6.4-10.1,16.1-10.1,26.2c-0.1,17-0.1,34,0.4,51
			c0.6,19.8,0.6,39.5-0.4,59.3c-5.2,25.8-4.4,51.9-4.2,78C15.1,869.9,17.5,882.4,8,892.2L8,892.2L8,892.2z"/>
		<path class="st2" d="M568,998.7l-5.1,0c-11.5-4.2-23.4-4.5-35.4-4.7c-7.8-0.1-17,1.5-20.5-8.4c-3.2-8.8,1.9-15.7,7.4-21.6
			c15.4-16.5,28.8-34.6,44.2-51.1c6.6-7.1,10.6-16.1,14-25.2c15.5-18,39-29.6,44.7-55.5c2.7-5.9,4.3-12.6,9.2-17
			c47.8-42.1,78.1-98.6,119.9-145.6c10.2-11.4,21.5-22,29.5-35.3c4.5-7.6,11.9-10.6,20.4-11.1c32.7-0.6,58.1-12.4,69.5-45.6
			c5.1-17.2,5.4-35.3,10.8-52.4c28.2-34.3,59.8-65.7,86.4-101.3c4.8-6.4,10.9-13.3,20.1-10.4c10.2,3.2,7.7,13,7.9,20.7
			c1.3,53.3,3.7,106.5,2.4,159.8c-0.2,7,2.6,14.6-3,20.9c-13-2.2-9-13.1-9.9-20.8c-1.7-13.5,1.4-27.4-3.3-46.5
			C919.7,604.2,877.2,668.9,823,728.2c31.5,3.4,57.8-18.8,82.2,3.9c-43.6,11.9-88.2,8.3-132.3,7.3c-24.2-0.6-31.9,5.4-31.1,30.6
			c1.2,37.7,4.5,75.8-2.9,113.4c-13.5-5.9-10.7-18.4-11.5-29.3c-0.7-10.2,0.5-20.6-1.2-36.3c-39.2,53.4-82.4,96.9-120.7,144.6
			c-11.9,14.9-7.6,20.3,10.3,21.6c12.7,0.9,12.6,2.3,11.4,12.6C607.5,997.8,587.6,993.7,568,998.7L568,998.7L568,998.7z"/>
		<path class="st3" d="M991.4,103.7c1.3,7.1,3.8,14.1,3.8,21.2c0.3,116.1,0.3,232.3,0.4,348.4c-9.8,0-6.4-7.7-6.4-12.4
			c-0.4-46.9-7.2-93.6-4.8-140.6c0.4-7.5,3.2-18.4-6.3-21.3c-8.6-2.7-14.6,6-19.1,12.5c-13.5,19.4-28.8,37.3-46,53.3
			c-10.1,9.4-21.3,21.6-37.3,8.2c-6.3-53-2.6-106.1-2.1-159.1c3.9-17.2,20.6-23.8,30.7-35.9c19.5-23.4,37.3-48.1,58.1-70.3
			C969.9,99.6,979.4,87.5,991.4,103.7L991.4,103.7L991.4,103.7z"/>
		<path class="st4" d="M905.2,732c-28.6-12.3-56.5,6.7-85.3,3.6c0.5-14.6,8.1-25.1,16.1-33.3c47-47.9,81.6-106.3,130.3-152.6
			c4.6-4.3,8.7-12.5,15.2-10.4c8.9,3,4.6,12.6,4.8,19.3c0.5,18.6,0.2,37.3,0.2,55.9c5,3.8,4.7,9.5,5.5,14.8
			C989.5,689.6,958.9,725.8,905.2,732L905.2,732L905.2,732z"/>
		<path class="st5" d="M992,629.4c-6.2-3.3-5.4-9.3-5.5-14.8c6.8-5.5,4.5-13.3,4.8-20.3c2.7-54.8-3.3-109.3-4.9-164
			c-0.1-4.6,1.5-10.8-4.4-12.5c-6.5-1.8-9.8,4.3-13.1,8.6c-27,36-54.7,71.4-89.4,100.6c-2.4-2.2-4.9-4.8-5.1-8
			c-3.1-45-3.1-89.9,0-134.9c0.2-3.2,2.7-5.8,5.1-8c31.3-7.1,45.5-34.1,63.8-55.8c11.8-13.9,22-38.1,40-32.7
			c17.4,5.2,7,30.2,7.5,46.2c1.4,38.7,0.3,77.6,0.6,116.4c0,7.8-2.6,16.3,4.1,23C995.6,525.3,1000.7,577.5,992,629.4L992,629.4z"/>
		<path class="st6" d="M879.6,376.2c0,50.3,0,100.6,0,150.8c0.3,18.7-2,36.9-9,54.4c-1.1-1-2.2-1.9-3.4-2.9
			c-6-10.4-4.8-21.9-4.8-33.2c0.3-107.5-1-215.1,0.6-322.6c0.1-8.1-0.1-16.2-1-24.2c-3.8-33.1-16.3-46.6-48.6-55.1
			c-13.7-3.6-29.7,0.6-41.1-11.4c-19-8.2-39-1.9-58.4-4c-17.1-10.3-18.8-17.4-5.8-33.4c16.7-20.5,33.6-41,52-60.1
			c8.9-9.3,16.9-19.3,17-33.2c40.7-0.2,81.6-4.8,122.1,4.3c-0.8,13.2-11.6,11.1-19.2,11.2c-15.1,0.3-25.3,6.8-34.5,18.3
			c-16,20.1-33.2,39.2-49,59.4c-4.8,6.2-12.7,12.2-9.3,20.9c3.7,9.5,13.9,5.1,21.4,6.5c3.9,0.7,8,0.9,11.9,1.9
			c13,4.1,25.7,8.8,37.2,16.3c17.9,18.3,28.7,39,21.9,65.6C879.5,262.6,879.5,319.4,879.6,376.2L879.6,376.2L879.6,376.2z"/>
		<path class="st7" d="M631.2,993.6c-6.7-6.7-15.3-3.3-23.1-4.4c-6.7-0.9-16,3.5-19.2-5.7c-2.6-7.4,2.8-14,7.3-19.6
			c39.8-49.7,84.6-95.2,122.7-146.4c2.1-2.8,6.8-3.5,12-6.1c7.2,24.5-4.1,49.7,8,71.9c-1.9,69.7-37.7,109.1-101.3,111.4
			C635.1,996.5,633,996.2,631.2,993.6L631.2,993.6L631.2,993.6z"/>
		<path class="st8" d="M621.7,833.5c-4.9,25.9-22.4,41.4-44.1,53.5c-26.4,16.6-55.1,12.8-83.8,10.1c-24-5.9-48.4-1.5-72.6-2.2
			c-41.3-1.1-82.7,0.6-124-0.7c-27.1,0.3-54.2,0.6-81.3-0.1c-9.6-0.8-20,0.9-28.8-2.4c-25.1-9.4-41,0.4-54.9,21
			c-9.9,14.6-22,27.9-33.9,41.1c-9.4,10.5-16.4,21.6-17.1,36c-9.4-0.2-17.6-3.2-24.4-9.9c-18-15.4-19.5-32.7-4.4-52
			c14.4-18.5,26-39,42.3-56.2c17.4-18.3,35.7-24.2,58.6-12.3c23.2,11,47.7,15.4,73.1,15.4c101.3,0,202.6,0,303.8,0
			c4.9,0,9.7,0,14.6-0.4c44.3-3.1,62.9-21.6,64-66c1.1-44.5,0.3-89.1,0.3-133.7c0.1-60.8,2-62.7,62.9-62.8
			c37.3,0,74.6-0.7,111.8,0.2c27.9,0.7,53.4-2.9,72.3-26.2c3-3.7,7.4-6.4,12.7-6.2c0,0,1.7,1.5,1.7,1.5c-9.1,30.9-34,47-73.8,47.8
			c-2.1-1.2-4.3-3.2-6.7-2.3c-41.2,17-84.5,7.6-126.8,9.7c-26.7,1.3-28.8,2.7-29.2,29.5c-0.4,24.3-0.2,48.5-0.1,72.8
			C634.1,771,636.4,803.3,621.7,833.5L621.7,833.5z"/>
		<path class="st9" d="M495,891.9c27.8,1.7,55.2-1.7,82.7-4.9c-3.9,32.5-35,46.2-49.6,71.3c-2.7,4.7-7.8,8-11.7,12.1
			c-3.8,4.1-8.3,8.3-4.9,14.7c2.8,5.1,8.2,4.2,12.8,4.2c13.7-0.2,27.1,0.6,38.6,9.5c-19.5,0.1-38.9,0.1-58.4,0.2
			c-29-5.2-58.3-1-87.4-2.4c-17.6-4.3-16.2-16.6-10-28.2c15.9-29.7,41.7-51.4,65.1-74.8C478.4,887.5,487.1,887.9,495,891.9
			L495,891.9L495,891.9z"/>
		<path class="st10" d="M412.2,994.1c30.7,2.7,62.1-5.6,92.4,4.7c-100.6,0-201.2,0-301.8,0c-17-6.1-34.9,0-52.3-4
			c-20.9-4.8-23-8.3-11.2-26.8c19.2-30,45.7-53.9,68.5-80.8c29.2,0,58.4,0.1,87.6,0.1c6.8,13.2-3.4,21.4-9.9,29.7
			c-12,15.1-24.1,30.3-37.4,44.4c-4.4,4.7-10,10-7.9,16.8c2.6,8.3,11.3,8.5,18.4,8.7c39.5,1.3,79.1,0.3,118.6,0.6
			C389.3,987.5,401.6,986.3,412.2,994.1L412.2,994.1L412.2,994.1z"/>
		<path class="st11" d="M879.5,205.8c-4.2-22.6-8.9-45-24.4-63.3c22.7-38.5,51.5-72.2,83.5-103.2c9.5-9.2,18.2-7.9,26.9,2
			c5.3,6,7.1,14.8,15,18.8c7.9,13.4,11.8,27.9,10.9,43.5c-9.7-6.9-16.4-1.9-22.6,5.5c-19.6,23.4-40.2,46.1-58.6,70.4
			C901.5,191,892.4,200.2,879.5,205.8L879.5,205.8z"/>
		<path class="st12" d="M124.6,731.5c0.1,23.3,0,46.5,0.5,69.8c0.1,7.7-2.8,16.3,5,22.4c1,2.2,0.8,4.3-0.8,6.2
			c-1.5,0.7-3.9,1.6-4.6,0.8c-17.7-23.9-27.9-6-36.5,7.6c-19.5,30.7-46.5,55.9-63.5,88.3c-1.5,2.9-4.3,4.8-7.6,5.5
			c-7.9-12.2-9.4-25.8-9.2-39.9c0.2-11.5,0.3-22.9,0.5-34.4c11.1-32.3,38.7-52.4,58.4-78.3c12.1-15.9,28.2-28.4,41.7-43.3
			C112.7,731.7,117.1,725.7,124.6,731.5L124.6,731.5L124.6,731.5z"/>
		<path class="st12" d="M777.1,1.3c7.5,6.5,10.4,11.7,1.6,21.1C756.3,46.2,736.1,72,713.8,96c-10.9,11.8-13.1,21.3,0.1,31.9
			c-25.9,0-51.9,0-77.8,0c-7.7-9.2-1.7-16.6,3.5-23.7c13.8-18.8,27.3-37.8,44.1-54.2c14.4-14.1,27.2-29.7,35.1-48.6
			C738.2,1.3,757.7,1.3,777.1,1.3L777.1,1.3L777.1,1.3z"/>
		<path class="st13" d="M207.8,887.2c-1.4,11.9-8.3,20.5-16.5,28.6c-17.6,17.5-33.4,36.4-47.8,56.7c-7.9,11.1-9,13.3,5.6,18.4
			c17.9,6.2,37.2-2.9,53.7,8c-40.8,0.7-81.9,5-121.7-9c-3.8-7.5-10.5-13.8-2-23.5c20.8-23.5,40.5-47.9,60.6-72.1
			c10-12.1,20.8-20.1,37.1-10.5C186.4,889.3,197.4,886.4,207.8,887.2L207.8,887.2z"/>
		<path class="st14" d="M543.6,127.9c-16.1,0-32.3,0.2-48.4,0c-7.8-0.1-17,2.1-20.7-7.9c-3.4-9.1,3-15.1,8.2-21.1
			C508.4,69.3,534.1,39.7,560,10c-5.9-7.3-16.9,0.1-21.3-8.7c21.1,0,42.2,0,63.3,0c25.1,5.4,24.6,5,9.4,27
			c-13.9,20.1-29.5,38.5-46.7,55.8C552.7,96,541,108.7,543.6,127.9L543.6,127.9L543.6,127.9z"/>
		<path class="st15" d="M718.8,1.3c6.7,9.5,0.8,15.2-5,22.7c-21.9,28.4-49.5,52-69,82.5c-4.4,6.9-9.7,12.6-8.7,21.3
			c-17.8,0-35.7,0-53.5,0c-7.9-9.1-5.4-19.1,0.5-26.8c24.5-32,50.1-63.1,76.4-92.3c5.1,1.2,1.7-3.1,2.2,0.1c-5.7,0.4-12,1.9-11-7.5
			C673.3,1.3,696,1.3,718.8,1.3L718.8,1.3L718.8,1.3z"/>
		<path class="st16" d="M821,128c-14.3-2.8-33.6,8.3-42.1-7.3c-9.3-17.1,11.3-26.6,19.4-38.2C814,60.2,832.7,40,850.1,18.9
			c5.8-7.1,13.6-7.4,21.9-7.9c9.2-0.5,19.7,3.9,27.3-5.3c6.9,0,13.9-0.6,19.8,4.2c-1.2,16.7-15.1,25.4-24.1,36.6
			C871.8,75,850.5,105.3,821,128L821,128z"/>
		<path class="st17" d="M17.2,932.1C37.5,886,74,851.3,102.4,810.8c5.9-8.4,15.8-10.9,17.6,4.7c0.8,7.1,1.9,12.9,10.7,13
			c14.7,6.9,17.3,19.3,15.4,33.7c-33.6-15.3-46.1,13.9-62.3,31.6c-14.5,15.8-23.8,35.9-38.7,52.2c-14.6,15.9,9.1,22.1,11.7,34
			C35.1,971,23,954.2,17.2,932.1L17.2,932.1z"/>
		<path class="st18" d="M821,128c32.7-39.4,65.3-78.7,98-118.1c29.2,6.1,50.2,22.3,61.5,50.2c-3.9,1.9-6.6,2.2-9.8-2.4
			c-17.5-25.3-17.4-24.9-38.8-4.3c-23.2,22.5-41,49.4-61.7,74c-4.7,5.6-8.3,11.8-15.2,15.1C842.8,139.9,831.6,134.5,821,128L821,128
			L821,128z"/>
		<path class="st19" d="M650.6,1.3c10.4,4.8,13.1,10.6,4.7,20.4c-19.2,22.4-37.1,45.8-56.7,67.8c-10.1,11.3-17.7,22.6-16.1,38.3
			c-13,0-26,0-39,0c-10.9-7.8-10.5-14.7-1.8-25.6c25-31.3,55.9-57.6,75.8-93.5c-3.4-5-12.6-0.3-15.6-7.5
			C618.1,1.3,634.4,1.3,650.6,1.3L650.6,1.3z"/>
		<path class="st9" d="M631.2,993.6c2.1,0.4,4.2,0.8,6.4,1.1c-22.9,7.1-46.2,5.2-69.6,4C588.4,988.5,610.3,997.2,631.2,993.6
			L631.2,993.6z"/>
		<path class="st20" d="M146,862.2c-5.1-11.2-10.3-22.5-15.4-33.7c-0.2-1.6-0.3-3.2-0.5-4.8c-0.2-101.3-0.5-202.6-0.7-303.9
			c0-17-0.1-34,0.7-51c2.1-48.6,24.1-71.7,72.3-72.9c50.2-1.3,100.5-0.2,150.7-0.6c8.5-0.1,18,3.4,25.4-4.2l0,0
			c7.1-7.6,3.8-16.9,3.9-25.5c0.5-52.6-0.1-105.1,1-157.7c1-46,19.2-66.2,64.1-72.9c15.1-2.2,30.6-2.1,46-2.2
			c93-0.4,186-0.6,278.9-0.9c88.2,7,99.4,19.1,98.6,108.8c-0.9,113,2.5,226.1-2.1,339.1c-16.8,30-42.5,41.7-76.6,40.8
			c-49.4-1.2-98.8,0.9-148.2-0.1c-21.6-0.5-27.7,7-27.2,28.1c1.4,52.6,1.1,105.3,0.1,157.9c-1,53.7-22.4,75.3-76.2,75.6
			c-108.5,0.6-217.1,0-325.7-0.5C190.4,881.6,166.7,876.9,146,862.2L146,862.2L146,862.2z"/>
		<path class="st14" d="M13.1,716.8C-3.1,657.9,39.2,625,71.5,588.3c15.2-17.3,22.7-43.6,53.2-48.5v70.1
			c-27.1,32.8-54.3,65.7-83.3,96.9C34.3,714.4,26.9,725.9,13.1,716.8C13.1,716.8,13.1,716.8,13.1,716.8z"/>
		<path class="st15" d="M124.6,731.5c-34.9,27.1-61.2,62.5-90.6,94.8c-9.1,10-17.1,21-25.6,31.6c0.8-26-3.7-52.3,4.6-77.8
			c27.5-37.6,58-72.7,88.5-107.8c5.6-6.5,12.9-12.6,23.1-8.8C124.7,686.1,124.6,708.8,124.6,731.5L124.6,731.5L124.6,731.5z"/>
		<path class="st21" d="M295.3,390.6c-16.5-0.6-38.9,5.9-46.2-11c-7.1-16.7,13.3-28.7,23.6-41.3c26.4-32.4,53.7-64,81-95.7
			c3.9-4.5,7.9-12.4,15.2-9.6c7.6,3,2.9,11.5,4.3,17.4c5.9,23.8,5.2,47.9,4.5,72.1c-12,1.9-6.2-13.7-17.3-15.5
			C340.4,335.1,309.8,356.3,295.3,390.6z"/>
		<path class="st19" d="M124.7,663.4c-24.5,10-36,33.2-52.1,51.6c-19.4,22.1-35,47.6-59.5,65c0-21.1,0-42.2,0-63.2
			c26.1-3.9,34.5-28.6,50.6-43.9c21.1-20.1,33.5-48.8,60.9-63C124.7,627.8,124.7,645.6,124.7,663.4L124.7,663.4z"/>
		<path class="st22" d="M295.3,390.6c-7-16.6,7.3-25.5,14.7-35.2c13-17.1,30.5-30.5,42.8-48.5c3.4-5,8.3-12.4,14.7-11
			c9.8,2.2,3.8,12.2,5.9,18.4c1,2.9,2.8,5.5,4.3,8.2c0.2,22.9,0.4,45.7,0.6,68.6c0,0,0-0.1,0,0C350.8,390.9,323,390.7,295.3,390.6
			L295.3,390.6L295.3,390.6z"/>
		<path class="st23" d="M621.7,833.5c8.9-60.1,3.6-120.6,4.2-180.8c0.2-17.3,4-23.8,22.8-24c45-0.4,90.2,4.9,134.9-3.9
			c4.8-0.9,9.7-0.1,13,4.4c-24.8,6.6-32.6,30.9-47,47.5c-31.9,36.7-59.8,76.8-89.4,115.5C648.7,807.2,629.3,814.9,621.7,833.5
			L621.7,833.5L621.7,833.5z"/>
		<path class="st24" d="M412.2,994.1c-50.8,0-101.6,0-152.4,0c-11.4,0-25.4-0.1-30.2-10.1c-5.3-11.2,6.9-19.7,14-28.3
			c18.2-22.1,41.2-40.6,51.8-68.4c58.9,0,117.8-0.2,176.8,0c7.7,0,16.4-2.6,22.8,4.7c-21.4,2.3-86.1,69.7-86.8,91.1
			C408,986.7,410.7,990.4,412.2,994.1L412.2,994.1L412.2,994.1z"/>
		<path class="st25" d="M519.4,532.3c0,66.9,0.3,133.8,0,200.7c-0.1,21-4.4,40.4-28.5,47.5c-40.5,4.3-81.1,0.7-121.6,1.9
			c-14.4-5.3-5.7-14.3-2.4-20.9c18-36.2,35.3-72.8,55.5-107.8c20.6-35.8,37.6-73.4,56.6-110c42.1-81.1,83.5-162.6,126.7-243.2
			c4.6-8.6,9.6-16.9,14.9-25c4.3-6.7,8.1-15.6,18.2-12.5c8.7,2.7,11.5,11.3,12.3,19.4c2.8,28.2,7.3,56.2,11.2,84.2
			c5.7,41.3,0.1,82.2-0.4,123.3c-0.3,26.9-6.2,31.7-33.8,32.1c-31.6,0.4-63.1-0.7-94.7,0.6C527.4,523.8,522.1,526.1,519.4,532.3
			L519.4,532.3L519.4,532.3z"/>
		<path class="st26" d="M363.5,780c42.5,0.2,84.9,0.3,127.4,0.5c-7.4,6.7-16.7,5.2-25.4,5.2c-63.1,0.1-126.1,0-189.2-0.4
			c-11-0.1-23.1,1.6-30.7-9.8c1.6-1.8,3.6-3,5.9-3.6c2.3-0.3,4.7-0.2,7,0.1c15,4.4,24.1-0.3,30-15.5
			c30.6-77.8,73.6-149.6,111.3-223.9c4.3-8.5,10.5-16.4,9.9-26.8c-6.3-4-12.9-0.5-19.2-1.3c-27.6,1.3-55.1,0.5-82.6,0.6
			c-59.1,0.2-68.3,9.6-68.5,69.6c-0.2,55,0.7,110.1-0.4,165.1c-0.9,6-1.9,12-7.1,16.2c-7.1-7.3-5.3-16.8-5.3-25.4
			c-0.2-60.8-0.3-121.5,0.2-182.3c0.4-41.1,17-56.4,58.6-56.2c55.1,0.3,110.2-0.6,165.3,1.1c24.3,0.8,30.4-8.4,29.9-31.2
			c-1.4-57.5-0.9-115-0.6-172.5c0-10.1-2.9-21.2,5.2-30.2c14,23.1,4.8,48.4,6.8,72.6c0.5,17.6-0.6,35.1-4,47.4
			c-0.5,8.3,5.1,5.6,1.9,6.1c-1.1,0.2-1.3-0.4-1.4-1.8c-0.7-10,2.3-19.2,7.2-27.6c19.2-32.9,35.9-67.2,53.7-100.8
			c5.7-10.8,12.4-21.1,22.2-18.2c-13.5-0.7-33.7,12.1-51.9-2.1c76.8-7.3,153.5-9.8,230.1,1.5c1.3,0.2,2.4,2,3.6,3.1
			c-11.3,10.7-24.3,5.1-36.8,3.8c-10.5-1.1-21-1.4-31.4-1.7c-32.6-7-49.6,9.8-64.3,37c-55.6,102.2-108,206.1-161.3,309.5
			c-29.2,56.7-60.2,112.6-88.6,169.7C367.4,764.9,361.3,771.1,363.5,780L363.5,780L363.5,780z"/>
		<path class="st27" d="M680,235.3c24.8-3.8,48.7,6.3,73.4,4.3c14.8,7.8,19.2,21.5,19.2,36.5c0.3,67.9,0.9,135.7-0.3,203.6
			c-0.6,32.1-18.2,46-55.4,46.4c-56.6,0.6-113.1,0.3-169.7,0.3c-9.7,0-19.5-0.9-27.8,5.8c-0.2-6.6,3.1-9.9,9.6-10.3
			c32.1-4.8,64.4-1.9,96.6-1.8c16.8,0.1,31.6-4.4,46.9-9.6c8.7-3,13.2-8.3,14.9-17.1c3-15.1,4.1-30.4,4.5-45.8
			C694.2,376.6,690.6,305.8,680,235.3L680,235.3L680,235.3z"/>
		<path class="st28" d="M519.6,235.1H582c-20.6,2.9-24.9,20-32.5,34.7c-20.7,39.8-42.1,79.2-64.2,120.7v-53.4
			c11.7-31.9,30.7-60.1,44.4-91.2c-7.5-2.2-18.2,2.6-25.3-6.1C508.2,234.2,514,234.7,519.6,235.1L519.6,235.1L519.6,235.1z"/>
		<path class="st29" d="M504.4,239.8h33.2c-14.8,36.1-29.3,68.8-52.2,97.4c0-25.9-0.1-51.8-0.1-77.7
			C486.6,248.1,493.2,241.8,504.4,239.8C504.4,239.8,504.4,239.8,504.4,239.8z"/>
		<path class="st30" d="M231.9,756.1c0.1-5,0.2-10,0.3-15c14.3,6.8,17.3,20.1,19.3,34c-2,0.1-4,0.3-5.9,0.4
			C238.4,770.9,232.3,765.5,231.9,756.1L231.9,756.1z"/>
		<path class="st31" d="M680,235.3c14.4,9.6,7.8,24.8,10.3,37.7c15.2,76.8,10.5,153.9,4.3,231c-0.9,11-6.7,11.9-15.7,13.5
			c-49.8,8.9-99.9,2.6-149.9,4.4c21.6-10.1,44.5-4,66.6-4.3c59.5-1,55.6-0.7,60.9-58.7c5.4-59.5-7.5-116.7-10.9-175
			c-0.4-6.6-2.5-12.6-11.7-19.9c-95.1,170.1-178.4,345.4-270.5,516c-8-9.1-0.4-17.2,3.1-23.9c63-119.1,125.7-238.3,186.2-358.8
			c22.8-45.5,50.2-88.8,71-135.1C636.5,234.1,656,233.2,680,235.3L680,235.3L680,235.3z"/>
		<path class="st32" d="M251.6,775.1c-9.7-9.5-13.7-22.2-19.3-34c-0.1-62.4-0.3-124.8-0.1-187.1c0.1-40,16.1-55.9,55.9-56.1
			c36.5-0.2,72.9,0,109.4,0.1c3.2,10.5-3.1,18.9-7.4,27.1c-40.7,77.7-82.2,155-120.1,234.2c-3.1,6.4-5.5,13.7-13.6,16
			C254.8,775.2,253.2,775.1,251.6,775.1L251.6,775.1L251.6,775.1z"/>
		<path class="st30" d="M256.4,775.2c42.5-94.7,93.2-185.2,141.1-277.2c23.4-3.8,23.9,6.5,15,23.6c-32.7,62.7-65.5,125.3-97.6,188.2
			c-8.8,17.2-17.1,34.9-22.7,53.2C285.2,785.4,272.7,783.9,256.4,775.2L256.4,775.2L256.4,775.2z"/>
	</g>
</g>
</svg>
