<svg version="1.1" id="Layer_1" xmlns="http://www.w3.org/2000/svg" xmlns:xlink="http://www.w3.org/1999/xlink" x="0px" y="0px"
	 width="100%" viewBox="0 0 530 169" enable-background="new 0 0 530 169" xml:space="preserve">
<path fill="#FFFFFF" opacity="1.000000" stroke="none" 
	d="
M383.000000,170.000000 
	C255.333359,170.000000 128.166733,170.000000 1.000068,170.000000 
	C1.000046,113.666710 1.000046,57.333420 1.000023,1.000098 
	C177.666580,1.000066 354.333160,1.000066 530.999817,1.000033 
	C530.999878,57.333233 530.999878,113.666466 530.999939,169.999847 
	C481.833344,170.000000 432.666656,170.000000 383.000000,170.000000 
M267.151276,100.787216 
	C268.049805,88.423805 268.948334,76.060394 269.863281,63.471489 
	C262.928101,63.471489 256.564178,63.471489 250.277252,63.471489 
	C249.824249,65.519966 249.445358,67.233246 249.029861,69.112068 
	C233.883881,57.855701 215.115860,59.081577 202.154755,71.901443 
	C188.917130,84.994797 186.567902,106.314400 196.923279,120.214256 
	C201.669922,126.585594 207.905090,130.882278 215.810059,132.240952 
	C226.220215,134.030167 236.298431,133.718323 245.004700,125.450729 
	C245.251984,127.941200 245.421066,129.644226 245.586166,131.306976 
	C252.229019,131.306976 258.472198,131.306976 265.122986,131.306976 
	C265.797699,121.252388 266.452881,111.489395 267.151276,100.787216 
M466.995605,93.530968 
	C473.465912,83.805984 479.936218,74.081001 487.065247,63.365940 
	C483.599335,63.365940 481.425262,63.696480 479.386719,63.310795 
	C468.449005,61.241440 461.425018,65.439491 456.463593,75.436684 
	C452.776794,82.865509 447.327118,89.419441 442.662659,96.363060 
	C442.372650,96.237305 442.082642,96.111549 441.792633,95.985786 
	C442.983398,76.825447 444.174133,57.665100 445.373108,38.372597 
	C438.339874,38.372597 431.968506,38.372597 425.378021,38.372597 
	C423.325745,69.520844 421.297577,100.303337 419.233276,131.634048 
	C422.818939,131.634048 425.946686,131.634033 429.074463,131.634033 
	C439.601929,131.634033 439.532410,131.630356 440.081207,121.308151 
	C440.435608,114.642548 441.030334,107.989731 441.627258,99.828728 
	C448.763916,110.177612 454.954346,119.204590 461.217194,128.181061 
	C462.137939,129.500717 463.355988,131.555695 464.515533,131.610901 
	C471.354889,131.936615 478.217621,131.771301 486.123779,131.771301 
	C479.124542,121.496696 473.016998,112.197830 466.525543,103.175163 
	C464.121674,99.833931 463.601105,97.134972 466.995605,93.530968 
M377.028320,79.290344 
	C384.847076,79.046555 388.693512,82.182915 389.072205,89.866371 
	C389.324982,94.994553 388.883667,100.167091 388.585205,105.310043 
	C388.079315,114.027740 387.440918,122.737747 386.851501,131.551132 
	C394.231506,131.551132 400.806366,131.551132 407.624847,131.551132 
	C408.388519,120.332458 409.123657,109.407288 409.880035,98.483582 
	C410.178894,94.168053 410.629944,89.860680 410.830872,85.541176 
	C411.597565,69.056984 400.224579,59.021385 383.916016,62.539753 
	C377.717712,63.876957 371.953278,67.225388 366.078369,69.621567 
	C366.178406,68.026024 366.311829,65.898170 366.463104,63.484940 
	C359.534271,63.484940 352.843018,63.484940 345.704132,63.484940 
	C344.123291,86.302719 342.564484,108.802544 340.989166,131.540314 
	C348.046722,131.540314 354.593903,131.540314 361.452759,131.540314 
	C362.314941,119.485237 363.261169,107.734566 363.963593,95.969337 
	C364.533844,86.417831 367.199707,82.658150 377.028320,79.290344 
M115.441566,69.994362 
	C122.395027,59.551041 129.348495,49.107723 136.844162,37.850082 
	C129.316086,37.850082 123.008087,37.678185 116.722878,37.980270 
	C115.289810,38.049149 113.501831,39.459538 112.614876,40.756832 
	C106.603676,49.549034 100.801285,58.483791 94.907501,67.356583 
	C92.749130,70.605911 90.525780,73.812065 88.010841,77.510284 
	C79.760284,65.080376 71.985504,53.293488 64.098434,41.582222 
	C63.156467,40.183517 61.652397,38.247509 60.324883,38.178608 
	C53.622738,37.830738 46.892773,38.018715 39.446163,38.018715 
	C40.663200,40.098881 41.340538,41.386223 42.135700,42.596130 
	C52.921688,59.007915 63.820038,75.347473 74.409996,91.884583 
	C75.856613,94.143593 76.403595,97.396416 76.306725,100.151825 
	C75.941093,110.552223 75.137833,120.937225 74.492180,131.429016 
	C81.626457,131.429016 88.152069,131.429016 94.828773,131.429016 
	C95.259392,124.540359 95.698677,118.073044 96.059387,111.601349 
	C96.512146,103.478294 96.977959,95.600128 102.737633,88.778656 
	C107.431931,83.218971 110.982437,76.693535 115.441566,69.994362 
M124.297112,71.782028 
	C116.195602,79.420578 111.979141,88.992371 112.562454,99.932762 
	C114.021980,127.306877 142.061340,141.940216 165.805786,128.034073 
	C173.021790,123.807961 177.787537,117.581596 181.270096,109.372482 
	C177.480743,109.372482 174.645828,109.528786 171.834610,109.337173 
	C167.204086,109.021538 163.494995,109.934990 159.810242,113.457115 
	C153.794113,119.207718 143.004623,119.385712 136.016922,114.851128 
	C131.544846,111.949028 129.469681,107.775032 129.260544,102.016251 
	C147.691681,102.016251 165.620560,102.016251 183.469864,102.016251 
	C185.108978,92.492508 183.675873,84.311081 179.352844,77.674461 
	C166.804047,58.409843 143.325790,55.666443 124.297112,71.782028 
M281.034302,67.478432 
	C279.606415,88.804482 278.178528,110.130539 276.723267,131.865036 
	C282.434143,131.865036 287.271301,131.539581 292.042664,131.960175 
	C296.464935,132.349991 297.676147,130.730560 297.923309,126.479439 
	C299.005096,107.871490 300.451111,89.284897 301.730621,70.688194 
	C302.468994,59.956223 303.141876,49.219749 303.854309,38.331406 
	C296.653381,38.331406 289.928894,38.331406 283.116211,38.331406 
	C282.432709,47.954292 281.772644,57.246540 281.034302,67.478432 
M330.896271,110.459167 
	C331.959900,94.811440 333.023560,79.163712 334.113312,63.131371 
	C328.319244,63.131371 323.332489,63.417068 318.395844,63.042519 
	C314.320923,62.733356 313.383911,64.393051 313.179779,68.105301 
	C312.331757,83.527077 311.175293,98.931664 310.181702,114.345764 
	C309.813660,120.055351 309.582184,125.773735 309.286987,131.516220 
	C316.285431,131.516220 322.670837,131.516220 329.377716,131.516220 
	C329.891296,124.598473 330.381256,117.999191 330.896271,110.459167 
M319.718262,37.981251 
	C318.231323,38.773067 315.615082,39.381580 315.451691,40.388237 
	C314.718506,44.905022 314.682953,49.535034 314.362610,54.652740 
	C320.030304,54.652740 325.312592,54.674030 330.594482,54.637474 
	C331.883636,54.628555 333.171478,54.429920 334.727936,54.295334 
	C335.200531,48.854885 335.651703,43.661411 336.145111,37.981171 
	C330.573639,37.981171 325.623077,37.981171 319.718262,37.981251 
z"/>
<path fill="#4FA086" opacity="1.000000" stroke="none" 
	d="
M267.129669,101.256813 
	C266.452881,111.489395 265.797699,121.252388 265.122986,131.306976 
	C258.472198,131.306976 252.229019,131.306976 245.586166,131.306976 
	C245.421066,129.644226 245.251984,127.941200 245.004700,125.450729 
	C236.298431,133.718323 226.220215,134.030167 215.810059,132.240952 
	C207.905090,130.882278 201.669922,126.585594 196.923279,120.214256 
	C186.567902,106.314400 188.917130,84.994797 202.154755,71.901443 
	C215.115860,59.081577 233.883881,57.855701 249.029861,69.112068 
	C249.445358,67.233246 249.824249,65.519966 250.277252,63.471489 
	C256.564178,63.471489 262.928101,63.471489 269.863281,63.471489 
	C268.948334,76.060394 268.049805,88.423805 267.129669,101.256813 
M234.335037,78.636703 
	C231.054123,78.380463 227.706131,77.576607 224.504608,77.968704 
	C214.110825,79.241676 205.972351,89.966606 207.266724,100.154335 
	C208.599960,110.648048 217.210587,117.810280 227.300552,116.818260 
	C236.059677,115.957092 243.786880,108.681969 245.684250,99.510162 
	C247.380630,91.310020 243.369263,83.522247 234.335037,78.636703 
z"/>
<path fill="#4FA087" opacity="1.000000" stroke="none" 
	d="
M466.789520,93.831848 
	C463.601105,97.134972 464.121674,99.833931 466.525543,103.175163 
	C473.016998,112.197830 479.124542,121.496696 486.123779,131.771301 
	C478.217621,131.771301 471.354889,131.936615 464.515533,131.610901 
	C463.355988,131.555695 462.137939,129.500717 461.217194,128.181061 
	C454.954346,119.204590 448.763916,110.177612 441.627258,99.828728 
	C441.030334,107.989731 440.435608,114.642548 440.081207,121.308151 
	C439.532410,131.630356 439.601929,131.634033 429.074463,131.634033 
	C425.946686,131.634033 422.818939,131.634048 419.233276,131.634048 
	C421.297577,100.303337 423.325745,69.520844 425.378021,38.372597 
	C431.968506,38.372597 438.339874,38.372597 445.373108,38.372597 
	C444.174133,57.665100 442.983398,76.825447 441.792633,95.985786 
	C442.082642,96.111549 442.372650,96.237305 442.662659,96.363060 
	C447.327118,89.419441 452.776794,82.865509 456.463593,75.436684 
	C461.425018,65.439491 468.449005,61.241440 479.386719,63.310795 
	C481.425262,63.696480 483.599335,63.365940 487.065247,63.365940 
	C479.936218,74.081001 473.465912,83.805984 466.789520,93.831848 
z"/>
<path fill="#4FA086" opacity="1.000000" stroke="none" 
	d="
M376.648804,79.395447 
	C367.199707,82.658150 364.533844,86.417831 363.963593,95.969337 
	C363.261169,107.734566 362.314941,119.485237 361.452759,131.540314 
	C354.593903,131.540314 348.046722,131.540314 340.989166,131.540314 
	C342.564484,108.802544 344.123291,86.302719 345.704132,63.484940 
	C352.843018,63.484940 359.534271,63.484940 366.463104,63.484940 
	C366.311829,65.898170 366.178406,68.026024 366.078369,69.621567 
	C371.953278,67.225388 377.717712,63.876957 383.916016,62.539753 
	C400.224579,59.021385 411.597565,69.056984 410.830872,85.541176 
	C410.629944,89.860680 410.178894,94.168053 409.880035,98.483582 
	C409.123657,109.407288 408.388519,120.332458 407.624847,131.551132 
	C400.806366,131.551132 394.231506,131.551132 386.851501,131.551132 
	C387.440918,122.737747 388.079315,114.027740 388.585205,105.310043 
	C388.883667,100.167091 389.324982,94.994553 389.072205,89.866371 
	C388.693512,82.182915 384.847076,79.046555 376.648804,79.395447 
z"/>
<path fill="#4D9F86" opacity="1.000000" stroke="none" 
	d="
M115.240845,70.295341 
	C110.982437,76.693535 107.431931,83.218971 102.737633,88.778656 
	C96.977959,95.600128 96.512146,103.478294 96.059387,111.601349 
	C95.698677,118.073044 95.259392,124.540359 94.828773,131.429016 
	C88.152069,131.429016 81.626457,131.429016 74.492180,131.429016 
	C75.137833,120.937225 75.941093,110.552223 76.306725,100.151825 
	C76.403595,97.396416 75.856613,94.143593 74.409996,91.884583 
	C63.820038,75.347473 52.921688,59.007915 42.135700,42.596130 
	C41.340538,41.386223 40.663200,40.098881 39.446163,38.018715 
	C46.892773,38.018715 53.622738,37.830738 60.324883,38.178608 
	C61.652397,38.247509 63.156467,40.183517 64.098434,41.582222 
	C71.985504,53.293488 79.760284,65.080376 88.010841,77.510284 
	C90.525780,73.812065 92.749130,70.605911 94.907501,67.356583 
	C100.801285,58.483791 106.603676,49.549034 112.614876,40.756832 
	C113.501831,39.459538 115.289810,38.049149 116.722878,37.980270 
	C123.008087,37.678185 129.316086,37.850082 136.844162,37.850082 
	C129.348495,49.107723 122.395027,59.551041 115.240845,70.295341 
z"/>
<path fill="#4E9F86" opacity="1.000000" stroke="none" 
	d="
M124.557068,71.542023 
	C143.325790,55.666443 166.804047,58.409843 179.352844,77.674461 
	C183.675873,84.311081 185.108978,92.492508 183.469864,102.016251 
	C165.620560,102.016251 147.691681,102.016251 129.260544,102.016251 
	C129.469681,107.775032 131.544846,111.949028 136.016922,114.851128 
	C143.004623,119.385712 153.794113,119.207718 159.810242,113.457115 
	C163.494995,109.934990 167.204086,109.021538 171.834610,109.337173 
	C174.645828,109.528786 177.480743,109.372482 181.270096,109.372482 
	C177.787537,117.581596 173.021790,123.807961 165.805786,128.034073 
	C142.061340,141.940216 114.021980,127.306877 112.562454,99.932762 
	C111.979141,88.992371 116.195602,79.420578 124.557068,71.542023 
M137.650650,89.866264 
	C147.243134,89.866264 156.835632,89.866264 166.501266,89.866264 
	C164.829620,80.727684 158.049194,75.666763 148.417831,75.994682 
	C140.124573,76.277039 131.933212,82.743706 131.265121,89.866150 
	C133.095337,89.866150 134.899994,89.866150 137.650650,89.866264 
z"/>
<path fill="#4EA086" opacity="1.000000" stroke="none" 
	d="
M281.073456,67.008606 
	C281.772644,57.246540 282.432709,47.954292 283.116211,38.331406 
	C289.928894,38.331406 296.653381,38.331406 303.854309,38.331406 
	C303.141876,49.219749 302.468994,59.956223 301.730621,70.688194 
	C300.451111,89.284897 299.005096,107.871490 297.923309,126.479439 
	C297.676147,130.730560 296.464935,132.349991 292.042664,131.960175 
	C287.271301,131.539581 282.434143,131.865036 276.723267,131.865036 
	C278.178528,110.130539 279.606415,88.804482 281.073456,67.008606 
z"/>
<path fill="#4FA087" opacity="1.000000" stroke="none" 
	d="
M330.883728,110.929543 
	C330.381256,117.999191 329.891296,124.598473 329.377716,131.516220 
	C322.670837,131.516220 316.285431,131.516220 309.286987,131.516220 
	C309.582184,125.773735 309.813660,120.055351 310.181702,114.345764 
	C311.175293,98.931664 312.331757,83.527077 313.179779,68.105301 
	C313.383911,64.393051 314.320923,62.733356 318.395844,63.042519 
	C323.332489,63.417068 328.319244,63.131371 334.113312,63.131371 
	C333.023560,79.163712 331.959900,94.811440 330.883728,110.929543 
z"/>
<path fill="#53A289" opacity="1.000000" stroke="none" 
	d="
M320.195374,37.981209 
	C325.623077,37.981171 330.573639,37.981171 336.145111,37.981171 
	C335.651703,43.661411 335.200531,48.854885 334.727936,54.295334 
	C333.171478,54.429920 331.883636,54.628555 330.594482,54.637474 
	C325.312592,54.674030 320.030304,54.652740 314.362610,54.652740 
	C314.682953,49.535034 314.718506,44.905022 315.451691,40.388237 
	C315.615082,39.381580 318.231323,38.773067 320.195374,37.981209 
z"/>
<path fill="#FDFEFE" opacity="1.000000" stroke="none" 
	d="
M234.710022,78.784592 
	C243.369263,83.522247 247.380630,91.310020 245.684250,99.510162 
	C243.786880,108.681969 236.059677,115.957092 227.300552,116.818260 
	C217.210587,117.810280 208.599960,110.648048 207.266724,100.154335 
	C205.972351,89.966606 214.110825,79.241676 224.504608,77.968704 
	C227.706131,77.576607 231.054123,78.380463 234.710022,78.784592 
z"/>
<path fill="#F8FBFA" opacity="1.000000" stroke="none" 
	d="
M137.177643,89.866211 
	C134.899994,89.866150 133.095337,89.866150 131.265121,89.866150 
	C131.933212,82.743706 140.124573,76.277039 148.417831,75.994682 
	C158.049194,75.666763 164.829620,80.727684 166.501266,89.866264 
	C156.835632,89.866264 147.243134,89.866264 137.177643,89.866211 
z"/>
</svg>