<?xml version="1.0" encoding="utf-8"?>
<!-- Generator: Adobe Illustrator 27.6.1, SVG Export Plug-In . SVG Version: 6.00 Build 0)  -->
<svg version="1.1" id="Layer_2_00000140012763550781317980000013883141798253768108_"
	 xmlns="http://www.w3.org/2000/svg" xmlns:xlink="http://www.w3.org/1999/xlink" x="0px" y="0px" viewBox="0 0 1000 1000"
	 style="enable-background:new 0 0 1000 1000;" xml:space="preserve">
<style type="text/css">
	.st0{fill:none;}
	.st1{fill:#4A8CFF;}
	.st2{fill:#FFFFFF;}
</style>
<g id="Layer_1-2">
	<rect class="st0" width="1000" height="1000"/>
	<g>
		<circle class="st1" cx="500" cy="500" r="500"/>
		<path class="st2" d="M179.2,343.5v235c0.3,53.1,43.5,95.9,96.5,95.7h342.5c9.6,0,17.5-7.7,17.6-17.4v-235
			c-0.3-53.1-43.5-95.9-96.5-95.7H196.9C187.2,326,179.3,333.7,179.2,343.5C179.2,343.4,179.2,343.4,179.2,343.5L179.2,343.5z
			 M657.6,435.1L799,331.8c12.3-10.2,21.8-7.6,21.8,10.8v315c0,21-11.6,18.4-21.8,10.8L657.6,565.3L657.6,435.1z"/>
	</g>
</g>
</svg>
